<?xml version="1.0" encoding="UTF-8" standalone="no"?>
<!-- Created with Inkscape (http://www.inkscape.org/) -->

<svg
   width="210mm"
   height="297mm"
   viewBox="0 0 210 297"
   version="1.1"
   id="svg1"
   xml:space="preserve"
   inkscape:version="1.4.2 (ebf0e94, 2025-05-08)"
   sodipodi:docname="ammodytes_tobianus.svg"
   xmlns:inkscape="http://www.inkscape.org/namespaces/inkscape"
   xmlns:sodipodi="http://sodipodi.sourceforge.net/DTD/sodipodi-0.dtd"
   xmlns="http://www.w3.org/2000/svg"
   xmlns:svg="http://www.w3.org/2000/svg"><sodipodi:namedview
     id="namedview1"
     pagecolor="#ffffff"
     bordercolor="#000000"
     borderopacity="0.25"
     inkscape:showpageshadow="2"
     inkscape:pageopacity="0.0"
     inkscape:pagecheckerboard="0"
     inkscape:deskcolor="#d1d1d1"
     inkscape:document-units="mm"
     inkscape:zoom="0.5007929"
     inkscape:cx="576.08644"
     inkscape:cy="604.04211"
     inkscape:window-width="2560"
     inkscape:window-height="1369"
     inkscape:window-x="1912"
     inkscape:window-y="-8"
     inkscape:window-maximized="1"
     inkscape:current-layer="layer1" /><defs
     id="defs1" /><g
     inkscape:label="Layer 1"
     inkscape:groupmode="layer"
     id="layer1"><path
       style="fill:#000000;stroke-width:1.42858"
       d="m 45.749764,130.12624 c 0.0841,0.009 2.17959,-0.16566 4.71052,-0.23513 2.53094,-0.0694 4.98382,-0.1748 5.45082,-0.23404 0.46701,-0.0593 2.59585,-0.22359 4.73075,-0.3652 2.1349,-0.14158 5.84671,-0.39674 8.24847,-0.56692 2.40176,-0.17018 7.31446,-0.30941 10.9171,-0.30941 3.60263,0 8.78826,-0.0814 11.52361,-0.18108 2.73533,-0.0996 11.032326,-0.24659 18.437766,-0.32665 7.40543,-0.08 14.82905,-0.21691 16.49695,-0.30411 2.40985,-0.126 17.93143,-0.15122 20.01467,-0.0326 2.06386,0.11758 16.52517,-0.40378 16.85508,-0.60767 0.11817,-0.073 0.28342,-0.0219 0.36723,0.11371 0.0838,0.13558 0.31614,0.24656 0.51629,0.24656 0.20014,0 0.29218,-0.116 0.20453,-0.25786 -0.1081,-0.1749 0.1664,-0.20927 0.85317,-0.10685 0.63659,0.095 1.14104,0.0443 1.35866,-0.13629 0.20534,-0.17042 0.65606,-0.22527 1.10807,-0.13486 0.41906,0.0839 0.88277,0.0574 1.03045,-0.0586 0.44244,-0.34753 1.60246,-0.47876 1.60655,-0.18174 0.002,0.16261 0.0829,0.1448 0.20323,-0.0449 0.10973,-0.17297 0.62662,-0.35295 1.14864,-0.39993 0.52203,-0.047 1.00372,-0.11372 1.07044,-0.14832 0.0667,-0.0346 0.44881,-0.0967 0.84911,-0.138 1.08932,-0.11243 3.83681,-0.53686 6.42896,-0.99325 2.31627,-0.40782 9.76731,-0.61008 9.55081,-0.25926 -0.1368,0.22166 1.32096,0.61923 2.02668,0.55273 0.2965,-0.028 0.48577,0.0354 0.4206,0.141 -0.17746,0.28714 0.12843,0.40551 1.46633,0.56748 0.78997,0.0956 1.04379,0.0721 0.7278,-0.0673 -0.26686,-0.11785 -0.59437,-0.15723 -0.7278,-0.0876 -0.14917,0.0779 -0.14636,0.0213 0.007,-0.14683 0.26723,-0.29233 1.95403,0.0353 2.40658,0.46733 0.29844,0.28495 1.34645,0.28616 1.34645,0.001 0,-0.12014 -0.4094,-0.33576 -0.90976,-0.47907 -0.90976,-0.26056 -0.90976,-0.26056 0,-0.1454 2.37144,0.30018 2.69918,0.32978 2.29429,0.20724 -1.01998,-0.30874 -1.78409,-0.81679 -1.23086,-0.81839 0.65269,-0.001 0.96393,-1.13417 0.35645,-1.29675 -0.21385,-0.0573 -0.0613,-0.11843 0.33898,-0.13586 0.50685,-0.0221 0.62788,-0.0951 0.39866,-0.24042 -0.23322,-0.14777 -0.24974,-0.25764 -0.0567,-0.37694 0.14985,-0.0926 0.20965,-0.27003 0.13288,-0.39423 -0.0768,-0.12429 0.1125,-0.23352 0.4206,-0.24289 0.51373,-0.0157 0.52084,-0.0324 0.0857,-0.20263 -0.47086,-0.18417 -0.47086,-0.18769 0,-0.46372 0.41163,-0.24131 0.42627,-0.31329 0.11054,-0.54365 -0.27419,-0.20005 -0.28914,-0.29584 -0.0606,-0.38856 0.43658,-0.17714 0.37306,-0.514 -0.1213,-0.64319 -0.35866,-0.0937 -0.34925,-0.11585 0.0606,-0.14285 0.41087,-0.027 0.42946,-0.0713 0.1213,-0.28922 -0.28324,-0.20032 -0.29448,-0.28537 -0.0507,-0.38373 0.22706,-0.0916 0.17426,-0.2469 -0.19192,-0.56449 -0.27784,-0.24097 -0.38893,-0.47688 -0.24686,-0.52422 0.51846,-0.17283 0.60614,-1.90137 0.0966,-1.90553 -0.3834,-0.003 -0.39816,-0.0413 -0.0924,-0.23888 1.28209,-0.82855 -1.79796,0.0233 -7.39697,2.04578 -2.25949,0.81618 -17.73664,-1.06789 -22.68569,-2.05694 -1.88859,-0.38162 -4.88023,-0.71789 -7.52067,-0.84536 -1.40102,-0.0676 -4.18488,-0.27801 -6.18636,-0.46749 -3.97151,-0.37599 -6.96966,-0.54151 -13.46442,-0.74329 -7.56142,-0.23493 -17.20708,-0.60277 -19.04426,-0.72624 -0.53373,-0.0359 -1.89837,-0.0787 -3.03254,-0.0951 -1.42891,-0.0207 -1.95037,-0.10215 -1.69821,-0.26509 0.31099,-0.20099 0.30217,-0.23572 -0.0607,-0.23889 -0.2335,-0.001 -0.42456,0.088 -0.42456,0.19999 0,0.112 -0.57315,0.17814 -1.27365,0.1469 -0.70052,-0.0313 -7.11066,-0.131 -14.24475,-0.22184 -7.134096,-0.0907 -13.047466,-0.21225 -13.140806,-0.26995 -0.0933,-0.0577 -0.42452,-0.009 -0.73593,0.10943 -0.31142,0.11786 -1.98545,0.2285 -3.72004,0.24586 -1.73462,0.0173 -5.77395,0.13986 -8.97628,0.27222 -3.20235,0.13243 -7.53777,0.29234 -9.63427,0.35547 -2.09649,0.0631 -4.06156,0.16663 -4.36683,0.23 -0.30528,0.0634 -3.28431,0.17729 -6.62009,0.25315 -14.499,0.32971 -16.83178,0.42299 -18.43778,0.73726 -0.934,0.18279 -2.73533,0.45705 -4.00292,0.60947 -1.2676,0.15243 -2.95975,0.42205 -3.76035,0.59915 -0.80057,0.1771 -2.49273,0.44915 -3.76032,0.60453 -1.2676,0.15541 -2.90517,0.43089 -3.63904,0.61221 -0.73386,0.18131 -2.31685,0.467 -3.51773,0.63488 -1.20088,0.16785 -2.29258,0.32283 -2.42601,0.34435 -0.13343,0.0216 -0.37908,0.0559 -0.54587,0.0762 -0.46113,0.0561 -0.36324,0.47849 0.21999,0.94908 2.98809,2.41096 2.89681,3.14308 -0.30624,2.45614 -1.62683,-0.34889 -2.72221,-0.124 -3.13281,0.64324 -0.45955,0.85867 -0.33449,0.92503 3.88623,2.06232 2.06817,0.55729 4.52451,1.22457 5.45854,1.48284 9.62895,2.66255 5.00783,2.51201 10.62637,3.11744 z"
       id="path1"
       sodipodi:nodetypes="sssssscssssssscssssssscssccccscssssscscssscssssscsssscssscssssscsscscccssssssssssssssssss" /></g></svg>
