
        <svg xmlns:rdf="http://www.w3.org/1999/02/22-rdf-syntax-ns#" xmlns="http://www.w3.org/2000/svg" xmlns:cc="http://creativecommons.org/ns#" xmlns:xlink="http://www.w3.org/1999/xlink" xmlns:dc="http://purl.org/dc/elements/1.1/" x="0px" y="0px" width="501" height="68" viewBox="0 0 501 68" xml:space="preserve">
            <title>Ammodytes dubius (Northern Sand Lance)</title>
            <desc xmlns:ian_image_library="https://ian.umces.edu/media-library/">
                <ian_image_library:title>Ammodytes dubius (Northern Sand Lance)</ian_image_library:title>
                <ian_image_library:descr>Illustration of Ammodytes dubius (Northern Sand Lance)</ian_image_library:descr>
                <ian_image_library:scene>
                    <ian_image_library:contains>fish, Animalia, Chordata, Actinopterygii, Perciformes, Ammodytidae, Ammodytes dubius, Northern Sand Lance, </ian_image_library:contains>
                    <ian_image_library:when>2011-04-05</ian_image_library:when>
                </ian_image_library:scene>
            </desc>
            <metadata id="metadata-iil-efbaa95c7df6bd24b101052a906cff8a">
                <rdf:RDF>
                <cc:Work
                rdf:about="">
                <dc:format>image/svg+xml</dc:format>
                <dc:type
                rdf:resource="http://purl.org/dc/dcmitype/StillImage" />
                <cc:license
                rdf:resource="http://creativecommons.org/licenses/by-sa/3.0/" />
                <dc:title>Ammodytes dubius (Northern Sand Lance)</dc:title>
                <dc:date>2011-04-05</dc:date>
                <dc:creator>
                    <cc:Agent>
                        <dc:title></dc:title>
                    </cc:Agent>
                </dc:creator>
                <dc:rights>
                <cc:Agent>
                    <dc:title></dc:title>
                </cc:Agent>
                </dc:rights>
                <dc:publisher>
                <cc:Agent>
                    <dc:title>Integration and Application Network</dc:title>
                </cc:Agent>
                </dc:publisher>
                <dc:identifier>https://ian.umces.edu/media-library/ammodytes-dubius-northern-sand-lance/</dc:identifier>
                <dc:source>https://ian.umces.edu/media-library/ammodytes-dubius-northern-sand-lance/</dc:source>
                <dc:language>en-US</dc:language>
                <dc:subject>
                <rdf:Bag>
                    <rdf:li>fish, Animalia, Chordata, Actinopterygii, Perciformes, Ammodytidae, Ammodytes dubius, Northern Sand Lance, </rdf:li>
                </rdf:Bag>
                </dc:subject>
                <dc:coverage></dc:coverage>
                <dc:description>Illustration of Ammodytes dubius (Northern Sand Lance)</dc:description>
                <dc:contributor>
                <cc:Agent>
                    <dc:title></dc:title>
                </cc:Agent>
                </dc:contributor>
            </cc:Work>
            <cc:License
                rdf:about="http://creativecommons.org/licenses/by-sa/3.0/">
                <cc:permits
                rdf:resource="http://creativecommons.org/ns#Reproduction" />
                <cc:permits
                rdf:resource="http://creativecommons.org/ns#Distribution" />
                <cc:requires
                rdf:resource="http://creativecommons.org/ns#Notice" />
                <cc:requires
                rdf:resource="http://creativecommons.org/ns#Attribution" />
                <cc:permits
                rdf:resource="http://creativecommons.org/ns#DerivativeWorks" />
                <cc:requires
                rdf:resource="http://creativecommons.org/ns#ShareAlike" />
            </cc:License>
            </rdf:RDF>
            </metadata>
            
<defs>
</defs>
<polygon fill="#818795" points="23.334,23.678 6.792,26.291 25.946,30.643 36.829,30.208 "/>
<linearGradient id="ian_symbols_500779133df875e48d9a4a342b836afd" gradientUnits="userSpaceOnUse" x1="293.2266" y1="56.354" x2="444.6709" y2="56.354">
	<stop  offset="0" style="stop-color:#A7ACB1"/>
	<stop  offset="1" style="stop-color:#9AA0C1"/>
</linearGradient>
<path fill="url(#ian_symbols_500779133df875e48d9a4a342b836afd)" d="M293.227,48.056c0,0,7.836,10.011,12.624,13.494c4.789,3.483,21.765,5.658,31.777,5.224
	s47.448-2.61,56.155-3.481s47.885-9.142,50.496-10.013c2.612-0.871-8.706-7.4-8.706-7.4L293.227,48.056z"/>
<linearGradient id="ian_symbols_9115058be64721d4e53186a60d58c428" gradientUnits="userSpaceOnUse" x1="109.9609" y1="17.9341" x2="446.752" y2="17.9341">
	<stop  offset="0" style="stop-color:#888D8A"/>
	<stop  offset="1" style="stop-color:#49645A"/>
</linearGradient>
<path fill="url(#ian_symbols_9115058be64721d4e53186a60d58c428)" d="M109.961,10.184l7.836-5.659c0,0,3.918-3.482,8.707-3.918c4.788-0.436,76.179-1.307,99.686,0.435
	c23.507,1.741,63.554,5.224,80.968,6.095c7.209,0.36,32.024,2.548,58.757,6.612c37.841,5.752,79.522,13.953,80.543,14.718
	c1.74,1.306-4.789,7.401-4.789,7.401L109.961,10.184z"/>
<linearGradient id="ian_symbols_f688588fa68c4814c9d838ce0d212bd3" gradientUnits="userSpaceOnUse" x1="0" y1="35.4985" x2="500" y2="35.4985">
	<stop  offset="0" style="stop-color:#F0F5FC"/>
	<stop  offset="0.3091" style="stop-color:#BAC6E6"/>
	<stop  offset="0.8485" style="stop-color:#9CAEC6"/>
	<stop  offset="1" style="stop-color:#575A60"/>
</linearGradient>
<path fill="url(#ian_symbols_f688588fa68c4814c9d838ce0d212bd3)" d="M28.993,27.161c0,0-10.327-0.091-13.25-0.305c-2.922-0.213-11.127-3.178-11.127-3.178
	S0,22.711,0,24.452c0,1.741,10.711,6.191,19.417,7.498c4.202,0.63,9.431,1.273,17.123,3.414c8.245,2.295,19.126,6.118,28.584,7.469
	c18.283,2.611,101.426,6.529,133.64,8.271c32.213,1.74,131.029,2.177,164.112,0.871s77.05-3.483,77.05-3.483
	s6.966-2.176,11.319-0.435c4.353,1.741,20.458,5.657,27.859,10.011c7.4,4.354,17.848,4.354,19.153,3.049
	c1.307-1.307-14.365-15.236-14.365-15.236l-1.306-2.612c0,0-0.872-3.048,3.481-5.224C490.424,35.868,500,23.243,500,23.243
	s-4.787-0.436-10.883,0c-6.095,0.436-29.602,10.013-33.519,11.319c-3.918,1.306-4.788,0-12.188-0.437
	c-7.4-0.436-20.896-6.529-51.367-9.141c-30.472-2.612-109.263-9.577-134.075-10.012c-24.813-0.436-34.391,0-56.156-1.306
	c-21.765-1.306-95.768-4.354-95.768-4.354s-38.743-0.436-49.19,0c-10.448,0.436-34.389,3.917-38.743,4.788s-9.142,3.047-9.142,3.047
	L28.993,27.161z"/>
<linearGradient id="ian_symbols_8dfd9094f99051f4c5f427166e09dbd3" gradientUnits="userSpaceOnUse" x1="247.7402" y1="58.9976" x2="252.7608" y2="1.6123">
	<stop  offset="0.2303" style="stop-color:#CEDADD"/>
	<stop  offset="0.4727" style="stop-color:#9AA0C1"/>
	<stop  offset="0.6788" style="stop-color:#60716F"/>
</linearGradient>
<path opacity="0.3" fill="url(#ian_symbols_8dfd9094f99051f4c5f427166e09dbd3)" d="M28.993,27.161c0,0-10.327-0.091-13.25-0.305c-2.922-0.213-11.127-3.178-11.127-3.178
	S0,22.711,0,24.452c0,1.741,10.711,6.191,19.417,7.498c4.202,0.63,9.431,1.273,17.123,3.414c8.245,2.295,19.126,6.118,28.584,7.469
	c18.283,2.611,101.426,6.529,133.64,8.271c32.213,1.74,131.029,2.177,164.112,0.871s77.05-3.483,77.05-3.483
	s6.966-2.176,11.319-0.435c4.353,1.741,20.458,5.657,27.859,10.011c7.4,4.354,17.848,4.354,19.153,3.049
	c1.307-1.307-14.365-15.236-14.365-15.236l-1.306-2.612c0,0-0.872-3.048,3.481-5.224C490.424,35.868,500,23.243,500,23.243
	s-4.787-0.436-10.883,0c-6.095,0.436-29.602,10.013-33.519,11.319c-3.918,1.306-4.788,0-12.188-0.437
	c-7.4-0.436-20.896-6.529-51.367-9.141c-30.472-2.612-109.263-9.577-134.075-10.012c-24.813-0.436-34.391,0-56.156-1.306
	c-21.765-1.306-95.768-4.354-95.768-4.354s-38.743-0.436-49.19,0c-10.448,0.436-34.389,3.917-38.743,4.788s-9.142,3.047-9.142,3.047
	L28.993,27.161z"/>
<path fill="#262223" d="M47.302,20.168c0,3.379-2.916,6.123-6.511,6.123s-6.511-2.744-6.511-6.123c0-3.382,2.916-6.125,6.511-6.125
	S47.302,16.786,47.302,20.168z"/>
<linearGradient id="ian_symbols_defd7fd42fdb4c249d7773f2fdfb1744" gradientUnits="userSpaceOnUse" x1="991.3867" y1="1740.6763" x2="1048.1104" y2="1740.6763" gradientTransform="matrix(0.2 0 0 -0.2 -163.0392 368.3571)">
	<stop  offset="0.0959" style="stop-color:#CED6E6"/>
	<stop  offset="1" style="stop-color:#C3E0F1"/>
</linearGradient>
<path fill="url(#ian_symbols_defd7fd42fdb4c249d7773f2fdfb1744)" d="M46.583,20.224c0,2.943-2.541,5.332-5.672,5.332s-5.672-2.389-5.672-5.332
	c0-2.948,2.541-5.337,5.672-5.337S46.583,17.276,46.583,20.224z"/>
<path fill="#262223" d="M44.237,20.271c0,1.772-1.489,3.21-3.333,3.21c-1.841,0-3.326-1.438-3.326-3.21
	c0-1.771,1.485-3.208,3.326-3.208C42.748,17.062,44.237,18.499,44.237,20.271z"/>
<path fill="#FFFFFF" d="M39.865,18.332c0,0.482-0.406,0.873-0.908,0.873c-0.501,0-0.906-0.391-0.906-0.873
	c0-0.481,0.405-0.872,0.906-0.872C39.459,17.46,39.865,17.851,39.865,18.332z"/>
<linearGradient id="ian_symbols_e32a2f78f6c087a431394787b460688b" gradientUnits="userSpaceOnUse" x1="7.981" y1="22.8809" x2="34.48" y2="22.8809">
	<stop  offset="0.0667" style="stop-color:#CED6E6"/>
	<stop  offset="1" style="stop-color:#A2ACBD"/>
</linearGradient>
<path fill="url(#ian_symbols_e32a2f78f6c087a431394787b460688b)" d="M8.445,16.068c-1.659,0.664,1.658,1.991,1.658,1.991s2.812,1.611,4.956,2.549
	c2.144,0.938,8.829,4.269,9.974,5.082c1.146,0.813,1.659,1.991,3.982,3.318c2.322,1.327,4.313,0.663,5.308,0.331
	c0.996-0.331-2.985-2.985-4.976-4.312c-1.991-1.327-16.197-7.092-17.252-7.631C11.04,16.856,9.298,15.584,8.445,16.068z"/>
<linearGradient id="ian_symbols_29b49d4a054d7bf49514ec60ef9de921" gradientUnits="userSpaceOnUse" x1="88.0991" y1="38.1587" x2="127.8091" y2="38.1587">
	<stop  offset="0.2667" style="stop-color:#9CAEC6"/>
	<stop  offset="1" style="stop-color:#575A60"/>
</linearGradient>
<path fill="url(#ian_symbols_29b49d4a054d7bf49514ec60ef9de921)" d="M127.809,34.562c0,0-17.847-2.177-26.119-0.871c-8.271,1.306-13.495,1.305-13.495,3.047
	s-0.871,3.482,2.612,4.789c3.482,1.306,10.447,2.177,16.542,0.871C113.444,41.091,127.809,34.562,127.809,34.562z"/>
<linearGradient id="ian_symbols_8119c65aaf044cb459a8f730055165a3" gradientUnits="userSpaceOnUse" x1="67.5503" y1="29.5405" x2="93.8081" y2="29.5405">
	<stop  offset="0.0667" style="stop-color:#CED6E6"/>
	<stop  offset="1" style="stop-color:#A2ACBD"/>
</linearGradient>
<path fill="url(#ian_symbols_8119c65aaf044cb459a8f730055165a3)" d="M90.396,33.355c3.101-2.128,4.009-5.509,3.044-9.652c-0.636-2.73-4.444-8.548-7.312-8.214
	c4.013,2.985,5.526,7.458,4.657,12.108c-0.676,3.616-4.035,5.056-8.999,7.075c-4.579,1.864-8.6,4.882-12.841,7.607
	c-0.455,0.292-0.921,0.582-1.395,0.863c1.293,0.152,2.767,0.307,4.417,0.465C77.18,38.39,84.564,37.357,90.396,33.355z"/>
</svg>
