<?xml version="1.0" encoding="UTF-8" standalone="no"?>
<!-- Created with Inkscape (http://www.inkscape.org/) -->

<svg
   width="210mm"
   height="297mm"
   viewBox="0 0 210 297"
   version="1.1"
   id="svg1"
   xml:space="preserve"
   inkscape:version="1.4.2 (ebf0e94, 2025-05-08)"
   sodipodi:docname="aphrodita_aculeata.svg"
   xmlns:inkscape="http://www.inkscape.org/namespaces/inkscape"
   xmlns:sodipodi="http://sodipodi.sourceforge.net/DTD/sodipodi-0.dtd"
   xmlns="http://www.w3.org/2000/svg"
   xmlns:svg="http://www.w3.org/2000/svg"><sodipodi:namedview
     id="namedview1"
     pagecolor="#ffffff"
     bordercolor="#000000"
     borderopacity="0.25"
     inkscape:showpageshadow="2"
     inkscape:pageopacity="0.0"
     inkscape:pagecheckerboard="0"
     inkscape:deskcolor="#d1d1d1"
     inkscape:document-units="mm"
     inkscape:zoom="0.70822811"
     inkscape:cx="396.76482"
     inkscape:cy="333.93196"
     inkscape:window-width="1920"
     inkscape:window-height="991"
     inkscape:window-x="-9"
     inkscape:window-y="-9"
     inkscape:window-maximized="1"
     inkscape:current-layer="layer1" /><defs
     id="defs1" /><g
     inkscape:label="Layer 1"
     inkscape:groupmode="layer"
     id="layer1"><path
       style="fill:#000000;stroke-width:1.28365"
       d="m 57.585619,169.27134 c 0.104155,-0.93398 0.204744,-2.3463 0.223524,-3.13847 0.01878,-0.79218 0.218956,-1.62512 0.444836,-1.851 0.697316,-0.69731 0.462553,-0.95411 -0.872268,-0.95411 -1.906243,0 -2.792635,0.76709 -2.792635,2.41673 0,0.81973 -0.13482,1.276 -0.339633,1.14942 -0.429711,-0.26557 -0.432767,0.22027 -0.0083,1.33643 0.510234,1.34202 0.104386,1.03226 -0.691475,-0.52775 -0.855259,-1.67645 -1.206098,-1.44905 -1.647957,1.06813 l -0.326351,1.85915 0.06348,-1.9534 c 0.0731,-2.24996 -0.557285,-2.52367 -0.720232,-0.31272 -0.05744,0.77937 -0.248484,1.41705 -0.424541,1.41705 -0.411431,0 -0.403194,-0.50937 0.04457,-2.75562 0.200568,-1.00619 0.399924,-2.01605 0.443014,-2.24415 0.04309,-0.22809 0.184658,-0.52102 0.314596,-0.65096 0.779853,-0.77985 -0.654518,-1.09247 -2.242458,-0.48873 -0.854592,0.32491 -1.429695,1.57756 -0.880194,1.91716 0.485079,0.2998 -0.04323,0.8964 -0.603438,0.68143 -0.489674,-0.1879 -0.457818,0.17119 0.160887,1.81351 0.109431,0.29049 0.03371,0.38926 -0.191645,0.24999 -0.204915,-0.1267 -0.555934,-0.78585 -0.780041,-1.46491 -0.368745,-1.1173 -0.443031,-1.17334 -0.781662,-0.58963 -0.205807,0.35476 -0.47665,1.48561 -0.601875,2.51301 -0.217683,1.78594 -0.225461,1.75947 -0.177107,-0.60275 0.04203,-2.05308 -0.02119,-2.37223 -0.373965,-1.88799 -0.233499,0.32052 -0.435284,0.89743 -0.448413,1.28202 -0.01313,0.3846 -0.168563,1.00494 -0.345409,1.37853 -0.226858,0.47924 -0.26984,0.12921 -0.145971,-1.18871 0.276487,-2.94175 0.508075,-3.82436 1.127189,-4.29595 0.490299,-0.37347 0.347627,-0.41194 -0.951571,-0.25659 -3.623278,0.43325 -5.304376,1.55024 -4.955845,3.29289 0.104913,0.52458 0.05996,0.87295 -0.09989,0.77415 -0.159858,-0.0988 -0.382988,-0.64132 -0.495844,-1.20561 -0.363289,-1.81643 -1.02641,-1.09861 -1.87599,2.03074 -0.261022,0.96144 -0.325728,1.02638 -0.338445,0.33963 -0.0086,-0.467 0.204519,-1.46043 0.473705,-2.20762 0.637686,-1.77005 0.63603,-1.77486 -0.306251,-0.88964 -0.443249,0.41641 -1.089254,1.38545 -1.435564,2.15344 l -0.629657,1.39633 -0.895635,-1.98848 c -0.884226,-1.96314 -0.901396,-1.97793 -1.347805,-1.16024 -0.248694,0.45553 -0.556039,1.43956 -0.682988,2.18676 -0.221969,1.30645 -0.232448,1.3158 -0.273328,0.24382 -0.02338,-0.6131 0.188748,-1.6682 0.471397,-2.34467 0.28265,-0.67648 0.453093,-1.29077 0.378763,-1.3651 -0.234355,-0.23435 -2.266698,2.42625 -2.128474,2.78644 0.07249,0.1889 -0.101935,0.56178 -0.387586,0.82862 -0.459873,0.42959 -0.493169,0.38075 -0.290607,-0.42632 0.125823,-0.50134 0.09213,-0.9115 -0.07488,-0.9115 -0.167007,0 -0.406426,-0.49672 -0.53204,-1.10381 -0.217758,-1.05242 -0.251358,-1.07312 -0.721721,-0.44454 -0.27133,0.3626 -0.493329,0.93573 -0.493329,1.27362 0,0.3379 -0.152834,0.61436 -0.339633,0.61436 -0.479784,0 -0.422176,-0.55338 0.178538,-1.71504 0.284994,-0.55111 0.3851,-1.00203 0.222456,-1.00203 -0.397908,0 -1.216551,0.96478 -1.873236,2.20761 -0.486583,0.92092 -0.539667,0.94541 -0.551958,0.25473 -0.0074,-0.42029 -0.166433,-0.76417 -0.35323,-0.76417 -0.186799,0 -0.321535,-0.11463 -0.299415,-0.25473 0.02212,-0.1401 0.02212,-0.55493 0,-0.92185 -0.03765,-0.62446 -0.07667,-0.63069 -0.610104,-0.0973 -0.313436,0.31342 -0.688393,1.22497 -0.833237,2.02566 l -0.263351,1.45578 0.116453,-1.52834 c 0.06404,-0.8406 0.226768,-1.79755 0.361602,-2.12656 0.479046,-1.16895 -0.827622,-0.22255 -1.698381,1.23011 -0.463504,0.77324 -0.84418,1.26649 -0.845946,1.09609 -0.006,-0.58248 1.722836,-3.25634 2.105506,-3.25634 0.210057,0 0.288831,-0.0931 0.175055,-0.20687 -0.317668,-0.31767 -2.300254,1.21788 -2.623469,2.03192 -0.260766,0.65675 -0.308759,0.62026 -0.529676,-0.40284 -0.28272,-1.30931 -0.652344,-1.08742 -1.378891,0.82779 l -0.499289,1.31614 0.156165,-1.18871 c 0.08589,-0.65379 0.268553,-1.49439 0.405915,-1.86799 0.180659,-0.49135 -0.09322,-0.35546 -0.990004,0.49117 -0.681866,0.64374 -1.239755,1.36971 -1.239755,1.61325 0,0.24356 -0.152836,0.44284 -0.339633,0.44284 -0.542082,0 -0.408336,-0.32496 0.720209,-1.74986 0.582914,-0.736 0.964399,-1.43361 0.847744,-1.55027 -0.27089,-0.27089 -1.907587,1.25151 -1.907587,1.77437 0,0.21651 -0.226825,0.39364 -0.504056,0.39364 -0.372978,0 -0.409536,-0.11386 -0.140578,-0.43797 0.199914,-0.24088 0.24447,-0.63053 0.09901,-0.86587 -0.17851,-0.28884 -0.461088,0.0103 -0.869415,0.9191 -0.332722,0.74088 -0.608956,1.11189 -0.613854,0.82449 -0.0049,-0.28741 0.279227,-1.0877 0.631391,-1.77846 l 0.640298,-1.2559 -1.006809,0.71691 c -0.553746,0.3943 -1.087483,0.92714 -1.186086,1.18409 -0.293836,0.76573 -0.735851,0.52934 -0.555339,-0.29698 0.163851,-0.75005 0.153306,-0.74849 -0.570718,0.0848 -0.405708,0.46699 -0.622901,0.63205 -0.482649,0.36681 0.194886,-0.36856 0.101883,-0.4235 -0.394496,-0.23302 -0.473687,0.18178 -0.373848,-0.0451 0.368827,-0.83811 l 1.018325,-1.08734 -0.934232,0.59541 c -0.513828,0.32748 -1.2559128,0.99806 -1.6490768,1.49019 l -0.7148445,0.89477 0.5796101,-1.0189 c 0.3187864,-0.5604 0.8914772,-1.29019 1.2726482,-1.62175 1.113181,-0.96831 0.479475,-1.01203 -0.9184728,-0.0634 -0.7047793,0.47828 -1.3541315,0.79688 -1.4430052,0.708 -0.2336465,-0.23365 2.553831,-2.21739 4.147007,-2.95127 0.747192,-0.34418 1.654841,-0.86173 2.016996,-1.1501 0.644998,-0.51356 0.640234,-0.54341 -0.232887,-1.45887 -1.098756,-1.15204 -2.328979,-3.92724 -2.446803,-5.51963 -0.04838,-0.65379 -0.186852,-1.64722 -0.307726,-2.20761 -0.137392,-0.63697 0.136437,-0.28211 0.730519,0.94673 0.52266,1.08109 1.057913,1.858 1.189453,1.72646 0.39961,-0.3996 0.268353,-2.1157 -0.258214,-3.37595 -0.273557,-0.65471 -0.349974,-1.0993 -0.169816,-0.98795 0.474727,0.2934 0.403124,-1.32438 -0.08,-1.80751 -0.266059,-0.26606 -0.280365,-0.40756 -0.04121,-0.40756 0.466964,0 1.061852,1.43829 1.40474,3.39632 0.252941,1.4444 0.290687,1.48633 0.687125,0.76335 0.230714,-0.42075 0.715153,-2.10193 1.076531,-3.73596 l 0.657049,-2.97097 -0.188969,2.63216 c -0.159556,2.22246 -0.107789,2.63217 0.332581,2.63217 0.286853,0 0.677332,-0.26747 0.867732,-0.59437 0.274037,-0.47049 0.350689,-0.48819 0.367809,-0.0849 0.03735,0.87994 1.257571,-0.8821 2.017633,-2.91355 0.384152,-1.02674 0.718578,-2.66345 0.743169,-3.63714 0.04097,-1.62244 0.06425,-1.67103 0.278616,-0.58161 l 0.233904,1.18872 0.229565,-1.18872 c 0.12626,-0.65378 0.27985,-1.87646 0.341314,-2.71706 l 0.111755,-1.52835 0.05933,1.71407 c 0.03263,0.94274 -0.251978,3.14046 -0.632474,4.88383 -0.380496,1.74337 -0.631623,3.22995 -0.558061,3.30352 0.07357,0.0735 0.352912,0.0497 0.620777,-0.0532 0.480132,-0.18424 0.746404,-0.72549 2.004468,-4.07451 0.389545,-1.03698 0.64269,-1.40553 0.650173,-0.94657 0.0067,0.41339 -0.299297,1.54201 -0.680078,2.50807 -0.834537,2.11723 -0.764572,2.48029 0.352696,1.83025 0.466997,-0.27171 1.115371,-0.59039 1.440833,-0.70819 0.685006,-0.24792 1.265007,-2.09234 1.644897,-5.2308 0.259075,-2.14038 0.263712,-2.11969 0.152192,0.67927 -0.06326,1.58777 -0.221691,3.15173 -0.352062,3.47546 -0.210967,0.52384 -0.123064,0.54885 0.799281,0.22732 1.07981,-0.37643 1.150231,-0.57896 1.523583,-4.38205 0.06418,-0.65379 0.141156,-0.14073 0.171051,1.14014 0.04842,2.07458 0.119252,2.30198 0.648712,2.08266 0.326896,-0.1354 0.929504,-0.29017 1.339127,-0.34393 1.173472,-0.154 1.282942,-0.30913 2.134771,-3.02529 0.44257,-1.41118 0.864924,-2.50555 0.938562,-2.4319 0.07364,0.0737 -0.10576,0.94088 -0.398667,1.9272 -1.045594,3.52089 -0.265438,3.44492 1.473077,-0.14346 1.612581,-3.32844 1.798755,-3.96218 2.061366,-7.01699 0.231328,-2.6909 0.251572,-2.54218 0.298203,2.19063 0.03602,3.65593 0.15339,4.97415 0.419209,4.70834 0.203048,-0.20305 0.884374,-1.64734 1.514057,-3.20953 0.629683,-1.56219 1.151309,-2.67323 1.159169,-2.46898 0.02228,0.57924 -1.184029,3.92669 -1.97087,5.46903 -0.699346,1.37083 -0.699916,1.38976 -0.0366,1.21628 0.370593,-0.0969 0.756861,-0.31059 0.858373,-0.47483 0.101512,-0.16426 0.472198,-0.29864 0.823746,-0.29864 0.934409,0 1.145909,-0.54606 1.38126,-3.56614 l 0.211736,-2.71707 0.05258,2.82485 c 0.05154,2.76869 0.06778,2.81983 0.816758,2.5716 0.420296,-0.13931 1.146262,-0.26423 1.613257,-0.27762 0.672881,-0.0192 1.020223,-0.37674 1.673766,-1.72251 1.835896,-3.78042 2.55236,-6.21076 2.949199,-10.00407 0.08707,-0.83229 0.249883,-1.59646 0.361808,-1.69817 0.111921,-0.10166 0.103462,0.7321 -0.01879,1.85289 -0.122268,1.12078 -0.319202,3.07943 -0.437645,4.35254 -0.12703,1.36546 -0.326177,2.13546 -0.485589,1.87752 -0.307112,-0.49692 -0.309994,-0.4909 -1.1175,2.3383 -0.27875,0.97663 -0.373767,1.85793 -0.21115,1.95843 0.402735,0.2489 0.659043,-0.23522 1.030174,-1.94584 l 0.314297,-1.44865 -0.160193,1.65257 c -0.147403,1.52064 -0.106055,1.63843 0.517967,1.47524 0.372987,-0.0976 0.678157,-0.0357 0.678157,0.1374 0,0.38736 2.44226,-0.8267 2.989507,-1.4861 0.904783,-1.09019 3.306162,-5.74994 4.679973,-9.08122 1.749298,-4.24181 1.998279,-4.07387 0.337133,0.2274 -1.268819,3.28538 -2.572846,6.01741 -3.828674,8.02133 -1.029845,1.64331 -0.742331,2.09735 0.784926,1.23954 0.661357,-0.37146 1.534661,-0.64023 1.940673,-0.59727 0.406013,0.043 1.325547,-0.0492 2.04341,-0.20475 1.901884,-0.41219 2.378935,-1.31961 3.76303,-7.15791 l 0.483105,-2.0378 -0.192151,1.86798 c -0.105684,1.02739 -0.393912,2.54861 -0.64051,3.38049 -0.246596,0.83187 -0.391018,1.56983 -0.320937,1.63992 0.184372,0.18437 1.737739,-2.56513 2.412576,-4.27033 0.317252,-0.80164 0.64474,-1.3896 0.727751,-1.30659 0.250683,0.25067 -1.300324,3.66783 -2.503805,5.51634 -1.334662,2.05001 -1.373062,2.24712 -0.364309,1.86992 0.903532,-0.33785 4.600985,-0.88626 5.391886,-0.79973 0.757836,0.0829 1.480611,-0.79362 3.05976,-3.71069 1.513742,-2.79624 1.427377,-1.87306 -0.111832,1.19543 -1.184669,2.36171 -0.838444,2.28358 0.8585,-0.19373 0.798411,-1.16557 1.551511,-2.94983 2.152831,-5.10055 0.508669,-1.81934 1.030319,-3.13722 1.159223,-2.92866 0.193783,0.31355 -0.537361,2.73838 -2.904537,9.63286 -0.152346,0.44372 0.12916,0.2715 0.811782,-0.49661 0.574752,-0.64675 1.045002,-1.36369 1.045002,-1.59322 0,-0.22953 0.14671,-0.50799 0.326021,-0.61883 0.193127,-0.11938 0.179494,0.21884 -0.03344,0.82967 -0.197705,0.56714 -0.497247,1.11631 -0.665652,1.22039 -0.631275,0.39015 -0.271972,0.82842 0.67916,0.82842 1.120715,0 1.94635,-1.13451 2.718862,-3.73597 0.872747,-2.939 1.04187,-3.31893 0.831523,-1.86798 -0.108314,0.7472 -0.556509,2.26813 -0.995975,3.37987 -0.439465,1.11173 -0.742667,2.07769 -0.673784,2.14658 0.211854,0.21185 2.112504,-2.72821 4.258991,-6.58808 1.124817,-2.02268 2.042106,-3.52828 2.03842,-3.34578 -0.0037,0.1825 -1.07353,2.30965 -2.377431,4.72701 -2.446875,4.53637 -2.613706,4.94472 -2.020186,4.94472 1.908942,0 5.200512,-3.54665 7.082975,-7.63188 0.518957,-1.12622 1.122792,-2.42976 1.341857,-2.89675 l 0.398299,-0.84909 -0.211507,0.84909 c -0.464758,1.86575 -2.490844,5.72911 -4.150624,7.91446 -0.965165,1.27078 -1.754846,2.39097 -1.754846,2.48932 0,0.30339 2.147416,-0.27452 2.529535,-0.68074 1.635246,-1.73839 3.248922,-4.08758 3.87928,-5.64744 0.674059,-1.66802 1.935196,-4.09423 1.67509,-3.22256 -0.690503,2.31395 -2.361609,5.79098 -3.469532,7.21898 -1.565394,2.01761 -1.624051,2.18736 -0.797746,2.30864 0.898912,0.13194 2.085377,-1.54379 4.94511,-6.98432 1.516584,-2.88524 2.383653,-4.20597 1.895261,-2.88688 -0.311388,0.84104 -3.372616,6.74943 -4.246334,8.19576 l -0.642444,1.06346 0.766945,0.20552 c 0.421821,0.11309 0.94206,0.2076 1.156083,0.21016 0.524963,0.006 2.323154,-2.84717 3.286599,-5.21529 0.430794,-1.05886 0.912549,-1.80769 1.070553,-1.66406 0.158018,0.14362 0.171804,0.0611 0.03068,-0.18335 -0.151677,-0.2627 0.08934,-0.95719 0.589222,-1.69817 0.465234,-0.68951 1.08502,-1.71217 1.377307,-2.27258 0.292288,-0.56039 0.537557,-0.91392 0.54504,-0.78563 0.02798,0.4792 -3.716226,8.5545 -4.551703,9.81699 -0.928171,1.40257 -1.080309,1.83788 -0.521664,1.49262 0.404594,-0.25005 2.708339,-3.32789 4.312353,-5.76137 0.612841,-0.92972 1.11425,-1.52215 1.11425,-1.31651 0,0.45966 -3.499084,5.69346 -4.717026,7.05553 l -0.886926,0.9919 1.099268,-0.75707 c 1.521513,-1.04787 4.066317,-4.44488 5.617174,-7.49828 0.714827,-1.40739 1.204964,-2.17681 1.089179,-1.70982 -0.387843,1.56425 -2.266635,4.90492 -3.949081,7.02183 -0.916707,1.15343 -1.54811,2.16069 -1.403109,2.23832 0.510239,0.27323 2.093432,0.0248 2.618369,-0.41086 0.292006,-0.24234 0.935591,-1.34233 1.430169,-2.4444 0.494579,-1.10208 0.962316,-1.94071 1.039399,-1.86361 0.07715,0.0772 -0.09807,0.6916 -0.389177,1.36559 -0.291146,0.67398 -0.744801,1.72213 -1.008142,2.32922 l -0.478803,1.10381 2.092058,-0.0549 c 2.030089,-0.0533 2.134265,-0.1014 3.517235,-1.62595 0.78384,-0.86406 2.20905,-2.94084 3.16713,-4.61505 0.95807,-1.6742 1.81926,-3.04401 1.91374,-3.04401 0.3707,0 -3.12163,6.03397 -4.35186,7.51906 -0.7178,0.86651 -1.3051,1.67826 -1.3051,1.80389 0,0.12567 0.72596,0.12528 1.61325,-7.1e-4 1.20677,-0.17138 1.94137,-0.54033 2.91546,-1.46425 2.09958,-1.99146 4.68143,-5.39685 6.05932,-7.99204 1.56558,-2.94871 1.71797,-2.68723 0.20528,0.35223 -0.60161,1.20883 -2.43575,3.87035 -4.07587,5.91452 -1.64011,2.04416 -2.90858,3.71666 -2.81881,3.71666 0.0897,0 0.74986,-0.23473 1.46687,-0.52163 1.55365,-0.62164 3.34444,-2.66954 4.75791,-5.44104 0.56624,-1.11029 1.27167,-2.32438 1.56762,-2.69798 0.29594,-0.37359 -0.18842,0.7207 -1.07634,2.43175 -0.88793,1.71105 -2.11645,3.72661 -2.73004,4.47901 l -1.11561,1.368 1.44157,-0.0199 c 0.79287,-0.0115 1.48775,0.11861 1.5442,0.28798 0.0565,0.16932 1.00599,0.22149 2.11013,0.11591 1.10412,-0.10552 1.93388,-0.0728 1.84389,0.0728 -0.26719,0.43235 0.72358,0.30069 1.18123,-0.15698 0.33585,-0.33584 0.47933,-0.32846 0.70474,0.0362 0.19745,0.3195 0.35328,0.34431 0.51536,0.082 0.12772,-0.20673 0.0562,-0.37589 -0.159,-0.37589 -0.21521,0 0.27248,-0.77581 1.08376,-1.72403 0.8113,-0.94823 2.0482,-2.50012 2.7487,-3.44868 1.30822,-1.77149 1.73142,-1.97717 0.68798,-0.33438 -0.3221,0.50712 -1.31553,1.88639 -2.20762,3.06506 -0.89208,1.17865 -1.62197,2.36312 -1.62197,2.63215 0,0.74043 0.94096,0.58589 1.6746,-0.27502 2.08598,-2.44784 2.11514,-2.47419 1.2461,-1.12567 -0.65148,1.01089 -0.76981,1.44706 -0.48549,1.78963 0.42995,0.51808 2.65446,0.24968 3.09415,-0.37332 0.14577,-0.20656 0.16949,0.0365 0.0528,0.53995 -0.21047,0.90753 -0.2016,0.91254 1.02024,0.57517 1.37148,-0.37868 2.70397,-0.11784 2.34716,0.45948 -0.15497,0.25076 -0.0176,0.28789 0.4196,0.11335 0.35755,-0.14277 1.67165,-0.29741 2.92023,-0.34365 1.33762,-0.0495 2.59326,-0.29758 3.0567,-0.60383 1.84842,-1.22149 5.26086,-4.99536 6.15855,-6.81086 0.52624,-1.06424 1.1111,-2.03034 1.29968,-2.14689 0.18859,-0.11656 -0.24197,0.90184 -0.95679,2.26309 -0.8504,1.61948 -2.12148,3.28624 -3.6771,4.82185 -1.30759,1.29075 -2.07059,2.19456 -1.69558,2.00847 2.00448,-0.99471 8.6805,-9.10362 11.85273,-14.39671 0.48097,-0.80255 0.87595,-1.33971 0.87771,-1.19368 0.0131,1.08188 -7.99835,12.98019 -8.73989,12.98019 -0.20372,0 -0.49774,0.13912 -0.65341,0.30917 -0.16443,0.17963 -0.10513,0.20681 0.14151,0.0648 0.95648,-0.55042 0.32585,0.47951 -1.09621,1.79033 -1.52091,1.40192 -1.34564,2.02773 0.19517,0.69683 2.38696,-2.0618 3.1475,-2.90543 4.71985,-5.23556 0.94651,-1.40268 1.80172,-2.55031 1.90044,-2.55031 0.21792,0 0.0548,0.28318 -1.66279,2.88688 -0.73936,1.12078 -2.11561,2.83447 -3.05834,3.8082 -1.41172,1.45813 -1.61301,1.80918 -1.14119,1.99024 1.05158,0.40353 3.17243,-1.4448 5.86392,-5.11042 0.8909,-1.21336 1.68712,-2.13882 1.76938,-2.05656 0.24422,0.24421 -3.66942,5.35615 -4.97457,6.49774 l -1.20457,1.05358 1.33296,0.25007 c 1.29306,0.24258 1.38201,0.19579 2.97195,-1.56304 l 1.63899,-1.81311 -1.21811,1.65304 c -1.14199,1.54971 -1.18032,1.68171 -0.61325,2.1119 0.33267,0.25238 1.00086,0.46373 1.48488,0.46966 0.484,0.006 1.59255,0.22525 2.46343,0.48735 1.51817,0.4569 1.63587,0.44151 2.85596,-0.3734 1.88641,-1.25995 3.37473,-2.75588 4.91777,-4.94291 1.42512,-2.0199 1.94398,-2.51873 1.23643,-1.18873 -0.86313,1.62246 -3.06805,4.342 -4.36615,5.38519 -1.05678,0.84924 -1.27412,1.1922 -0.98005,1.54654 1.00074,1.20581 3.56763,0.17326 5.89864,-2.37274 0.56041,-0.61208 0.79406,-0.79931 0.51924,-0.41604 -0.2748,0.38326 -0.86284,1.10284 -1.30674,1.59907 -0.44392,0.49625 -0.7922,0.99296 -0.77397,1.10382 0.12336,0.75066 10e-4,1.01737 -0.26925,0.58984 -0.19343,-0.30528 -0.36708,-0.33929 -0.5145,-0.10077 -0.13235,0.21416 0.33206,0.50936 1.14627,0.72861 0.75282,0.20272 1.36877,0.52078 1.36877,0.70682 0,0.21081 0.65902,0.25081 1.74946,0.10616 1.27925,-0.1697 1.68464,-0.12721 1.50831,0.15812 -0.16198,0.26208 0.10769,0.39019 0.82149,0.39019 1.06323,0 3.78641,-1.59373 4.31406,-2.52478 0.37614,-0.6637 3.53984,-3.40728 3.29087,-2.85385 -0.11232,0.24967 -1.48154,1.60021 -3.0427,3.0012 -1.56115,1.40099 -2.84503,2.63117 -2.85308,2.73375 -0.0308,0.39291 2.31223,1.00222 3.85405,1.00222 1.67341,0 3.61614,-1.02785 5.13158,-2.71496 0.37359,-0.41592 1.29061,-1.21259 2.0378,-1.77038 0.74719,-0.5578 0.28869,-0.003 -1.0189,1.23294 -1.30759,1.2359 -2.79773,2.50624 -3.31143,2.82298 -0.51369,0.31673 -0.93398,0.70478 -0.93398,0.86232 0,0.15754 0.1788,0.17594 0.39734,0.0408 0.26718,-0.16512 0.3263,-0.0605 0.18048,0.31959 -0.39201,1.02157 0.45221,0.5931 2.32938,-1.18227 1.01622,-0.96108 1.84765,-1.63686 1.84765,-1.50173 0,0.13513 -0.68775,0.88619 -1.52834,1.66903 -0.84059,0.78284 -1.52836,1.53504 -1.52836,1.67156 0,0.53876 2.27699,0.19475 3.45214,-0.52155 2.29433,-1.3985 4.51587,-3.04921 6.22721,-4.62714 l 1.69795,-1.56558 -1.52814,1.64918 c -1.6055,1.73268 -6.59974,5.63761 -7.25738,5.67446 -0.21128,0.0116 -0.003,0.17421 0.46492,0.36084 0.46701,0.18662 1.34476,0.24661 1.95056,0.13333 1.53393,-0.28683 5.69295,-2.99039 8.55365,-5.56027 1.32101,-1.18672 2.40185,-2.07986 2.40185,-1.98477 0,0.51566 -5.15204,5.03078 -7.21961,6.3271 -1.3257,0.83119 -2.24083,1.56775 -2.03362,1.63682 0.74917,0.24973 4.37298,-2.0191 7.42919,-4.65135 2.2596,-1.94613 3.07613,-2.55927 3.56855,-2.67965 0.57135,-0.13967 0.66321,-0.22896 -2.44428,2.37596 -1.41226,1.18387 -3.50028,2.93705 -4.64003,3.89597 l -2.07227,1.74349 1.1836,0.19207 c 2.18583,0.35472 4.49387,-1.10762 9.78068,-6.19684 1.86032,-1.79079 3.0872,-2.87388 2.72642,-2.40689 -1.84868,2.3929 -7.31066,7.39521 -9.08653,8.32183 -1.72211,0.89856 -1.8835,1.06792 -1.37471,1.44262 1.31082,0.96535 2.73061,0.36515 8.042,-3.39962 1.84246,-1.30597 4.02036,-3.01686 4.83977,-3.80198 0.8194,-0.78513 1.48983,-1.35361 1.48983,-1.26328 0,0.0904 0.34388,-0.12259 0.76417,-0.47309 0.42031,-0.35052 0.0764,0.10013 -0.76417,1.00148 -1.85926,1.99363 -7.41389,6.54173 -9.50972,7.78651 -1.23874,0.73572 -1.37975,0.90834 -0.74413,0.91094 0.50203,0.003 0.69774,0.14314 0.54388,0.39209 -0.1656,0.26794 0.0362,0.33601 0.64894,0.21888 0.48911,-0.0935 0.81124,-0.0438 0.71585,0.11065 -0.0954,0.15435 0.25313,0.37394 0.77446,0.48799 0.52134,0.11412 1.32996,0.34785 1.79697,0.51951 0.60922,0.22396 1.47271,0.12439 3.05669,-0.35268 1.63072,-0.49109 2.03534,-0.53549 1.54835,-0.16992 -0.36261,0.2722 -0.97395,0.49724 -1.35854,0.5001 -0.3846,0.003 -0.92851,0.15336 -1.2087,0.33443 -0.3817,0.24666 -0.20672,0.33054 0.69767,0.33443 1.15392,0.005 4.0036,-1.46121 4.54611,-2.33902 0.1267,-0.20507 0.41245,-0.36734 0.63492,-0.36063 0.51175,0.0154 -1.23407,1.48214 -2.89989,2.43623 -1.56343,0.89545 -1.19526,1.62716 0.81877,1.62716 0.80104,0 1.2532,0.13556 1.12798,0.33819 -0.11501,0.186 0.2025,0.52568 0.70546,0.75485 l 0.91447,0.41666 -0.93527,0.38229 -0.93527,0.38229 1.14376,0.81091 c 1.75976,1.24765 2.35358,1.78466 2.72683,2.46599 0.2991,0.54599 0.24564,0.59552 -0.41615,0.38548 l -0.75934,-0.24101 0.80954,1.14286 0.80954,1.14287 -0.91648,-0.59436 c -1.17001,-0.75879 -1.52649,-0.75879 -0.87484,0 0.28073,0.32689 0.63942,0.8236 0.79709,1.1038 0.25232,0.44839 0.21369,0.45018 -0.32223,0.0149 -0.33491,-0.27201 -0.83615,-0.52792 -1.11389,-0.56868 -0.27773,-0.0407 -0.80058,-0.34164 -1.16189,-0.66861 -0.61657,-0.55799 -0.72942,-0.5599 -1.83819,-0.0312 -0.6497,0.30982 -1.18128,0.77135 -1.18128,1.02561 0,0.47984 1.04739,1.58649 1.50152,1.58649 0.14262,0 0.64792,0.30567 1.12287,0.67926 l 0.86354,0.67927 h -0.7891 -0.78911 l 0.74331,0.69249 c 0.88058,0.8204 1.00931,1.3394 0.14894,0.60052 -1.28717,-1.1054 -1.44077,-1.03122 -0.92013,0.4444 0.27656,0.78389 0.43875,1.48933 0.36041,1.56767 -0.0783,0.0783 -0.25541,-0.21295 -0.39351,-0.64733 -0.23841,-0.74992 -0.26303,-0.75576 -0.48789,-0.11591 -0.20242,0.57601 -0.29506,0.49734 -0.638,-0.54178 -0.36964,-1.12003 -0.98396,-1.64379 -2.48863,-2.12179 -0.42505,-0.13503 -0.52958,-0.0313 -0.39681,0.39375 0.14778,0.47313 0.0841,0.45919 -0.35342,-0.0774 -0.29352,-0.35997 -0.63774,-0.55041 -0.76494,-0.42321 -0.12721,0.12721 0.13869,0.64633 0.59085,1.15364 0.45217,0.5073 0.59287,0.75679 0.31268,0.55441 -0.28021,-0.20239 -0.78347,-0.36334 -1.11837,-0.35766 -0.49521,0.009 -0.5721,0.20584 -0.41175,1.05751 0.19545,1.03815 0.19304,1.04015 -0.27964,0.23161 -0.34239,-0.58568 -0.52312,-0.68142 -0.6411,-0.33963 -0.0904,0.26177 -0.27579,-0.0208 -0.41206,-0.62785 -0.13715,-0.61103 -0.46316,-1.10381 -0.73022,-1.10381 -0.26536,0 -0.48246,-0.15575 -0.48246,-0.3461 0,-0.20546 -0.37954,-0.25506 -0.934,-0.12207 -1.26786,0.30416 -1.32611,0.40051 -0.57448,0.95012 0.57731,0.42214 0.48477,0.44482 -0.83217,0.20401 l -1.48172,-0.27096 0.83209,0.72647 c 0.45763,0.39957 1.04558,1.03215 1.30654,1.40574 0.4622,0.66171 0.45278,0.66129 -0.36434,-0.0162 -2.10294,-1.74337 -2.06505,-1.74338 -1.47089,4e-4 0.29627,0.86948 0.42414,1.68723 0.28415,1.8172 -0.13998,0.12997 -0.32305,0.0443 -0.40684,-0.19034 -0.0838,-0.23466 -0.29036,-0.34135 -0.45906,-0.23709 -0.16871,0.10423 -0.2061,-0.0727 -0.0831,-0.39322 0.14404,-0.37537 0.092,-0.50147 -0.14608,-0.35431 -0.22224,0.13735 -0.4592,-0.17898 -0.59409,-0.79308 -0.18907,-0.86082 -0.34792,-0.99057 -1.00947,-0.82453 -0.43181,0.10834 -0.88615,0.0336 -1.00962,-0.16622 -0.13801,-0.22329 -0.0214,-0.28533 0.30258,-0.161 0.2899,0.1113 0.52708,0.0331 0.52708,-0.1737 0,-0.20678 -0.14033,-0.37597 -0.31185,-0.37597 -0.17152,0 -0.55533,-0.0935 -0.85294,-0.20763 -0.39148,-0.15023 -0.4846,-0.0605 -0.3368,0.3247 0.17441,0.45449 0.0384,0.48505 -0.93013,0.20902 l -1.13442,-0.32333 0.8738,0.7628 c 0.48058,0.41953 1.08729,1.06846 1.34824,1.44205 0.46221,0.66171 0.4528,0.6613 -0.36434,-0.0162 -2.14818,-1.78089 -2.19221,-1.79756 -1.57055,-0.59512 0.62856,1.21582 0.75763,2.64025 0.20848,2.30086 -0.19439,-0.12015 -0.2646,-0.49839 -0.156,-0.84055 0.1086,-0.34215 0.0402,-0.71932 -0.15211,-0.83813 -0.21516,-0.13299 -0.26358,0.008 -0.12593,0.36676 0.13724,0.35762 0.0891,0.49963 -0.12464,0.36755 -0.21483,-0.13278 -0.30181,0.13869 -0.22699,0.70846 0.0667,0.50805 -0.12464,0.13245 -0.42531,-0.83465 -0.38352,-1.23367 -0.68772,-1.70422 -1.01945,-1.57692 -0.26006,0.0997 -0.47282,0.0162 -0.47282,-0.18581 0,-0.45704 -1.79111,-1.40855 -2.61529,-1.38935 -0.40724,0.009 -0.21451,0.24007 0.57749,0.69093 1.14408,0.6513 0.9085,0.67208 -1.09554,0.0967 -0.67538,-0.19391 -0.6392,-0.0841 0.33963,1.03071 1.34797,1.53524 1.43656,2.01755 0.14296,0.7782 -0.93571,-0.89648 -1.66234,-1.23201 -1.26071,-0.58218 0.11232,0.18174 0.27165,0.90771 0.35406,1.61326 0.1392,1.19186 0.11411,1.23607 -0.35401,0.62353 -0.48082,-0.62915 -0.50383,-0.63045 -0.50383,-0.0284 0,0.34704 -0.0904,0.5406 -0.20083,0.43016 -0.31248,-0.31248 0.21082,-1.64448 0.56103,-1.42803 0.1712,0.10577 0.21855,-0.0493 0.10514,-0.34469 -0.18259,-0.47582 -0.25647,-0.46819 -0.64771,0.0669 -0.40675,0.55627 -0.46041,0.52902 -0.67989,-0.34545 -0.13104,-0.52218 -0.31943,-0.86825 -0.41863,-0.76905 -0.0992,0.0992 -0.3483,-0.0416 -0.55357,-0.31275 -0.49283,-0.65113 -2.92046,-1.64786 -2.92046,-1.19906 0,0.1893 0.14914,0.34418 0.33143,0.34418 0.18228,0 0.83183,0.32194 1.44344,0.71541 0.61161,0.39346 0.80634,0.60307 0.43274,0.46577 -0.37359,-0.1373 -1.05269,-0.32986 -1.50911,-0.42792 l -0.82984,-0.17828 0.74969,0.95308 c 1.03815,1.3198 0.61704,1.51912 -0.66591,0.31517 -0.76679,-0.71957 -0.96663,-0.80653 -0.72357,-0.31487 0.52642,1.06479 0.7934,2.88688 0.423,2.88688 -0.18212,0 -0.34188,-0.26746 -0.35502,-0.59437 -0.0214,-0.53362 -0.0494,-0.52943 -0.27355,0.0411 -0.20045,0.51005 -0.33472,0.35169 -0.68053,-0.80254 -0.2713,-0.90551 -0.67303,-1.5013 -1.08496,-1.60902 -0.35978,-0.0941 -0.65415,-0.30297 -0.65415,-0.46418 0,-0.47245 -2.48679,-1.558 -3.20343,-1.39836 -0.6127,0.13648 -0.60145,0.1893 0.16982,0.79734 l 0.826,0.65118 -1.0189,-0.2294 c -0.99994,-0.22512 -1.00763,-0.21665 -0.41301,0.45529 0.58918,0.66582 0.58302,0.68217 -0.22348,0.59364 -0.81599,-0.0896 -0.82156,-0.0724 -0.34658,1.06434 0.67068,1.60519 0.29725,1.44834 -0.56206,-0.23607 -0.89432,-1.75302 -1.17128,-1.55085 -0.49629,0.36228 0.63609,1.80287 0.63613,1.89373 5.8e-4,1.36628 -0.28186,-0.23394 -0.60663,-1.01404 -0.72168,-1.73358 -0.11502,-0.71953 -0.34294,-1.22559 -0.50642,-1.12457 -0.16346,0.10103 -0.2972,0.0128 -0.2972,-0.19602 0,-0.20885 -0.15283,-0.28527 -0.33964,-0.16983 -0.1868,0.1154 -0.33963,-0.004 -0.33963,-0.26506 0,-0.53333 -1.38298,-1.26328 -2.39341,-1.26328 -1.08726,0 -0.80069,1.20219 0.44053,1.84802 0.94624,0.49235 0.98261,0.55311 0.25471,0.42572 -0.46699,-0.0818 -1.15475,-0.27058 -1.52834,-0.41967 -0.67396,-0.26897 -0.67411,-0.26522 -0.019,0.48038 0.65388,0.74425 0.65388,0.74915 0,0.50945 -0.61667,-0.22605 -0.62442,-0.19901 -0.11745,0.40993 0.29848,0.35857 0.6537,0.8812 0.78935,1.16139 0.13567,0.2802 -0.0116,0.20378 -0.32829,-0.16981 -0.55967,-0.6612 -0.5694,-0.65216 -0.36611,0.33963 0.16628,0.81129 0.0313,0.68341 -0.66234,-0.62757 -0.94049,-1.77748 -1.35821,-1.95429 -0.854,-0.36149 0.17219,0.54399 0.40678,1.44757 0.52129,2.00796 0.31397,1.53643 -0.41038,0.34227 -0.87557,-1.44344 -0.34387,-1.32005 -0.49297,-1.49443 -1.21256,-1.41825 -0.13084,0.0139 -0.35091,-0.28028 -0.48902,-0.65363 -0.46264,-1.25064 -3.68829,-2.24939 -3.68829,-1.142 0,0.15877 0.49671,0.53588 1.1038,0.83801 0.74268,0.36963 0.90205,0.55647 0.48712,0.57108 -0.33917,0.0115 -0.95051,-0.13974 -1.35853,-0.33709 -0.69787,-0.33754 -0.69431,-0.31741 0.06,0.33963 0.88061,0.7671 0.72912,0.90549 -0.35568,0.32493 -0.77114,-0.41271 -0.72104,-0.2597 0.4853,1.48227 0.35763,0.51643 0.5932,1.11 0.52351,1.31908 -0.0697,0.20907 -0.6148,-0.36629 -1.21137,-1.27858 -1.22157,-1.86807 -1.48045,-1.3149 -0.57958,1.23845 0.2822,0.79982 0.4393,1.52799 0.34914,1.61815 -0.0901,0.0901 -0.32515,-0.27755 -0.52218,-0.81715 -1.22904,-3.36602 -1.57763,-3.9828 -2.07668,-3.67437 -0.16563,0.1023 -0.30115,-0.0345 -0.30115,-0.30431 0,-0.85632 -1.67598,-1.64907 -3.6037,-1.70456 -1.93072,-0.0556 -2.28211,0.19111 -1.14165,0.80146 0.37884,0.20274 0.60486,0.5044 0.50231,0.67034 -0.10256,0.16595 0.0842,0.47549 0.41503,0.68787 0.57528,0.36932 0.57526,0.37797 -7.2e-4,0.19834 -0.5252,-0.16381 -0.55131,-0.0927 -0.20412,0.55601 0.39255,0.73351 0.38595,0.73589 -0.47517,0.17166 l -0.87325,-0.57217 0.27592,0.96207 c 0.15176,0.52913 0.45397,1.32726 0.67157,1.77358 0.3508,0.71952 0.3416,0.74474 -0.0813,0.22245 -0.26228,-0.324 -0.60088,-0.47684 -0.75245,-0.33964 -0.15159,0.13719 -0.19892,0.0967 -0.10526,-0.0902 0.0937,-0.1868 -0.11104,-0.6071 -0.45499,-0.93399 -0.59828,-0.56858 -0.62505,-0.56121 -0.6173,0.16981 0.004,0.4203 0.1412,1.33731 0.30387,2.0378 0.54231,2.33533 -0.17133,1.31101 -0.81463,-1.16925 -0.98219,-3.78689 -1.84515,-5.1658 -3.12814,-4.99843 -0.33803,0.0442 -1.19916,-0.0403 -1.9136,-0.18759 -1.84488,-0.38031 -2.2923,0.176 -1.26215,1.56935 0.62879,0.85049 0.67466,1.03062 0.21777,0.8553 -0.37506,-0.14392 -0.49749,-0.0905 -0.34782,0.15161 0.12708,0.20554 0.0225,0.50259 -0.2324,0.6601 -0.37044,0.22895 -0.38509,0.49381 -0.073,1.32057 0.601,1.59225 0.15572,1.2245 -0.60808,-0.50221 -0.82309,-1.86074 -1.3182,-1.69163 -1.32519,0.45262 -0.004,1.02704 -0.1095,1.42868 -0.29853,1.13024 -0.24764,-0.39087 -0.32199,-0.39087 -0.47743,0 -0.10128,0.25463 -0.19618,-0.57768 -0.21093,-1.8496 -0.0148,-1.27191 -0.15275,-2.23472 -0.30669,-2.13959 -0.15394,0.0951 -0.26857,-0.1462 -0.25473,-0.53629 0.0193,-0.5438 -0.21251,-0.73546 -0.99374,-0.82167 -0.5604,-0.0619 -1.66845,-0.20964 -2.46234,-0.32844 -1.27062,-0.19013 -1.44344,-0.13817 -1.44344,0.43403 0,0.35751 0.22438,0.94669 0.49865,1.3093 0.61543,0.81368 0.66374,1.29501 0.0958,0.95375 -0.24624,-0.14794 -0.2117,0.006 0.0823,0.36858 0.46842,0.57642 0.44913,0.60533 -0.25473,0.38194 -0.84559,-0.26838 -0.93129,-0.008 -0.43028,1.31032 0.56908,1.49679 0.005,0.95105 -0.72627,-0.70334 -0.81125,-1.83392 -1.25958,-1.53635 -1.3488,0.89526 -0.0413,1.12738 -0.0947,1.26777 -0.20329,0.53516 -0.11078,-0.74732 -0.223,-0.87344 -0.45336,-0.50946 -0.20463,0.32331 -0.30789,-0.10757 -0.31137,-1.29933 -0.003,-1.01525 -0.15872,-1.78307 -0.3617,-1.78307 -0.23781,0 -0.24739,-0.195 -0.0288,-0.58564 0.27948,-0.49938 0.0944,-0.64723 -1.25675,-1.0039 -3.34849,-0.88394 -4.31589,-0.40852 -3.2729,1.6084 0.53679,1.03803 0.53549,1.08645 -0.0235,0.87196 -0.50178,-0.19255 -0.52553,-0.14723 -0.15609,0.2979 0.36687,0.44205 0.34763,0.4912 -0.12182,0.31108 -0.7048,-0.27047 -0.71257,0.27185 -0.023,1.60533 0.29399,0.56848 0.46273,1.10537 0.37501,1.19309 -0.0877,0.0877 -0.58505,-0.71033 -1.10519,-1.77344 -0.88568,-1.81028 -0.96514,-1.88167 -1.25226,-1.12504 -0.16861,0.44433 -0.24256,1.61691 -0.16431,2.60572 0.0798,1.00944 0.02,1.60518 -0.13644,1.35853 -0.15328,-0.24162 -0.29627,-0.89781 -0.31774,-1.4582 -0.0377,-0.98373 -0.0472,-0.98958 -0.27556,-0.16982 -0.39062,1.40231 -0.66395,0.0695 -0.53557,-2.6116 l 0.11425,-2.38552 -1.84523,-0.44265 c -1.4055,-0.33718 -2.04748,-0.35051 -2.69392,-0.056 -0.86028,0.39198 -1.12514,1.20922 -0.51426,1.58676 0.50477,0.31197 0.28107,1.9194 -0.23932,1.7197 -0.53059,-0.2036 -0.56663,0.62898 -0.0675,1.56145 0.20193,0.37731 0.28534,0.76783 0.18534,0.86781 -0.1,0.1 -0.52491,-0.52444 -0.94427,-1.38762 -0.41936,-0.86317 -0.87143,-1.56941 -1.00458,-1.56941 -0.38012,0 -0.71967,2.5841 -0.5011,3.8135 0.14952,0.84095 0.12105,0.94598 -0.11733,0.43191 -0.17319,-0.3736 -0.34733,-1.13777 -0.38697,-1.69816 -0.0657,-0.92948 -0.0946,-0.89967 -0.32862,0.33963 -0.180752,0.95709 -0.239697,0.3885 -0.199467,-1.92422 l 0.05712,-3.28275 -1.290323,-0.42585 c -1.691653,-0.55829 -3.638583,-0.0974 -4.022369,0.95206 -0.172485,0.47166 -0.134463,0.84052 0.101665,0.98646 0.244228,0.15096 0.280324,0.0764 0.102435,-0.21148 -0.180494,-0.29205 -0.142023,-0.36254 0.112192,-0.20546 0.542293,0.33516 0.372658,1.87284 -0.183088,1.65959 -0.595627,-0.22857 -0.555256,0.71573 0.08742,2.04397 0.492911,1.01879 0.490639,1.04434 -0.0362,0.40768 -0.30918,-0.3736 -0.785544,-1.1961 -1.058577,-1.82777 -0.617732,-1.42913 -1.182564,-1.01392 -1.250906,0.91956 -0.06033,1.70507 -0.543447,2.27902 -0.597771,0.71009 l -0.04018,-1.16041 -0.281043,1.0189 c -0.204499,0.74137 -0.260235,0.35384 -0.204614,-1.42281 0.06572,-2.10024 0.0077,-2.38522 -0.417341,-2.0378 -0.354301,0.28981 -0.332402,0.1558 0.07753,-0.47439 0.556207,-0.85505 0.548351,-0.88877 -0.296305,-1.27362 -2.447296,-1.11507 -5.370312,0.38136 -3.977474,2.03625 0.415274,0.49341 0.386662,0.59143 -0.229725,0.78706 -0.845258,0.26827 -0.871098,0.5677 -0.166567,1.9301 0.295628,0.57169 0.39859,0.95356 0.228801,0.84862 -0.169791,-0.10487 -0.585836,-0.80533 -0.924547,-1.55646 -0.33871,-0.75113 -0.742908,-1.28716 -0.898216,-1.19117 -0.155309,0.096 -0.388327,0.97062 -0.517819,1.94363 -0.231406,1.73881 -0.241495,1.75166 -0.588857,0.75022 l -0.353419,-1.0189 -0.229887,1.0189 c -0.21575,0.95624 -0.23186,0.93534 -0.261969,-0.33963 -0.01765,-0.7472 0.100767,-1.93059 0.263142,-2.62977 0.172631,-0.74335 0.169266,-1.19338 -0.0081,-1.08376 -0.166828,0.10308 -0.303326,0.0347 -0.303326,-0.15216 0,-0.1868 0.152836,-0.4341 0.339634,-0.54955 1.12773,-0.69697 -1.1266,-1.43525 -3.196705,-1.04689 -1.469043,0.2756 -2.181948,1.80205 -1.271519,2.72255 0.523698,0.52949 0.521697,0.55328 -0.02905,0.34526 -0.79841,-0.30156 -1.13885,0.66194 -0.629153,1.78059 0.218348,0.47923 0.316711,0.95161 0.218583,1.04974 -0.09812,0.0981 -0.509294,-0.5696 -0.913703,-1.48384 -0.627011,-1.41746 -0.774148,-1.56273 -0.999148,-0.98648 -0.145121,0.37167 -0.30029,1.43995 -0.344821,2.37394 -0.07265,1.52389 -0.09466,1.56709 -0.214401,0.421 -0.108327,-1.03682 -0.215141,-1.19547 -0.567588,-0.84303 -0.238784,0.23879 -0.536331,0.66069 -0.661215,0.93754 -0.124886,0.27686 -0.130625,-0.41362 -0.01271,-1.53441 0.117865,-1.12078 0.234709,-2.34346 0.259647,-2.71707 0.02494,-0.37359 0.178533,-0.88739 0.341321,-1.14177 0.189541,-0.29619 0.127659,-0.56912 -0.172077,-0.75897 -0.574625,-0.36397 -3.146276,-0.40231 -3.496448,-0.0521 -0.140099,0.1401 -0.428519,0.25473 -0.640932,0.25473 -0.541577,0 -1.298327,1.62123 -0.929098,1.99046 0.374163,0.37416 0.0531,1.3007 -0.361842,1.04424 -0.421863,-0.26073 -0.381193,0.77157 0.0631,1.60176 0.201933,0.37732 0.295845,0.75733 0.208695,0.84448 -0.08715,0.0872 -0.503834,-0.555 -0.925965,-1.42701 -0.681355,-1.40749 -0.807855,-1.51433 -1.126931,-0.95171 -0.197681,0.34856 -0.361053,1.44176 -0.363046,2.42933 -0.0028,1.38754 -0.0706,1.6191 -0.298361,1.0189 -0.162105,-0.42717 -0.207615,-1.43412 -0.101139,-2.23765 0.122204,-0.92222 0.06987,-1.38448 -0.141935,-1.25357 -0.184545,0.11411 -0.335536,0.73327 -0.335536,1.37605 0,0.64276 -0.172525,1.16866 -0.383388,1.16866 -0.268928,0 -0.306155,-0.53233 -0.124694,-1.78307 0.142281,-0.98069 0.2401,-2.12695 0.217376,-2.54726 -0.02272,-0.42029 0.109803,-0.76417 0.294511,-0.76417 0.184704,0 0.335828,-0.22924 0.335828,-0.50944 0,-0.37345 -0.387842,-0.50946 -1.452778,-0.50946 -1.889228,0 -3.035798,0.78593 -2.896933,1.98574 0.05869,0.50704 -0.118469,1.07481 -0.405062,1.29825 -0.427228,0.33306 -0.441872,0.57589 -0.09082,1.50595 0.640373,1.69654 0.262798,1.55375 -0.599027,-0.22655 -0.879136,-1.81605 -1.1979,-1.60036 -1.703312,1.15254 -0.285651,1.5559 -0.289485,1.54561 -0.200809,-0.53951 0.04972,-1.16912 -0.03173,-1.93329 -0.181012,-1.69815 -0.149276,0.23514 -0.273751,0.93325 -0.276611,1.55137 -0.0028,0.61811 -0.148136,1.03551 -0.322835,0.92754 -0.174699,-0.10796 -0.383677,0.2269 -0.464398,0.74413 -0.08072,0.51725 -0.06155,0.17626 0.04262,-0.75773 z m 17.357566,-2.31256 c -0.02302,-0.71744 -0.03435,-0.71976 -0.315761,-0.0648 -0.401713,0.93483 -0.401713,1.26717 0,1.0189 0.186798,-0.1154 0.328891,-0.54477 0.315761,-0.95403 z m -38.745222,-2.22655 c 0.443095,-0.36651 0.453754,-0.4321 0.05094,-0.31345 -0.280197,0.0825 -0.853328,0.6576 -1.273623,1.27791 -0.420296,0.62032 -0.764175,0.97375 -0.764175,0.78539 0,-0.18835 0.377481,-0.89871 0.838848,-1.57857 0.461365,-0.67986 0.779535,-1.23611 0.707043,-1.23611 -0.54275,0 -1.206258,0.49805 -1.206258,0.90547 0,0.27123 -0.135459,0.40943 -0.301019,0.30711 -0.494852,-0.30584 -0.701343,1.16918 -0.290048,2.07188 l 0.382119,0.83866 0.647902,-1.29739 c 0.356346,-0.71357 0.900072,-1.50597 1.208281,-1.7609 z m 47.230847,1.48241 c 0.01027,-0.18679 -0.129485,-0.11039 -0.310562,0.16982 -0.181077,0.28019 -0.320829,0.7387 -0.31056,1.0189 0.01972,0.53792 0.585756,-0.54538 0.621122,-1.18872 z m -53.137941,-0.67927 0.629047,-1.0189 -0.731841,0.647 c -0.402513,0.35586 -0.731842,0.87803 -0.731842,1.16041 0,0.57806 -0.02172,0.59857 0.834636,-0.78851 z m -3.898885,-1.32625 c 0.0041,-0.16906 -0.298118,-0.0308 -0.671713,0.30735 -0.373597,0.33811 -0.675869,0.85851 -0.671715,1.15646 0.0055,0.39435 0.188223,0.31073 0.671715,-0.30737 0.365289,-0.46699 0.667559,-0.9874 0.671713,-1.15644 z m 171.861856,-5.79281 c 0,-0.26846 -1.47095,-1.54157 -1.78115,-1.54157 -0.16199,0 0.13429,0.37725 0.6584,0.83835 1.00178,0.88132 1.12275,0.95709 1.12275,0.70322 z m -161.019627,-19.84948 -0.03358,-2.23989 -0.482253,1.52835 c -0.26524,0.8406 -0.57841,2.13969 -0.695935,2.88688 l -0.213681,1.35853 0.729513,-0.64699 c 0.615264,-0.54568 0.724255,-0.9978 0.695936,-2.88688 z m 161.359267,6.9302 c 0.43871,-0.46699 0.85096,-0.84908 0.9161,-0.84908 0.0651,0 -0.1319,0.38209 -0.43789,0.84908 -0.30598,0.467 -0.71824,0.84909 -0.91612,0.84909 -0.19787,0 -8.2e-4,-0.38209 0.43791,-0.84909 z M 8.0160322,143.71395 c -0.4224602,-0.53867 -0.4104465,-0.55068 0.1282241,-0.12823 0.5657427,0.44368 0.7456569,0.72259 0.4661275,0.72259 -0.070524,0 -0.3379882,-0.26746 -0.594358,-0.59437 z m 8.2607248,-3.65105 c 0.0069,-0.56039 0.08304,-0.74852 0.169152,-0.41807 0.08611,0.33045 0.08045,0.78895 -0.01258,1.01889 -0.09304,0.22995 -0.163489,-0.0404 -0.156567,-0.60082 z m 17.961151,-3.42463 c 0.0163,-0.39565 0.09678,-0.47613 0.205196,-0.20519 0.09811,0.24517 0.08604,0.5381 -0.02682,0.65096 -0.112858,0.11284 -0.193129,-0.0877 -0.178382,-0.44577 z m 153.477182,-1.1415 c 0.19439,-0.36318 0.52128,-0.7641 0.72645,-0.89089 0.20516,-0.12683 0.11039,0.17035 -0.2107,0.66035 -0.67982,1.03753 -1.03185,1.19489 -0.51575,0.23054 z m -1.51823,-0.69818 c 0.33811,-0.37359 0.69115,-0.67926 0.78455,-0.67926 0.0935,0 -0.1068,0.30567 -0.4449,0.67926 -0.3381,0.37359 -0.69115,0.67927 -0.78455,0.67927 -0.0935,0 0.1068,-0.30568 0.4449,-0.67927 z M 15.063789,134.61564 c -0.32774,-0.85406 -0.231056,-1.07444 0.169317,-0.38593 0.198241,0.3409 0.288893,0.69138 0.201448,0.77882 -0.08744,0.0874 -0.25429,-0.0893 -0.370765,-0.39289 z m 161.283731,-1.51521 c 0.3381,-0.37361 0.69114,-0.67927 0.78454,-0.67927 0.0934,0 -0.1068,0.30566 -0.44491,0.67927 -0.33811,0.3736 -0.69115,0.67926 -0.78455,0.67926 -0.0934,0 0.1068,-0.30566 0.44492,-0.67926 z M 14.539193,132.90231 c 0.0163,-0.39566 0.09678,-0.47613 0.205196,-0.2052 0.09811,0.24517 0.08604,0.5381 -0.02682,0.65096 -0.112859,0.11283 -0.19313,-0.0877 -0.178383,-0.44576 z m 141.600157,-4.55675 c 0.39904,-0.56039 0.80194,-1.0189 0.89534,-1.0189 0.0935,0 -0.15667,0.45851 -0.55571,1.0189 -0.39904,0.56039 -0.80194,1.0189 -0.89534,1.0189 -0.0934,0 0.15667,-0.45851 0.55571,-1.0189 z m -84.54181,-0.87739 c 0.0163,-0.39564 0.09677,-0.47613 0.205194,-0.20519 0.09811,0.24518 0.08604,0.53811 -0.02681,0.65097 -0.112859,0.11283 -0.19313,-0.0877 -0.178382,-0.44578 z m 71.32019,-2.34912 c 0,-0.1868 0.21842,-0.72172 0.48538,-1.18871 0.26696,-0.46701 0.48538,-0.69625 0.48538,-0.50946 0,0.1868 -0.21842,0.72172 -0.48538,1.18872 -0.26696,0.46699 -0.48538,0.69625 -0.48538,0.50945 z m -20.9115,-1.18871 c 0.2898,-0.56041 0.60331,-1.0189 0.69671,-1.0189 0.0935,0 -0.0673,0.45849 -0.35707,1.0189 -0.2898,0.56039 -0.60332,1.0189 -0.69672,1.0189 -0.0935,0 0.0673,-0.45851 0.35708,-1.0189 z M 95.005406,124.29 c 0,-0.17577 0.151073,-0.41296 0.335739,-0.52708 0.192523,-0.11899 0.249465,0.0173 0.133475,0.31959 -0.225782,0.58838 -0.469214,0.69604 -0.469214,0.20749 z m 0.679258,-1.35852 c 0,-0.17577 0.151085,-0.41297 0.335752,-0.5271 0.192522,-0.11899 0.249452,0.0173 0.133474,0.31959 -0.225782,0.58839 -0.469226,0.69605 -0.469226,0.20751 z M 74.335533,122.5718 c 0,-0.2802 0.131351,-0.81512 0.291891,-1.18872 0.183984,-0.42815 0.291889,-0.49093 0.291889,-0.16981 0,0.2802 -0.131349,0.81512 -0.291889,1.18871 -0.183985,0.42815 -0.291891,0.49094 -0.291891,0.16982 z m 13.904027,-0.19812 c 0.0163,-0.39565 0.09679,-0.47613 0.205192,-0.20519 0.09807,0.24517 0.086,0.5381 -0.02683,0.65096 -0.112833,0.11284 -0.193125,-0.0877 -0.178376,-0.44577 z m 3.379921,-2.68877 c 0,-0.18679 0.148146,-0.56887 0.329231,-0.84907 0.181072,-0.28021 0.329231,-0.35662 0.329231,-0.16982 0,0.18679 -0.148159,0.56888 -0.329231,0.84908 -0.181085,0.2802 -0.329231,0.35661 -0.329231,0.16981 z"
       id="path1" /></g></svg>
