<?xml version="1.0" encoding="UTF-8" standalone="no"?>
<!-- Created with Inkscape (http://www.inkscape.org/) -->

<svg
   width="210mm"
   height="297mm"
   viewBox="0 0 210 297"
   version="1.1"
   id="svg1"
   xml:space="preserve"
   inkscape:version="1.4.2 (ebf0e94, 2025-05-08)"
   sodipodi:docname="atelecyclus_rotundatus.svg"
   xmlns:inkscape="http://www.inkscape.org/namespaces/inkscape"
   xmlns:sodipodi="http://sodipodi.sourceforge.net/DTD/sodipodi-0.dtd"
   xmlns="http://www.w3.org/2000/svg"
   xmlns:svg="http://www.w3.org/2000/svg"><sodipodi:namedview
     id="namedview1"
     pagecolor="#ffffff"
     bordercolor="#000000"
     borderopacity="0.25"
     inkscape:showpageshadow="2"
     inkscape:pageopacity="0.0"
     inkscape:pagecheckerboard="0"
     inkscape:deskcolor="#d1d1d1"
     inkscape:document-units="mm"
     inkscape:zoom="0.70822811"
     inkscape:cx="179.32076"
     inkscape:cy="480.7773"
     inkscape:window-width="1920"
     inkscape:window-height="991"
     inkscape:window-x="-9"
     inkscape:window-y="-9"
     inkscape:window-maximized="1"
     inkscape:current-layer="layer1" /><defs
     id="defs1" /><g
     inkscape:label="Layer 1"
     inkscape:groupmode="layer"
     id="layer1"><path
       style="fill:#000000"
       d="m 60.669822,205.27464 c -0.589859,-0.68891 -0.742589,-1.9919 -0.754879,-6.44016 -0.01182,-4.27939 0.198692,-6.26931 0.752681,-7.11481 0.25331,-0.3866 0.304208,-0.63219 0.131018,-0.63219 -0.173955,0 -0.283213,-0.53894 -0.283213,-1.397 0,-0.8636 -0.108857,-1.397 -0.285101,-1.397 -0.210631,0 -0.210721,-0.0896 -3.43e-4,-0.34311 0.156616,-0.18872 0.26531,-0.83941 0.241542,-1.44598 -0.02556,-0.65238 0.07833,-1.14339 0.254344,-1.20206 0.163657,-0.0545 0.297558,-0.22175 0.297558,-0.37154 0,-0.1498 0.28575,-0.647 0.635,-1.10489 0.34925,-0.45789 0.635,-1.11916 0.635,-1.46948 0,-0.35033 0.1143,-0.7076 0.254,-0.79394 0.1397,-0.0863 0.254,-0.42199 0.254,-0.74589 0,-0.3239 0.155462,-0.71793 0.34547,-0.87562 0.354998,-0.29463 0.283155,-1.43993 -0.122771,-1.95716 -0.254083,-0.32376 -0.180661,-2.38708 0.08501,-2.38902 0.09939,-7.2e-4 0.309147,-0.4783 0.466126,-1.06127 0.156979,-0.58298 0.562524,-1.27793 0.901211,-1.54434 0.338687,-0.26641 0.558785,-0.57663 0.489107,-0.68937 -0.06968,-0.11274 0.06996,-0.18931 0.310309,-0.17016 0.273362,0.0218 0.448625,-0.15939 0.468052,-0.48384 0.01708,-0.28526 0.171364,-0.78083 0.34285,-1.10125 0.333883,-0.62387 0.224653,-0.95163 -0.224609,-0.67397 -0.151273,0.0935 -0.209282,0.27639 -0.128908,0.40643 0.208125,0.33676 -0.233466,0.29324 -0.584282,-0.0576 -0.222714,-0.22271 -0.380888,-0.22195 -0.6521,0.003 -0.278037,0.23075 -0.429317,0.21132 -0.676866,-0.087 -0.175341,-0.21127 -0.447681,-0.38335 -0.6052,-0.38239 -0.338633,0.002 -1.4294,1.53561 -1.4294,2.00966 0,0.19561 -0.162861,0.26646 -0.401774,0.17478 -0.220975,-0.0848 -0.456321,-0.15418 -0.52299,-0.15418 -0.06667,0 -0.03538,-0.14287 0.06953,-0.3175 0.12639,-0.21037 0.04379,-0.19825 -0.244825,0.0359 -0.386464,0.31358 -0.417074,0.29926 -0.271504,-0.127 0.114278,-0.33463 0.02025,-0.28772 -0.309831,0.15458 -0.260644,0.34925 -0.474732,0.74773 -0.475753,0.88552 -10e-4,0.13778 -0.20188,0.28904 -0.446355,0.33612 -0.326844,0.0629 -0.4445,-0.0811 -0.4445,-0.54424 0,-0.52437 -0.09382,-0.60531 -0.560245,-0.48334 -0.503354,0.13163 -1.725755,1.21504 -1.725755,1.52952 0,0.069 0.185456,0.26102 0.412123,0.42676 0.534179,0.39061 0.703788,2.07497 0.227352,2.25779 -0.191583,0.0735 -0.489303,-0.0362 -0.661598,-0.24379 -0.172296,-0.2076 -0.460582,-0.32093 -0.640635,-0.25184 -0.19113,0.0734 -0.275352,-0.01 -0.202376,-0.20011 0.08481,-0.22099 -0.123528,-0.32573 -0.647935,-0.32573 -0.580175,0 -0.772931,0.11613 -0.772931,0.46567 0,0.5916 -0.39959,0.60512 -0.625965,0.0212 -0.160588,-0.41425 -0.197013,-0.41094 -0.535176,0.0486 -0.337221,0.45821 -0.362859,0.46064 -0.362859,0.0343 0,-0.42921 -0.04032,-0.43234 -0.626063,-0.0485 -0.344335,0.22561 -0.801535,0.41021 -1.016,0.41021 -0.454542,0 -0.515389,0.53495 -0.107269,0.94307 0.33763,0.33763 0.0528,0.91526 -0.333564,0.67647 -0.184092,-0.11377 -0.22621,0.29261 -0.132589,1.27931 0.0981,1.03394 0.05332,1.41812 -0.157155,1.34805 -0.161898,-0.0539 -0.334735,-0.31713 -0.384082,-0.58495 -0.04935,-0.26782 -0.249622,-0.66768 -0.445055,-0.88857 -0.195432,-0.22088 -0.326507,-0.45085 -0.291277,-0.51104 0.03523,-0.0602 -0.06285,0.0348 -0.217948,0.21112 -0.155101,0.17629 -0.498001,0.32308 -0.762,0.32619 -0.263999,0.003 -0.765748,0.22916 -1.114998,0.50235 l -0.635,0.4967 0.58649,0.006 c 0.32257,0.003 0.518934,0.11496 0.436366,0.24855 -0.08257,0.1336 -0.317914,0.17852 -0.52299,0.0998 -0.254252,-0.0976 -0.372866,0.0252 -0.372866,0.38581 0,0.46277 -0.08145,0.49792 -0.651535,0.28117 -0.844581,-0.32111 -0.872465,-0.31685 -0.872465,0.13329 0,0.20955 -0.121046,0.381 -0.26899,0.381 -0.147945,0 -0.204937,0.10364 -0.12665,0.23031 0.07829,0.12667 -0.07352,0.17386 -0.337344,0.10487 -0.263826,-0.069 -0.568484,0.0182 -0.677017,0.19385 -0.140179,0.22682 -0.07109,0.27085 0.238526,0.15204 0.274216,-0.10523 0.374339,-0.0677 0.269975,0.10115 -0.09124,0.14763 -0.328366,0.20606 -0.526954,0.12985 -0.198587,-0.0762 -0.558501,0.0345 -0.799807,0.24596 -1.383396,1.21242 -2.135606,1.67272 -2.503096,1.5317 -0.3227,-0.12383 -0.34347,-0.23091 -0.10138,-0.52261 0.16746,-0.20178 0.23508,-0.47915 0.15026,-0.61639 -0.0848,-0.13723 0.003,-0.34226 0.19505,-0.45562 0.46691,-0.27554 0.99071,-1.3017 0.81203,-1.59081 -0.0786,-0.12716 -0.009,-0.31391 0.1545,-0.415 0.18573,-0.11479 0.22934,-0.0737 0.11615,0.10945 -0.308,0.49835 0.14414,0.32325 0.63918,-0.24754 0.257963,-0.29743 0.405749,-0.64316 0.328415,-0.76829 -0.07733,-0.12513 0.01076,-0.1961 0.195772,-0.15772 0.185009,0.0384 0.307805,-0.0731 0.27288,-0.2477 -0.03493,-0.17463 0.07937,-0.28893 0.254,-0.254 0.174625,0.0349 0.286093,-0.0879 0.247707,-0.27288 -0.03839,-0.18501 0.03484,-0.27172 0.162716,-0.19268 0.368544,0.22777 0.999502,-0.94629 0.916229,-1.70488 -0.04163,-0.37926 0.02361,-0.62819 0.144983,-0.55318 0.121373,0.075 0.152293,0.33275 0.06871,0.57275 -0.13589,0.3902 -0.108926,0.39606 0.254866,0.0554 0.223759,-0.20955 0.440011,-0.86661 0.480561,-1.46013 0.06749,-0.98785 0.454727,-1.58299 0.454727,-0.69887 0,0.452 0.02517,0.45543 0.900072,0.12279 0.559799,-0.21283 0.624805,-0.32368 0.369928,-0.63079 -0.254877,-0.30711 -0.189871,-0.41795 0.369928,-0.63079 0.373528,-0.14201 0.772006,-0.25821 0.885506,-0.25821 0.1135,0 0.363234,-0.19285 0.554965,-0.42855 0.306304,-0.37656 0.293067,-0.40773 -0.109091,-0.25691 -0.326402,0.12241 -0.401081,0.0814 -0.26034,-0.14295 0.108544,-0.17302 0.161731,-0.53064 0.118193,-0.79471 -0.05628,-0.34136 0.03262,-0.43722 0.307628,-0.33169 0.462649,0.17754 1.764151,-0.77844 1.616397,-1.18727 -0.05703,-0.1578 0.386436,-0.68697 0.985484,-1.17592 0.599048,-0.48895 1.050217,-1.0115 1.002598,-1.16123 -0.135577,-0.42628 0.901881,-0.99029 1.13318,-0.61604 0.118879,0.19235 0.246272,0.0629 0.351798,-0.35759 0.09099,-0.36253 0.29155,-0.65914 0.445694,-0.65914 0.188376,0 0.176593,0.12492 -0.03594,0.381 -0.556683,0.67076 0.220894,0.4429 0.866755,-0.254 0.323674,-0.34925 0.725012,-0.635 0.891862,-0.635 0.16685,0 0.221808,-0.13196 0.122128,-0.29324 -0.117754,-0.19053 -0.06904,-0.22391 0.139081,-0.0953 0.339734,0.20996 2.347142,-0.34238 2.187345,-0.60186 -0.0517,-0.0839 0.379798,-0.18599 0.958876,-0.22678 1.053079,-0.0742 1.678906,-0.40455 1.363596,-0.71986 -0.09212,-0.0921 -0.998899,-0.305 -2.015066,-0.47306 -1.016167,-0.16807 -2.619966,-0.51878 -3.563998,-0.77937 -1.645644,-0.45427 -1.747763,-0.45529 -2.4765,-0.0248 -0.418043,0.24694 -0.760079,0.33087 -0.760079,0.18651 0,-0.47286 -4.631872,0.16 -5.461,0.74615 -0.709866,0.50183 -1.699936,0.50335 -2.401645,0.004 -0.398626,-0.28385 -0.850006,-0.51609 -1.003065,-0.51609 -0.374479,0 -0.352592,0.57421 0.03921,1.0287 0.26187,0.30377 0.256447,0.31615 -0.03095,0.0707 -0.191649,-0.16371 -0.477399,-0.26817 -0.635,-0.23213 -0.157602,0.036 -0.200824,0.0176 -0.09605,-0.041 0.104775,-0.0586 0.1905,-0.27521 0.1905,-0.48136 0,-0.21865 -0.122188,-0.29931 -0.293245,-0.19359 -0.183144,0.11319 -0.224238,0.0696 -0.109449,-0.11615 0.101087,-0.16357 0.290198,-0.23163 0.420245,-0.15126 0.352479,0.21785 0.286933,-0.0787 -0.172335,-0.7796 -0.224831,-0.34313 -0.49763,-0.56897 -0.606222,-0.50186 -0.10859,0.0671 -0.35326,-0.0767 -0.54371,-0.31968 -0.31336,-0.39971 -0.30403,-0.40856 0.0982,-0.0931 0.52626,0.41273 0.572756,0.0959 0.0811,-0.55256 -0.26243,-0.34608 -0.38299,-0.37711 -0.49345,-0.127 -0.0834,0.18892 -0.13641,0.11294 -0.12341,-0.17704 0.0409,-0.91205 -0.03,-0.99321 -0.43073,-0.49305 -0.37864,0.47261 -0.38342,0.46914 -0.11526,-0.0837 0.15387,-0.31721 0.20322,-0.7006 0.10967,-0.85197 -0.0936,-0.15137 -0.19079,-0.89111 -0.21608,-1.64387 -0.0253,-0.75275 0.0344,-1.23854 0.13272,-1.07952 0.0983,0.15903 0.36761,0.21664 0.59852,0.12803 0.2309,-0.0886 0.35487,-0.056 0.27549,0.0724 -0.0794,0.12845 -0.0282,0.30534 0.11381,0.39308 0.14198,0.0877 0.25814,0.0507 0.25814,-0.0823 0,-0.41702 0.741393,-0.54866 1.40001,-0.24857 0.706691,0.32199 0.758403,0.5116 0.348441,1.27762 -0.241502,0.45125 -0.220713,0.5057 0.140192,0.36721 0.250979,-0.0963 0.36002,-0.0595 0.26745,0.0903 -0.08596,0.13909 0.02175,0.32121 0.239349,0.40471 0.217602,0.0835 0.325353,0.26555 0.239447,0.40454 -0.103131,0.16687 0.0052,0.16816 0.318959,0.004 0.261333,-0.13691 0.851136,-0.19183 1.310671,-0.12204 0.536871,0.0815 0.990821,-0.009 1.27,-0.25437 0.505108,-0.44323 1.400461,-0.7504 2.434785,-0.83532 0.401667,-0.033 0.801717,-0.16167 0.889,-0.28599 0.08728,-0.12431 0.444446,-0.23608 0.793696,-0.24838 2.854539,-0.10048 4.02352,-0.20166 3.937526,-0.3408 -0.145986,-0.23621 0.06589,-0.20721 10.222975,1.39913 0.350921,0.0555 0.5715,-0.0397 0.5715,-0.24662 0,-0.18536 0.178694,-0.40558 0.397099,-0.48939 0.218404,-0.0838 0.331909,-0.25786 0.252233,-0.38678 -0.08759,-0.14173 0.13198,-0.14678 0.555401,-0.0128 2.46083,0.77883 4.374404,1.00069 6.669267,0.77326 0.631687,-0.0626 0.631024,-0.0648 -0.127,-0.41185 -0.963136,-0.44101 -2.077864,-0.46799 -2.244781,-0.0543 -0.102491,0.254 -0.132124,0.254 -0.148167,0 -0.01268,-0.20071 -0.414584,-0.3175 -1.092569,-0.3175 -1.072006,0 -1.07223,-2e-4 -0.470136,-0.42193 0.331309,-0.23205 1.156841,-0.4752 1.834516,-0.54031 0.677675,-0.0651 1.232137,-0.21815 1.232137,-0.34008 0,-0.12192 -0.175957,-0.22168 -0.391014,-0.22168 -0.321549,0 -0.33283,-0.0627 -0.0635,-0.35289 0.204357,-0.22019 0.387587,-0.25714 0.487267,-0.0983 0.0959,0.15285 0.206333,0.11624 0.276294,-0.0916 0.0641,-0.19044 -0.06494,-0.49098 -0.286753,-0.66787 -0.326936,-0.26073 -0.265589,-0.26255 0.324015,-0.01 0.40002,0.17161 0.599333,0.35468 0.442917,0.40682 -0.156415,0.0521 -0.219783,0.19934 -0.140818,0.3271 0.07897,0.12777 0.02253,0.23231 -0.125418,0.23231 -0.147944,0 -0.26899,0.18916 -0.26899,0.42037 0,0.38732 0.03562,0.38813 0.453176,0.0103 0.708708,-0.64138 0.641299,-1.4259 -0.150562,-1.75227 -0.375988,-0.15496 -0.883639,-0.2567 -1.128114,-0.22609 -0.255423,0.032 -0.4445,-0.11113 -0.4445,-0.33645 0,-0.39927 -0.361974,-0.5311 -2.148346,-0.78241 -0.55294,-0.0778 -1.06729,-0.23375 -1.143,-0.34658 -0.07571,-0.11282 -0.652004,-0.3458 -1.280654,-0.51773 -4.16219,-1.13827 -4.107083,-1.12836 -4.3239,-0.77754 -0.172701,0.27943 -0.279523,0.28057 -0.609742,0.007 -0.547285,-0.45421 -0.50248,-0.77807 0.107641,-0.77807 0.296998,0 0.508001,-0.16933 0.508001,-0.40768 0,-0.31997 -0.210915,-0.38757 -0.980333,-0.31419 -0.946667,0.0903 -1.559668,-0.22077 -1.559668,-0.79141 0,-0.1456 0.1036,-0.26472 0.230221,-0.26472 0.126621,0 0.17044,-0.2286 0.09738,-0.508 -0.149905,-0.57324 -0.0033,-0.62419 0.705102,-0.24506 0.338666,0.18124 0.491301,0.18124 0.491301,0 0,-0.14462 0.200025,-0.26642 0.4445,-0.27067 0.420038,-0.007 0.419744,-0.0221 -0.0053,-0.26961 -0.595472,-0.34667 -0.33585,-0.72482 0.386595,-0.56309 0.494455,0.11069 0.472468,0.0592 -0.163561,-0.38294 -0.404145,-0.28095 -0.918495,-0.45275 -1.143,-0.38177 -0.319923,0.10115 -0.333976,0.076 -0.06499,-0.11628 0.266538,-0.19053 0.102976,-0.43702 -0.73221,-1.10346 -0.591477,-0.47197 -1.174544,-0.82955 -1.295703,-0.79462 -0.121159,0.0349 -0.191715,-0.0794 -0.15679,-0.254 0.03492,-0.17463 -0.07526,-0.2903 -0.244859,-0.25705 -0.169597,0.0332 -0.249754,-0.0923 -0.178125,-0.27893 0.07163,-0.18666 -0.15911,-0.61391 -0.512753,-0.94945 -0.353642,-0.33554 -0.644961,-0.74892 -0.647374,-0.91863 -0.0024,-0.16971 -0.23619,-0.43262 -0.519503,-0.58425 -0.283313,-0.15162 -0.447313,-0.38538 -0.364445,-0.51947 0.180792,-0.29252 -0.836522,-2.47608 -1.435396,-3.08093 -0.233733,-0.23606 -0.512611,-0.35036 -0.619729,-0.254 -0.107119,0.0964 -0.106895,0.0232 4.97e-4,-0.16259 0.198284,-0.34303 -0.789655,-1.2513 -1.212193,-1.11444 -0.115158,0.0373 -0.144992,-0.0364 -0.0663,-0.16369 0.07869,-0.12733 -0.02973,-0.37493 -0.240935,-0.55022 -0.324009,-0.2689 -0.35952,-0.24363 -0.227243,0.16172 0.124288,0.38087 0.102649,0.40399 -0.104426,0.11156 -0.14366,-0.20288 -0.201752,-0.46507 -0.129093,-0.58263 0.182011,-0.2945 -0.422899,-0.98146 -0.7087,-0.80483 -0.127332,0.0787 -0.215146,0.0489 -0.195141,-0.0663 0.09086,-0.52304 -0.05549,-0.68411 -0.305636,-0.33637 -0.229661,0.31926 -0.250277,0.30734 -0.127229,-0.0735 0.135043,-0.41802 -0.239042,-1.39513 -0.65453,-1.70963 -0.226814,-0.17169 -0.786691,-1.54278 -0.817498,-2.00198 -0.01314,-0.19588 -0.232764,-0.38709 -0.488051,-0.42491 -0.297178,-0.044 -0.417725,0.0522 -0.335087,0.26759 0.130722,0.34065 -0.465456,0.38649 -0.717403,0.0551 -0.07389,-0.0972 -0.05888,-0.12026 0.03336,-0.0513 0.256086,0.19145 0.900585,-0.85127 0.713385,-1.15416 -0.111107,-0.17978 -0.300964,-0.16304 -0.586215,0.0517 -0.354718,0.26702 -0.371747,0.2613 -0.106958,-0.0359 0.374713,-0.42059 1.159554,-0.58789 0.917036,-0.19548 -0.09653,0.15619 -0.04786,0.19703 0.114916,0.0964 0.155304,-0.096 0.276824,-0.48512 0.270044,-0.86475 -0.0068,-0.37962 0.04939,-1.63009 0.12483,-2.7788 0.07928,-1.20732 0.0352,-2.15159 -0.104486,-2.23791 -0.150925,-0.0933 -0.152488,-0.31593 -0.0042,-0.59308 0.130613,-0.24405 0.203627,-0.87037 0.162253,-1.39182 -0.0623,-0.78517 0.103259,-1.17547 0.963469,-2.27135 0.571282,-0.7278 1.152785,-1.40296 1.29223,-1.50036 0.469619,-0.32803 0.614031,0.3949 0.228004,1.14139 -0.367624,0.71091 -0.428374,1.70131 -0.338146,5.5127 0.03749,1.58346 0.07939,1.68564 1.024349,2.49762 1.049258,0.90161 1.713767,1.13482 2.180573,0.76528 0.183963,-0.14563 0.341497,-0.088 0.436529,0.15962 0.08178,0.21311 0.314958,0.38748 0.518174,0.38748 0.203216,0 0.707886,0.28475 1.121489,0.63277 0.821973,0.69165 1.994888,0.96881 1.890471,0.44673 -0.03493,-0.17462 0.1651,-0.3175 0.4445,-0.3175 0.678238,0 0.649206,0.41183 -0.04177,0.59252 -0.480541,0.12567 -0.505699,0.19687 -0.199784,0.56548 0.20078,0.24192 0.388232,0.30697 0.439696,0.15258 0.06105,-0.18315 0.298439,-0.18978 0.743011,-0.0207 0.359316,0.13661 0.711194,0.19049 0.781951,0.11973 0.07076,-0.0708 -0.14512,-0.23816 -0.479727,-0.37201 -0.334607,-0.13384 -0.458756,-0.2506 -0.275886,-0.25945 0.20142,-0.01 0.254131,-0.14126 0.133713,-0.3336 -0.109327,-0.17463 -0.201798,-0.48851 -0.20549,-0.69751 -0.0037,-0.20901 -0.235018,-0.38046 -0.514057,-0.381 -0.33951,-6.6e-4 -0.505534,-0.16904 -0.501873,-0.50899 0.0036,-0.33176 0.163619,-0.49475 0.461306,-0.46981 0.305861,0.0256 0.408305,-0.0857 0.311372,-0.33828 -0.07945,-0.20705 -0.144462,-0.47783 -0.144462,-0.60172 0,-0.12389 -0.199715,-0.14861 -0.443811,-0.055 -0.422415,0.1621 -0.422415,0.13766 0,-0.50703 0.244096,-0.37254 0.436566,-0.88139 0.427711,-1.13078 -0.01272,-0.35812 -0.06439,-0.3333 -0.245815,0.11806 -0.126343,0.31433 -0.377353,0.5715 -0.557801,0.5715 -0.180447,0 -0.473619,0.23304 -0.651492,0.51786 -0.289696,0.46388 -0.818242,0.48902 -0.812589,0.0386 0.0033,-0.25897 1.711114,-2.01576 2.087502,-2.1473 0.241405,-0.0844 0.210704,-0.24005 -0.121205,-0.6146 -0.475039,-0.53607 -0.59871,-0.9679 -0.208051,-0.72646 0.396219,0.24488 0.566614,-0.32682 0.265245,-0.88993 -0.221577,-0.41402 -0.196308,-0.66381 0.115254,-1.13932 0.219479,-0.33496 0.399052,-0.8988 0.399052,-1.25296 0,-0.4973 -0.130141,-0.64483 -0.5715,-0.64783 -0.325646,-0.002 -0.452647,-0.0842 -0.29522,-0.1905 0.409837,-0.27682 0.57972,-1.19773 0.309893,-1.67988 -0.62774,-1.1217 -0.270143,-1.8661 0.453761,-0.94457 0.235434,0.29971 0.358853,0.27706 0.778794,-0.14288 0.274462,-0.27446 0.650664,-0.44847 0.836003,-0.38669 0.207111,0.069 0.265983,-0.003 0.152758,-0.18575 -0.101322,-0.16395 -0.05024,-0.45952 0.113511,-0.65683 0.400258,-0.48228 0.07458,-0.9469 -0.529375,-0.75522 -0.601309,0.19085 -0.62249,-0.0707 -0.05639,-0.69618 0.406269,-0.44893 0.40203,-0.48278 -0.07609,-0.60781 -0.524361,-0.13713 -1.301009,-1.11579 -0.885467,-1.11579 0.129243,0 0.284962,0.14288 0.346044,0.3175 0.07946,0.22718 0.282953,0.17298 0.715289,-0.1905 0.335503,-0.28207 0.465952,-0.32816 0.293313,-0.10363 -0.438719,0.57058 -0.10931,0.78258 0.424142,0.27296 0.542048,-0.51782 0.399145,-1.05833 -0.27981,-1.05833 -0.292349,0 -0.45494,-0.1326 -0.389326,-0.3175 0.06197,-0.17462 0.374856,-0.28715 0.695311,-0.25006 0.605569,0.0701 1.526614,-0.57523 1.511906,-1.05931 -0.0046,-0.15297 -0.222345,-0.0218 -0.483773,0.29159 l -0.475322,0.56972 -0.265014,-0.76022 c -0.161042,-0.46196 -0.170547,-0.76022 -0.02423,-0.76022 0.132433,0 0.240788,0.1143 0.240788,0.254 0,0.1397 0.126528,0.254 0.281175,0.254 0.154646,0 0.213979,-0.17511 0.131851,-0.38913 -0.100881,-0.26289 0.07571,-0.47797 0.544325,-0.66297 0.64529,-0.25476 0.658233,-0.28759 0.185649,-0.47103 -0.2794,-0.10846 -0.616585,-0.0959 -0.7493,0.028 -0.347559,0.32431 -0.57295,0.27832 -0.737497,-0.15049 -0.11587,-0.30195 0.07547,-0.36278 0.975374,-0.31012 0.986087,0.0577 1.137188,-0.005 1.267743,-0.52504 0.08152,-0.3248 0.08083,-0.6996 -0.0015,-0.83287 -0.08237,-0.13328 0.03061,-0.24232 0.251068,-0.24232 0.306737,0 0.361185,-0.15796 0.231947,-0.67289 -0.114866,-0.45766 -0.07987,-0.61787 0.109416,-0.50088 0.153066,0.0946 0.409739,-0.0736 0.570386,-0.37377 0.160647,-0.30017 0.194956,-0.48682 0.07624,-0.41478 -0.118713,0.072 -0.375349,-0.0414 -0.570304,-0.25219 -0.309279,-0.33434 -0.286652,-0.36167 0.177508,-0.21435 0.59016,0.18731 1.573955,-0.59524 1.573955,-1.251994 0,-0.20837 0.217195,-0.51449 0.482656,-0.68027 0.265461,-0.16579 0.425701,-0.44985 0.35609,-0.63125 -0.0713,-0.18581 0.163167,-0.46184 0.536993,-0.63216 0.480983,-0.21915 0.622344,-0.43219 0.513768,-0.77429 -0.09907,-0.31214 -0.0358,-0.44828 0.186851,-0.40206 0.191194,0.0397 0.32018,-0.12949 0.298542,-0.39156 -0.02096,-0.25379 0.01467,-0.408658 0.07918,-0.34415 0.166536,0.16653 1.221588,-0.864278 1.580224,-1.543908 0.165865,-0.31433 0.469002,-0.5715 0.673637,-0.5715 0.204634,0 0.372063,-0.12421 0.372063,-0.27601 0,-0.1518 0.633761,-0.89475 1.408358,-1.651 0.774598,-0.75625 1.328609,-1.37499 1.231136,-1.37499 -0.09747,0 0.08636,-0.2286 0.408506,-0.508 0.322151,-0.2794 0.68254,-0.508 0.800864,-0.508 0.118325,0 0.215136,-0.1283 0.215136,-0.28511 0,-0.19697 -0.117764,-0.18736 -0.381,0.0311 -0.283921,0.23564 -0.381,0.23974 -0.381,0.0161 0,-0.16818 -0.139557,-0.21978 -0.3175,-0.11737 -0.174625,0.10049 -0.229728,0.0861 -0.122451,-0.0319 0.107277,-0.11804 0.507327,-0.23145 0.889,-0.25204 0.381673,-0.0206 1.148171,-0.34894 1.70333,-0.72966 0.979267,-0.67158 1.559774,-1.15968 1.001454,-0.84204 -0.151341,0.0861 -0.275166,-0.005 -0.275166,-0.2021 0,-0.19726 0.09108,-0.30237 0.202402,-0.23357 0.111321,0.0688 0.426979,-0.0791 0.701461,-0.32867 0.919308,-0.83587 1.29747,-1.11004 1.29747,-0.94068 0,0.0925 0.170192,0.0269 0.378204,-0.14576 0.208011,-0.17264 0.305543,-0.44381 0.216737,-0.6026 -0.119126,-0.21301 -0.07892,-0.21262 0.153327,0.002 0.243864,0.22483 0.247624,0.41574 0.01668,0.84725 -0.163961,0.30636 -0.2317,0.62343 -0.150531,0.7046 0.08117,0.0812 0.147579,0.0197 0.147579,-0.13661 0,-0.1745 0.367639,-0.25067 0.9525,-0.19736 0.527143,0.048 1.292786,-0.0876 1.7145,-0.30376 0.754377,-0.38669 1.904092,-1.5353 1.90469,-1.90285 1.71e-4,-0.10478 0.111023,-0.1905 0.246339,-0.1905 0.135315,0 0.169571,0.20002 0.07612,0.4445 -0.161706,0.42305 -0.139873,0.42311 0.452472,10e-4 1.66547,-1.18622 1.985623,-1.27114 2.693367,-0.71443 0.736299,0.57917 1.211825,0.45443 1.022824,-0.26831 -0.06899,-0.26383 -0.0218,-0.41563 0.104872,-0.33734 0.126672,0.0783 0.230313,-0.0115 0.230313,-0.1996 0,-0.46524 1.008368,-0.51148 1.18381,-0.0543 0.213226,0.55565 0.788816,0.43898 1.241316,-0.25162 0.22266,-0.33983 0.625345,-0.62558 0.894855,-0.635 0.26951,-0.009 0.718619,-0.0242 0.998019,-0.0329 0.2794,-0.009 0.50975,-0.15156 0.511889,-0.3175 0.0026,-0.20439 0.07324,-0.19231 0.218898,0.0375 0.118255,0.18656 0.25938,0.30863 0.313611,0.27127 0.275025,-0.18946 1.27142,0.2788 1.118782,0.52577 -0.09566,0.15479 -0.383294,0.21498 -0.63918,0.13377 -0.255887,-0.0812 -0.538763,-0.0287 -0.628615,0.11666 -0.08985,0.14539 -0.376139,0.26434 -0.636194,0.26434 -0.325201,0 -0.52845,0.25324 -0.650978,0.81111 -0.09798,0.44611 -0.340175,0.97313 -0.538207,1.17117 -0.310742,0.31074 -0.297858,0.40553 0.09407,0.69212 0.249769,0.18263 0.368581,0.41761 0.264025,0.52216 -0.104555,0.10456 -0.194151,0.0282 -0.199101,-0.16973 -0.0049,-0.19791 -0.17235,-0.0741 -0.371999,0.27517 -0.562676,0.9843 -0.446836,1.15111 0.288636,0.41563 0.3683,-0.3683 0.76835,-0.66963 0.889,-0.66963 0.416417,0 0.217854,0.64074 -0.298492,0.96321 -0.284821,0.17787 -0.447775,0.4368 -0.362121,0.57539 0.08566,0.13859 0.06151,0.22491 -0.05364,0.19183 -0.115158,-0.0331 -0.466554,0.10587 -0.780879,0.3088 -0.574623,0.37098 -0.79543,1.26277 -0.312661,1.26277 0.155126,0 0.189051,0.27806 0.08467,0.69396 -0.09579,0.38167 -0.16171,0.86745 -0.146476,1.0795 0.04675,0.65078 -0.524216,2.66022 -0.813227,2.86204 -0.183696,0.12827 -0.148355,0.27219 0.108197,0.44061 0.20955,0.13756 0.256471,0.25186 0.10427,0.254 -0.319617,0.005 -0.944103,1.17221 -1.010124,1.888828 -0.02472,0.26836 -0.421656,0.79538 -0.88207,1.17116 -0.460414,0.37577 -0.732258,0.73754 -0.604097,0.80393 0.128161,0.0664 0.08563,0.0841 -0.09452,0.0395 -0.41047,-0.10183 -1.323459,0.45194 -1.323459,0.80273 0,0.14412 0.334599,0.66796 0.743553,1.164094 0.635247,0.77067 0.877012,0.89155 1.659793,0.8299 0.537837,-0.0424 0.853967,0.0286 0.765457,0.17182 -0.08293,0.13418 -0.02974,0.24397 0.118207,0.24397 0.147945,0 0.268991,-0.13335 0.268991,-0.29634 0,-0.72437 0.353054,0.1477 0.404483,0.99911 0.0315,0.52152 0.01063,0.83393 -0.04638,0.69423 -0.216577,-0.53068 -3.4061,-0.0785 -3.4061,0.48286 0,0.16313 -0.3429,0.49917 -0.762,0.74673 -0.765164,0.452 -1.037726,1.18003 -0.4445,1.1873 0.213418,0.003 0.228161,0.0651 0.04497,0.1905 -0.14989,0.10263 -0.346327,0.38663 -0.436528,0.63111 -0.0902,0.24447 -0.399776,0.4445 -0.687945,0.4445 -0.288169,0 -0.593412,0.18103 -0.678319,0.4023 -0.124295,0.3239 -0.196224,0.33628 -0.369139,0.0635 -0.169886,-0.26801 -0.215575,-0.27031 -0.218652,-0.011 -0.0021,0.18028 -0.250451,0.66127 -0.551805,1.06888 -0.459294,0.62122 -0.494347,0.80564 -0.216719,1.14016 0.277465,0.33432 0.248864,0.49057 -0.176298,0.96312 -0.659282,0.73275 -1.00668,1.33386 -0.639864,1.10715 0.151632,-0.0937 0.358403,-0.0366 0.459491,0.127 0.114788,0.18573 0.0737,0.22934 -0.10945,0.11616 -0.161284,-0.0997 -0.293245,-0.0534 -0.293245,0.10274 0,0.15619 -0.109278,0.21644 -0.242841,0.1339 -0.133563,-0.0825 -0.445248,0.16788 -0.692633,0.55651 -0.247386,0.38862 -0.509582,0.76374 -0.582659,0.83359 -0.344358,0.32915 -0.770878,1.31364 -0.652268,1.50554 0.07304,0.11819 -0.04272,0.36057 -0.257252,0.53861 -0.523715,0.43465 -1.563131,1.90755 -1.1783,1.66971 0.167224,-0.10335 0.303953,-0.0591 0.303953,0.0983 0,0.16422 -0.20301,0.22168 -0.476513,0.13487 -0.908663,-0.2884 -0.891982,1.0554 0.03141,2.53001 0.493751,0.78849 0.739521,0.87423 1.353284,0.47208 0.387156,-0.25368 0.622451,-0.28585 0.736853,-0.10074 0.09244,0.14957 0.274473,0.20618 0.40452,0.12581 0.130047,-0.0804 0.236449,-0.0183 0.236449,0.13785 0,0.15619 0.104538,0.21937 0.232306,0.14041 0.127768,-0.079 0.300486,1e-5 0.383817,0.17551 0.08333,0.17549 0.08626,0.0333 0.0065,-0.31592 -0.490549,-2.14838 -0.389919,-2.71368 0.351146,-1.97262 0.172362,0.17237 0.66241,0.33094 1.088994,0.3524 0.558621,0.0281 0.698338,-0.0383 0.499413,-0.23719 -0.384146,-0.38414 -0.330999,-1.73198 0.0902,-2.28762 0.332532,-0.43867 0.36039,-0.43225 0.550936,0.127 0.110382,0.32396 0.206313,0.66904 0.213181,0.76683 0.0069,0.0978 0.172129,0.32639 0.367248,0.508 0.261477,0.24337 0.307628,0.24671 0.17551,0.0127 -0.09859,-0.17463 -0.07926,-0.3175 0.04296,-0.3175 0.12222,0 0.488881,-0.47446 0.814802,-1.05436 0.371234,-0.66052 0.459863,-0.98536 0.237271,-0.86965 -0.195421,0.10159 -0.08547,-0.0526 0.244329,-0.34264 l 0.599639,-0.52734 h -0.578473 c -0.489944,0 -0.517262,-0.37366 -0.02814,-0.38489 0.41288,-0.01 0.804333,-0.44755 0.804333,-0.9001 0,-0.84049 0.420512,-0.54551 0.942984,0.66148 0.430708,0.99498 0.544591,1.10044 0.82436,0.76335 0.178537,-0.21513 0.270712,-0.59725 0.204833,-0.84918 -0.09685,-0.37037 0.0311,-0.4557 0.668522,-0.44585 l 0.788302,0.0122 -0.06403,-1.651 c -0.07999,-2.06238 0.100546,-3.17523 0.595386,-3.67007 0.343197,-0.34319 0.485056,-0.32069 1.323522,0.20996 0.516519,0.3269 0.948702,0.69623 0.960408,0.82074 0.05232,0.55647 1.066959,2.37884 1.502717,2.69898 0.15598,0.1146 0.128027,0.18811 -0.07244,0.1905 -0.247628,0.003 -0.2608,0.12653 -0.05456,0.51189 0.14953,0.2794 0.433413,0.508 0.63085,0.508 0.502913,0 1.733419,-1.19086 1.777079,-1.71983 0.0199,-0.24154 0.18009,-0.70372 0.355885,-1.02707 0.25953,-0.47737 0.38907,-0.53026 0.68904,-0.2813 0.20319,0.16862 0.31354,0.36248 0.24523,0.43079 -0.0683,0.0683 -0.004,0.34894 0.14307,0.62361 0.26291,0.49126 0.2735,0.49053 0.64872,-0.0452 0.20979,-0.29952 0.3203,-0.7039 0.24558,-0.89862 -0.0848,-0.22102 0.14525,-0.47847 0.61235,-0.68522 0.61119,-0.27054 0.7482,-0.48537 0.7482,-1.17318 0,-0.49664 -0.10418,-0.7776 -0.254,-0.685 -0.1397,0.0863 -0.254,0.0359 -0.254,-0.11201 0,-0.14795 0.11713,-0.26899 0.26029,-0.26899 0.14316,0 0.37365,-0.29818 0.51221,-0.66261 0.2106,-0.55391 0.31468,-0.61052 0.63453,-0.34507 0.32289,0.26798 0.35556,0.24256 0.20932,-0.1629 -0.0953,-0.26423 -0.0843,-0.40014 0.0244,-0.30202 0.21579,0.19473 0.62578,-0.14788 1.12536,-0.9404 l 0.32023,-0.508 -0.14952,0.508 c -0.12449,0.42294 -0.0674,0.40304 0.34115,-0.11883 0.35919,-0.45887 0.42575,-0.74812 0.2484,-1.0795 -0.31719,-0.59268 0.16831,-0.61361 0.49964,-0.0215 0.14147,0.2528 0.15071,0.66935 0.0223,1.00701 -0.12317,0.32397 -0.12252,0.63547 0.002,0.71212 0.12125,0.0749 0.15421,0.39331 0.0732,0.70749 -0.13112,0.50884 -0.10077,0.53317 0.27784,0.22265 0.36377,-0.29834 0.42505,-0.29311 0.42505,0.0363 0,0.21171 0.1808,0.4543 0.40178,0.5391 0.55022,0.21114 0.5385,0.21717 0.68782,-0.35383 0.0731,-0.2794 0.0292,-0.508 -0.0974,-0.508 -0.12662,0 -0.23022,-0.17819 -0.23022,-0.39599 0,-0.21779 0.1143,-0.32535 0.254,-0.23901 0.46907,0.2899 0.25726,-0.24725 -0.40063,-1.016 -0.35866,-0.4191 -0.601,-0.6477 -0.53852,-0.508 0.0625,0.1397 0.0277,0.4826 -0.0773,0.762 -0.1427,0.37968 -0.19242,0.26864 -0.19682,-0.43955 -0.005,-0.83819 0.0624,-0.9419 0.5854,-0.89862 0.32521,0.0269 0.52363,0.15842 0.44093,0.29222 -0.0867,0.14025 0.0342,0.17245 0.28551,0.076 0.24105,-0.0925 0.37135,-0.0629 0.29152,0.0663 -0.238,0.38509 0.36569,0.59004 0.76408,0.25941 0.26049,-0.21619 0.36987,-0.22266 0.36987,-0.0219 0,0.40557 0.40418,0.35264 0.87086,-0.11404 0.36286,-0.36286 0.39914,-0.36286 0.39914,0 0,0.21953 -0.169,0.39914 -0.37555,0.39914 -0.30994,0 -0.32422,0.11267 -0.0818,0.64481 0.16767,0.36801 0.43793,0.58951 0.62955,0.51598 0.77692,-0.29814 0.98374,0.10684 0.94784,1.85604 -0.0343,1.6711 -0.0132,1.73532 0.56215,1.70925 0.32878,-0.0149 0.59785,0.0872 0.59794,0.22692 8e-5,0.1397 -0.18923,0.25449 -0.4207,0.25508 -0.23147,5.9e-4 -0.46526,0.1343 -0.51954,0.29713 -0.10746,0.32239 0.37022,0.31719 0.8937,-0.01 0.18709,-0.11683 0.49135,-0.0702 0.70644,0.10834 0.30696,0.25475 0.4513,0.22313 0.76971,-0.16864 0.21554,-0.2652 0.30623,-0.3178 0.20152,-0.11688 -0.10471,0.20092 -0.19891,0.78284 -0.20934,1.29315 -0.0156,0.76331 0.0599,0.90722 0.42554,0.81157 0.24448,-0.064 0.45879,0.0114 0.47625,0.16735 0.0175,0.15599 0.046,0.41697 0.0635,0.57996 0.0619,0.57736 0.57335,0.46395 1.29239,-0.28656 0.40063,-0.41817 0.74402,-0.97208 0.76308,-1.23091 0.0191,-0.25883 0.17423,-0.63289 0.3448,-0.83124 0.17058,-0.19834 0.5766,-0.87498 0.90227,-1.50363 0.54743,-1.0567 0.66341,-1.14069 1.53603,-1.11244 0.51914,0.0168 1.06122,0.14788 1.20462,0.29128 0.37531,0.37531 0.30332,2.57957 -0.12482,3.82227 -0.20141,0.58459 -0.26527,1.06289 -0.14191,1.06289 0.12336,0 0.22429,-0.12104 0.22429,-0.26899 0,-0.14794 0.1143,-0.19835 0.254,-0.11201 0.1397,0.0863 0.25225,0.46456 0.25011,0.84049 -0.003,0.53461 -0.0575,0.60051 -0.25011,0.30251 -0.13542,-0.20955 -0.24797,-0.25717 -0.25011,-0.10583 -0.007,0.51615 0.29101,0.57082 1.15189,0.21112 0.7578,-0.31662 0.84292,-0.31405 0.71411,0.0216 -0.0804,0.20961 -0.033,0.3811 0.10531,0.3811 0.13836,0 0.31713,-0.25076 0.39727,-0.55724 0.14084,-0.53857 0.16257,-0.54199 0.64862,-0.10212 0.2766,0.25032 0.6244,0.38003 0.77291,0.28825 0.1485,-0.0918 0.27,-0.0458 0.27,0.10212 0,0.14794 -0.11071,0.26899 -0.24603,0.26899 -0.13531,0 -0.17655,0.18103 -0.0917,0.40229 0.11399,0.29705 0.20444,0.3213 0.34573,0.0927 0.13484,-0.21818 0.2805,-0.14303 0.49323,0.25446 0.16603,0.31023 0.3589,0.50704 0.4286,0.43734 0.0697,-0.0697 -0.0748,-0.45094 -0.32118,-0.84724 -0.25583,-0.41157 -0.29721,-0.58439 -0.0965,-0.40304 0.19326,0.17463 0.55039,0.3175 0.7936,0.3175 0.57509,0 0.82045,0.4233 0.88218,1.52192 0.15775,2.80763 0.29236,3.25506 0.75437,2.50752 0.12224,-0.19779 0.30672,-0.13738 0.58649,0.19205 0.22448,0.26433 0.38057,0.43327 0.34686,0.37542 -0.0337,-0.0579 0.0617,-0.25334 0.21195,-0.43443 0.57071,-0.68766 1.20813,-2.18852 1.07586,-2.53321 -0.0758,-0.1976 -0.0105,-0.35928 0.14527,-0.35928 0.15572,0 -0.0224,-0.3429 -0.39581,-0.76199 -0.37342,-0.4191 -0.8455,-0.762 -1.04906,-0.762 -0.29898,0 -0.30979,-0.0727 -0.0562,-0.3782 0.17264,-0.20801 0.42664,-0.30852 0.56444,-0.22335 0.31287,0.19336 -0.11871,-0.62053 -1.2929,-2.43827 -0.49924,-0.77285 -0.91571,-1.51948 -0.92551,-1.65918 -0.01,-0.1397 -0.13916,-0.23086 -0.2875,-0.20258 -0.14833,0.0283 -0.23747,-0.2422 -0.19807,-0.60107 0.0394,-0.35886 -0.0268,-0.89635 -0.14716,-1.19441 -0.12033,-0.29807 -0.22602,-0.39906 -0.23488,-0.22444 -0.009,0.17463 -0.19157,0.3175 -0.40603,0.3175 -0.30439,0 -0.33328,-0.10588 -0.13166,-0.48261 0.19788,-0.36973 0.16541,-0.51825 -0.13883,-0.635 -0.541,-0.2076 -0.60958,-0.19448 -0.60958,0.1166 0,0.14795 0.1143,0.19835 0.254,0.11201 0.32146,-0.19867 0.32146,0.13758 0,0.635 -0.21134,0.32704 -0.24677,0.31917 -0.25011,-0.0555 -0.002,-0.24009 -0.14676,-0.4017 -0.32139,-0.35913 -0.17462,0.0426 -0.23177,0.0295 -0.127,-0.0291 0.10478,-0.0586 0.1905,-0.26943 0.1905,-0.46852 0,-0.26715 -0.11645,-0.2989 -0.4445,-0.12118 -0.24447,0.13245 -0.76891,0.30958 -1.16541,0.39362 -0.63533,0.13467 -0.68108,0.20434 -0.38538,0.58684 0.25657,0.33189 0.20206,0.32016 -0.23158,-0.0498 -0.66413,-0.56663 -0.72826,-0.91313 -0.16901,-0.91313 0.28253,0 0.3513,-0.14749 0.23688,-0.508 -0.12791,-0.40303 -0.0456,-0.508 0.39814,-0.508 0.52826,0 0.51928,-0.0315 -0.16153,-0.56706 -0.39649,-0.31188 -0.84053,-0.57139 -0.98675,-0.5767 -0.56512,-0.0205 -1.40886,-0.42686 -1.40886,-0.67853 0,-0.14523 -0.18522,-0.19298 -0.41161,-0.10611 -0.32078,0.1231 -0.38067,0.0396 -0.27137,-0.37832 0.0771,-0.29495 0.0776,-0.69962 9.5e-4,-0.89926 -0.11406,-0.29722 -0.21178,-0.30429 -0.53939,-0.039 -0.32544,0.26353 -0.36322,0.26266 -0.20247,-0.005 0.1087,-0.18074 0.0669,-0.48608 -0.0928,-0.67852 -0.23632,-0.28475 -0.18129,-0.32177 0.29564,-0.19882 0.51486,0.13272 0.54521,0.10128 0.24994,-0.25889 -0.1906,-0.2325 -0.52043,-0.344374 -0.762,-0.25844 -0.2943,0.10468 -0.25112,-0.006 0.13972,-0.357324 l 0.56565,-0.50882 -0.62915,-0.59106 c -0.54902,-0.51578 -0.72473,-0.51155 -0.67679,0.0163 0.007,0.0758 -0.33007,0.16392 -0.74879,0.19582 -0.41871,0.0319 -1.04465,0.34137 -1.39098,0.68769 -0.34632,0.34632 -0.75278,0.629684 -0.90323,0.629684 -0.16682,0 -0.13754,0.17344 0.075,0.4445 0.30844,0.39329 0.30201,0.40817 -0.0558,0.1292 -0.2224,-0.17341 -0.5027,-0.23056 -0.62288,-0.127 -0.29514,0.25434 0.3538,-0.689194 1.25317,-1.822074 0.40366,-0.50845 0.67197,-0.98641 0.59625,-1.06213 -0.0757,-0.0757 -0.34234,0.20881 -0.5925,0.63229 -0.32743,0.55429 -0.54087,0.69854 -0.76204,0.51498 -0.21147,-0.1755 -0.34644,-0.15271 -0.43304,0.0731 -0.0692,0.18046 -0.11408,0.0835 -0.0998,-0.21549 0.016,-0.33447 0.15265,-0.49502 0.35511,-0.41733 0.18098,0.0694 0.32905,0.004 0.32905,-0.14462 0,-0.149 0.2916,-0.54128 0.64799,-0.87175 l 0.64799,-0.60084 -1.00958,-0.45526 c -0.67024,-0.30224 -0.9631,-0.576348 -0.87131,-0.815548 0.1168,-0.30438 0.23545,-0.2966 0.76462,0.0501 0.87637,0.574218 0.97332,0.31765 0.21881,-0.57903 -0.35109,-0.41726 -0.55581,-0.84987 -0.45493,-0.96137 0.10087,-0.11149 -0.0193,-0.12993 -0.26696,-0.041 -0.38719,0.13906 -0.41118,0.0885 -0.17095,-0.36037 0.15369,-0.28718 0.20611,-0.71323 0.11649,-0.94679 -0.0896,-0.23356 -0.16814,-0.4818 -0.17448,-0.55165 -0.006,-0.0699 -0.2321,-0.43677 -0.5017,-0.81538 -0.3947,-0.5543 -0.59951,-0.64719 -1.05158,-0.47692 -0.30877,0.1163 -0.82914,0.11152 -1.15637,-0.0106 -0.32722,-0.12214 -0.71636,-0.14704 -0.86474,-0.0553 -0.15878,0.0981 -0.19522,0.0461 -0.0885,-0.12651 0.11392,-0.18432 -0.007,-0.29324 -0.32677,-0.29324 -0.2794,0 -0.58479,-0.12426 -0.67865,-0.27613 -0.0939,-0.15187 -0.3765,-0.2223 -0.62809,-0.15651 -0.28094,0.0735 -0.49929,-0.0405 -0.56595,-0.29537 -0.0776,-0.29671 0.061,-0.41499 0.4861,-0.41499 0.32704,0 0.59461,0.0756 0.59461,0.16802 0,0.0924 0.20003,0.13438 0.4445,0.0933 0.24448,-0.0411 0.41125,-0.21648 0.37062,-0.38968 -0.043,-0.18318 0.0799,-0.25592 0.29363,-0.17389 0.47967,0.18406 1.28209,-0.70915 1.08903,-1.21225 -0.0824,-0.21476 -0.32487,-0.39046 -0.53881,-0.39046 -0.21393,0 -0.38897,-0.11213 -0.38897,-0.24916 0,-0.13704 -0.28575,-0.32088 -0.635,-0.40854 -0.34925,-0.0877 -0.635,-0.2577 -0.635,-0.37787 0,-0.12017 -0.17274,-0.1522 -0.38388,-0.0712 -0.27469,0.10541 -0.3392,0.0309 -0.22682,-0.26197 0.0864,-0.2251 0.0382,-0.40928 -0.10713,-0.40928 -0.14531,0 -0.25444,-0.3429 -0.24253,-0.762 0.0233,-0.8182 0.20617,-0.91163 0.97706,-0.49906 0.35111,0.18791 0.4913,0.18097 0.4913,-0.0243 0,-0.38254 -0.8185,-1.75418 -1.07076,-1.79438 -0.10958,-0.0175 -0.31354,-0.0603 -0.45324,-0.0953 -0.1397,-0.0349 -0.32514,-0.0778 -0.4121,-0.0952 -0.087,-0.0175 -0.0308,-0.18514 0.1248,-0.37262 0.15559,-0.18748 0.19816,-0.43108 0.0946,-0.54134 -0.10356,-0.11027 0.0952,-0.0426 0.44163,0.15037 0.34646,0.19296 0.78356,0.52229 0.97134,0.73184 0.18777,0.20955 0.27391,0.24602 0.19143,0.081 -0.0825,-0.16497 -0.0338,-0.37174 0.10816,-0.45949 0.14198,-0.0877 0.2714,-0.40997 0.28761,-0.71605 0.0181,-0.34227 0.0703,-0.40541 0.13561,-0.16402 0.0765,0.28277 0.34557,0.36454 0.96258,0.29251 1.03677,-0.12104 3.55903,0.94948 5.21465,2.21324 1.1037,0.84248 1.1231,0.84731 0.67864,0.16898 -0.49346,-0.75312 -0.39234,-1.1608 0.17178,-0.69262 0.19086,0.1584 0.40691,0.22809 0.48013,0.15488 0.0732,-0.0732 0.10342,0.13733 0.0671,0.46787 -0.0404,0.36771 0.0671,0.60098 0.27684,0.60098 0.18855,0 0.28395,-0.0952 0.212,-0.21166 -0.072,-0.11642 0.17567,-0.21167 0.55027,-0.21167 0.55752,0 0.62713,-0.065 0.38366,-0.35839 -0.19333,-0.23294 -0.20812,-0.41358 -0.0423,-0.51609 0.14035,-0.0867 0.44187,0.12723 0.67006,0.47548 0.22818,0.34826 0.6131,0.69611 0.85538,0.773 0.24227,0.0769 0.71563,0.39568 1.0519,0.70841 0.61777,0.57452 1.26946,0.74461 1.51918,0.39651 0.0748,-0.1043 0.73204,0.26148 1.4605,0.81283 1.05222,0.79639 1.32721,0.91188 1.3378,0.56185 0.0111,-0.36645 0.0804,-0.34443 0.41198,0.1309 0.21926,0.31433 0.56099,0.5715 0.75939,0.5715 0.19841,0 0.49879,0.11642 0.66752,0.25871 1.53098,1.29108 1.70848,1.39082 2.29416,1.28908 0.11516,-0.02 0.145,0.0678 0.0663,0.19514 -0.19609,0.31728 0.52617,0.88092 0.86249,0.67306 0.14928,-0.0923 0.24001,-0.0559 0.20163,0.0808 -0.0384,0.13668 0.44455,0.62232 1.0732,1.07919 0.62865,0.45687 1.00211,0.65853 0.8299,0.44813 -0.26284,-0.32113 -0.22206,-0.37547 0.254,-0.33854 0.41811,0.0324 0.54723,0.18212 0.49145,0.56973 -0.0416,0.28915 0.0441,0.59975 0.1905,0.69022 0.14638,0.0905 0.27073,0.0149 0.27632,-0.168 0.006,-0.18287 0.19191,0.0104 0.41403,0.42951 0.49719,0.93808 2.40581,2.67472 2.72369,2.47826 0.12793,-0.0791 0.15445,-0.0173 0.0589,0.13727 -0.0961,0.15543 0.3578,0.82571 1.01548,1.499748 0.65405,0.67029 1.11818,1.01869 1.03141,0.77422 -0.2188,-0.6165 0.002,-0.5572 0.35071,0.0942 0.20261,0.37858 0.20526,0.48735 0.009,0.36601 -0.57591,-0.35594 -0.22991,0.28895 1.01367,1.88934 0.70561,0.908054 1.58916,1.788724 1.96346,1.957044 0.46389,0.20862 0.53903,0.30969 0.23603,0.3175 -0.65891,0.017 -0.56119,0.99692 0.127,1.27354 0.31433,0.12634 0.42863,0.23696 0.254,0.24582 -0.38378,0.0195 -0.43108,0.7781 -0.0485,0.7781 0.14795,0 0.19835,-0.1143 0.11201,-0.254 -0.0863,-0.1397 0.0199,-0.254 0.23617,-0.254 0.26092,0 0.37598,0.2074 0.3421,0.61668 -0.0281,0.33918 -0.14109,0.56104 -0.25115,0.49301 -0.11006,-0.068 -0.20012,-0.009 -0.20012,0.13033 0,0.1397 0.1143,0.32464 0.254,0.41098 0.1397,0.0863 0.254,0.42328 0.254,0.74876 0,0.40772 0.13826,0.58082 0.4445,0.55651 0.29905,-0.0237 0.4469,0.14999 0.45183,0.53086 0.004,0.31137 0.15976,0.71142 0.34605,0.889 0.27929,0.26621 0.31184,0.21145 0.18552,-0.31213 -0.0843,-0.34925 -0.0874,-0.49142 -0.007,-0.31592 0.0805,0.17549 0.26229,0.24743 0.404,0.15985 0.15306,-0.0946 0.1419,0.057 -0.0275,0.37356 -0.32778,0.61246 0.0669,1.47309 0.77924,1.69918 0.25614,0.0813 0.37215,0.31233 0.29841,0.5943 -0.0663,0.25371 0.0617,0.64366 0.28463,0.86655 0.22289,0.2229 0.37464,0.55426 0.33722,0.73637 -0.0374,0.18211 0.0942,0.29608 0.29246,0.25327 0.30082,-0.0649 0.30515,-0.0111 0.0262,0.32503 -0.26025,0.31357 -0.26978,0.54456 -0.043,1.04228 0.16024,0.35169 0.29134,0.90075 0.29134,1.22013 0,0.3194 0.076,0.65674 0.16893,0.74965 0.33106,0.33106 0.59712,4.01329 0.27557,3.81389 -0.10477,-0.065 -0.1905,-0.006 -0.1905,0.13223 0,0.1377 0.20003,0.30264 0.4445,0.36653 0.42334,0.11063 0.42334,0.11756 0,0.14562 -0.58652,0.0389 -0.56104,0.19637 0.14032,0.86715 0.32165,0.30762 0.53219,0.53173 0.46787,0.49802 -0.29368,-0.15393 -0.79869,0.56657 -0.79869,1.1395 0,0.54395 0.0563,0.58829 0.39256,0.3092 0.21591,-0.17918 0.33152,-0.48487 0.25691,-0.67929 -0.0746,-0.19442 -0.0227,-0.28367 0.11544,-0.19832 0.1381,0.0854 0.25959,0.0627 0.26997,-0.0503 0.0104,-0.11302 0.0838,-0.49124 0.16312,-0.84049 0.0793,-0.34925 0.15656,-0.89217 0.17162,-1.2065 0.0151,-0.31432 0.1392,-0.53422 0.27587,-0.48867 0.34503,0.11501 0.31947,1.12828 -0.058,2.29861 -0.3822,1.18505 -0.38163,1.17456 -0.0635,1.17456 0.1397,0 0.254,-0.17145 0.254,-0.381 0,-0.20955 0.11593,-0.381 0.25763,-0.381 0.3401,0 0.0594,1.5821 -0.32265,1.81819 -0.16045,0.0992 -0.40585,0.10976 -0.54534,0.0236 -0.15737,-0.0973 -0.13787,-0.19532 0.0514,-0.2584 0.16775,-0.0559 0.30499,-0.23093 0.30499,-0.38893 0,-0.15799 -0.20002,-0.0776 -0.4445,0.17862 -0.32556,0.34122 -0.35954,0.49738 -0.127,0.5836 0.17463,0.0647 0.3175,0.33679 0.3175,0.60454 0,0.26776 -0.14287,0.48859 -0.3175,0.49073 -0.21166,0.003 -0.1905,0.086 0.0635,0.25011 0.2711,0.17519 0.28622,0.24734 0.0524,0.25011 -0.18072,0.002 -0.61045,0.26524 -0.95494,0.58467 l -0.62635,0.58079 0.75634,0.0576 c 0.56444,0.043 0.86215,-0.10385 1.17337,-0.57883 0.22936,-0.35005 0.35229,-0.80512 0.27318,-1.01128 -0.18768,-0.48911 0.22735,-0.73449 0.74877,-0.44269 0.37407,0.20934 0.37463,0.24379 0.006,0.38514 -0.22557,0.0866 -0.34158,0.31925 -0.26225,0.52599 0.0783,0.20393 0.0152,0.6083 -0.14021,0.89862 -0.18799,0.35126 -0.19454,0.52785 -0.0196,0.52785 0.14461,0 0.26293,-0.13335 0.26293,-0.29634 0,-0.16298 0.0676,-0.2287 0.15029,-0.14605 0.0827,0.0827 0.0413,0.34499 -0.0918,0.58295 -0.16413,0.29329 -0.2992,0.34034 -0.41928,0.14605 -0.2261,-0.36584 -0.4209,-0.35185 -0.97707,0.0702 -0.27945,0.21206 -0.38596,0.5047 -0.28215,0.77522 0.11426,0.29777 0.22388,0.34215 0.3482,0.14099 0.0998,-0.16146 0.49384,-0.32787 0.87566,-0.36978 0.83197,-0.0913 2.17008,-1.47111 2.18437,-2.25241 0.009,-0.50557 0.0452,-0.49113 0.39801,0.15966 0.30297,0.5589 0.32173,0.79514 0.0857,1.0795 -0.16616,0.20021 -0.21697,0.36402 -0.11291,0.36402 0.10406,0 0.0323,0.20002 -0.1594,0.4445 -0.31187,0.39766 -0.30415,0.40975 0.0733,0.11466 0.25773,-0.20149 0.48113,-0.23398 0.57413,-0.0835 0.27229,0.44057 0.34185,1.8169 0.0994,1.96674 -0.12988,0.0803 -0.16471,0.47127 -0.0774,0.86888 0.21391,0.97389 -0.24759,1.76871 -1.02697,1.76871 -0.34434,0 -0.62607,0.11238 -0.62607,0.24973 0,0.13734 -0.5715,0.53932 -1.27,0.89327 -0.6985,0.35396 -1.27,0.69593 -1.27,0.75993 0,0.17628 1.61211,-0.16615 1.92375,-0.40862 0.15389,-0.11975 0.40292,-0.082 0.5715,0.0865 0.22901,0.22901 0.29875,0.22759 0.29875,-0.006 0,-0.16764 0.20003,-0.31284 0.4445,-0.32266 0.3801,-0.0153 0.3709,-0.0495 -0.0635,-0.23614 -0.37362,-0.16055 -0.40161,-0.22302 -0.10583,-0.23615 0.99249,-0.0441 0.78819,0.82926 -0.32916,1.40707 -0.71745,0.37101 -0.73151,0.40858 -0.28672,0.76661 0.43477,0.34997 0.42708,0.35678 -0.10904,0.0967 -0.31721,-0.15386 -0.68825,-0.21084 -0.82454,-0.12661 -0.13629,0.0842 -0.44825,0.20155 -0.69325,0.26071 -1.25957,0.30416 -2.35695,0.78419 -2.47077,1.0808 -0.0722,0.18823 -0.0121,0.26165 0.13828,0.16874 0.48339,-0.29875 4.04603,-0.42471 4.04603,-0.14305 0,0.34949 -0.84811,0.78915 -1.52229,0.78915 -0.29683,0 -0.46985,0.11299 -0.3845,0.25109 0.0861,0.13938 -0.006,0.18908 -0.20804,0.11171 -0.19977,-0.0767 -0.97723,0.0555 -1.72769,0.29362 -1.47103,0.46682 -2.12478,0.86758 -1.41528,0.86758 0.23749,0 0.4318,0.1647 0.4318,0.36601 0,0.52051 0.4303,0.71871 0.94049,0.4332 0.30085,-0.16836 0.74529,-0.12074 1.43004,0.15324 0.9155,0.36632 1.01225,0.36405 1.23211,-0.0288 0.13122,-0.23448 0.32215,-0.37468 0.42429,-0.31156 0.10213,0.0631 0.21294,-0.24281 0.24624,-0.67985 0.0741,-0.97306 0.18685,-1.10338 0.63357,-0.73264 0.19085,0.1584 0.42221,0.21279 0.51413,0.12087 0.0919,-0.0919 0.16713,0.0887 0.16713,0.40134 0,0.31266 -0.1725,0.74098 -0.38333,0.95181 -0.21083,0.21084 -0.3192,0.48711 -0.24081,0.61395 0.0784,0.12684 -0.0211,0.16783 -0.22108,0.0911 -0.2025,-0.0777 -0.57412,0.12293 -0.8387,0.45279 -0.32501,0.40522 -0.79601,0.61739 -1.49108,0.67167 -1.034,0.0807 -3.77136,0.87843 -4.42269,1.2888 -0.30469,0.19197 -0.29801,0.28667 0.0444,0.62905 0.22169,0.22169 0.69742,0.51498 1.05719,0.65177 0.40558,0.1542 0.65413,0.44412 0.65413,0.76298 0,0.42946 -0.16525,0.51429 -1.00183,0.51429 -0.67666,0 -1.22037,0.18798 -1.67512,0.57913 -0.66065,0.56827 -0.66276,0.57993 -0.11274,0.62136 0.3083,0.0232 0.77635,0.23753 1.04012,0.47623 0.37602,0.3403 0.48041,0.35696 0.48346,0.0772 0.003,-0.25836 0.0569,-0.27352 0.19589,-0.0549 0.1449,0.22789 0.39232,0.20495 1.00856,-0.0935 0.44911,-0.21751 0.75935,-0.48804 0.68942,-0.60118 -0.0699,-0.11314 0.0927,-0.27548 0.36139,-0.36075 0.53993,-0.17137 4.34485,-3.83229 4.34485,-4.18042 0,-0.12032 0.16068,-0.28041 0.35705,-0.35577 0.19638,-0.0754 0.43033,-0.45906 0.51989,-0.85268 0.10433,-0.45855 0.51561,-0.93429 1.14476,-1.3242 0.54006,-0.3347 0.9535,-0.73475 0.91875,-0.889 -0.0348,-0.15425 -0.0153,-0.19473 0.0434,-0.09 0.15952,0.28524 0.8262,0.22961 0.8262,-0.069 0,-0.1427 0.27696,-0.38564 0.61547,-0.53987 0.3385,-0.15423 0.68091,-0.54121 0.76091,-0.85996 0.08,-0.31874 0.22252,-0.78035 0.31671,-1.0258 0.12746,-0.33215 0.079,-0.39832 -0.18942,-0.25876 -0.19837,0.10313 -0.1438,0.0112 0.12125,-0.20419 0.26506,-0.21544 0.56216,-0.34211 0.66022,-0.28151 0.0981,0.0606 0.33388,-0.1805 0.52403,-0.5358 0.42606,-0.79609 1.12118,-1.19132 1.74634,-0.9929 0.32352,0.10268 0.4303,0.31057 0.33895,0.65989 -0.0733,0.28049 -0.033,0.49158 0.0896,0.46908 0.12263,-0.0225 0.30868,-0.0131 0.41345,0.0209 0.92774,0.30111 1.91481,-0.54238 2.22042,-1.89744 0.24658,-1.09328 0.1079,-1.66023 -0.40609,-1.66023 -0.1946,0 -0.32525,-0.12769 -0.29033,-0.28376 0.0349,-0.15606 -0.16302,-0.32129 -0.43989,-0.36716 -0.27686,-0.0459 -0.54356,-0.20394 -0.59266,-0.35125 -0.0491,-0.1473 -0.23721,-0.26783 -0.41801,-0.26783 -0.38724,0 -1.03421,-0.71139 -0.83141,-0.91419 0.077,-0.077 0.32183,-0.16662 0.54415,-0.19925 0.22233,-0.0326 0.55812,-0.2698 0.74622,-0.52703 0.32222,-0.44066 0.39008,-0.44371 1.1739,-0.0527 0.95199,0.47491 1.36793,0.344 1.14442,-0.36021 -0.12407,-0.39092 -0.0296,-0.48663 0.48055,-0.48663 0.41192,0 0.69164,-0.17846 0.79623,-0.508 0.0887,-0.2794 0.25225,-0.508 0.36348,-0.508 0.50946,0 1.5579,1.44771 2.1706,2.99722 0.37011,0.93598 0.85902,1.84466 1.08647,2.01928 0.28294,0.21723 0.30942,0.3175 0.0838,0.3175 -0.20676,0 -0.26755,0.16202 -0.16301,0.43445 0.32841,0.85583 0.41308,3.37635 0.13112,3.90321 -0.23051,0.4307 -0.19661,0.59757 0.18094,0.89078 0.41838,0.32493 0.42038,0.34542 0.0201,0.20601 -0.29755,-0.10362 -0.4445,-0.0259 -0.4445,0.23524 0,0.21451 -0.16173,0.55176 -0.3594,0.74943 -0.19767,0.19767 -0.34054,0.56501 -0.3175,0.8163 0.0231,0.2513 -0.10383,0.48921 -0.28195,0.5287 -0.17811,0.0395 -0.20669,0.0137 -0.0635,-0.0573 0.1432,-0.071 0.26023,-0.26247 0.26007,-0.42545 -1.6e-4,-0.16299 -0.31448,0.0153 -0.6985,0.39625 -0.38402,0.38093 -1.01068,0.96381 -1.39258,1.2953 -0.38191,0.33149 -0.61051,0.68657 -0.508,0.78908 0.1025,0.1025 0.0721,0.15177 -0.0676,0.10949 -0.29632,-0.0897 -2.413,1.28109 -2.413,1.56267 0,0.10484 -0.22875,0.25045 -0.50835,0.32356 -0.27959,0.0731 -0.44429,0.0293 -0.36601,-0.0974 0.0783,-0.12667 0.0499,-0.22856 -0.0632,-0.22642 -0.28721,0.005 -1.01787,0.49545 -0.74588,0.50022 0.12188,0.002 0.0804,0.17408 -0.0923,0.38209 -0.17264,0.20801 -0.40458,0.32216 -0.51542,0.25365 -0.11084,-0.0685 -0.14184,0.10369 -0.0689,0.38265 0.16344,0.625 3.30218,1.7009 3.72591,1.27717 0.14282,-0.14282 0.46944,-0.25967 0.72581,-0.25967 0.38743,0 0.42023,0.0858 0.19426,0.508 -0.18432,0.34442 -0.1872,0.508 -0.009,0.508 0.14461,0 0.26293,-0.17145 0.26293,-0.381 0,-0.20955 0.1036,-0.381 0.23023,-0.381 0.12662,0 0.17044,-0.2286 0.0974,-0.508 -0.1023,-0.39121 -0.008,-0.508 0.41107,-0.508 0.61371,0 1.12556,1.00374 0.86204,1.69046 -0.32117,0.83697 0.47584,0.043 0.8459,-0.84271 0.45986,-1.10061 0.92096,-0.85723 0.71718,0.37856 -0.10826,0.65653 -0.079,0.82517 0.0989,0.56956 0.41086,-0.59041 1.01555,-0.55568 0.85736,0.0492 -0.1325,0.50667 -0.12082,0.50566 0.4211,-0.0363 0.30656,-0.30655 0.50109,-0.64846 0.43229,-0.75978 -0.0688,-0.11132 0.042,-0.2024 0.24615,-0.2024 0.20418,0 0.34203,0.16912 0.30633,0.37582 -0.0357,0.20669 0.0962,0.43184 0.29306,0.50032 0.24492,0.0852 0.30859,-0.004 0.20159,-0.28301 -0.086,-0.22414 -0.0463,-0.47558 0.0883,-0.55876 0.13459,-0.0832 0.31327,0.0275 0.39708,0.24586 0.18231,0.4751 0.7743,0.52606 0.92456,0.0796 0.0833,-0.24752 0.19994,-0.24067 0.52917,0.0311 0.2974,0.2455 0.4223,0.25985 0.4223,0.0485 0,-0.16505 0.10641,-0.23433 0.23645,-0.15395 0.13005,0.0804 0.30825,0.03 0.39599,-0.11201 0.21845,-0.35345 0.89156,-0.32674 0.89156,0.0354 0,0.16144 -0.2808,0.66168 -0.62401,1.11165 -0.34321,0.44997 -0.54323,0.90771 -0.4445,1.0172 0.0987,0.10948 0.0366,0.11685 -0.13799,0.0164 -0.17462,-0.1005 -0.3175,-0.0871 -0.3175,0.0298 0,0.11685 -0.77152,0.54511 -1.7145,0.95168 -0.94297,0.40656 -1.77165,0.80347 -1.8415,0.88202 -0.0699,0.0786 -0.29845,0.18065 -0.508,0.22691 -0.93162,0.20565 -4.52425,1.73307 -5.29604,2.25164 -0.46808,0.3145 -1.2396,0.64472 -1.7145,0.73381 -0.4749,0.0891 -0.86346,0.23907 -0.86346,0.33329 0,0.0942 -0.20002,0.17821 -0.4445,0.18665 -0.70119,0.0242 -3.67451,0.63881 -4.4487,0.91956 -0.43129,0.1564 -0.67628,0.41366 -0.635,0.6668 0.0505,0.30983 -0.13773,0.41154 -0.7583,0.40969 -0.45402,-0.001 -0.82747,0.11295 -0.82988,0.254 -0.005,0.27248 -1.10383,1.39946 -1.36492,1.39946 -0.0851,0 -0.1547,-0.16787 -0.1547,-0.37303 0,-0.22723 -0.14891,-0.31588 -0.381,-0.22683 -0.20955,0.0804 -0.381,0.35899 -0.381,0.61906 0,0.30188 -0.12911,0.42331 -0.35708,0.33583 -0.19639,-0.0754 -0.59644,0.0679 -0.889,0.31842 -0.53609,0.45902 -0.7497,1.01512 -0.27792,0.72355 0.1397,-0.0863 0.254,-0.0427 0.254,0.097 0,0.49499 -0.4204,0.50392 -0.7718,0.0164 -0.45657,-0.63345 -0.67673,-0.62431 -0.88657,0.0368 -0.10692,0.33687 -0.325,0.49032 -0.59611,0.41942 -0.46076,-0.12049 -0.8087,0.16052 -1.27303,1.02814 -0.24671,0.46096 -0.23174,0.5258 0.0926,0.40132 0.21278,-0.0816 0.38687,-0.0368 0.38687,0.0996 0,0.39324 3.59064,-0.44166 4.41494,-1.02656 0.8617,-0.61144 1.3235,-0.42596 1.92177,0.77189 0.21686,0.43419 0.60211,0.84547 0.85611,0.91395 0.47898,0.12913 1.85836,-0.24764 2.37307,-0.64818 0.18538,-0.14427 0.3734,-0.107 0.50631,0.10035 0.27319,0.4262 0.29885,1.47284 0.0361,1.47284 -0.11127,0 -0.20231,0.12248 -0.20231,0.27217 0,0.1497 0.25718,0.25135 0.5715,0.22589 0.31433,-0.0255 0.6858,-0.0231 0.8255,0.005 0.1397,0.0283 0.5969,0.0695 1.016,0.0916 0.6808,0.0359 0.76659,0.1326 0.80506,0.90762 0.0243,0.48993 0.21776,0.96523 0.4445,1.09212 0.22079,0.12356 0.40144,0.37713 0.40144,0.56348 0,0.50923 1.95762,2.17594 2.55573,2.17594 0.28724,0 0.46182,0.0978 0.38795,0.21731 -0.0739,0.11951 0.17656,0.16347 0.55651,0.0977 0.67715,-0.11727 0.68077,-0.11111 0.18281,0.31142 -0.464,0.39373 -0.46705,0.41802 -0.0352,0.28045 0.34959,-0.11137 0.4344,-0.0506 0.32548,0.23326 -0.087,0.22668 -0.006,0.38388 0.19854,0.38388 0.19022,0 0.4123,0.17317 0.49352,0.38482 0.0812,0.21164 0.40777,0.48753 0.72568,0.61307 0.55393,0.21876 0.86307,0.4352 2.50061,1.75082 0.4037,0.32434 0.84274,0.5225 0.97564,0.44036 0.13291,-0.0821 0.32436,-0.0155 0.42545,0.14804 0.12429,0.2011 0.0683,0.23117 -0.17295,0.0929 -0.19621,-0.11248 0.35763,0.50471 1.23075,1.37154 0.87313,0.86682 1.5875,1.68595 1.5875,1.82029 0,0.13433 -0.33499,0.21872 -0.74442,0.18752 -0.40944,-0.0312 -0.69777,-0.13221 -0.64075,-0.22448 0.14164,-0.22917 -3.30384,-1.29782 -3.87314,-1.2013 -0.25932,0.044 -0.42924,-0.0598 -0.39319,-0.24007 0.0785,-0.39267 -0.24823,-0.41216 -0.62322,-0.0372 -0.187,0.18701 -0.42615,0.19871 -0.71841,0.0351 -0.28248,-0.15808 -0.34023,-0.30566 -0.16258,-0.41545 0.46163,-0.2853 0.0451,-0.87534 -0.7395,-1.04768 -0.40743,-0.0895 -0.74079,-0.26792 -0.74079,-0.39652 0,-0.1286 -0.15745,-0.23382 -0.34989,-0.23382 -0.42274,0 -1.02345,0.66764 -0.74021,0.82267 0.11061,0.0605 0.0615,0.0765 -0.10905,0.0355 -0.17058,-0.041 -0.47674,0.092 -0.68035,0.29563 -0.53306,0.53306 -0.86108,0.45615 -0.85857,-0.20129 0.002,-0.60977 -0.26375,-1.94229 -0.44707,-2.23891 -0.11056,-0.17889 -1.14144,-0.4155 -2.47478,-0.56801 -0.49265,-0.0563 -0.94919,0.13545 -1.50624,0.63278 -0.43963,0.3925 -1.03592,0.72244 -1.32508,0.73319 -0.28917,0.0108 -0.91534,0.0396 -1.39151,0.064 -0.63517,0.0326 -0.89674,-0.0741 -0.98212,-0.40055 -0.064,-0.24475 -0.27449,-0.44501 -0.46775,-0.44501 -0.19326,0 -0.35138,-0.1638 -0.35138,-0.36401 0,-0.23392 -0.25347,-0.3568 -0.70927,-0.34384 -0.3901,0.0111 -0.94657,-0.10684 -1.2366,-0.26206 -0.29003,-0.15522 -0.58808,-0.22146 -0.66233,-0.14722 -0.0743,0.0743 -0.11785,-0.0727 -0.0969,-0.32643 0.0238,-0.28772 -0.12168,-0.44942 -0.38631,-0.42951 -0.23343,0.0176 -0.37515,-0.0967 -0.31495,-0.254 0.0708,-0.18483 -0.29557,-0.29019 -1.03608,-0.29797 -1.10616,-0.0116 -1.43373,0.18496 -0.87922,0.52767 0.18179,0.11235 0.17109,0.27935 -0.0337,0.52612 -0.22999,0.27712 -0.38248,0.2931 -0.65315,0.0685 -0.28191,-0.23397 -0.32086,-0.20899 -0.19313,0.12387 0.088,0.22931 0.0418,0.41692 -0.10268,0.41692 -0.14651,0 -0.21809,-0.35234 -0.16186,-0.79665 0.0555,-0.43816 0.0291,-0.7249 -0.0586,-0.6372 -0.25473,0.25473 -0.84119,-0.36105 -0.84119,-0.88325 0,-0.26229 -0.1143,-0.4769 -0.254,-0.4769 -0.1397,0 -0.254,0.122 -0.254,0.27112 0,0.15156 -0.21459,0.20301 -0.48662,0.11667 -0.8001,-0.25394 -0.85926,0.32142 -0.1101,1.07058 0.38535,0.38535 0.67725,0.72921 0.64868,0.76413 -0.23271,0.28443 0.0897,0.98081 0.83704,1.80806 0.83365,0.92274 1.15816,1.49977 0.6758,1.20166 -0.11726,-0.0725 -0.23223,0.37126 -0.25549,0.98607 -0.0329,0.87056 0.1296,1.37252 0.73472,2.26914 0.42735,0.63322 0.88564,1.21844 1.01842,1.30051 0.13278,0.0821 0.17771,0.40304 0.0998,0.7133 -0.0779,0.31025 0.027,0.88897 0.23297,1.28603 0.206,0.39707 0.31577,0.87512 0.24393,1.06233 -0.0718,0.1872 0.10528,0.67166 0.39359,1.07656 0.52173,0.7327 0.50063,1.08632 -0.0571,0.95698 -0.16097,-0.0373 -0.20623,-0.0197 -0.10058,0.0392 0.10564,0.0589 0.12438,0.21661 0.0416,0.3505 -0.0828,0.13389 0.002,0.42739 0.18892,0.65222 0.5343,0.64362 0.66438,3.29636 0.20383,4.15691 -0.13501,0.25226 -0.24684,0.89479 -0.24853,1.42785 -0.002,0.55163 -0.26471,1.42679 -0.61037,2.03128 -0.46116,0.80646 -0.51152,1.02532 -0.20928,0.90933 0.25106,-0.0963 0.33428,-0.0496 0.22536,0.12667 -0.25522,0.41296 -1.46274,0.20551 -1.84476,-0.31694 -0.2242,-0.30661 -0.66617,-0.45341 -1.36508,-0.45341 -0.83922,0 -1.12767,-0.13219 -1.53417,-0.70308 -0.27535,-0.38669 -0.50064,-0.87977 -0.50064,-1.09574 0,-0.21597 -0.15622,-0.48407 -0.34715,-0.59579 -0.19093,-0.11172 -0.63146,-1.02942 -0.97895,-2.03934 -0.34748,-1.00992 -0.71166,-1.75636 -0.80927,-1.65874 -0.0976,0.0976 -0.10545,-0.0102 -0.0174,-0.23965 0.0935,-0.2436 -0.033,-0.61036 -0.30408,-0.88166 -0.32067,-0.32096 -0.46955,-0.86147 -0.48165,-1.74862 -0.01,-0.70624 -0.109,-1.50615 -0.22081,-1.77759 -0.11182,-0.27144 -0.23945,-0.77927 -0.28362,-1.12852 -0.14211,-1.12347 -0.34931,-1.86186 -0.59001,-2.10255 -0.32486,-0.32486 -1.73556,0.0207 -1.90686,0.46707 -0.0771,0.20101 -0.30305,0.36548 -0.50204,0.36548 -0.19899,0 -0.43827,0.19928 -0.53173,0.44284 -0.15211,0.39639 -0.21791,0.37924 -0.62732,-0.16353 -0.29413,-0.38993 -0.5745,-0.53399 -0.78549,-0.4036 -0.21572,0.13332 -0.26602,0.10234 -0.14686,-0.0905 0.10622,-0.17188 0.0236,-0.29324 -0.19977,-0.29324 -0.20955,0 -0.44216,0.099 -0.51692,0.21993 -0.0748,0.12097 -0.42232,0.16519 -0.77236,0.0983 -0.50826,-0.0972 -0.68725,0.012 -0.88878,0.54206 -0.22639,0.59547 -0.39873,0.7138 -0.93502,0.64203 -0.0891,-0.0119 -0.23203,0.0855 -0.3175,0.21654 -0.24199,0.37099 -3.06035,1.30661 -3.2094,1.06544 -0.26758,-0.43295 -2.27541,-0.53761 -3.423,-0.17844 -1.18491,0.37087 -2.4968,0.40025 -3.50469,0.0785 -0.34441,-0.10994 -0.72988,-0.065 -0.94031,0.10965 -0.59338,0.49246 -1.42113,0.0637 -1.3401,-0.69408 0.0566,-0.52972 -0.0672,-0.6934 -0.64464,-0.85217 -0.3931,-0.10808 -0.89317,-0.34459 -1.11125,-0.52558 -0.21808,-0.181 -0.73088,-0.29401 -1.13955,-0.25114 -0.40867,0.0429 -0.90809,-0.059 -1.10981,-0.22646 -0.29509,-0.24489 -0.46048,-0.18867 -0.84616,0.28762 -0.44526,0.54987 -0.63556,0.58662 -2.67293,0.51621 -1.22891,-0.0425 -2.51025,-0.23382 -2.91375,-0.43511 -0.98747,-0.49261 -3.71989,-0.76367 -3.94971,-0.39181 -0.0974,0.15758 -0.33472,0.28652 -0.52739,0.28652 -0.62819,0 -2.65904,1.3831 -2.53682,1.72769 0.0645,0.18188 0.0163,0.26826 -0.10718,0.19196 -0.12346,-0.0763 -0.28953,0.0308 -0.36903,0.23796 -0.11285,0.29408 -0.28945,0.32161 -0.80515,0.12555 -0.87061,-0.33101 -1.04888,-0.31691 -0.67833,0.0536 0.16764,0.16764 0.3048,0.39624 0.3048,0.508 0,0.38339 -0.48243,0.20264 -1.17688,-0.44096 -0.38228,-0.35428 -0.84534,-0.58648 -1.02902,-0.51599 -0.20429,0.0784 -0.476905,-0.21394 -0.702075,-0.75285 -0.3494,-0.83623 -0.902029,-1.20372 -0.902029,-0.59983 0,0.15465 -0.175969,0.21365 -0.391041,0.13112 -0.497302,-0.19083 -1.373589,0.343 -1.220008,0.74323 0.199807,0.52069 -0.694835,1.1859 -1.410838,1.04903 -0.842743,-0.16111 -1.512627,0.20378 -1.809985,0.98589 -0.195841,0.5151 -0.407912,0.61956 -1.257842,0.61956 -0.562257,0 -1.022286,0.1143 -1.022286,0.254 0,0.1397 -0.2286,0.254 -0.508,0.254 -0.2794,0 -0.508,0.11998 -0.508,0.26662 0,0.17463 -0.146546,0.18461 -0.424757,0.0289 -0.297388,-0.16642 -0.680528,-0.094 -1.277726,0.24138 -1.060498,0.59565 -1.501538,0.60397 -1.833173,0.0346 -0.143681,-0.24669 -0.262334,-0.30321 -0.266621,-0.127 -0.01082,0.44476 -0.515724,0.39935 -0.515724,-0.0464 0,-0.4409 -0.641994,-0.66235 -1.594024,-0.54985 -0.428706,0.0507 -0.787186,-0.0635 -0.914657,-0.29128 -0.181042,-0.3235 -0.231024,-0.31884 -0.366503,0.0342 -0.08628,0.22484 -0.04616,0.4088 0.08916,0.4088 0.135316,0 0.246028,0.11527 0.246028,0.25615 0,0.63276 -2.006319,-1.06928 -2.023549,-1.71665 -0.0046,-0.17463 -0.134826,-0.3175 -0.289284,-0.3175 -0.154459,0 -0.626048,-0.29048 -1.047977,-0.64551 -0.895111,-0.75319 -1.215839,-0.71097 -1.66955,0.21976 -0.39076,0.8016 -0.81164,0.89066 -0.81164,0.17175 0,-0.2794 0.1143,-0.508 0.254,-0.508 0.1397,0 0.254,-0.12631 0.254,-0.28068 0,-0.17327 -0.380625,-0.24438 -0.994634,-0.18583 -0.547049,0.0522 -0.940353,0.007 -0.87401,-0.10032 0.06634,-0.10734 -0.09186,-0.19517 -0.351566,-0.19517 -0.259704,0 -0.597844,-0.12566 -0.751422,-0.27923 -0.309325,-0.30933 -1.4299,-0.0614 -1.224515,0.2709 0.07108,0.115 -0.04881,0.27742 -0.266411,0.36092 -0.536146,0.20574 -0.212138,0.66157 0.477048,0.67113 0.512144,0.007 0.519844,0.029 0.09658,0.27526 -0.25296,0.14714 -0.65301,0.20053 -0.889,0.11865 -0.344326,-0.11947 -0.333888,-0.0751 0.05285,0.22461 0.265056,0.20542 0.578071,0.31406 0.69559,0.24143 0.117519,-0.0726 0.138406,0.0641 0.04642,0.3038 -0.122458,0.31912 -0.07715,0.38018 0.169155,0.22795 0.223451,-0.1381 0.275748,-0.10976 0.155749,0.0844 -0.132334,0.21412 -0.381856,0.18827 -0.932808,-0.0966 -0.683846,-0.35363 -0.766628,-0.35121 -0.911598,0.0266 -0.08963,0.23358 -0.0042,0.51195 0.195064,0.63574 0.215419,0.13382 0.390704,0.11485 0.446756,-0.0484 0.05073,-0.14773 0.229225,-0.001 0.396646,0.32563 0.212052,0.41396 0.222596,0.64984 0.03476,0.77751 -0.314582,0.21381 0.167904,1.11825 0.553385,1.03734 0.129417,-0.0272 0.235303,0.11068 0.235303,0.30633 0,0.19564 -0.09525,0.29684 -0.211666,0.22489 -0.116417,-0.072 -0.211667,-0.006 -0.211667,0.14578 0,0.15213 -0.330725,0.0321 -0.734943,-0.26677 -0.551735,-0.40792 -0.846979,-0.48067 -1.184375,-0.29185 -0.414441,0.23193 -0.40666,0.26509 0.09994,0.42588 0.302156,0.0959 0.549375,0.33811 0.549375,0.53824 0,0.44092 0.425274,0.48507 0.56733,0.0589 0.07911,-0.23732 0.143485,-0.23732 0.290157,0 0.10374,0.16785 0.06081,0.30499 -0.09549,0.30499 -0.156189,0 -0.202425,0.13196 -0.102745,0.29324 0.112288,0.18169 0.06968,0.2243 -0.11201,0.11201 -0.161285,-0.0997 -0.293245,-0.0795 -0.293245,0.0448 0,0.12433 0.28575,0.37899 0.635,0.56591 1.028902,0.55065 0.704921,1.02172 -0.760871,1.10631 -0.349674,0.0202 -0.635851,0.11 -0.63595,0.19961 -2.72e-4,0.247 1.890966,0.95155 3.053114,1.13739 1.230466,0.19676 1.722422,0.86297 1.194169,1.61716 -0.303023,0.43262 -0.409816,0.45172 -0.840216,0.15026 -0.271189,-0.18995 -1.082755,-0.52048 -1.803479,-0.73451 -1.118414,-0.33214 -1.330514,-0.33676 -1.44763,-0.0316 -0.150617,0.3925 0.324511,0.70557 1.494863,0.98499 1.025278,0.24478 1.779484,0.92002 1.339503,1.19926 -0.253914,0.16114 -0.255205,0.20615 -0.006,0.2092 0.174625,0.002 0.3175,0.17534 0.3175,0.38489 0,0.45928 -0.296366,0.49103 -0.7112,0.0762 -0.222437,-0.22244 -0.3048,-0.22585 -0.3048,-0.0126 0,0.16069 0.183961,0.39513 0.408802,0.52095 0.373635,0.2091 0.373897,0.24217 0.003,0.38448 -0.245311,0.0941 -0.381851,0.0338 -0.345302,-0.15265 0.03628,-0.18504 -0.193506,-0.2894 -0.574547,-0.26096 -0.34925,0.0261 -0.492125,-0.012 -0.3175,-0.0847 0.547243,-0.22763 0.347511,-0.64149 -0.222308,-0.46064 -0.363255,0.1153 -0.482965,0.0794 -0.36601,-0.10988 0.09709,-0.15709 0.0084,-0.28121 -0.201025,-0.28121 -0.206153,0 -0.412924,-0.10995 -0.45949,-0.24433 -0.07635,-0.22033 -2.40359,-0.57496 -4.021667,-0.61282 -0.34925,-0.008 -0.69215,-0.0867 -0.762,-0.17458 -0.06985,-0.0878 -0.568767,-0.22949 -1.108704,-0.31476 -0.937181,-0.14802 -0.962713,-0.13407 -0.562971,0.30764 0.398882,0.44076 0.374196,0.45779 -0.520751,0.35917 -0.59073,-0.0651 -1.016756,0.0183 -1.14764,0.22457 -0.149811,0.23614 -0.215365,0.18572 -0.233877,-0.17989 -0.01852,-0.36587 -0.08731,-0.30221 -0.245826,0.22753 -0.299868,1.00208 0.296902,2.43947 1.012808,2.43947 0.286528,0 0.524083,0.14287 0.527899,0.3175 0.01404,0.64242 2.932455,4.337 3.803062,4.81451 0.768394,0.42144 0.802853,0.47683 0.254,0.40829 -0.581409,-0.0726 -0.628946,-0.005 -0.563265,0.7998 0.03946,0.4835 0.185032,0.94912 0.323504,1.0347 0.145407,0.0899 0.04186,0.34556 -0.245107,0.60526 -0.27328,0.24732 -0.435203,0.61038 -0.359828,0.8068 0.07538,0.19643 0.01052,0.35714 -0.144129,0.35714 -0.154646,0 -0.281175,-0.1143 -0.281175,-0.254 0,-0.1397 -0.161925,-0.254 -0.359834,-0.254 -0.197908,0 -0.41086,-0.14288 -0.473226,-0.3175 -0.06237,-0.17463 -0.204758,-0.23226 -0.316426,-0.12808 -0.111669,0.10419 -0.0759,0.46847 0.07949,0.80951 0.250164,0.54905 0.218523,0.62918 -0.276241,0.69957 -0.410112,0.0583 -0.642556,-0.11248 -0.873723,-0.64212 -0.173226,-0.39688 -0.544701,-0.78169 -0.8255,-0.85512 -0.280798,-0.0734 -0.510542,-0.21543 -0.510542,-0.31555 0,-0.10013 -0.154331,-0.18205 -0.342958,-0.18205 -0.271164,0 -0.286092,0.15066 -0.07131,0.71967 0.149405,0.39582 0.367631,0.71967 0.484948,0.71967 0.117317,0 0.131748,-0.13196 0.03207,-0.29325 -0.109745,-0.17757 -0.06994,-0.22446 0.100916,-0.11886 0.155184,0.0959 0.217207,0.34362 0.137829,0.55048 -0.07938,0.20685 -0.01583,0.53093 0.141225,0.72016 0.213267,0.25697 0.204386,0.41119 -0.03508,0.60925 -0.347113,0.28708 -1.717632,0.12462 -1.717632,-0.20361 0,-0.11034 0.257175,-0.1335 0.5715,-0.0515 0.550124,0.14357 0.554422,0.13205 0.114904,-0.30801 -0.251127,-0.25144 -0.527601,-0.38616 -0.614387,-0.29938 -0.08679,0.0868 -0.350563,-0.0167 -0.586172,-0.22988 -0.56998,-0.51583 -1.169575,-0.2493 -1.486884,0.66093 -0.308323,0.88446 -0.525813,0.92179 -1.146569,0.1968 z"
       id="path2" /></g></svg>
