<?xml version="1.0" encoding="UTF-8" standalone="no"?>
<!-- Created with Inkscape (http://www.inkscape.org/) -->

<svg
   width="210mm"
   height="297mm"
   viewBox="0 0 210 297"
   version="1.1"
   id="svg1"
   xml:space="preserve"
   inkscape:version="1.4.2 (ebf0e94, 2025-05-08)"
   sodipodi:docname="callionymus_maculatus.svg"
   xmlns:inkscape="http://www.inkscape.org/namespaces/inkscape"
   xmlns:sodipodi="http://sodipodi.sourceforge.net/DTD/sodipodi-0.dtd"
   xmlns="http://www.w3.org/2000/svg"
   xmlns:svg="http://www.w3.org/2000/svg"><sodipodi:namedview
     id="namedview1"
     pagecolor="#ffffff"
     bordercolor="#000000"
     borderopacity="0.25"
     inkscape:showpageshadow="2"
     inkscape:pageopacity="0.0"
     inkscape:pagecheckerboard="0"
     inkscape:deskcolor="#d1d1d1"
     inkscape:document-units="mm"
     inkscape:export-bgcolor="#ffffffff"
     inkscape:zoom="0.70822811"
     inkscape:cx="740.5806"
     inkscape:cy="689.74952"
     inkscape:window-width="2560"
     inkscape:window-height="1369"
     inkscape:window-x="1912"
     inkscape:window-y="-8"
     inkscape:window-maximized="1"
     inkscape:current-layer="layer1" /><defs
     id="defs1"><inkscape:path-effect
       effect="spiro"
       id="path-effect7"
       is_visible="true"
       lpeversion="1" /><inkscape:path-effect
       effect="powerclip"
       message=""
       id="path-effect3"
       is_visible="true"
       lpeversion="1"
       inverse="true"
       flatten="false"
       hide_clip="false" /><clipPath
       clipPathUnits="userSpaceOnUse"
       id="clipPath3"><rect
         style="display:block;opacity:0.328228;fill:#fcca00;stroke-width:0.032744;stroke-opacity:0.529274;-inkscape-stroke:none"
         id="rect3"
         width="34.605537"
         height="41.473812"
         x="126.79892"
         y="71.324394" /></clipPath></defs><g
     inkscape:label="Layer 1"
     inkscape:groupmode="layer"
     id="layer1"><path
       style="opacity:0.328228;fill:#fcca00;stroke-width:0.0873711;stroke-opacity:0.529274;-inkscape-stroke:none"
       d=""
       id="path1"
       transform="scale(0.26458333)" /><path
       style="opacity:1;fill:#000000;fill-opacity:1;stroke:none;stroke-width:0.0389274;stroke-opacity:1;-inkscape-stroke:none"
       d="m 68.218169,175.06919 c 0.29799,-0.20157 0.32172,-0.35362 0.0786,-0.50385 -0.19148,-0.11839 -0.34814,-0.41558 -0.34814,-0.66054 0,-0.32052 0.24802,-0.3958 0.8846,-0.26847 l 0.88462,0.17702 -0.21869,-1.67891 c -0.46871,-3.59837 -1.88783,-6.31087 -5.18814,-9.91659 -3.81172,-4.16445 -3.74769,-4.54607 0.51288,-3.05752 1.75288,0.61243 2.46416,0.73245 2.86332,0.48316 0.38585,-0.24095 0.569,-0.22724 0.66971,0.0501 0.10796,0.29714 0.28729,0.29403 0.8088,-0.0133 0.43752,-0.25841 0.67019,-0.27928 0.67019,-0.0601 0,0.1846 0.13167,0.25435 0.29281,0.15482 0.16108,-0.0996 0.38172,-0.0372 0.49039,0.13869 0.34087,0.55157 2.27169,0.38035 2.50282,-0.22197 0.15899,-0.41442 0.26657,-0.44658 0.45795,-0.13698 0.20159,0.32622 0.4575,0.31425 1.3199,-0.0618 0.58839,-0.25656 0.83045,-0.47799 0.5379,-0.49211 -0.29252,-0.0133 -0.63302,-0.18935 -0.75662,-0.38931 -0.25724,-0.41621 1.76041,-0.11934 2.05925,0.30293 0.0951,0.13433 0.59756,0.14894 1.11655,0.0324 0.51901,-0.11649 0.76672,-0.22862 0.55046,-0.2491 -0.72902,-0.0691 0.11802,-0.61702 0.3666,-0.66631 1.07915,-0.21392 1.27941,0.5919 2.57372,2.06615 1.98479,2.26069 3.27376,3.10828 4.25389,2.79719 0.37454,-0.11877 0.85291,-0.0114 1.16384,0.26248 0.75426,0.66339 3.71542,2.10878 4.32024,2.10878 0.28076,0 0.75128,-0.29737 1.04557,-0.6608 l 0.53506,-0.66077 1.94362,0.81806 c 2.22178,0.93512 2.90622,1.01667 2.90622,0.34622 0,-0.72229 1.23787,-0.57946 4.089101,0.47184 2.93441,1.08194 3.52402,1.16185 3.24705,0.44008 -0.42116,-1.09755 0.8487,-1.17428 4.12326,-0.24921 2.04249,0.57701 2.67268,0.55276 2.91804,-0.11232 0.3317,-0.89904 0.74171,-0.98789 2.2639,-0.49059 4.27184,1.39556 5.37694,1.50426 5.37694,0.52884 0,-0.24472 0.34981,-0.60429 0.77733,-0.79909 0.62662,-0.28551 1.48487,-0.18707 4.42656,0.50808 2.00707,0.47425 3.721,0.79049 3.80875,0.70276 0.0876,-0.0878 -0.0763,-0.51944 -0.36455,-0.95933 -0.28826,-0.43991 -0.43276,-0.94761 -0.32114,-1.12822 0.28137,-0.45526 1.86354,-0.4023 4.09767,0.13718 1.03802,0.25065 2.34378,0.46074 2.90171,0.46691 0.96099,0.0114 1.00447,-0.0385 0.82568,-0.93243 -0.25216,-1.2608 0.23977,-1.23705 3.25757,0.15728 2.74929,1.27025 3.10635,1.32313 3.32365,0.49218 0.11982,-0.4582 0.34281,-0.56429 0.90169,-0.42904 1.26388,0.30591 0.3224,-0.36445 -3.18934,-2.27094 -5.40242,-2.93287 -7.28175,-4.0896 -9.43643,-5.80812 -2.17112,-1.73167 -2.70491,-2.40894 -1.62961,-2.06765 0.35565,0.11289 0.90319,0.0664 1.21676,-0.1034 1.55004,-0.83908 17.63496,-0.97687 20.33154,-0.17417 1.06666,0.31751 5.55966,2.99544 5.55966,3.31368 0,0.15653 0.20758,0.28465 0.46127,0.28465 0.25371,0 2.36001,0.76721 4.68065,1.7049 6.04632,2.44314 9.84463,3.53861 14.7882,4.26508 6.4554,0.94866 7.08027,0.93847 8.49217,-0.1385 0.90527,-0.69047 1.14647,-1.06526 1.01715,-1.58049 -0.0932,-0.37146 0.019,-0.94911 0.24918,-1.28366 0.23027,-0.33455 0.60531,-1.59911 0.83343,-2.81012 0.22811,-1.21099 0.54347,-2.37254 0.70079,-2.58123 0.15732,-0.20866 0.19591,-0.52525 0.0857,-0.7035 -0.11014,-0.17834 -0.0553,-0.84965 0.12217,-1.49198 0.26688,-0.96658 0.2297,-1.2704 -0.21579,-1.76265 -0.50124,-0.55388 -0.50226,-0.62109 -0.0146,-0.97765 0.35907,-0.26255 0.4334,-0.52546 0.23655,-0.83658 -0.15787,-0.24955 -0.28922,-0.7722 -0.29188,-1.16145 -0.002,-0.38925 -0.12796,-0.70773 -0.27845,-0.70773 -0.15051,0 -0.34889,-0.66768 -0.44088,-1.4837 -0.12143,-1.07729 -0.39113,-1.6763 -0.98455,-2.18674 -0.44952,-0.38667 -0.81731,-0.93844 -0.81731,-1.22615 0,-0.2877 -0.52308,-1.00223 -1.16238,-1.58781 -0.98354,-0.9009 -1.39492,-1.06472 -2.67365,-1.06472 -0.8312,0 -1.51127,-0.14153 -1.51127,-0.31455 0,-0.47573 -4.76562,-0.37973 -8.17824,0.16469 -2.84582,0.45406 -6.98358,1.47585 -8.3355,2.0584 -0.34599,0.14913 -1.4076,0.54717 -2.3591,0.8846 -0.95151,0.33744 -2.50852,0.90976 -3.46003,1.2718 -0.9515,0.36205 -1.90693,0.59081 -2.12319,0.50833 -0.21625,-0.0825 -0.39318,-0.004 -0.39318,0.17208 0,0.17721 -0.81389,0.70003 -1.80865,1.16199 -1.66492,0.77313 -2.09609,0.83491 -5.42594,0.77735 -4.80031,-0.0829 -27.36562,-2.97321 -27.36562,-3.50509 0,-0.12294 0.60158,-0.53989 1.33684,-0.92668 0.73524,-0.38678 1.90299,-1.0487 2.595,-1.47092 0.692,-0.42225 2.74443,-1.35504 4.56093,-2.07292 3.60268,-1.42374 10.41474,-4.67367 10.74151,-5.12462 0.11229,-0.15501 0.44499,-0.18935 0.73933,-0.0763 0.35951,0.13793 0.74216,-0.0577 1.16583,-0.5964 0.34686,-0.44097 1.13632,-1.04356 1.75435,-1.33908 1.29614,-0.61978 1.83966,-1.529 0.69726,-1.16641 -0.51795,0.1645 -0.66538,0.1108 -0.55893,-0.2029 0.19351,-0.5704 -1.71125,-1.84165 -2.75941,-1.84165 -0.45943,0 -1.49315,-0.35277 -2.29715,-0.78391 -0.804,-0.43115 -2.05696,-0.93027 -2.78434,-1.10919 -0.72739,-0.17891 -1.73392,-0.67145 -2.23673,-1.09453 -1.09617,-0.92236 -2.3079,-1.41604 -3.47563,-1.41604 -0.47315,0 -0.99472,-0.12826 -1.15909,-0.28486 -1.00635,-0.95933 -4.05564,-2.23152 -5.34876,-2.23152 -1.74682,0 -3.21909,-0.59945 -4.14848,-1.68905 -0.59568,-0.6984 -0.96334,-0.82761 -2.35911,-0.82909 -2.32067,-0.002 -3.83423,-0.49491 -4.85934,-1.58102 -0.80438,-0.85223 -1.06255,-0.9336 -2.96215,-0.9336 -1.83243,0 -2.22091,-0.11119 -3.25272,-0.9312 -1.23228,-0.97929 -1.51464,-1.0975 -3.36512,-1.40871 -0.63121,-0.10625 -1.52366,-0.48877 -1.983251,-0.8503 -0.82886,-0.65195 -0.85695,-0.6528 -3.47546,-0.1034 -1.72484,0.36199 -3.26074,0.4899 -4.43116,0.36912 -1.58023,-0.16317 -2.01769,-0.0708 -3.7124,0.78334 -5.38476,2.71388 -8.12716,5.17632 -11.81082,10.60498 -1.59579,2.35175 -4.30172,7.94375 -5.53144,11.43117 -0.47277,1.34077 -1.04259,2.43775 -1.26624,2.43775 -0.56385,0 -1.26532,-2.46073 -2.51071,-8.80732 -0.28856,-1.47051 -0.9285,-3.62864 -1.42207,-4.79586 -0.4936,-1.1672 -0.98585,-2.65342 -1.09393,-3.30273 -0.37006,-2.22338 -1.45335,-5.23619 -2.20315,-6.12725 -1.98693,-2.36133 -1.15597,-7.43239 1.7626,-10.75645 0.53115,-0.60496 1.73457,-1.47607 2.67423,-1.9358 1.7071,-0.83522 2.33786,-1.61216 1.00077,-1.23272 -2.38669,0.67732 -4.68359,2.17682 -6.92006,4.51769 -2.80507,2.93604 -3.81164,4.87725 -5.40424,10.42214 -2.05205,7.14457 -2.49279,9.93801 -2.5226,15.98857 -0.022,4.47396 -0.11042,5.49623 -0.49298,5.70207 -0.25636,0.13793 -2.73087,0.41137 -5.49888,0.60759 -2.76802,0.19622 -6.395,0.50947 -8.05994,0.6961 -2.67885,0.30029 -3.14818,0.27676 -4.07881,-0.20449 -2.48454,-1.28481 -7.88539,-0.22299 -9.63749,1.89477 -0.53421,0.6457 -2.09266,1.66706 -4.02912,2.64059 -7.21555,3.62748 -7.69291,6.23655 -1.52489,8.33442 2.66845,0.9076 9.32484,2.26358 13.33288,2.71607 1.6435,0.18556 3.7897,0.54498 4.76931,0.79877 0.9796,0.25378 3.06741,0.55272 4.63958,0.66432 1.57216,0.11156 2.85846,0.25767 2.85846,0.25767 0,0 -0.87559,1.70891 -1.11619,2.63054 -0.58626,2.24578 -1.6834,5.15048 -0.7603,6.92152 0.66751,1.28062 0.77108,1.34946 1.7532,1.16523 0.96548,-0.18119 1.10634,-0.0968 1.8775,1.12484 1.02671,1.62642 2.61005,3.10716 3.32245,3.10716 0.29303,0 0.60417,0.17702 0.69143,0.39319 0.0873,0.21624 0.16981,0.0746 0.18347,-0.31455 0.037,-1.05096 0.74061,-0.86026 1.83058,0.49605 0.7951,0.98941 1.37865,1.3257 3.27676,1.88829 2.81152,0.83334 2.88521,0.83554 2.47769,0.074 -0.17911,-0.33463 -0.32562,-0.6885 -0.32562,-0.78638 0,-0.44763 1.23695,-0.1034 2.21108,0.61524 0.59132,0.43627 1.57425,0.92403 2.18431,1.08391 1.80131,0.47213 4.85026,0.68888 5.31052,0.37753 z m 4.13419,-15.78015 c 0,-0.17304 0.14154,-0.31456 0.31453,-0.31456 0.17304,0 0.31456,0.14154 0.31456,0.31456 0,0.17303 -0.14154,0.31455 -0.31456,0.31455 -0.17303,0 -0.31453,-0.14154 -0.31453,-0.31455 z m -5.61682,0.0345 c -0.29748,-0.18859 -0.32131,-0.3356 -0.0786,-0.48558 0.19148,-0.11839 0.34814,-0.0569 0.34814,0.13642 0,0.19343 0.14153,0.2642 0.31453,0.15729 0.17304,-0.10701 0.31456,-0.0446 0.31456,0.13869 0,0.40046 -0.32046,0.41938 -0.89859,0.0531 z"
       id="path3"
       sodipodi:nodetypes="ccsscsssscssscssscssccasscsscsssssssssssssssssssssscssssssscssccssscssssssssssscsssssssscssssssssscsssssscscscssssssssssssssssssssssscasscsscssssssccssssssssssss"
       inkscape:export-filename="callionymus_maculatus.png"
       inkscape:export-xdpi="96"
       inkscape:export-ydpi="96" /></g></svg>
