<?xml version="1.0" encoding="UTF-8" standalone="no"?>
<!-- Created with Inkscape (http://www.inkscape.org/) -->

<svg
   width="210mm"
   height="297mm"
   viewBox="0 0 210 297"
   version="1.1"
   id="svg1"
   inkscape:version="1.4.2 (ebf0e94, 2025-05-08)"
   sodipodi:docname="chelidonichthys_lucerna.svg"
   xml:space="preserve"
   xmlns:inkscape="http://www.inkscape.org/namespaces/inkscape"
   xmlns:sodipodi="http://sodipodi.sourceforge.net/DTD/sodipodi-0.dtd"
   xmlns="http://www.w3.org/2000/svg"
   xmlns:svg="http://www.w3.org/2000/svg"><sodipodi:namedview
     id="namedview1"
     pagecolor="#ffffff"
     bordercolor="#000000"
     borderopacity="0.25"
     inkscape:showpageshadow="2"
     inkscape:pageopacity="0.0"
     inkscape:pagecheckerboard="0"
     inkscape:deskcolor="#d1d1d1"
     inkscape:document-units="mm"
     inkscape:export-bgcolor="#ffffffff"
     inkscape:zoom="0.70822811"
     inkscape:cx="522.43055"
     inkscape:cy="528.78443"
     inkscape:window-width="1920"
     inkscape:window-height="991"
     inkscape:window-x="-9"
     inkscape:window-y="-9"
     inkscape:window-maximized="1"
     inkscape:current-layer="layer1" /><defs
     id="defs1" /><g
     inkscape:label="Layer 1"
     inkscape:groupmode="layer"
     id="layer1"><path
       style="fill:#000000"
       d="m 96.709534,192.04919 c -1.67743,-0.45047 -3.33263,-1.20662 -4.40911,-2.0142 -0.37058,-0.27802 -0.72023,-0.50549 -0.77698,-0.50549 -0.0568,0 -0.89655,-0.4859 -1.86621,-1.07977 -4.85952,-2.97622 -8.53261,-5.75351 -12.13468,-9.17527 -2.04587,-1.94345 -2.23303,-2.01826 -4.01564,-1.60496 -1.45949,0.33838 -7.39306,-5.03705 -10.273,-9.30667 -2.4931,-3.69613 -3.78482,-4.63722 -4.14001,-3.01625 -0.0701,0.32015 -0.17405,0.72496 -0.23088,0.89958 -1.503,4.61771 -0.71535,11.85348 1.6282,14.95749 0.82165,1.08826 1.04498,1.82345 0.63154,2.07898 -0.74873,0.46274 -3.23582,-3.01193 -4.23536,-5.91714 -0.52914,-1.53798 -0.58024,-5.12541 -0.10815,-7.59253 0.49697,-2.59709 0.3305,-2.44275 -0.76202,0.70654 -0.87613,2.52553 -0.96048,6.13832 -0.23545,10.08548 0.41059,2.23526 0.3981,3.35352 -0.0455,4.07122 -0.48601,0.78638 -1.59754,-0.58704 -1.60718,-1.98587 -0.003,-0.46567 -0.10277,-1.22767 -0.22123,-1.69333 -0.11846,-0.46567 -0.30168,-2.60879 -0.40717,-4.7625 -0.1761,-3.59555 -0.11952,-4.65206 0.32396,-6.04942 0.37181,-1.17149 -0.38613,0.47017 -0.85526,1.85247 -0.68196,2.00938 -0.74067,5.75044 -0.12899,8.21861 0.43236,1.74458 0.32028,2.13567 -0.48807,1.70305 -2.27297,-1.21646 -2.32256,-8.71656 -0.0855,-12.92874 0.91963,-1.73157 1.00963,-1.87611 1.78125,-2.86047 1.64838,-2.10287 1.47368,-2.17325 -2.91309,-1.17346 -0.54314,0.12378 -1.49564,0.18071 -2.11667,0.12651 -0.62103,-0.0542 -2.03403,-0.15552 -3.13999,-0.22516 -1.10595,-0.0696 -2.78971,-0.30964 -3.74167,-0.53334 -0.95196,-0.22369 -2.08121,-0.40672 -2.50944,-0.40672 -2.1348,0 -8.78542,-3.07432 -10.83983,-5.01082 -0.14489,-0.13658 -0.47827,-0.42418 -0.74083,-0.63912 -0.68574,-0.56134 -1.25667,-1.67657 -1.20112,-2.34621 0.0263,-0.31699 -0.0231,-0.92351 -0.10985,-1.34781 -0.32392,-1.58487 0.87208,-2.7199 4.06715,-3.85983 1.84632,-0.65873 2.35182,-0.91245 4.00322,-2.00934 2.09789,-1.39346 6.04076,-5.0557 7.32127,-6.8002 3.28582,-4.47643 4.25655,-4.92874 10.94777,-5.10113 6.40939,-0.16514 13.84191,-0.59063 13.91912,-0.79683 0.30446,-0.8131 6.47236,-9.43551 8.34821,-11.67037 0.24429,-0.29105 0.83476,-1.00542 1.31217,-1.5875 0.4774,-0.58209 0.94114,-1.09065 1.03053,-1.13015 0.0894,-0.0395 0.27989,-0.18628 0.42333,-0.32617 0.14345,-0.1399 0.73706,-0.46713 1.31914,-0.72719 0.58208,-0.26006 1.20121,-0.56641 1.37583,-0.68078 1.33564,-0.8748 2.03344,-0.77717 2.8077,0.39283 0.29723,0.44914 0.83252,0.93762 1.18952,1.08549 0.50978,0.21116 0.67569,0.43419 0.77299,1.03908 0.16235,1.00935 0.91564,2.68905 1.40426,3.13125 0.21296,0.19273 0.3872,0.48326 0.3872,0.64562 0,0.53714 0.64513,1.56291 0.88839,1.41257 0.13465,-0.0832 0.17632,-0.0499 0.0974,0.0778 -0.234,0.37863 2.73578,3.50685 4.40793,4.64311 0.54668,0.37147 0.7395,0.6832 0.85648,1.38464 0.083,0.49789 0.41222,1.3815 0.73151,1.96358 0.31929,0.58209 0.64533,1.41476 0.72453,1.85038 0.11635,0.64002 0.25393,0.81453 0.7168,0.90921 0.31505,0.0644 0.90619,0.20009 1.31365,0.30146 2.079726,0.51738 2.485766,0.50005 3.131436,-0.13363 2.66351,-2.61407 10.72657,-7.18939 11.86428,-6.73229 0.19256,0.0774 1.06448,0.22349 1.93761,0.32473 3.71073,0.43025 4.97779,0.64568 5.39132,0.91663 0.43751,0.28667 1.21412,0.4495 3.13863,0.65808 0.55868,0.0606 1.22543,0.24116 1.48167,0.40136 0.25623,0.16019 0.98975,0.35509 1.63004,0.43311 0.66513,0.081 1.48174,0.35383 1.905,0.63637 0.40746,0.27199 1.11854,0.56065 1.58019,0.64146 0.46164,0.0808 1.08202,0.27241 1.37862,0.42579 0.2966,0.15338 1.01427,0.34969 1.59482,0.43625 0.58054,0.0866 1.24604,0.27886 1.47887,0.42733 0.23284,0.14847 0.89959,0.33273 1.48167,0.40948 1.55709,0.2053 4.33445,1.11782 5.19721,1.70759 0.41372,0.2828 0.98563,0.51419 1.27092,0.51419 0.76531,0 4.39198,1.39112 5.49104,2.10625 0.17462,0.11363 0.889,0.45717 1.5875,0.76343 0.6985,0.30626 1.34617,0.69075 1.43926,0.85441 0.0931,0.16367 0.3041,0.29758 0.46889,0.29758 1.76255,0 2.07573,2.22623 0.42018,2.9868 -0.23283,0.10697 -0.70908,0.38216 -1.05833,0.61153 -0.34925,0.22938 -0.82942,0.50379 -1.06704,0.60981 -2.79819,1.24846 6.48591,2.67375 10.06586,1.5453 2.03279,-0.64076 4.45709,-1.50008 5.21483,-1.84846 0.36685,-0.16866 0.80931,-0.30665 0.98326,-0.30665 0.27727,0 2.13448,-0.73033 4.06475,-1.59844 1.32425,-0.59555 5.33496,-2.06223 6.35,-2.32213 0.58209,-0.14904 1.72509,-0.47617 2.54,-0.72695 9.47588,-2.91608 12.30176,-2.06176 9.77179,2.95419 -0.71645,1.42042 -1.13697,2.73499 -1.28653,4.02166 -0.16819,1.44708 -0.37316,2.89002 -0.7667,5.3975 -0.71233,4.53862 -0.47836,8.55478 0.77685,13.335 1.48843,5.66838 0.0735,5.39108 -16.85624,-3.30346 -3.13562,-1.61035 -3.72467,-1.8838 -8.14917,-3.78301 -5.00492,-2.14836 -11.03161,-3.45116 -12.86038,-2.78004 -0.48549,0.17816 2.4818,3.15427 3.80028,3.81156 2.04271,1.01835 1.5992,1.83789 -1.7349,3.20582 -0.46566,0.19106 -1.22766,0.52216 -1.69333,0.73578 -0.79113,0.36293 -1.32803,0.47885 -4.18042,0.90261 -0.61118,0.0908 -1.25412,0.25463 -1.42875,0.36408 -0.43295,0.27134 -2.07562,0.48955 -5.715,0.75915 -4.12578,0.30564 -4.05458,0.29701 -4.65666,0.56435 -0.89494,0.39737 -5.30021,0.899 -7.89491,0.899 -1.35439,0 -4.15169,0.10421 -6.21623,0.23158 -5.92874,0.36578 -7.84489,-0.45618 -13.24834,-5.68304 -1.43031,-1.38357 -1.43031,-1.38357 -3.82241,-1.14106 -1.31564,0.13339 -3.24375,0.24896 -4.284676,0.25684 -2.00954,0.0152 -1.99068,0.06 0.3299,0.78355 7.897036,2.46217 9.462676,3.77619 10.396776,8.72583 0.23082,1.22309 0.55772,2.80138 0.72645,3.50732 0.49599,2.0752 0.29166,2.87315 -1.16185,4.53731 -0.42412,0.48559 -0.64723,0.96801 -0.64755,1.4002 -2.7e-4,0.36266 -0.2044,0.91859 -0.45361,1.23542 -0.24921,0.31682 -0.46352,0.7821 -0.47625,1.03396 -0.0154,0.30505 -0.40219,0.71122 -1.15862,1.2167 -1.25438,0.83825 -1.49102,1.19015 -2.05176,3.05122 -0.21046,0.6985 -0.44735,1.36525 -0.52643,1.48167 -0.0791,0.11641 -0.20141,0.45389 -0.27185,0.74994 -0.29078,1.2223 -2.76482,1.58244 -5.614156,0.81725 z"
       id="path7"
       inkscape:export-filename="chelidonichthys_lucerna.png"
       inkscape:export-xdpi="96"
       inkscape:export-ydpi="96" /></g></svg>
