<?xml version="1.0" encoding="UTF-8" standalone="no"?>
<!-- Created with Inkscape (http://www.inkscape.org/) -->

<svg
   width="210mm"
   height="297mm"
   viewBox="0 0 210 297"
   version="1.1"
   id="svg1"
   xml:space="preserve"
   inkscape:version="1.4.2 (ebf0e94, 2025-05-08)"
   sodipodi:docname="donax_vittatus.svg"
   xmlns:inkscape="http://www.inkscape.org/namespaces/inkscape"
   xmlns:sodipodi="http://sodipodi.sourceforge.net/DTD/sodipodi-0.dtd"
   xmlns="http://www.w3.org/2000/svg"
   xmlns:svg="http://www.w3.org/2000/svg"><sodipodi:namedview
     id="namedview1"
     pagecolor="#ffffff"
     bordercolor="#000000"
     borderopacity="0.25"
     inkscape:showpageshadow="2"
     inkscape:pageopacity="0.0"
     inkscape:pagecheckerboard="0"
     inkscape:deskcolor="#d1d1d1"
     inkscape:document-units="mm"
     inkscape:zoom="0.95434119"
     inkscape:cx="667.47617"
     inkscape:cy="759.16245"
     inkscape:window-width="3200"
     inkscape:window-height="1711"
     inkscape:window-x="2391"
     inkscape:window-y="-9"
     inkscape:window-maximized="1"
     inkscape:current-layer="layer1" /><defs
     id="defs1"><inkscape:path-effect
       effect="spiro"
       id="path-effect2"
       is_visible="true"
       lpeversion="1" /><inkscape:path-effect
       effect="spiro"
       id="path-effect2-8"
       is_visible="true"
       lpeversion="1" /><inkscape:path-effect
       effect="spiro"
       id="path-effect2-8-2"
       is_visible="true"
       lpeversion="1" /><inkscape:path-effect
       effect="spiro"
       id="path-effect2-8-2-1"
       is_visible="true"
       lpeversion="1" /><inkscape:path-effect
       effect="spiro"
       id="path-effect2-8-2-1-4"
       is_visible="true"
       lpeversion="1" /><inkscape:path-effect
       effect="spiro"
       id="path-effect2-8-2-1-4-6"
       is_visible="true"
       lpeversion="1" /><inkscape:path-effect
       effect="spiro"
       id="path-effect2-8-2-1-4-6-6"
       is_visible="true"
       lpeversion="1" /><inkscape:path-effect
       effect="spiro"
       id="path-effect2-2"
       is_visible="true"
       lpeversion="1" /></defs><g
     inkscape:label="Layer 1"
     inkscape:groupmode="layer"
     id="layer1"><g
       id="g2"
       transform="translate(8.8217822,33.718812)"><path
         style="fill:#000000"
         d="m 101.3702,139.52067 c -0.0518,-0.0518 -0.786,-0.13944 -1.6316,-0.1948 -3.41495,-0.22357 -10.02812,-0.96528 -10.38706,-1.16498 -0.21063,-0.11718 -0.66491,-0.10586 -1.00951,0.0252 -0.39631,0.15067 -0.81848,0.1355 -1.1488,-0.0413 -0.28723,-0.15372 -0.72592,-0.25337 -0.97486,-0.22145 -0.24895,0.0319 -0.86935,-0.0148 -1.37867,-0.1038 -0.50933,-0.089 -2.53339,-0.36118 -4.49792,-0.60481 -1.964533,-0.24364 -3.750471,-0.50647 -3.968752,-0.58407 -0.218281,-0.0776 -0.754063,-0.17318 -1.190625,-0.2124 -0.436563,-0.0392 -1.627188,-0.20092 -2.645834,-0.35933 -2.543637,-0.39557 -6.458522,-0.97975 -8.995833,-1.34237 -3.299568,-0.47156 -5.91989,-1.03937 -7.9375,-1.72002 -1.018646,-0.34364 -5.00724,-1.68828 -8.863542,-2.98808 -8.440139,-2.84483 -10.732994,-3.73254 -14.022917,-5.42914 -5.305385,-2.73596 -7.473445,-5.01856 -8.210931,-8.64469 -0.552686,-2.7175 -0.514311,-4.14465 0.17542,-6.52377 0.748393,-2.58146 1.291583,-3.74233 3.224765,-6.8917 2.240258,-3.649638 4.997095,-7.145738 6.580346,-8.344918 4.28511,-3.24559 7.284693,-5.374551 8.946025,-6.349461 2.725382,-1.59932 6.083275,-3.81014 8.320572,-5.47823 1.083814,-0.80807 3.756312,-2.36218 5.938884,-3.45359 8.953904,-4.477429 11.681072,-8.14549 11.681072,-8.14549 2.569068,-2.57447 2.684158,-2.65389 4.094133,-2.82529 2.812922,-0.34195 9.564327,0.44082 15.789197,1.83063 4.98372,1.11271 6.41469,1.47068 8.49931,2.12618 1.1182,0.35162 3.69996,1.00655 5.73725,1.4554 4.27191,0.94118 6.70936,1.58332 10.05417,2.64871 2.3155,0.73754 4.89799,1.42546 18.38854,4.89837 8.40418,2.16351 18.72686,5.52742 22.39805,7.29897 4.33712,2.092901 7.0968,5.104651 8.85049,9.658911 1.73213,4.498278 2.22688,8.694038 1.57125,13.325198 -0.73146,5.16686 -3.53809,10.55295 -7.72475,14.82424 -2.15572,2.19931 -6.25095,5.25473 -8.294,6.1881 -2.70904,1.23764 -3.14672,1.43367 -4.10104,1.83677 -1.1411,0.482 -5.26794,1.85173 -6.87917,2.28325 -3.94945,1.05775 -4.94438,1.26976 -6.87916,1.46584 -0.94589,0.0959 -2.13651,0.27532 -2.64584,0.39879 -0.50932,0.12347 -2.20271,0.29511 -3.76308,0.38143 -1.56037,0.0863 -4.00115,0.26072 -5.42396,0.38757 -1.4228,0.12685 -2.76551,0.23492 -2.98379,0.24016 -0.21828,0.005 -2.18281,0.0906 -4.36563,0.18968 -4.6189,0.20967 -10.18885,0.29616 -10.3247,0.16031 z"
         id="path1"
         sodipodi:nodetypes="ssscsssssssssssssssssssssssssssssssssssscsss" /><path
         style="opacity:0.81;fill:none;stroke:#626262;stroke-width:0.499999;stroke-opacity:1"
         d="m 61.256212,82.608804 c 5.344128,3.614307 11.895931,5.408383 18.335867,5.020899 7.650772,-0.460339 15.068662,-4.034657 20.196192,-9.731556"
         id="path2"
         inkscape:path-effect="#path-effect2"
         inkscape:original-d="m 61.256212,82.608804 c 6.534652,1.829703 11.409134,3.191194 18.335867,5.020899 6.926731,1.829702 13.008068,-5.941458 20.196192,-9.731556"
         transform="matrix(1.0131865,0,0,1.1842583,-2.842884,-19.244911)"
         sodipodi:nodetypes="csc" /><path
         style="opacity:0.81;fill:none;stroke:#626262;stroke-width:0.499999;stroke-opacity:1"
         d="m 56.057174,80.85301 c 6.798338,4.7913 15.229587,7.219012 23.534905,6.776693 10.325949,-0.549933 20.332812,-5.607006 26.900211,-13.594304"
         id="path2-3"
         inkscape:path-effect="#path-effect2-2"
         inkscape:original-d="m 56.057174,80.85301 c 6.534652,1.829703 16.608172,4.946988 23.534905,6.776693 6.926731,1.829702 19.712091,-9.804206 26.900211,-13.594304"
         transform="matrix(1.0131865,0,0,1.1842583,-3.5091982,-13.710401)"
         sodipodi:nodetypes="csc" /><path
         style="opacity:0.81;fill:none;stroke:#626262;stroke-width:0.499999;stroke-opacity:1"
         d="m 62.130023,84.515594 c 5.385444,2.618552 11.503431,3.709608 17.462056,3.114109 6.881809,-0.687761 13.518576,-3.639403 18.638298,-8.289215"
         id="path2-2"
         inkscape:path-effect="#path-effect2-8"
         inkscape:original-d="m 62.130023,84.515594 c 6.534652,1.829703 10.535323,1.284404 17.462056,3.114109 6.926731,1.829702 11.450173,-4.499117 18.638298,-8.289215"
         transform="matrix(1.8476076,0,0,2.1595675,-69.549307,-95.435243)"
         sodipodi:nodetypes="csc" /><path
         style="opacity:0.81;fill:none;stroke:#626262;stroke-width:0.499999;stroke-opacity:1"
         d="m 64.583312,84.732168 c 4.633917,2.256899 9.867751,3.267323 15.008767,2.897535 6.062355,-0.436059 11.970997,-2.805417 16.655049,-6.678653"
         id="path2-2-0"
         inkscape:path-effect="#path-effect2-8-2"
         inkscape:original-d="m 64.583312,84.732168 c 6.534652,1.829703 8.082034,1.06783 15.008767,2.897535 6.926731,1.829702 9.466924,-2.888555 16.655049,-6.678653"
         transform="matrix(2.6542147,0,0,3.1023663,-131.88307,-171.64333)"
         sodipodi:nodetypes="csc" /><path
         style="opacity:0.81;fill:none;stroke:#626262;stroke-width:0.499999;stroke-opacity:1"
         d="m 61.084122,83.793839 c 5.597728,3.095045 12.141231,4.451218 18.507957,3.835864 7.286643,-0.704266 14.295128,-4.008141 19.475292,-9.180863"
         id="path2-2-0-6"
         inkscape:path-effect="#path-effect2-8-2-1"
         inkscape:original-d="m 61.084122,83.793839 c 6.534652,1.829703 11.581224,2.006159 18.507957,3.835864 6.926731,1.829702 12.287167,-5.390765 19.475292,-9.180863"
         transform="matrix(2.6542147,0,0,3.1023663,-130.2502,-162.13512)"
         sodipodi:nodetypes="csc" /><path
         style="opacity:0.81;fill:none;stroke:#626262;stroke-width:0.499999;stroke-opacity:1"
         d="m 59.20396,82.140593 c 5.900937,4.086336 13.233203,6.060408 20.388119,5.48911 C 87.842028,86.97097 95.76694,82.89746 101.10421,76.572182"
         id="path2-2-0-6-8"
         inkscape:path-effect="#path-effect2-8-2-1-4"
         inkscape:original-d="m 59.20396,82.140593 c 6.534652,1.829703 13.461386,3.659405 20.388119,5.48911 6.926731,1.829702 14.324009,-7.267423 21.512131,-11.057521"
         transform="matrix(2.6542147,0,0,3.1023663,-127.566,-153.4916)"
         sodipodi:nodetypes="csc" /><path
         style="opacity:0.81;fill:none;stroke:#626262;stroke-width:0.499999;stroke-opacity:1"
         d="m 52.178324,82.651151 c 8.107859,4.953496 18.081895,6.764859 27.413755,4.978552 8.082464,-1.547147 15.632627,-5.755938 21.198771,-11.81712"
         id="path2-2-0-6-8-9"
         inkscape:path-effect="#path-effect2-8-2-1-4-6"
         inkscape:original-d="m 52.178324,82.651151 c 6.534652,1.829703 20.487022,3.148847 27.413755,4.978552 6.926731,1.829702 14.010649,-8.027022 21.198771,-11.81712"
         transform="matrix(2.6542147,0,0,3.1023663,-113.54168,-146.37662)"
         sodipodi:nodetypes="csc" /><path
         style="font-variation-settings:normal;opacity:0.81;vector-effect:none;fill:none;fill-opacity:1;stroke:#626262;stroke-width:0.499999;stroke-linecap:butt;stroke-linejoin:miter;stroke-miterlimit:4;stroke-dasharray:none;stroke-dashoffset:0;stroke-opacity:1;-inkscape-stroke:none;stop-color:#000000;stop-opacity:1"
         d="m 49.492491,82.229187 c 8.836789,5.578835 19.874514,7.559241 30.099588,5.400516 8.052956,-1.700146 15.556364,-5.914504 21.198771,-11.906485"
         id="path2-2-0-6-8-9-2"
         inkscape:path-effect="#path-effect2-8-2-1-4-6-6"
         inkscape:original-d="m 49.492491,82.229187 c 6.534652,1.829703 23.172855,3.570811 30.099588,5.400516 6.926731,1.829702 14.010649,-8.116387 21.198771,-11.906485"
         transform="matrix(2.6542147,0,0,3.1023663,-106.14257,-138.98839)"
         sodipodi:nodetypes="csc" /></g></g></svg>
