<?xml version="1.0" encoding="UTF-8" standalone="no"?>
<!-- Created with Inkscape (http://www.inkscape.org/) -->

<svg
   width="210mm"
   height="297mm"
   viewBox="0 0 210 297"
   version="1.1"
   id="svg1"
   xml:space="preserve"
   inkscape:version="1.4.2 (ebf0e94, 2025-05-08)"
   sodipodi:docname="echiichthys_vipera.svg"
   xmlns:inkscape="http://www.inkscape.org/namespaces/inkscape"
   xmlns:sodipodi="http://sodipodi.sourceforge.net/DTD/sodipodi-0.dtd"
   xmlns="http://www.w3.org/2000/svg"
   xmlns:svg="http://www.w3.org/2000/svg"><sodipodi:namedview
     id="namedview1"
     pagecolor="#ffffff"
     bordercolor="#000000"
     borderopacity="0.25"
     inkscape:showpageshadow="2"
     inkscape:pageopacity="0.0"
     inkscape:pagecheckerboard="0"
     inkscape:deskcolor="#d1d1d1"
     inkscape:document-units="mm"
     inkscape:zoom="0.5007929"
     inkscape:cx="45.927169"
     inkscape:cy="488.22577"
     inkscape:window-width="1920"
     inkscape:window-height="991"
     inkscape:window-x="-9"
     inkscape:window-y="-9"
     inkscape:window-maximized="1"
     inkscape:current-layer="layer1" /><defs
     id="defs1" /><g
     inkscape:label="Layer 1"
     inkscape:groupmode="layer"
     id="layer1"><path
       style="fill:#000000"
       d="m 55.738311,179.88895 c -0.71478,-0.3139 -1.914056,-0.64492 -2.665058,-0.7356 -0.953166,-0.11509 -1.520583,-0.31061 -1.879215,-0.64752 -0.302433,-0.28413 -0.623213,-0.41501 -0.779858,-0.3182 -0.17769,0.10982 -0.210604,0.0747 -0.09907,-0.10581 0.105353,-0.17046 -0.151557,-0.60275 -0.695706,-1.17061 -0.474508,-0.49519 -1.224574,-1.62217 -1.666814,-2.5044 -1.205614,-2.4051 -3.177651,-3.91484 -5.122882,-3.92194 -0.881704,-0.003 -4.448475,-0.96151 -4.864817,-1.30705 -0.161538,-0.13406 -0.410505,-0.17157 -0.55326,-0.0833 -0.152072,0.094 -0.202964,0.0688 -0.122896,-0.0607 0.252478,-0.40852 -1.372633,-1.33419 -2.073276,-1.18095 -0.08935,0.0195 -0.162449,-0.0511 -0.162449,-0.15696 0,-0.10587 -0.338812,-0.25606 -0.752914,-0.33374 -0.414103,-0.0777 -1.300912,-0.42951 -1.970686,-0.78184 -0.669775,-0.35232 -1.308079,-0.58477 -1.418453,-0.51655 -0.110374,0.0682 -0.173897,0.013 -0.141163,-0.12261 0.03273,-0.13565 -0.379099,-0.41849 -0.915184,-0.62854 -0.536084,-0.21005 -1.750006,-0.79476 -2.697603,-1.29936 -0.947598,-0.50459 -1.898065,-0.87164 -2.112149,-0.81566 -0.214084,0.056 -0.341312,0.0242 -0.282728,-0.0705 0.09457,-0.15302 -1.441204,-1.57711 -6.427827,-5.96036 -0.813174,-0.71477 -1.960635,-1.72332 -2.549914,-2.24121 -1.37972,-1.21256 -3.953352,-5.75726 -4.434461,-7.83068 -0.34848,-1.50183 -0.849569,-3.77182 -1.338757,-6.06472 -0.4934862,-2.31304 -0.2821962,-3.17406 1.057894,-4.31097 1.308071,-1.10975 1.362001,-1.12949 1.873486,-0.68588 0.32223,0.27947 0.382486,0.43473 0.193203,0.49782 -0.369851,0.12329 0.354626,1.24995 0.803753,1.24995 0.175948,0 0.319906,0.0975 0.319906,0.2166 0,0.11913 0.141362,0.2166 0.314137,0.2166 0.172776,0 0.392083,0.12184 0.48735,0.27075 0.395204,0.61774 1.183873,1.15891 1.008207,0.6918 -0.08709,-0.23158 -0.310594,-0.53979 -0.496671,-0.68491 -0.186078,-0.14513 -0.250307,-0.26696 -0.142731,-0.27075 0.107575,-0.004 0.0101,-0.17746 -0.2166,-0.38594 -0.226706,-0.20848 -0.440198,-0.52526 -0.474429,-0.70395 -0.03423,-0.1787 -0.302272,-0.53953 -0.59565,-0.80186 -0.293377,-0.26233 -0.533413,-0.56868 -0.533413,-0.68078 0,-0.1121 -0.144723,-0.25935 -0.321608,-0.32723 -1.352561,-0.51902 0.855588,-2.64647 2.278213,-2.19494 0.253851,0.0806 0.653331,0.009 0.92395,-0.16666 0.621695,-0.40243 1.478902,-0.63918 3.617444,-0.9991 1.430904,-0.24083 2.413515,-0.47576 2.7075,-0.64734 0.11913,-0.0695 0.31407,-0.14974 0.4332,-0.17826 0.11913,-0.0285 0.653656,-0.15871 1.187837,-0.28932 0.611236,-0.14945 4.585371,-0.25876 10.721698,-0.29492 l 9.750461,-0.0575 2.165999,-0.60133 c 2.699594,-0.74946 3.751965,-0.94013 6.570472,-1.19045 2.69818,-0.23963 2.452037,0.0214 2.061447,-2.18601 -0.54411,-3.075 -0.754964,-12.93214 -0.245515,-11.47753 0.330698,0.94422 0.871471,3.56571 0.923781,4.47819 0.08475,1.47837 0.730585,3.28901 1.308124,3.66743 1.597035,1.04641 5.273579,-2.13879 5.511651,-2.47624 2.762761,-4.22265 4.265991,-4.63847 2.029187,-0.56131 -0.03069,0.96027 -1.694509,3.1607 -1.764775,3.61006 -1.442284,3.4611 7.487683,-1.0842 8.659158,-1.75426 2.303668,-1.85661 1.921822,-0.76978 1.550011,-0.53758 -0.401674,1.14949 -5.286205,4.78626 -6.983956,5.68831 -0.480181,0.41646 -0.480847,0.42355 -0.03658,0.39009 2.071351,0.0959 10.299918,-0.83426 9.387246,-0.15621 -0.687024,0.43576 2.990926,0.022 3.967186,-0.44627 0.484349,-0.23234 1.0365,-0.42243 1.227002,-0.42243 0.190501,0 0.699222,-0.48068 1.130489,-1.06819 1.651642,-2.24998 5.156416,-4.83218 6.42722,-4.73535 0.334771,0.0255 0.782505,-0.11469 0.994963,-0.31157 0.212459,-0.19687 0.948859,-0.89964 1.636446,-1.56172 1.380472,-1.32924 2.079903,-1.50832 3.372543,-0.86346 0.64487,0.3217 0.71898,0.31408 1.35582,-0.13939 1.32469,-0.94325 2.63709,-0.60705 1.94655,0.49867 -0.14618,0.23408 -0.20796,0.48342 -0.13729,0.55409 0.22951,0.22952 2.373803,0.10177 2.456513,-0.14634 0.0961,-0.2884 2.21021,-0.32857 2.21021,-0.042 0,0.10941 -0.34115,0.40977 -0.7581,0.66746 -1.11659,0.69009 -0.92543,1.2996 0.40759,1.2996 0.26426,0 0.58835,0.10788 0.72021,0.23974 0.17525,0.17525 0.61303,0.14612 1.62751,-0.1083 1.8458,-0.46291 2.47443,-0.44912 2.60683,0.0572 0.10289,0.39344 1.85338,0.34636 2.52362,-0.0679 0.30483,-0.18839 0.88654,0.10595 0.88654,0.44858 0,0.61786 0.97439,0.81567 2.13998,0.43442 1.17134,-0.38312 1.76357,-0.4479 1.7506,-0.19149 -0.01,0.19505 -1.65114,1.35375 -1.91755,1.35375 -0.10296,0 -0.30853,0.14621 -0.45683,0.3249 -0.22724,0.2738 -0.18598,0.3249 0.26228,0.3249 0.29255,0 0.59872,0.0668 0.68036,0.14845 0.2404,0.2404 1.72389,0.71115 2.25221,0.71469 0.26804,0.002 0.48735,0.10301 0.48735,0.22493 0,0.14473 0.60145,0.17151 1.7328,0.0772 1.47699,-0.12318 1.7328,-0.0954 1.7328,0.18836 0,0.44636 0.46005,0.59581 1.83405,0.59581 0.63186,0 1.42801,0.14676 1.76924,0.32613 0.45136,0.23727 0.95713,0.28896 1.85619,0.18972 1.56914,-0.17321 2.0752,-0.0159 1.65856,0.51556 -0.26658,0.34005 -0.25873,0.34794 0.0811,0.0815 0.20696,-0.16224 0.52458,-0.23808 0.70583,-0.16853 0.18124,0.0695 0.59291,0.0263 0.9148,-0.0961 0.67872,-0.25805 2.32117,0.25358 2.52578,0.78679 0.15448,0.40258 0.74448,0.39919 1.7236,-0.01 0.61396,-0.25653 0.89073,-0.27188 1.32605,-0.0735 0.54783,0.24961 0.74585,0.61433 0.33354,0.61433 -0.11913,0 -0.2166,0.10832 -0.2166,0.24071 0,0.27751 1.49592,0.067 1.83027,-0.25756 0.55382,-0.53761 2.06853,-0.0269 2.06853,0.69745 0,0.3005 0.10251,0.40941 0.31028,0.32968 1.10777,-0.42509 2.98561,-0.41625 2.84924,0.0134 -0.19065,0.60068 1.81466,1.35502 3.60923,1.35769 0.56469,8.4e-4 0.81225,0.097 0.81225,0.31535 0,0.22335 0.37703,0.3568 1.30445,0.46173 0.71744,0.0812 1.35675,0.23222 1.42068,0.33566 0.0639,0.10344 0.44797,0.18807 0.85343,0.18807 0.95274,0 3.13604,0.81597 3.13604,1.17204 0,0.16965 0.25004,0.25964 0.65454,0.23558 0.39571,-0.0235 0.92625,0.16153 1.34168,0.46802 0.76311,0.56301 0.91623,0.62197 0.69792,0.26875 -0.10615,-0.17176 -0.027,-0.17388 0.28364,-0.008 0.23697,0.12682 0.50804,0.16091 0.60237,0.0758 0.0943,-0.0852 0.1077,-0.0432 0.0297,0.0932 -0.078,0.13643 0.002,0.30332 0.17822,0.37085 0.19059,0.0731 0.27107,0.27942 0.199,0.51005 -0.1145,0.36644 -0.10786,0.36681 0.12342,0.007 0.23775,-0.36993 0.48512,-0.37244 1.79184,-0.0182 0.20848,0.0565 0.37905,0.24815 0.37905,0.42585 0,0.1777 0.0987,0.26208 0.21936,0.18751 0.12064,-0.0746 0.52236,0.0156 0.89271,0.20034 0.37034,0.18476 0.77404,0.27369 0.8971,0.19763 0.12562,-0.0776 0.15892,-0.0334 0.0759,0.10091 -0.13429,0.21728 0.29217,0.57415 0.839,0.70209 0.36013,0.0842 1.27264,0.45715 1.7328,0.70811 1.44394,0.78748 7.21052,0.14234 9.4221,-1.05411 0.75513,-0.40852 3.23924,-1.2551 5.36085,-1.82696 0.98282,-0.26491 1.78713,-0.54408 1.78735,-0.62038 2.2e-4,-0.0763 0.46321,-0.13799 1.02885,-0.13709 0.56565,9e-4 1.27212,-0.0809 1.56994,-0.18168 0.29783,-0.10083 0.68771,-0.21732 0.8664,-0.25889 0.1787,-0.0416 1.05593,-0.27428 1.9494,-0.51716 0.89348,-0.24288 2.06856,-0.4439 2.6113,-0.4467 0.54273,-0.003 1.56617,-0.19039 2.2743,-0.41686 0.70813,-0.22646 2.40841,-0.72865 3.7784,-1.11596 1.37,-0.38732 3.48867,-1.03053 4.70817,-1.42935 2.56291,-0.83817 2.58958,-0.8426 2.1954,-0.36477 -0.26888,0.32595 -0.25184,0.33616 0.17852,0.10687 0.39108,-0.20836 0.51107,-0.19044 0.67397,0.10065 0.1354,0.24194 0.24605,0.27671 0.34925,0.10974 0.18672,-0.30213 1.20849,-0.32564 1.20849,-0.0278 0,0.11913 -0.14045,0.2166 -0.31212,0.2166 -0.17166,0 -0.37725,0.1054 -0.45687,0.23423 -0.0915,0.14801 0.0374,0.2078 0.35005,0.16245 0.42114,-0.0611 0.50787,0.04 0.58254,0.67885 0.0482,0.41285 0.16851,0.90159 0.26725,1.08608 0.23608,0.44111 -0.36367,1.32996 -0.61882,0.91711 -0.12383,-0.20035 -0.31527,-0.21875 -0.6954,-0.0668 l -0.52453,0.20964 0.50159,0.0137 c 1.077,0.0295 1.87068,0.88013 0.82119,0.88013 -0.28508,0 -0.57749,0.15418 -0.6498,0.34261 -0.2009,0.52354 -0.16779,0.56451 0.32885,0.40688 0.27586,-0.0876 0.40841,-0.0621 0.33077,0.0635 -0.0712,0.11529 -0.74138,0.38344 -1.48917,0.59589 -0.7478,0.21244 -1.21516,0.43664 -1.0386,0.4982 0.78844,0.2749 1.09329,0.90871 0.43707,0.90871 -0.23826,0 -0.4332,0.10604 -0.4332,0.23564 0,0.15491 0.29683,0.18549 0.8664,0.0893 0.84977,-0.14357 0.8664,-0.13399 0.8664,0.49929 0,0.37411 0.13665,0.6981 0.3249,0.77034 0.21446,0.0823 0.3249,0.42151 0.3249,0.99787 0,0.61588 0.092,0.8732 0.31212,0.8732 0.63433,0 0.55227,0.43348 -0.13977,0.73826 l -0.71385,0.31438 0.70395,-0.1202 c 0.69862,-0.11928 0.70289,-0.11465 0.56454,0.61083 -0.0767,0.40207 -0.0613,0.65877 0.0342,0.57046 0.25175,-0.23281 0.75499,0.25284 0.75499,0.72859 0,0.22367 -0.11916,0.40668 -0.26479,0.40668 -0.14564,0 -0.0442,0.15449 0.22535,0.34331 0.31429,0.22014 0.44679,0.47992 0.3693,0.72407 -0.0676,0.21307 0.0725,0.62652 0.31814,0.93883 l 0.43898,0.55808 -0.70594,0.2146 c -1.1787,0.35832 -1.81738,0.47203 -4.55479,0.81092 -3.33308,0.41265 -3.57949,0.56153 -1.45785,0.88085 1.24232,0.18697 2.65038,0.20314 4.90852,0.0564 1.57139,-0.10213 1.52722,-0.13124 1.69666,1.11817 0.12478,0.92007 0.0968,0.99234 -0.47465,1.22775 -0.35075,0.14449 -0.43374,0.23249 -0.1965,0.20834 0.59851,-0.0609 0.67939,0.44901 0.0891,0.5618 l -0.49983,0.0955 0.49415,0.0295 c 0.58926,0.0352 0.84775,0.56175 0.48835,0.9948 -0.17433,0.21005 -0.58369,0.28702 -1.26969,0.23875 -0.74327,-0.0523 -0.82337,-0.0347 -0.30129,0.0663 1.16006,0.22438 0.80552,0.56293 -0.71112,0.67905 -0.787,0.0602 -1.389,0.20438 -1.35704,0.3249 0.0889,0.33527 -2.92805,0.36371 -11.78982,0.11111 -4.44396,-0.12667 -8.46981,-0.2223 -8.94633,-0.21251 -0.82038,0.0168 -2.1748,-0.17776 -4.8735,-0.70027 -0.65522,-0.12686 -2.23171,-0.56464 -3.50333,-0.97284 -2.50672,-0.80469 -3.6103,-0.81683 -4.34757,-0.0478 -0.208,0.21696 -0.74409,0.4702 -1.1913,0.56275 l -0.8131,0.16827 0.9747,0.11535 0.9747,0.11535 -0.71658,0.38824 c -0.97073,0.52595 -3.57379,1.14913 -4.99145,1.19496 -1.38565,0.0448 -1.82292,0.24917 -1.10297,0.5155 0.79964,0.2958 0.12396,0.59571 -1.35105,0.59969 -0.98947,0.003 -1.25493,0.0791 -1.35359,0.38999 -0.0956,0.30123 -0.38896,0.39782 -1.32742,0.43709 -0.8192,0.0343 -1.34233,0.17863 -1.63479,0.4511 -0.47655,0.44398 -3.00062,1.18158 -3.92662,1.14747 -0.35605,-0.0131 -0.57223,0.0827 -0.5415,0.23997 0.0343,0.17538 -0.53869,0.32728 -1.73578,0.46016 -1.44893,0.16085 -2.54229,0.55973 -1.53425,0.55973 0.81925,0 -0.26088,0.28962 -1.66915,0.44755 -0.9133,0.10242 -1.81203,0.31166 -1.99719,0.46499 -0.25195,0.20863 -1.36977,0.26973 -4.44306,0.24287 -4.46458,-0.039 -5.03648,0.18011 -1.46368,0.56084 3.28096,0.34963 3.46197,0.97384 0.24204,0.83468 -0.9632,-0.0416 -1.41695,0.023 -1.4801,0.21072 -0.0529,0.15743 0.0925,0.27075 0.34741,0.27075 0.24116,0 0.49427,0.0903 0.56247,0.20065 0.2404,0.38897 -2.35678,0.52013 -4.75534,0.24015 -2.81552,-0.32864 -5.89507,-0.524 -5.73502,-0.36381 0.17257,0.17271 1.18701,0.33177 3.58064,0.56143 2.0739,0.19898 2.91248,0.3693 2.91248,0.59153 0,0.42734 -0.78156,0.7198 -1.98663,0.74341 -0.75387,0.0148 -1.46814,0.1024 -1.58727,0.19474 -0.11913,0.0923 -0.41154,0.22407 -0.6498,0.29273 -0.23826,0.0687 0.0376,0.0799 0.61312,0.025 0.75979,-0.0725 1.02227,-0.0276 0.95851,0.16366 -0.24049,0.72144 -4.78054,0.68894 -7.14132,-0.0511 -0.88115,-0.27623 -1.93465,-0.42123 -2.986,-0.41099 -1.3562,0.0132 -1.51718,0.05 -0.9747,0.22307 1.19397,0.38081 3.85606,1.05511 4.16551,1.05511 0.16815,0 0.45193,0.14621 0.63063,0.3249 0.38873,0.38873 2.04578,0.43584 2.41302,0.0686 0.14097,-0.14097 0.33104,-0.17905 0.42237,-0.0846 0.41639,0.4305 -0.88836,0.84629 -2.82562,0.90046 -2.51207,0.0702 -2.3665,0.0483 -2.19242,0.33 0.0828,0.13404 0.20784,0.15391 0.28353,0.0451 0.0745,-0.10706 0.42779,-0.13303 0.78518,-0.0577 l 0.6498,0.13693 -0.60976,0.25119 c -0.33536,0.13816 -1.1801,0.25119 -1.8772,0.25119 -0.8134,0 -1.2994,0.0959 -1.35664,0.26758 -0.063,0.18898 -1.01669,0.30032 -3.24691,0.37905 -1.73674,0.0613 -3.11229,0.0384 -3.05677,-0.051 0.0555,-0.0893 -0.18097,-0.16245 -0.52554,-0.16245 -0.34457,0 -0.68416,-0.0577 -0.75465,-0.12816 -0.0705,-0.0705 -0.64718,-0.15761 -1.28155,-0.19359 l -1.15338,-0.0654 0.96276,0.43679 c 0.60453,0.27427 1.6321,0.47856 2.76165,0.54903 0.98939,0.0617 1.79889,0.18918 1.79889,0.28323 0,0.094 0.2193,0.20494 0.48735,0.24642 0.90072,0.13937 -0.76133,0.82111 -2.00185,0.82111 -0.82517,0 -1.22323,0.11477 -1.58111,0.45585 -0.85878,0.81847 -1.38638,1.07545 -2.45677,1.19661 -0.57966,0.0656 -1.22015,0.14023 -1.42332,0.16582 -0.20317,0.0256 -0.5445,0.20497 -0.7585,0.39864 -0.63439,0.57412 -1.52209,0.81548 -2.99919,0.81548 -0.76526,0 -2.13671,0.20448 -3.04768,0.4544 -0.97061,0.26629 -1.92383,0.40089 -2.302553,0.32515 -0.51398,-0.1028 -0.7937,2.1e-4 -1.36661,0.50323 -0.94129,0.82646 -2.53253,1.03677 -5.29277,0.69953 -2.559117,-0.31267 -3.932505,-0.0621 -3.302318,0.60244 0.228662,0.24114 0.849282,0.45725 1.569517,0.54654 1.432201,0.17755 2.599201,0.51914 2.599201,0.76079 0,0.7226 -3.523636,1.12619 -4.880986,0.55905 -0.711628,-0.29733 -0.781589,-0.28634 -1.313292,0.20643 -0.799947,0.74136 -2.18702,0.89826 -3.8829,0.43921 -1.523302,-0.41234 -1.93242,-0.31273 -1.747166,0.42538 0.436708,1.73998 -3.31955,0.33783 -6.001592,-2.24029 l -0.822837,-0.79096 -3.313754,0.0766 c -2.029551,0.0469 -3.473422,-0.0105 -3.725762,-0.14808 -1.379799,-0.75235 -3.972131,-0.88013 -4.870963,-0.2401 -0.344866,0.24556 -0.969099,0.50199 -1.387186,0.56984 -1.017846,0.16517 -0.960056,0.33219 0.322842,0.93307 1.007886,0.47207 1.137607,0.5992 1.0498,1.02885 -0.03306,0.16175 -0.48591,0.14006 -1.44579,-0.0692 -0.479547,-0.10457 -0.469797,-0.067 0.198701,0.76481 0.386645,0.48113 0.826315,0.87478 0.977044,0.87478 0.251702,0 0.655821,0.80708 0.485471,0.96955 -0.04066,0.0388 -1.194831,0.17846 -2.564826,0.3104 -1.369995,0.13193 -2.88078,0.28972 -3.357299,0.35063 -0.640582,0.0819 -1.205128,-0.038 -2.166,-0.45999 z"
       id="path1"
       sodipodi:nodetypes="csssssscssccsssssssscssssssssssssscsssscccscssccsssssscsssssccsssssssssscssssssssscsssscscssssssccsccsssssssssssssssccscsssssssscssssscsscssssssssssscssscsssscsssscssssscsssssssscsssssssscsssscsscsssscccssscsssssssssssscssssssssssssscsssccssscsssssssscsssssssssssssssssssssscscsssssssssscc" /></g></svg>
