<?xml version="1.0" encoding="UTF-8" standalone="no"?>
<!-- Created with Inkscape (http://www.inkscape.org/) -->

<svg
   width="210mm"
   height="297mm"
   viewBox="0 0 210 297"
   version="1.1"
   id="svg1"
   xml:space="preserve"
   inkscape:version="1.4.2 (ebf0e94, 2025-05-08)"
   sodipodi:docname="eutrigla_gurnardus.svg"
   xmlns:inkscape="http://www.inkscape.org/namespaces/inkscape"
   xmlns:sodipodi="http://sodipodi.sourceforge.net/DTD/sodipodi-0.dtd"
   xmlns="http://www.w3.org/2000/svg"
   xmlns:svg="http://www.w3.org/2000/svg"><sodipodi:namedview
     id="namedview1"
     pagecolor="#ffffff"
     bordercolor="#000000"
     borderopacity="0.25"
     inkscape:showpageshadow="2"
     inkscape:pageopacity="0.0"
     inkscape:pagecheckerboard="0"
     inkscape:deskcolor="#d1d1d1"
     inkscape:document-units="mm"
     inkscape:zoom="0.70822811"
     inkscape:cx="396.76482"
     inkscape:cy="446.88992"
     inkscape:window-width="1920"
     inkscape:window-height="991"
     inkscape:window-x="-9"
     inkscape:window-y="-9"
     inkscape:window-maximized="1"
     inkscape:current-layer="layer1" /><defs
     id="defs1" /><g
     inkscape:label="Layer 1"
     inkscape:groupmode="layer"
     id="layer1"><path
       style="fill:#000000"
       d="m 75.726247,192.79743 c -0.741506,-0.51937 -3.618482,-1.60782 -6.002564,-2.27095 -0.591077,-0.16441 -1.286667,-0.43975 -1.545757,-0.61187 -0.259089,-0.17212 -0.615532,-0.31295 -0.792095,-0.31295 -0.176564,0 -0.67327,-0.26867 -1.103793,-0.59705 -0.430523,-0.32837 -0.867259,-0.59704 -0.970524,-0.59704 -0.294662,0 -2.609966,-1.70416 -2.836217,-2.08757 -0.111777,-0.18942 -0.818004,-1.05996 -1.569394,-1.93454 -0.751391,-0.87457 -1.572026,-1.91254 -1.823634,-2.30659 -0.251608,-0.39405 -0.582672,-0.84795 -0.735697,-1.00865 -0.153025,-0.1607 -0.523286,-0.69805 -0.822802,-1.19409 -0.299516,-0.49605 -0.939979,-1.38552 -1.423251,-1.97659 -0.483272,-0.59108 -1.05399,-1.41715 -1.268261,-1.83571 -0.214271,-0.41856 -0.484178,-0.81948 -0.599793,-0.89093 -0.115615,-0.0715 -0.438588,0.48594 -0.717717,1.23866 -0.27913,0.75271 -1.095895,2.33578 -1.815034,3.51794 -2.850866,4.68638 -3.102785,5.2894 -3.061205,7.32758 0.0273,1.33799 -0.05527,1.91169 -0.304955,2.11891 -0.712121,0.59101 -1.53212,-0.95621 -1.535148,-2.89659 -0.0019,-1.19623 1.029981,-4.51039 1.768555,-5.68037 0.340066,-0.5387 0.618301,-1.06389 0.618301,-1.1671 0,-0.10321 0.429874,-0.92328 0.955276,-1.82237 0.525401,-0.8991 0.954083,-1.70341 0.952627,-1.78735 -0.0028,-0.16138 -1.064352,1.12544 -1.669084,2.02327 -0.197025,0.29252 -0.885652,1.26596 -1.530282,2.16321 -1.611858,2.24351 -3.123657,5.19811 -3.728022,7.2859 -0.769881,2.65957 -0.880965,2.86675 -1.490638,2.78013 -0.48343,-0.0687 -0.541738,-0.22685 -0.604553,-1.63997 -0.07231,-1.62671 0.439762,-3.20426 1.981037,-6.103 0.327845,-0.61659 0.596544,-1.2394 0.597109,-1.38402 5.65e-4,-0.14463 0.444499,-0.84792 0.98652,-1.56288 1.327436,-1.75097 2.225785,-3.43202 1.677157,-3.1384 -1.471466,0.7875 -3.319653,3.33747 -3.760301,5.18813 -0.209098,0.87819 -0.769999,1.51897 -1.329606,1.51897 -0.927505,0 -0.355929,-3.83048 0.805599,-5.39881 0.51099,-0.68995 1.448246,-1.55126 3.661025,-3.36435 0.511979,-0.4195 0.857472,-0.83613 0.767763,-0.92584 -0.08971,-0.0897 -1.913761,-0.36232 -4.053449,-0.60579 -2.139688,-0.24348 -4.320215,-0.54744 -4.845616,-0.67547 -0.525402,-0.12803 -1.707555,-0.29545 -2.627008,-0.37206 -2.72567,-0.22709 -5.053243,-0.58407 -8.597478,-1.3186 -1.838905,-0.38111 -4.29832,-0.85578 -5.465367,-1.05481 -1.167046,-0.19904 -2.349199,-0.5129 -2.627007,-0.69746 -0.933195,-0.61997 -1.818608,-1.5618 -1.818608,-1.9345 0,-0.21042 -0.205734,-0.36963 -0.477638,-0.36963 -0.756141,0 -1.432913,-0.84876 -1.432913,-1.79705 0,-0.68562 0.11457,-0.88534 0.617599,-1.07659 0.339679,-0.12915 1.032341,-0.66647 1.539247,-1.19406 0.506907,-0.52759 1.530078,-1.27931 2.273713,-1.67048 0.743635,-0.39118 2.173477,-1.39008 3.177425,-2.21978 1.003948,-0.82971 2.051723,-1.6623 2.328388,-1.8502 0.276665,-0.1879 1.028945,-0.79313 1.671732,-1.34495 0.642787,-0.55182 1.727341,-1.44314 2.41012,-1.98071 1.382332,-1.08835 3.085338,-3.2282 3.886829,-4.88386 0.525074,-1.08466 0.80132,-1.30161 1.081045,-0.84901 0.252466,0.4085 0.472395,0.2686 0.938574,-0.59704 0.25977,-0.48237 0.633248,-0.83587 0.883097,-0.83587 0.238124,0 1.039937,-0.27764 1.781807,-0.61698 2.374365,-1.08606 4.409746,-1.58794 12.516794,-3.0864 1.77323,-0.32775 4.030068,-0.75134 5.015196,-0.9413 0.985128,-0.18995 2.637408,-0.35103 3.671735,-0.35794 l 1.880594,-0.0126 1.104642,-1.14275 c 1.670378,-1.728 3.033876,-3.38662 6.149196,-7.48018 5.616691,-7.38037 6.251625,-8.15926 10.238198,-12.55944 0.400937,-0.44254 0.948312,-0.78897 1.246601,-0.78897 h 0.531799 l -0.58985,0.86919 c -0.743302,1.09532 -0.773775,2.12022 -0.07417,2.49463 1.25631,0.67236 5.121987,-0.612 6.599124,-2.19253 0.563834,-0.6033 0.819577,-0.73582 1.024513,-0.53089 0.204937,0.20494 0.05873,0.55388 -0.585696,1.39786 -0.472344,0.61861 -0.793135,1.23101 -0.712867,1.36089 0.08049,0.13024 0.749967,0.19244 1.492885,0.1387 1.300946,-0.0941 3.687827,-1.05582 4.980515,-2.00674 1.004332,-0.7388 0.636942,0.46138 -0.669667,2.18765 -0.951315,1.25686 -1.191626,1.75239 -1.134389,2.33917 0.09734,0.99792 0.698442,1.07834 1.889691,0.2528 0.664841,-0.46073 1.022585,-0.58136 1.199487,-0.40446 0.176901,0.1769 -0.07134,0.55021 -0.832338,1.25167 -1.278611,1.17858 -2.012215,2.79471 -1.60986,3.54652 0.370505,0.6923 1.132958,0.8687 1.817119,0.42042 0.317323,-0.20791 0.688201,-0.37803 0.824172,-0.37803 0.534336,0 0.193409,0.57247 -0.956799,1.6066 -1.313563,1.18101 -1.900624,2.1105 -1.900624,3.00927 0,0.82341 0.564088,1.203 1.549968,1.04302 1.16521,-0.18909 1.249893,0.18177 0.285303,1.24946 -0.457078,0.50593 -0.898111,1.13116 -0.980074,1.3894 -0.228729,0.72066 0.382896,2.29661 0.995649,2.56544 0.517479,0.22703 0.768097,1.07774 0.317499,1.07774 -0.358464,0 -0.535725,1.29895 -0.27194,1.99276 0.134419,0.35355 0.541865,0.75639 0.905434,0.89519 0.628366,0.23991 0.638899,0.26864 0.213147,0.58129 -0.632498,0.46449 -0.355578,0.93087 0.749259,1.26189 1.427593,0.42772 1.934041,0.36006 4.254774,-0.56839 1.171929,-0.46886 2.668119,-1.04912 3.324879,-1.28946 1.98738,-0.72732 5.61151,-2.26203 7.76161,-3.28682 3.44893,-1.64385 5.03069,-2.02657 4.68833,-1.13438 -0.0663,0.17287 0.0338,0.37357 0.22253,0.44599 0.18873,0.0724 0.34315,0.41626 0.34315,0.76406 0,0.54596 0.0735,0.60964 0.53734,0.46586 1.46043,-0.45265 1.61203,-0.44231 1.61203,0.10994 0,0.50898 0.0736,0.52827 1.67173,0.43797 1.4748,-0.0833 1.67174,-0.0447 1.67174,0.32762 0,0.3733 0.16559,0.40477 1.43291,0.2723 1.19422,-0.12482 1.43291,-0.0887 1.43291,0.21693 0,0.50571 0.47868,0.64307 1.67971,0.48197 0.97476,-0.13074 1.01543,-0.11168 0.87861,0.41154 -0.14342,0.54843 -0.14272,0.54858 1.88984,0.40514 l 2.03331,-0.14349 -0.15313,0.69718 c -0.13402,0.61019 -0.0747,0.71687 0.47539,0.85493 0.34568,0.0868 1.06359,0.0994 1.59536,0.0281 0.96182,-0.12901 0.96613,-0.12605 0.82741,0.56754 -0.12696,0.63483 -0.0812,0.69671 0.51134,0.69152 0.35793,-0.003 1.07698,-0.10452 1.59789,-0.22529 1.07632,-0.24956 1.65316,0.0404 1.43676,0.72224 -0.20251,0.63806 0.21668,0.75401 1.72073,0.47597 1.50595,-0.27839 2.04686,-0.0646 1.50094,0.59318 -0.52438,0.63184 0.14771,0.86182 2.00976,0.6877 l 1.64483,-0.1538 -0.15436,0.61503 c -0.22149,0.88245 0.50803,1.21087 2.27859,1.02581 l 1.39329,-0.14563 -0.0601,0.77255 -0.0601,0.77254 h 1.19409 c 1.11282,0 1.19452,0.0406 1.20036,0.59705 0.006,0.56802 0.0747,0.59731 1.41486,0.60258 1.02685,0.004 1.44017,0.10112 1.5251,0.35823 0.19676,0.59567 0.83291,0.93419 1.77045,0.94214 0.70756,0.006 0.89557,0.0998 0.89557,0.4469 0,0.51622 0.92334,0.99361 1.92179,0.99361 0.38787,0 0.70522,0.0839 0.70522,0.18646 0,0.28614 1.42203,0.758 1.82192,0.60455 0.19534,-0.075 0.56657,0.0921 0.82776,0.3724 0.26046,0.27958 0.68432,0.50832 0.9419,0.50832 0.93237,0 0.51261,0.84225 -0.97995,1.96633 -0.30235,0.2277 -0.48888,0.47485 -0.41451,0.54922 0.36489,0.36489 7.58684,1.35476 10.6991,1.46647 3.46214,0.12426 3.4634,0.12411 5.97047,-0.70602 1.37918,-0.45667 3.20614,-1.15575 4.05992,-1.55351 4.90144,-2.28348 12.47104,-4.76454 17.28515,-5.6655 4.05685,-0.75924 4.70629,-0.7307 4.95799,0.21782 0.21754,0.81976 0.0492,1.1766 -1.08136,2.29228 -0.46586,0.45972 -0.85043,0.92179 -0.8546,1.02681 -0.0229,0.57682 -1.6927,1.82288 -2.98574,2.22807 l -1.42583,0.44681 1.27141,0.15603 c 0.69927,0.0858 1.36841,0.25305 1.48697,0.37161 0.12822,0.12823 0.1159,0.69402 -0.0304,1.39629 -0.13529,0.64939 -0.31381,1.61059 -0.39669,2.13599 -0.17578,1.11429 -0.70752,2.02996 -1.1788,2.02996 -0.60159,0 -0.34343,0.4265 0.41905,0.6923 0.73875,0.25753 0.74768,0.27947 0.60474,1.48635 -0.0818,0.69099 -0.0371,1.42671 0.10262,1.68779 0.16747,0.31292 0.16936,0.55723 0.006,0.75426 -0.42273,0.50936 0.38258,2.98399 1.38623,4.25977 0.67471,0.85765 1.25665,2.52624 0.94765,2.71721 -0.13061,0.0807 -0.20546,0.37298 -0.16633,0.64948 0.12446,0.87966 -1.37315,0.74613 -5.14051,-0.45833 -4.36198,-1.39456 -5.19588,-1.71442 -10.07277,-3.86356 -2.23295,-0.98402 -4.8122,-2.09925 -5.73165,-2.47829 -0.91945,-0.37904 -1.8822,-0.80736 -2.13945,-0.95182 -1.75149,-0.98357 -8.09949,-1.41682 -12.30909,-0.84009 -1.51053,0.20694 -4.25098,0.44355 -6.08988,0.52578 -1.83891,0.0822 -3.71307,0.22607 -4.16482,0.31964 l -0.82135,0.17012 0.70194,0.51713 c 2.00573,1.47764 3.66822,2.83367 3.67714,2.9993 0.006,0.10264 -0.17803,0.2454 -0.40789,0.31726 -0.22986,0.0718 -0.7054,0.28473 -1.05675,0.47305 -0.41657,0.22328 -1.01263,0.29753 -1.71323,0.21343 -0.94141,-0.113 -1.09412,-0.0669 -1.23361,0.37259 -0.11156,0.35152 -0.27776,0.45257 -0.55554,0.33779 -0.92811,-0.3835 -1.21469,-0.36594 -1.68377,0.10314 -0.41299,0.41299 -0.67791,0.47072 -1.58779,0.34601 -0.97056,-0.13303 -1.10654,-0.0944 -1.22196,0.34694 -0.10439,0.39918 -0.31292,0.49411 -1.06259,0.48377 -0.51299,-0.007 -1.10985,0.13414 -1.32636,0.31382 -0.2165,0.17968 -0.90318,0.32669 -1.52595,0.32669 -0.76439,0 -1.29011,0.1428 -1.61792,0.43946 -0.32322,0.29251 -0.65679,0.38512 -0.99758,0.27696 -0.72446,-0.22993 -1.62252,0.0464 -1.71522,0.52775 -0.0555,0.28798 -0.35914,0.42894 -1.03246,0.47922 -1.52162,0.11363 -1.55094,0.1249 -1.55094,0.59602 0,0.38145 -0.1224,0.42569 -0.8172,0.29535 -1.15298,-0.2163 -2.23629,0.0719 -2.4176,0.64317 -0.10584,0.33345 -0.27185,0.42761 -0.54817,0.31092 -0.93997,-0.39698 -1.47104,-0.40218 -1.47104,-0.0144 0,0.44831 -0.7495,0.513 -1.47086,0.12694 -0.2663,-0.14252 -0.75233,-0.19183 -1.08006,-0.10957 -0.48786,0.12244 -0.54389,0.2122 -0.30909,0.49512 0.22903,0.27597 0.206,0.37657 -0.11439,0.49951 -0.22064,0.0847 -0.52291,0.0322 -0.6717,-0.11659 -0.46808,-0.46807 -1.75308,-0.32384 -2.1266,0.23871 -0.32437,0.48852 -0.36877,0.49338 -1.09195,0.11941 -1.02207,-0.52853 -1.92852,-0.51502 -1.88541,0.0281 0.0268,0.33824 -0.12504,0.40227 -0.7965,0.33578 -0.45631,-0.0452 -1.23118,-0.28698 -1.72192,-0.53734 -1.07349,-0.54766 -1.62774,-0.58067 -1.62774,-0.097 0,0.44422 -0.11764,0.44441 -1.57407,0.003 -1.32941,-0.40329 -2.34202,-0.46889 -2.13782,-0.1385 0.25568,0.4137 -0.33012,0.51565 -0.99777,0.17366 -0.93665,-0.47979 -4.16163,-1.36225 -3.99539,-1.09328 0.28924,0.468 -0.58358,0.46454 -1.42067,-0.006 -0.48096,-0.27014 -1.04273,-0.49116 -1.24838,-0.49116 -0.40467,0 -3.91302,-1.83931 -5.46263,-2.86388 -0.5254,-0.34739 -1.77535,-1.0159 -2.77767,-1.48559 l -1.822389,-0.85398 -1.42486,0.49917 c -1.369188,0.47965 -1.563937,0.48719 -4.983946,0.19275 -2.888502,-0.24867 -18.256804,-0.53726 -17.595991,-0.33042 0.764648,0.23934 5.573407,1.44941 8.424666,2.11997 4.280501,1.00668 6.410505,1.74964 6.584092,2.29656 0.07209,0.22713 0.37038,0.60383 0.662872,0.83712 0.8636,0.6888 1.348803,1.54193 1.204329,2.11756 -0.160133,0.63802 0.200606,1.39437 1.138035,2.38607 0.740997,0.78389 0.734398,1.65807 -0.01073,1.42157 -0.283643,-0.09 -0.541032,0.16082 -0.911633,0.88846 -0.28402,0.55764 -0.57461,1.2044 -0.645754,1.43724 -0.07115,0.23284 -0.266127,0.45967 -0.433294,0.50406 -0.167167,0.0444 -0.841283,0.25226 -1.498035,0.46193 -0.656751,0.20968 -1.623968,0.45212 -2.149369,0.53876 -0.533682,0.088 -1.129149,0.37636 -1.34925,0.65337 -0.345911,0.43533 -0.62269,0.48973 -2.268779,0.44592 -1.269381,-0.0338 -2.087568,0.0628 -2.533667,0.29913 -0.575667,0.30497 -0.763172,0.30545 -1.484947,0.004 -1.102587,-0.46069 -2.659292,-0.45353 -2.83834,0.0131 -0.175294,0.4568 -0.391176,0.45113 -1.075638,-0.0283 z"
       id="path1" /></g></svg>
