<?xml version="1.0" encoding="UTF-8" standalone="no"?>
<!-- Created with Inkscape (http://www.inkscape.org/) -->

<svg
   width="210mm"
   height="297mm"
   viewBox="0 0 210 297"
   version="1.1"
   id="svg1"
   xml:space="preserve"
   inkscape:version="1.4.2 (ebf0e94, 2025-05-08)"
   sodipodi:docname="flustra_foliacea.svg"
   xmlns:inkscape="http://www.inkscape.org/namespaces/inkscape"
   xmlns:sodipodi="http://sodipodi.sourceforge.net/DTD/sodipodi-0.dtd"
   xmlns="http://www.w3.org/2000/svg"
   xmlns:svg="http://www.w3.org/2000/svg"><sodipodi:namedview
     id="namedview1"
     pagecolor="#ffffff"
     bordercolor="#000000"
     borderopacity="0.25"
     inkscape:showpageshadow="2"
     inkscape:pageopacity="0.0"
     inkscape:pagecheckerboard="0"
     inkscape:deskcolor="#d1d1d1"
     inkscape:document-units="mm"
     inkscape:zoom="0.50079291"
     inkscape:cx="223.64534"
     inkscape:cy="584.07377"
     inkscape:window-width="1920"
     inkscape:window-height="991"
     inkscape:window-x="-9"
     inkscape:window-y="-9"
     inkscape:window-maximized="1"
     inkscape:current-layer="layer1" /><defs
     id="defs1"><inkscape:path-effect
       effect="spiro"
       id="path-effect30"
       is_visible="true"
       lpeversion="1" /></defs><g
     inkscape:label="Layer 1"
     inkscape:groupmode="layer"
     id="layer1"><path
       style="fill:#1a1a1a;stroke:#000000;stroke-width:0.123561;-inkscape-stroke:none"
       d=""
       id="path5"
       transform="scale(0.26458333)" /><path
       style="fill:#1a1a1a;stroke:#000000;stroke-width:0.123561;-inkscape-stroke:none"
       d=""
       id="path8"
       transform="scale(0.26458333)" /><path
       style="fill:#1a1a1a;stroke:#000000;stroke-width:0.123561;-inkscape-stroke:none"
       d=""
       id="path10"
       transform="scale(0.26458333)" /><path
       style="fill:#1a1a1a;stroke:#000000;stroke-width:0.123561;-inkscape-stroke:none"
       d=""
       id="path18"
       transform="scale(0.26458333)" /><path
       style="fill:#1a1a1a;stroke:#000000;stroke-width:0.0209932;-inkscape-stroke:none"
       d="m 100.62022,198.84872 c -0.54293,-0.2277 -1.344436,-0.44767 -1.781146,-0.48883 -0.4367,-0.0412 -1.01804,-0.13863 -1.29185,-0.2166 -0.52689,-0.15003 -0.80561,-0.54735 -0.38396,-0.54735 0.32332,0 0.84991,-0.80483 0.73039,-1.11631 -0.0508,-0.13241 -0.20773,-0.24074 -0.34871,-0.24074 -0.14098,0 -0.40946,-0.30016 -0.59662,-0.66703 -0.39427,-0.77284 -0.61807,-0.95295 -0.90387,-0.72741 -0.11253,0.0888 -0.41001,0.19844 -0.66106,0.24362 -0.47892,0.0862 -0.64733,-0.15193 -0.88695,-1.25407 -0.0757,-0.34814 -0.31692,-0.554 -1.033672,-0.88215 -0.514219,-0.23542 -0.977696,-0.53944 -1.029948,-0.6756 -0.05227,-0.13616 -0.272688,-0.29216 -0.489856,-0.34667 -0.391075,-0.0981 -0.928925,-1.11894 -0.589569,-1.11894 0.27098,0 0.179448,-0.77687 -0.193197,-1.63986 -0.216635,-0.50169 -0.447063,-1.64263 -0.593826,-2.94022 -0.04058,-2.98113 -1.59204,-5.49024 -2.562294,-8.21276 -0.502263,-7.86477 -4.138241,-12.71897 -7.310819,-15.02055 -0.618524,-0.44797 -1.13083,-0.52554 -3.470143,-0.52545 -2.042225,9e-5 -4.118405,0.25903 -4.495725,0.56071 -0.328055,0.2623 -0.266299,-0.28985 0.114508,-1.02379 0.519459,-1.00116 1.244643,-1.75506 2.145507,-2.23045 0.983257,-0.51886 1.088236,-0.85475 0.607112,-1.94242 -0.446151,-1.00859 -0.909654,-1.21807 -3.420094,-1.54569 -2.537911,-0.3312 -3.221362,-0.57863 -3.221362,-1.16624 0,-0.25058 0.177939,-0.5604 0.440468,-0.7669 0.243426,-0.19148 0.532104,-0.67128 0.645289,-1.07252 0.191598,-0.67916 0.289108,-0.76726 1.510307,-1.3645 3.448618,-1.68659 -1.811661,-2.26594 -0.246026,-5.33485 2.721392,-2.80855 0.391569,-1.97401 0.02646,-5.54169 -6.42e-4,-0.26888 0.149768,-0.73389 0.334842,-1.03335 l -1.229836,-1.56054 c -2.247262,-1.45777 -2.837904,-1.79806 -2.843747,-1.63838 -0.0026,0.0776 -0.08386,0.006 -0.180059,-0.15937 -0.09619,-0.16523 -0.246539,-0.25614 -0.334103,-0.20202 -0.08756,0.0541 -0.159208,0.0292 -0.159208,-0.0555 0,-0.0846 -0.311493,-0.29434 -0.692203,-0.46602 -0.615011,-0.27733 -0.679406,-0.36059 -0.577452,-0.7467 0.06312,-0.23901 0.164878,-1.04445 0.226132,-1.78986 l 0.111381,-1.3553 -0.879345,-0.9855 c -0.487564,-0.54642 -0.929728,-1.22741 -0.992414,-1.52846 -0.155137,-0.74497 -0.941126,-2.49373 -1.120819,-2.49373 -0.08055,0 -0.127383,-0.0639 -0.104053,-0.14199 0.02331,-0.0781 -0.333988,-0.81533 -0.794023,-1.6383 -1.036453,-1.85414 -1.139897,-2.64319 -0.612982,-4.67593 0.202977,-0.78306 0.443834,-1.51385 0.535224,-1.62398 0.350029,-0.42175 1.379784,0.0996 2.695327,1.36465 0.699737,0.67288 1.426244,1.33321 1.614464,1.4674 0.188213,0.13419 0.469429,0.44353 0.624919,0.68742 0.15549,0.24388 1.18468,1.42803 2.287095,2.63144 1.102408,1.20341 2.302852,2.55333 2.66765,2.99982 0.636093,0.77855 0.695158,0.80973 1.441874,0.76121 0.75462,-0.0491 0.780357,-0.0689 0.835049,-0.64431 0.07495,-0.78855 -0.165083,-1.55415 -1.249839,-3.98637 -1.180384,-2.64666 -1.713457,-4.53828 -1.403594,-4.98067 0.122181,-0.17443 0.281228,-0.31824 0.353444,-0.31957 1.177373,-0.0216 1.381499,-0.43334 0.789843,-1.59308 -0.193101,-0.37852 -0.309156,-0.73015 -0.2579,-0.78141 0.167768,-0.16777 1.519304,0.83815 2.65728,1.97775 1.078039,1.07958 2.136158,2.64408 2.474242,3.65835 0.08997,0.2699 0.25013,0.51958 0.355911,0.55484 0.191155,0.0637 0.88908,-1.11704 0.88908,-1.50416 0,-0.11139 0.28948,-0.45031 0.643298,-0.75316 0.360739,-0.30879 0.881599,-1.03938 1.185842,-1.66338 0.595265,-1.22085 0.897653,-1.46563 1.81055,-1.46563 0.540252,0 0.666781,0.0905 1.126662,0.80575 0.502641,0.78176 0.516422,0.85627 0.462757,2.50208 -0.03044,0.93299 -0.0938,1.7345 -0.140848,1.78115 -0.04707,0.0467 -0.231142,0.52357 -0.409107,1.05983 -0.177958,0.53627 -0.490029,1.25086 -0.693494,1.58799 l -0.369942,0.61296 0.517508,1.4654 c 0.467041,1.32251 2.501918,-2.42734 2.555197,-2.48062 0.117006,-0.117 0.134177,0.10708 0.09853,1.28548 -0.03339,1.10448 10.444547,14.51488 11.277967,15.52855 0.27938,0.33979 0.56563,0.6178 0.63613,0.6178 0.30482,0 0.0692,-0.45997 -0.77237,-1.50794 -4.083394,-5.08471 -5.739565,-11.62434 -1.05634,-6.01596 0.71763,0.85939 1.93594,2.81171 2.92206,4.68255 0.33195,0.62976 0.67493,1.14502 0.76217,1.14502 0.0872,0 0.1174,0.0667 0.067,0.14827 -0.10698,0.17309 1.093516,2.09823 1.732266,2.77789 0.30056,0.31982 0.60857,0.4665 0.97961,0.4665 0.78368,0 0.93058,-0.27766 0.81466,-1.5397 -0.0576,-0.62699 0.006,-1.84585 0.14995,-2.87076 0.13752,-0.97963 0.26246,-2.03858 0.27763,-2.35323 0.0317,-0.65562 -0.0947,-0.83821 -2.36278,-3.41427 -1.768976,-2.00923 -2.201806,-2.81622 -2.309736,-4.3064 -0.0714,-0.98574 -0.0626,-1.01539 0.17809,-0.59946 0.13926,0.24068 0.49135,1.03711 0.78243,1.76986 0.696416,1.75316 0.986906,2.13141 2.248066,2.92742 1.90917,1.20501 2.23229,1.08119 1.65449,-0.634 -0.37488,-1.11281 -0.82687,-1.94862 -1.63779,-3.02854 -0.33689,-0.44865 -0.6279,-1.10657 -0.75031,-1.69632 -0.49922,-2.40516 -0.61649,-2.59209 -2.691426,-4.29035 -0.60021,-0.49124 -1.00097,-0.92328 -0.89058,-0.96007 0.11039,-0.0368 0.20071,-0.19795 0.20071,-0.35811 0,-0.69893 0.67323,-0.8803 1.502,-0.40465 0.28143,0.16152 0.55571,0.24965 0.60952,0.19585 0.0538,-0.0538 -0.0594,-0.4532 -0.25151,-0.88756 -0.19214,-0.43435 -0.3936,-1.16345 -0.44769,-1.62022 -0.0863,-0.72827 -0.0539,-0.85426 0.26245,-1.02359 0.44834,-0.23994 0.45051,-0.3602 0.015,-0.82772 -0.19023,-0.20418 -0.29832,-0.37125 -0.2402,-0.37125 0.17307,0 -0.79756,-1.15832 -2.55863,-3.05339 -1.86226,-2.00398 -2.62281,-3.08456 -2.62281,-3.72648 0,-0.24037 0.23693,-0.72447 0.52651,-1.07579 0.28958,-0.3513 0.77302,-1.22746 1.07431,-1.94701 0.3013,-0.71955 0.69618,-1.54855 0.87752,-1.84221 0.30021,-0.48616 0.39763,-0.52963 1.0885,-0.48576 1.62127,0.10295 2.26359,0.28783 2.728286,0.78529 0.95768,1.02519 2.18825,0.36522 3.67474,-1.97081 1.2162,-1.91129 1.26953,-1.95078 2.63354,-1.95078 1.09292,0 1.25297,-0.0495 2.19498,-0.67853 0.55887,-0.37319 1.15384,-0.67853 1.32217,-0.67853 0.81461,0 1.10263,-0.46639 0.54405,-0.88095 -0.35779,-0.265553 -2.47282,-2.780584 -2.56501,-3.050126 -0.13123,-0.383651 1.43966,-0.0099 3.37257,0.802512 1.3788,0.579488 2.18763,1.036556 2.7586,1.558873 0.4443,0.406441 0.88323,0.692391 0.97539,0.635431 0.0922,-0.05696 0.16756,-0.02273 0.16756,0.07608 0,0.1081 0.44128,0.17964 1.10806,0.17964 0.60943,0 1.38089,0.114 1.71435,0.25333 0.33346,0.13933 0.67451,0.21116 0.7579,0.15962 0.0834,-0.0515 0.15161,-0.0221 0.15161,0.0654 0,0.0875 0.23159,0.25499 0.51465,0.37223 0.72582,0.30065 1.13443,0.89202 1.54083,2.23 0.19383,0.63816 0.41558,1.16027 0.49277,1.16027 0.18483,0 0.60591,-1.4288 0.94986,-3.22301 0.37515,-1.957009 0.61431,-2.616271 0.97421,-2.685584 0.16666,-0.03211 0.40661,0.08194 0.53324,0.253411 0.31785,0.430432 0.43354,0.272906 1.36071,-1.852739 0.76172,-1.746303 1.00768,-2.137936 1.21349,-1.932128 0.1333,0.133297 0.55887,3.419439 0.57996,4.478297 0.01,0.489818 0.0561,0.890573 0.10293,0.890573 0.0469,0 0.31199,-0.19084 0.58919,-0.424078 0.45362,-0.381699 1.15649,-0.578723 1.15649,-0.324182 0,0.05497 -0.49218,0.7557 -1.09375,1.55724 -0.60156,0.80152 -1.05506,1.51992 -1.00779,1.59642 0.0473,0.0765 0.0103,0.13909 -0.0822,0.13909 -0.13803,0 -0.3941,0.49386 -0.43978,0.84817 -0.006,0.0466 -0.0716,0.18038 -0.14579,0.29719 -0.32599,0.51343 -0.98707,2.75504 -1.07175,3.63412 -0.10286,1.06786 0.0843,1.19762 0.80081,0.5552 l 0.36864,-0.33051 -0.12353,1.61151 c -0.16814,2.1935 -0.1472,3.06494 0.11371,4.73156 0.13787,0.88069 0.31972,1.48458 0.47679,1.58326 0.1837,0.11542 0.6376,-0.0564 1.64165,-0.62148 l 1.38774,-0.78101 0.0163,-3.41565 c 0.0164,-3.42887 0.21334,-6.20867 0.51434,-7.25819 0.0888,-0.30976 0.12106,-0.62867 0.0716,-0.70868 -0.0494,-0.08 -0.0173,-0.14549 0.0713,-0.14549 0.0887,0 0.21233,-0.20992 0.27478,-0.46649 0.32694,-1.34336 1.80366,-2.486371 2.77329,-2.14658 0.52032,0.18233 1.29895,1.47262 1.44987,2.40259 0.12873,0.79327 0.52605,1.04773 1.63723,1.04854 0.77719,5e-4 1.04628,-0.0852 1.61152,-0.51372 1.03152,-0.78199 0.94864,-0.29617 -0.32912,1.92917 -1.05465,1.83677 -1.37455,2.67802 -0.90893,2.39026 0.41243,-0.2549 1.544,-0.0505 2.04246,0.36892 0.27163,0.22856 0.59536,0.41556 0.71942,0.41556 0.13359,0 0.19303,0.12435 0.14578,0.30503 -0.0826,0.31586 0.90695,1.91089 1.25813,2.02794 0.40741,0.13581 -0.0768,-1.19536 -0.70741,-1.94481 -0.28697,-0.34104 -0.47608,-0.81244 -0.53835,-1.34195 -0.0528,-0.44892 -0.13456,-0.87863 -0.1817,-0.9549 -0.0471,-0.0763 -0.11588,-0.61087 -0.15277,-1.188 -0.0611,-0.95621 -0.026,-1.09266 0.39533,-1.53774 0.67918,-0.71744 1.82786,-1.47235 2.24033,-1.47235 0.25536,0 0.43695,0.18461 0.62572,0.63612 0.14628,0.34987 0.34591,0.82697 0.44362,1.06021 0.0977,0.23325 0.18406,0.49937 0.19188,0.59139 0.008,0.092 0.14434,0.19237 0.30339,0.223 0.20394,0.0393 0.3349,-0.11002 0.44436,-0.50658 l 0.1552,-0.56226 0.2013,0.50263 c 0.33226,0.82965 0.50141,1.91727 0.6869,4.41672 0.25597,3.44902 0.3396,4.36105 0.44191,4.81924 0.0502,0.22483 0.12437,0.83551 0.16483,1.35706 0.0404,0.52155 0.18444,1.94062 0.31998,3.15349 0.13553,1.21288 0.28501,2.73957 0.33215,3.39266 0.20012,2.77188 0.31272,3.03996 1.20642,2.8723 0.4888,-0.0917 0.56036,-0.0541 0.66101,0.34689 0.0738,0.29386 0.28717,0.51048 0.6158,0.62504 0.57777,0.20141 0.60955,0.33061 0.2255,0.91674 -0.15259,0.23288 -0.22871,0.47212 -0.16918,0.53166 0.14272,0.14272 1.77926,0.14623 2.28752,0.005 0.21947,-0.061 0.81878,-0.34784 1.3318,-0.63737 0.51302,-0.28954 0.97521,-0.48398 1.02709,-0.43211 0.15366,0.15366 0.33393,1.60051 0.21746,1.74538 -0.25378,0.3157 -0.52926,1.43491 -0.43009,1.74736 0.0595,0.18726 0.35074,0.46437 0.64735,0.61579 0.92901,0.4743 4.38074,2.98724 5.40864,3.93764 0.54064,0.49986 0.98297,1.03901 0.98297,1.1981 0,0.2813 -0.95251,1.33341 -1.07601,1.18853 -0.034,-0.0399 -0.50323,-0.6068 -1.04282,-1.25988 -1.29237,-1.56421 -3.56584,-3.89906 -4.39507,-4.51376 -0.36387,-0.26972 -0.81365,-0.49041 -0.99951,-0.49041 -0.40303,0 -1.67048,1.041 -3.80958,3.12893 -2.14906,2.09767 -2.12902,2.48018 0.0665,1.26823 0.6893,-0.38049 1.343,-0.6619 1.45268,-0.62534 0.10967,0.0365 -0.3168,0.43483 -0.94772,0.88504 l -1.14713,0.81857 0.90252,0.49355 c 0.49638,0.27145 0.96434,0.55535 1.0399,0.63091 0.0755,0.0756 0.13414,1.05545 0.13017,2.17755 -0.006,1.81947 0.0312,2.08896 0.34761,2.49125 0.42406,0.5391 0.94945,0.50845 2.34172,-0.13659 0.8921,-0.41331 0.89431,-0.41345 1.59778,-0.0987 1.62493,0.72713 2.52137,1.90876 2.80897,3.70264 l 0.17326,1.08065 -0.88445,1.02065 c -0.48644,0.56137 -1.63524,1.62989 -2.55288,2.37452 -1.40022,1.1362 -1.65106,1.41199 -1.56026,1.71543 0.27093,0.90551 0.28117,1.59435 0.0325,2.18937 -0.25402,0.60796 -0.24862,0.64471 0.16726,1.13895 l 0.42974,0.51073 h -0.50685 c -0.42273,0 -0.56804,-0.11739 -0.87553,-0.70733 -0.32758,-0.62847 -0.33894,-0.72396 -0.10194,-0.85659 0.2907,-0.16269 0.3543,-0.64787 0.11853,-0.90424 -0.20768,-0.22584 -0.36093,-1.60303 -0.17837,-1.60303 0.22488,0 0.83547,-1.28351 0.83547,-1.75624 0,-0.22698 -0.1145,-0.45663 -0.25445,-0.51033 -0.13995,-0.0537 -0.25445,-0.26637 -0.25445,-0.4726 0,-0.20622 -0.0937,-0.63411 -0.20825,-0.95085 -0.19151,-0.52961 -0.17638,-0.59994 0.18831,-0.87502 0.3553,-0.26801 0.37255,-0.33773 0.16584,-0.67033 -0.43115,-0.6937 -2.18149,-0.83564 -2.18149,-0.1769 0,0.0955 -0.0622,0.13524 -0.13822,0.0883 -0.25367,-0.15678 -3.95212,3.14018 -8.04899,7.17525 -1.59759,1.57347 -2.06085,2.1392 -2.32271,2.83639 -0.33971,0.90451 -0.86842,2.78008 -0.94995,3.36992 -0.0258,0.1866 -0.0545,0.37744 -0.0636,0.42408 -0.009,0.0467 -0.0866,-0.0255 -0.17194,-0.16049 -0.087,-0.13747 -0.0921,-0.36322 -0.0116,-0.51352 0.0789,-0.14752 0.17222,-0.61026 0.20725,-1.02833 0.0351,-0.41806 0.10754,-0.83582 0.16112,-0.92835 0.0782,-0.13505 1.00326,-2.81358 1.08334,-3.13682 0.0116,-0.0466 0.11208,-0.31382 0.22338,-0.59371 0.11131,-0.2799 0.28999,-0.7379 0.39708,-1.0178 0.10709,-0.27989 0.34582,-0.72806 0.53053,-0.99592 0.31365,-0.45488 0.3913,-0.48044 1.17667,-0.38743 1.06009,0.12556 1.43284,-0.13856 3.63178,-2.57328 -3.88068,1.16562 -15.61029,10.81503 -8.43709,12.48598 0.33005,0.12209 0.33468,0.15288 0.0781,0.51924 -0.15003,0.2142 -0.68856,1.20478 -1.19673,2.20129 -0.7185,1.40898 -1.15955,2.03814 -1.98361,2.82963 -0.58281,0.5598 -1.24678,1.26327 -1.4755,1.56328 -0.22871,0.30001 -0.53006,0.56719 -0.66967,0.59371 -0.13961,0.0265 -0.3471,0.16274 -0.46109,0.30269 -0.17741,0.2178 -0.20804,0.19966 -0.21266,-0.12592 -0.003,-0.2092 -0.2344,-0.5844 -0.51429,-0.83379 -0.2799,-0.24939 -0.5089,-0.58712 -0.5089,-0.75052 0,-0.1634 -0.0954,-0.32921 -0.21204,-0.36845 -0.16156,-0.0544 -0.15146,-0.14482 0.0424,-0.37987 1.64808,-1.99819 -6.72564,-26.59227 -7.05324,-36.47732 -0.29533,-8.91086 7.63243,-5.80549 5.8658,35.46719 -0.0156,0.36407 -0.61746,1.54518 -1.29354,2.47361 -0.62959,0.8646 -0.73417,1.61399 -0.33265,2.38363 0.19218,0.36835 0.19691,0.51133 0.0247,0.74685 -0.26846,0.36714 -0.60117,0.18149 -0.4832,-0.26962 0.0569,-0.21746 0.006,-0.33816 -0.14315,-0.3365 -0.33512,0.004 -0.5382,0.18699 -0.82581,0.74507 -0.1398,0.27127 -0.38776,0.52825 -0.55104,0.57109 -0.36332,0.0953 -0.38423,0.43315 -0.0442,0.71529 0.26304,0.2183 0.18078,0.58862 -0.0931,0.41933 -1.58375,0.1201 -0.69846,0.912 -0.7786,1.44818 -0.0739,0.36939 -0.0374,0.50889 0.13307,0.50889 0.12917,0 0.32595,0.14589 0.4373,0.32419 0.16297,0.26095 0.15439,0.34263 -0.044,0.41875 -0.13555,0.052 -0.24646,0.24965 -0.24646,0.43918 0,0.4667 0.56544,0.45179 1.01119,-0.0267 0.19023,-0.20419 0.34587,-0.28053 0.34587,-0.16963 0,0.11089 0.12278,0.20162 0.27284,0.20162 0.40562,0 0.18659,0.68672 -0.73038,2.29003 -0.42688,0.74639 -0.89392,1.58322 -1.03788,1.85963 -0.14396,0.27642 -0.51523,0.75605 -0.82504,1.06586 -0.30981,0.30982 -0.5633,0.66141 -0.5633,0.78131 0,0.11991 -0.22185,0.32729 -0.493,0.46084 -0.55766,0.27466 -1.71222,1.59306 -1.71222,1.9552 0,0.13112 -0.0763,0.23839 -0.16964,0.23839 -0.0933,0 -0.16963,-0.1145 -0.16963,-0.25445 0,-0.45257 -0.32818,-0.27007 -0.57451,0.31948 -0.2624,0.628 -1.35529,1.46492 -2.32576,1.78102 -0.62485,0.20353 -1.17091,0.11667 -1.17091,-0.18626 0,-0.0965 -0.18319,-0.12389 -0.42408,-0.0634 -0.24948,0.0626 -0.42409,0.0335 -0.42409,-0.0706 0,-0.25267 0.74649,-0.50276 1.17005,-0.392 0.26614,0.0696 0.63072,-0.14424 1.41767,-0.83152 0.58267,-0.50887 1.26545,-1.05846 1.51731,-1.22132 0.80697,-0.52181 0.87258,-0.99895 0.88836,-6.45991 -10.40449,2.26892 0.36058,3.44893 -6.15115,5.68182 -7.0695,2.48403 -0.55912,3.82639 1.12678,6.18201 1.03168,1.50563 -0.17041,2.22929 -2.41838,1.45588 -0.53668,-0.18465 -1.14023,-0.30482 -1.34121,-0.26705 -0.20098,0.0378 -0.42267,0.0743 -0.49264,0.0813 -0.07,0.007 -0.12723,0.1295 -0.12723,0.27238 0,0.14287 -0.1145,0.30371 -0.25445,0.35741 -0.32484,0.12465 -0.3277,0.74781 -0.005,1.17394 0.13698,0.18111 0.25148,0.42301 0.25446,0.53757 0.007,0.27538 -2.30535,2.95867 -2.77006,3.21424 -0.19951,0.10972 -0.49289,0.23959 -0.65195,0.28859 -0.28278,0.0871 -0.98305,1.258 -0.98305,1.6437 0,0.107 0.10663,0.15362 0.23696,0.10361 0.16171,-0.062 0.26012,0.0669 0.30989,0.40594 0.0867,0.59042 0.10864,0.58738 -1.14056,0.15759 -0.54236,-0.18659 -1.1311,-0.33926 -1.30832,-0.33926 -0.37831,0 -2.03362,0.79819 -2.95813,1.42641 -0.76719,0.52132 -0.7265,0.52141 -1.97931,-0.004 z m 8.53579,-4.4758 c 0,-0.0933 -0.1145,-0.16963 -0.25445,-0.16963 -0.13995,0 -0.25445,0.0763 -0.25445,0.16963 0,0.0933 0.1145,0.16963 0.25445,0.16963 0.13995,0 0.25445,-0.0763 0.25445,-0.16963 z m 0.30039,-0.87996 c -0.10485,-0.31454 -0.47003,-0.36671 -0.47003,-0.0671 0,0.14772 0.12087,0.26858 0.26859,0.26858 0.14772,0 0.23837,-0.0906 0.20144,-0.20143 z m 0.008,-1.02985 c 0.062,-0.53713 -0.21465,-0.61742 -0.4718,-0.13693 -0.25851,0.48304 -0.21451,0.72194 0.12126,0.65826 0.17904,-0.034 0.31816,-0.24086 0.35054,-0.52133 z m 0.2776,-1.1708 c 0.23764,-0.10827 0.43207,-0.24869 0.43207,-0.31204 0,-0.12707 -0.76966,-0.5089 -1.02578,-0.5089 -0.18278,0 -0.22204,0.73124 -0.0485,0.90471 0.14576,0.14576 0.1356,0.14709 0.64228,-0.0838 z m -4.14274,-46.87623 c -0.008,-0.25373 -0.72866,-0.20471 -0.81538,0.0555 -0.0524,0.15725 0.06,0.20837 0.37281,0.16963 0.24631,-0.0305 0.44547,-0.13179 0.44257,-0.22509 z m -7.329446,-0.36761 c -0.0302,-0.15554 -0.14415,-0.31254 -0.25328,-0.34887 -0.16014,-0.0533 -0.18934,0.19604 -0.069,0.58926 0.007,0.0233 0.0949,0.0424 0.19506,0.0424 0.10013,0 0.15739,-0.12726 0.12722,-0.2828 z m 7.243506,-0.40883 c 0.0516,-0.1627 0.28175,-0.41891 0.51136,-0.56935 0.54784,-0.35896 0.5443,-0.77462 -0.007,-0.77462 -0.23325,0 -0.42408,0.0747 -0.42408,0.166 0,0.0994 -0.17647,0.0856 -0.43982,-0.0344 -0.39009,-0.17774 -0.47596,-0.15336 -0.75957,0.21568 -0.44665,0.58117 -0.40478,0.91616 0.13918,1.11366 0.6684,0.24268 0.87315,0.21824 0.97954,-0.11698 z M 66.094729,128.47061 c 0,-0.0886 -0.08206,-0.1885 -0.182357,-0.22193 -0.100297,-0.0335 -0.182351,0.0664 -0.182351,0.22193 0,0.1555 0.08205,0.25537 0.182351,0.22194 0.100297,-0.0335 0.182357,-0.1333 0.182357,-0.22194 z m -0.534344,-0.61706 c 0,-0.28478 -1.87691,-2.99794 -2.145109,-3.10086 -0.131076,-0.0503 -0.229748,0.0225 -0.229748,0.16939 0,0.36436 0.485175,1.25849 0.682886,1.25849 0.0909,0 0.146191,0.0654 0.122869,0.14531 -0.07141,0.24467 1.065343,1.72065 1.325194,1.72065 0.134152,0 0.243908,-0.0868 0.243908,-0.19298 z m 79.203585,-6.82881 c 0.30468,-0.36712 0.39469,-1.74527 0.21485,-3.28969 -0.12501,-1.07361 -0.32645,-1.74498 -0.85253,-2.84135 -0.37886,-0.78957 -0.75943,-1.43558 -0.84571,-1.43558 -0.27495,0 -0.87382,1.87932 -0.87561,2.74777 -0.001,0.45746 0.59198,2.48453 1.2182,4.16476 0.34345,0.9215 0.73334,1.14505 1.1408,0.65409 z"
       id="path20"
       sodipodi:nodetypes="ssssssssssssssssssssssssssssscssssssssscsssssssssssssssscsssssssssssssscssssssssssssssssssssssssssssssssssssssssssssssssssssssssssssssssssssssssscsssscssssssscsssssssssssssssssscssssssssssssssssssssssssssscssssssscssssscsssssssssssssssssssssssssssssssssssssssssssssssssssssssssssssssssssssssssssssssssssssssssssssssssssssssssssssssssssssssssssssssssssssssssssssssssscsscss" /><path
       style="fill:#1a1a1a;stroke:#000000;stroke-width:0.0308903;-inkscape-stroke:none"
       d=""
       id="path21"
       transform="scale(0.26458333)" /><path
       style="fill:#1a1a1a;stroke:#000000;stroke-width:0.123561;-inkscape-stroke:none"
       d=""
       id="path29"
       transform="scale(0.26458333)" /></g></svg>
