<?xml version="1.0" encoding="UTF-8" standalone="no"?>
<!-- Created with Inkscape (http://www.inkscape.org/) -->

<svg
   width="210mm"
   height="297mm"
   viewBox="0 0 210 297"
   version="1.1"
   id="svg1"
   inkscape:version="1.4.2 (ebf0e94, 2025-05-08)"
   sodipodi:docname="gadus_morhua.svg"
   xmlns:inkscape="http://www.inkscape.org/namespaces/inkscape"
   xmlns:sodipodi="http://sodipodi.sourceforge.net/DTD/sodipodi-0.dtd"
   xmlns="http://www.w3.org/2000/svg"
   xmlns:svg="http://www.w3.org/2000/svg">
  <sodipodi:namedview
     id="namedview1"
     pagecolor="#ffffff"
     bordercolor="#000000"
     borderopacity="0.25"
     inkscape:showpageshadow="2"
     inkscape:pageopacity="0.0"
     inkscape:pagecheckerboard="0"
     inkscape:deskcolor="#d1d1d1"
     inkscape:document-units="mm"
     inkscape:zoom="0.70822811"
     inkscape:cx="396.76482"
     inkscape:cy="561.25984"
     inkscape:window-width="1920"
     inkscape:window-height="991"
     inkscape:window-x="-9"
     inkscape:window-y="-9"
     inkscape:window-maximized="1"
     inkscape:current-layer="layer1" />
  <defs
     id="defs1" />
  <g
     inkscape:label="Layer 1"
     inkscape:groupmode="layer"
     id="layer1">
    <g
       id="g4149"
       transform="matrix(9.8414041,0,0,9.8414041,-1239.9904,-1133.9978)"
       style="font-variation-settings:normal;vector-effect:none;fill:#000000;fill-opacity:1;stroke:none;stroke-width:0.0400523;stroke-linecap:butt;stroke-linejoin:miter;stroke-miterlimit:4;stroke-dasharray:none;stroke-dashoffset:0;stroke-opacity:1;-inkscape-stroke:none;stop-color:#000000">
      <path
         d="m 131.368,129.49708 c 4.49627,-0.83192 9.72934,0.71842 10.92924,0.78245 0.57591,-0.0162 0.71985,-0.0162 0.71985,-0.0162 0,0 1.36012,-0.27179 1.47226,0.49613 0.11182,0.76792 -1.50433,0.65582 -1.50433,0.65582 0,0 -0.33583,0.0319 -0.62363,0.0162 -0.28811,-0.0162 -1.42044,0.83735 -3.27623,0.74139 -0.5536,0.31912 -1.15078,0.53769 -1.77164,0.68148 -0.44583,0.10298 -0.90016,0.15582 -1.35731,0.17161 -0.0939,0.003 -0.18778,0.004 -0.28219,0.002 -0.0503,-0.001 -0.17829,-0.0336 -0.22343,-0.01 -0.0262,0.0142 -0.0436,0.0699 -0.0711,0.0914 -0.04,0.0312 -0.0906,0.0503 -0.13851,0.0661 -0.19188,0.064 -2.71974,0.17587 -4.84778,-0.4642 -2.12758,-0.63999 1.00706,-3.10264 0.97479,-3.21436 z"
         fill="url(#ian_symbols_7f496a1a7de1e8d499370d7dcafd0d47)"
         id="path4140"
         style="font-variation-settings:normal;vector-effect:none;fill:#000000;fill-opacity:1;stroke:none;stroke-width:0.0400523;stroke-linecap:butt;stroke-linejoin:miter;stroke-miterlimit:4;stroke-dasharray:none;stroke-dashoffset:0;stroke-opacity:1;-inkscape-stroke:none;stop-color:#000000;stop-opacity:1" />
      <path
         d="m 127.52143,131.91125 c 0.061,0.10674 0.36016,0.29874 1.66129,0.49078 3.32777,0.14918 3.04532,-1.95225 2.51457,-2.18672 0,0 -0.0777,-0.20278 -0.3017,-0.72548 -3.08119,0.75474 -3.92043,1.38931 -4.14325,1.79202 0.0639,0.29874 0.94943,0.25641 1.1308,0.42674 0.0747,0.0748 -0.92248,0.096 -0.86144,0.2027 z"
         fill="url(#ian_symbols_65f3550991108ed45141ed46b287e288)"
         id="path4141"
         style="font-variation-settings:normal;vector-effect:none;fill:#000000;fill-opacity:1;stroke:none;stroke-width:0.0400523;stroke-linecap:butt;stroke-linejoin:miter;stroke-miterlimit:4;stroke-dasharray:none;stroke-dashoffset:0;stroke-opacity:1;-inkscape-stroke:none;stop-color:#000000;stop-opacity:1" />
      <path
         d="m 139.41195,132.16216 c 0.18141,0.21857 0.98128,0.8427 1.17317,0.83196 0.13339,0 0.34114,-0.0744 0.6023,-0.18832 0.27782,-0.11016 0.96022,-0.86232 0.96561,-1.02767 -0.0103,-0.11183 -0.11878,-0.1384 -0.16699,-0.21318 -0.16588,-0.0323 -1.31604,0.6343 -2.57439,0.5971 z"
         fill="url(#ian_symbols_a9ac1125b7ffd634b9194764ac128e27)"
         id="path4142"
         style="font-variation-settings:normal;vector-effect:none;fill:#000000;fill-opacity:1;stroke:none;stroke-width:0.0400523;stroke-linecap:butt;stroke-linejoin:miter;stroke-miterlimit:4;stroke-dasharray:none;stroke-dashoffset:0;stroke-opacity:1;-inkscape-stroke:none;stop-color:#000000;stop-opacity:1" />
      <path
         d="m 135.56136,133.01549 c 0.84376,0.76791 0.76754,1.02767 1.48789,1.02399 1.15594,-0.02 2.09178,-1.0522 2.22392,-1.60413 0.012,-0.0761 -0.0921,-0.18945 -0.12416,-0.25717 -0.18449,-0.10439 -1.73171,0.84497 -3.58792,0.837 z"
         fill="url(#ian_symbols_0f1ee97be3501ae4f9a5d659e8d4d744)"
         id="path4143"
         style="font-variation-settings:normal;vector-effect:none;fill:#000000;fill-opacity:1;stroke:none;stroke-width:0.0400523;stroke-linecap:butt;stroke-linejoin:miter;stroke-miterlimit:4;stroke-dasharray:none;stroke-dashoffset:0;stroke-opacity:1;-inkscape-stroke:none;stop-color:#000000;stop-opacity:1" />
      <path
         d="m 139.18343,129.71565 c 0.0895,-0.10352 0.72776,-0.87941 1.13286,-0.86399 0.65005,0.0354 1.87215,1.2883 1.85549,1.44788 -1.54722,-0.2831 -2.99043,-0.52027 -2.98816,-0.58389 z"
         fill="url(#ian_symbols_145c2e8966e6e5944558be093f84c8f4)"
         id="path4144"
         style="font-variation-settings:normal;vector-effect:none;fill:#000000;fill-opacity:1;stroke:none;stroke-width:0.0400523;stroke-linecap:butt;stroke-linejoin:miter;stroke-miterlimit:4;stroke-dasharray:none;stroke-dashoffset:0;stroke-opacity:1;-inkscape-stroke:none;stop-color:#000000;stop-opacity:1" />
      <path
         d="m 135.17721,129.28762 c 0.12007,-0.19204 0.66417,-1.43198 1.59201,-1.41619 0.11214,0.0241 0.41585,0.0481 0.47127,0.0685 0.0888,-0.0365 1.70801,1.26124 1.95274,1.54756 0.22267,0.25972 0,0.28796 0,0.28796 -3.08837,-0.50949 -3.71736,-0.42381 -4.01609,-0.48781 z"
         fill="url(#ian_symbols_6f6cc6ab2f7baf44157cc8684f7bd581)"
         id="path4145"
         style="font-variation-settings:normal;vector-effect:none;fill:#000000;fill-opacity:1;stroke:none;stroke-width:0.0400523;stroke-linecap:butt;stroke-linejoin:miter;stroke-miterlimit:4;stroke-dasharray:none;stroke-dashoffset:0;stroke-opacity:1;-inkscape-stroke:none;stop-color:#000000;stop-opacity:1" />
      <path
         d="m 132.0319,129.3873 c 0.2024,-0.0959 1.08666,-1.89155 1.78033,-1.90233 0.65032,-0.0321 1.51253,1.3958 1.39527,1.82254 -1.53963,-0.1321 -3.17567,0.0798 -3.17567,0.0798 z"
         fill="url(#ian_symbols_00f5c84e06074df44904285c019c13c6)"
         id="path4146"
         style="font-variation-settings:normal;vector-effect:none;fill:#000000;fill-opacity:1;stroke:none;stroke-width:0.0400523;stroke-linecap:butt;stroke-linejoin:miter;stroke-miterlimit:4;stroke-dasharray:none;stroke-dashoffset:0;stroke-opacity:1;-inkscape-stroke:none;stop-color:#000000;stop-opacity:1" />
      <path
         d="m 142.97709,130.27953 c 0.31221,-0.0881 2.75239,-1.31191 3.04813,-1.21636 0.0883,0.0645 0.0239,1.23212 -0.0241,1.36809 -0.0318,0.0561 -0.088,0.19241 -0.18391,0.27216 0.28014,0.20817 0.60796,1.64812 0.27217,1.75202 -0.33632,0.10385 -2.20699,-0.70946 -3.25516,-1.02938 0.0238,0.008 1.70312,-0.21857 1.65517,-0.61874 -0.0482,-0.39986 -1.48041,-0.53568 -1.51229,-0.52786 z"
         fill="url(#ian_symbols_740eed73f888baf4e9732836bb763f91)"
         id="path4147"
         style="font-variation-settings:normal;vector-effect:none;fill:#000000;fill-opacity:1;stroke:none;stroke-width:0.0400523;stroke-linecap:butt;stroke-linejoin:miter;stroke-miterlimit:4;stroke-dasharray:none;stroke-dashoffset:0;stroke-opacity:1;-inkscape-stroke:none;stop-color:#000000;stop-opacity:1" />
      <path
         d="m 127.54223,131.95339 c 0.0451,0.0731 0.11156,0.0827 0.16957,0.13877 0.0536,0.052 0.07,0.15625 0.0818,0.22563 0.0295,0.18494 0.16034,0.26143 0.25269,0.41315 0.0157,-0.0208 0.0198,-0.0486 0.0123,-0.0764 -0.0744,-0.0321 -0.0765,-0.12686 -0.10211,-0.18421 -0.0172,-0.0373 -0.0474,-0.054 -0.0508,-0.0956 -0.004,-0.0482 -0.009,-0.11965 -0.002,-0.16832 0.0115,-0.0651 0.0647,-0.19108 0.0141,-0.24062 -0.0333,-0.0319 -0.29422,-0.039 -0.35196,-0.0125"
         fill="#9c7530"
         id="path4148"
         style="font-variation-settings:normal;vector-effect:none;fill:#000000;fill-opacity:1;stroke:none;stroke-width:0.0400523;stroke-linecap:butt;stroke-linejoin:miter;stroke-miterlimit:4;stroke-dasharray:none;stroke-dashoffset:0;stroke-opacity:1;-inkscape-stroke:none;stop-color:#000000;stop-opacity:1" />
      <path
         d="m 131.48149,132.56757 c 0,0 0.78398,0.23971 0.8717,0.48781 -0.0798,0.25604 0.36809,0.83989 0.2727,0.93585 -0.0724,0.008 -0.28018,-0.34414 -0.59262,-0.60006 -0.0634,-0.12754 -0.55155,-0.82334 -0.55155,-0.82334 z"
         fill="#cec3ad"
         id="path4149"
         style="font-variation-settings:normal;vector-effect:none;fill:#000000;fill-opacity:1;stroke:none;stroke-width:0.0400523;stroke-linecap:butt;stroke-linejoin:miter;stroke-miterlimit:4;stroke-dasharray:none;stroke-dashoffset:0;stroke-opacity:1;-inkscape-stroke:none;stop-color:#000000;stop-opacity:1" />
    </g>
  </g>
</svg>
