
        <svg xmlns:rdf="http://www.w3.org/1999/02/22-rdf-syntax-ns#" xmlns="http://www.w3.org/2000/svg" xmlns:cc="http://creativecommons.org/ns#" xmlns:xlink="http://www.w3.org/1999/xlink" xmlns:dc="http://purl.org/dc/elements/1.1/" x="0px" y="0px" width="501" height="268" viewBox="0 0 501 268" xml:space="preserve">
            <title>Limanda ferruginea (Yellowtail Flounder)</title>
            <desc xmlns:ian_image_library="https://ian.umces.edu/media-library/">
                <ian_image_library:title>Limanda ferruginea (Yellowtail Flounder)</ian_image_library:title>
                <ian_image_library:descr>Illustration of Limanda ferruginea (Yellowtail Flounder)</ian_image_library:descr>
                <ian_image_library:scene>
                    <ian_image_library:contains>fish, yellowtail, flounder, Chordata, Actinopterygii, Pleuronectiformse, Pleuronectidae, Limanda, ferruginea, Pleuronectes, ferruginea</ian_image_library:contains>
                    <ian_image_library:when>2008-08-08</ian_image_library:when>
                </ian_image_library:scene>
            </desc>
            <metadata id="metadata-iil-fe5d9c269aec3c14f5687801a3c2cdbd">
                <rdf:RDF>
                <cc:Work
                rdf:about="">
                <dc:format>image/svg+xml</dc:format>
                <dc:type
                rdf:resource="http://purl.org/dc/dcmitype/StillImage" />
                <cc:license
                rdf:resource="http://creativecommons.org/licenses/by-sa/3.0/" />
                <dc:title>Limanda ferruginea (Yellowtail Flounder)</dc:title>
                <dc:date>2008-08-08</dc:date>
                <dc:creator>
                    <cc:Agent>
                        <dc:title></dc:title>
                    </cc:Agent>
                </dc:creator>
                <dc:rights>
                <cc:Agent>
                    <dc:title></dc:title>
                </cc:Agent>
                </dc:rights>
                <dc:publisher>
                <cc:Agent>
                    <dc:title>Integration and Application Network</dc:title>
                </cc:Agent>
                </dc:publisher>
                <dc:identifier>https://ian.umces.edu/media-library/limanda-ferruginea-yellowtail-flounder/</dc:identifier>
                <dc:source>https://ian.umces.edu/media-library/limanda-ferruginea-yellowtail-flounder/</dc:source>
                <dc:language>en-US</dc:language>
                <dc:subject>
                <rdf:Bag>
                    <rdf:li>fish, yellowtail, flounder, Chordata, Actinopterygii, Pleuronectiformse, Pleuronectidae, Limanda, ferruginea, Pleuronectes, ferruginea</rdf:li>
                </rdf:Bag>
                </dc:subject>
                <dc:coverage></dc:coverage>
                <dc:description>Illustration of Limanda ferruginea (Yellowtail Flounder)</dc:description>
                <dc:contributor>
                <cc:Agent>
                    <dc:title></dc:title>
                </cc:Agent>
                </dc:contributor>
            </cc:Work>
            <cc:License
                rdf:about="http://creativecommons.org/licenses/by-sa/3.0/">
                <cc:permits
                rdf:resource="http://creativecommons.org/ns#Reproduction" />
                <cc:permits
                rdf:resource="http://creativecommons.org/ns#Distribution" />
                <cc:requires
                rdf:resource="http://creativecommons.org/ns#Notice" />
                <cc:requires
                rdf:resource="http://creativecommons.org/ns#Attribution" />
                <cc:permits
                rdf:resource="http://creativecommons.org/ns#DerivativeWorks" />
                <cc:requires
                rdf:resource="http://creativecommons.org/ns#ShareAlike" />
            </cc:License>
            </rdf:RDF>
            </metadata>
            
 <defs></defs>
 <linearGradient id="ian_symbols_641e70b012c90774c9824249559fdbd1" y2="208.84" gradientUnits="userSpaceOnUse" x2="317.84" y1="208.84" x1="121.69">
  <stop stop-color="#E5D5C1" offset=".0506"/>
  <stop stop-color="#D1B48E" offset=".618"/>
  <stop stop-color="#CAB18E" offset=".7537"/>
  <stop stop-color="#C3AD8E" offset="1"/>
 </linearGradient>
 <path d="m123.45 151.87s-2.824 4.644-1.308 9.904c1.503 5.281 66.774 64.954 70.333 70.788 3.545 5.833 15.354 15.858 20.429 19.789 5.068 3.929 17.639 8.117 30.836 10.666 13.19 2.517 21.817 4.552 30.957.495 9.14-4.051 43.143-32.487 43.143-32.487l-194.39-79.16z" fill="url(#ian_symbols_641e70b012c90774c9824249559fdbd1)"/>
 <linearGradient id="ian_symbols_51377506b7c71614b9f43320b575cfd6" y2="53.478" gradientUnits="userSpaceOnUse" x2="329.25" y1="53.478" x1="122.94">
  <stop stop-color="#E5D5C1" offset=".0506"/>
  <stop stop-color="#D1B48E" offset=".618"/>
  <stop stop-color="#CAB18E" offset=".7537"/>
  <stop stop-color="#C3AD8E" offset="1"/>
 </linearGradient>
 <path d="m211.26 18.884c-.027.813.29 2.049-.499 2.588-.809.542-1.416-.397-2.251.195-.728.519-.458 1.614-.937 2.218-.653.782-.485.336-1.125.098-.782-.266-.734-.964-1.449-.017-.344.465-.769 1.935-.876 2.507-.142.833.438 1.473-.714 1.625-1.052.131-1.503-1.082-2.339-1.439-.64.273-.573 2.012-.721 2.642-.195.788-.303 1.429-.694 2.076-.566.913-.714.846-1.712.38-.64-.289-1.179-.963-1.806-1.125-.688 1.816.485 3.724-.748 5.479-.337-.199-1.968-1.463-2.157-1.463-1.334.074-.215 2.261-1.024 2.565-1.051.401-1.092-1.581-2.015-1.634-1.517-.075-1.125 1.971-1.247 2.857-.162 1.267-.721 2.706-2.001 2.804-1.187.087-2.258-1.18-3.127-.078-.87 1.105-.856 6.141-3.673 3.789-1.099.953.067 4.03-1.887 3.913-.829-.058-1.341-1.106-2.042-1.086-.843.054-.93.998-.99 1.571-.122 1.042-.122 3.886-1.497 4.071-.863.122-1.362-1.125-2.036-1.072-.983.087-.458 1.2-.289 1.796.128.509.681 2.056.283 2.568-.485.637-1.759.168-2.278-.22-.614-.508-.863-1.937-1.84-1.321-.56.327-.485 1.766-.984 2.339-1.051 1.19-3.107.465-3.525 1.981-.331 1.149.432 1.341-1.011 1.517-.855.108-1.321-.118-1.935-.445-.215.661-.027 1.3-.101 1.982-.142 1.027.033.9-1.004 1.027-.775.095-1.227-.347-1.584.455-.182.401.047 1.341.033 1.816-.02.705.202.978-.451 1.291-.701.357-1.368-.509-1.706-.469-1.806.25-1.166 2.298-.95 3.414-.432.084-1.119-.098-1.502.151-.694.421-.283.92-.458 1.483-.128.441-.371.519-.506.95-.182.597.243 1.038-.465 1.463-1.556.93-2.911-2.942-4.28-.573-.431.778-.04 1.718-.681 2.338-.903.876-1.442-.337-2.454-.195-1.375.182-.761 1.244-1.226 2.123-.56 1.008-1.591.192-2.5 0-.128.499.215 1.84-.068 2.204-.58.748-1.22-.182-1.955-.182-.229 1.008.371 2.642-.027 3.519-.377.876-2.271.499-3.147.485-2.494-.041-3.754.913-5.385 2.666-.809.879-1.813 1.486-2.581 2.369-.674.812-1.038 1.941-1.672 2.716-1.489 1.884-2.413 4.624-2.5 6.976l2.285 5.584 60.91-29.185 65.723-35.024 77.396-13.194-13.96-13.457c-.774.239-.869-.347-1.503-.519-.565-.138-1.449.01-2.049.021-1.442.023-2.857-.118-4.32-.25-1.624-.148-2.197-.475-3.64-.789-1.584-.347-2.076-.54-3.194-1.763-.775-.846-1.335-1.442-2.562-1.291-1.206.172.033-.637-1.011-.465-.722.122-2.238.542-2.791.24-.593-.317-1.712.496-2.305.148-1.2-.681-1.988-1.689-2.629-2.892-1.759.557-1.543 2.504-3.229 3.206-2.17.913-3.241-1.072-5.034-1.861-2.171-.93-4.213-.63-6.464-.953-.896-.128-1.294-.499-2.063-.896-.688-.358-1.422-.435-2.123-.701-1.254-.512-2.467-1.271-3.855-1.389-1.213-.121-2.379-.512-3.498-.273-1.375.293-3.026.856-4.429.879-1.854.034-2.426-.142-3.612 1.462-.964 1.288-1.679.748-3.168.368-.546-.132-1.105-.435-1.691-.476-.742-.081-1.456.249-2.211.159-1.436-.148-2.885-.573-4.145-1.18-1.382-.681-2.608-.573-3.889.091-.903.475-1.429.289-2.373.475-.734.128-.984.745-1.645.981-.627.239-1.449-.182-2.022.142-.62.347-.391.977-.674 1.506-1.045 1.917-1.887.111-3.262.347-.991.195-.957 1.22-1.476 1.84-.566.66-.903.532-1.671.781-.688.202-.971.725-1.564.974-.701.3-1.483-.043-2.211.007-1.429.132-2.386 1.473-3.107 2.676-.397.641-.681 1.871-1.563 2.036-.627.118-1.031-.691-1.665-.573-1.024.192-1.631 3.245-1.84 3.347-.209.118-.344-1.129-1.24-1.378-.769-.206-1.301.424-2.123.424l-.22 1.123z" fill="url(#ian_symbols_51377506b7c71614b9f43320b575cfd6)"/>
 <linearGradient id="ian_symbols_568e2b306ddc29f4e551c19f975c17ac" y2="128.24" gradientUnits="userSpaceOnUse" x2="94.02" y1="128.24" x1=".8296">
  <stop stop-color="#E5D5C1" offset=".0506"/>
  <stop stop-color="#D1B48E" offset=".618"/>
  <stop stop-color="#CAB18E" offset=".7537"/>
  <stop stop-color="#C3AD8E" offset="1"/>
 </linearGradient>
 <path d="m35.146 176.23c-.95 1.048-1.995 1.436-3.37 1.705-1.625.307-3.175.987-4.806 1.277-3.215.566-4.273-3.006-6.672-4.395-2.784-1.611-4.24-4.512-6.383-6.861-2.022-2.228-3.404-4.829-4.449-7.643-1.152-3.158-2.75-5.739-3.147-9.146-.458-3.879-2.69-7.104-3.782-10.818-.937-3.245-.896-6.332-.532-9.668.337-2.982-.323-5.682-.681-8.634-.121-1.136-.957-3.053-.141-3.987 1.018-1.18 4.354-.822 4.745-2.74.297-1.571-2.177-1.871-2.035-3.384.135-1.378 2.663-2.622 3.66-3.336-1.827-1.375-2.191-2.568-1.712-4.88.425-2.083 1.267-4.071 2.427-5.813 1.381-2.126 2.938-4.31 4.738-6.117.903-.89 1.834-1.496 2.407-2.689.559-1.166.795-2.312 1.577-3.397 2.689-3.798 6.241-8.216 11.282-8.466 4.361-.175 9.167.91 12.975 3.074l45.159 18.771 7.616 50.24-38.077 16.75-20.799 10.16z" fill="url(#ian_symbols_568e2b306ddc29f4e551c19f975c17ac)"/>
 <linearGradient id="ian_symbols_dded9101d5cd17c4917359c26a0f3a1c" y2="134.55" gradientUnits="userSpaceOnUse" x2="490.98" y1="134.55" x1=".0557">
  <stop stop-color="#B9A88F" offset="0"/>
  <stop stop-color="#B5A48A" offset=".0168"/>
  <stop stop-color="#9F8C70" offset=".1257"/>
  <stop stop-color="#937F61" offset=".2211"/>
  <stop stop-color="#8F7B5C" offset=".2921"/>
  <stop stop-color="#7F6248" offset=".5899"/>
  <stop stop-color="#6B5343" offset="1"/>
 </linearGradient>
 <path stroke="#433F37" stroke-width=".1108" d="m392.1 217.68l-1.267 1.503s-10.838 3.4-19.85 6.282c-9.024 2.897-31.099 6.709-45.26 8.055-14.154 1.32-35.438-2.774-35.438-2.774l-2.508-1.264c-.397.418-1.732 1.103-2.265 1.024-.641-.084-.95-.646-1.543-.964-1.537-.731-2.737.297-4.044-.485-.641-.377-1.268-1.277-1.948-1.591-.89-.4-.883.152-1.57.509-.532.294-1.813.51-2.467.271-.499-.183-.641-.704-1.207-.813-.142-.896-1.523-1.361-2.305-1.169-1.268.327-1.503.778-2.508-.236-.397-.381-.902-1.169-1.503-1.28-.62-.099-.923.337-1.449.532-.957.347-1.759.226-2.642-.26-.931-.512-1.57-1.601-2.71-1.83-1.125-.229-1.51.563-2.567-.172-.836-.576-1.342-2.144-2.184-2.534-.931-.445-2.022.216-2.973-.37-1.233-.715-1.193-1.904-2.831-1.935-.998-.023-2.136.205-3.02-.317-.856-.499-1.099-1.752-1.995-2.261-.957-.539-2.292 0-3.275-.432-.923-.4-1.759-1.938-2.777-2.045-.58-.078-.815.31-1.51.094-.371-.108-.896-.452-1.254-.637-.626-.327-1.105-.886-1.746-1.2-.661-.293-.755-.098-1.328-.043-1.099.094-1.887.216-2.649-.694-.681-.822-1.099-1.86-2.002-2.329-.829-.441-1.955.161-2.642-.128-.829-.347-1.004-1.756-1.503-2.514-.714-1.079-1.207-.715-2.399-.863-.115-.606.189-1.486-.351-1.917-.525-.411-1.651.142-2.15.26-1.705.431-1.308-1.17-1.625-2.535-1.301-.151-2.332.392-3.693.172-.155-1.004.721-2.541.236-3.481-.492-1.011-3.08-.142-4.031-.282-.013-.401 0-.803-.013-1.214 0 0-11.047-6.028-15.569-8.553-4.523-2.511-67.124-36.208-71.148-37.717-4.01-1.49-4.772.771-7.286 0-2.507-.742-13.824.761-18.083 2.514-4.28 1.756-8.324 5.783-14.093 7.546-5.783 1.762-21.865 6.538-30.168 9.82-8.291 3.256-15.078 6.777-18.596 8.28-3.532 1.513-6.274 2.022-7.292 1.513-.998-.516 2.008-.516 3.519-1.004 1.509-.509 4.482-2.598 4.273-2.76-.209-.165-11.795 3.64-12.058 3.009-.283-.617 2.838-.822 5.285-1.513 2.433-.688 6.524-2.784 6.274-3.023-.262-.226-3.107.856-5.526 1.776-2.407.917-9.982 1.786-10.057 1.503-.067-.29 7.906-1.22 13.817-4.017 5.911-2.811 32.662-17.049 32.433-17.349-.222-.307-33.215 14.862-37.704 16.584-4.502 1.719-10.824 1.742-11.067 1.253-.236-.465 6.188-.522 9.598-1.762 3.431-1.247 12.907-5.739 12.685-6.046-.229-.3-12.751 2.871-16.236 3.555-3.499.657-9.268.597-9.564 0-.29-.63 14.707-1.506 25.882-6.042 11.195-4.526 35.076-15.991 34.954-16.338-.135-.357-27.486 8.034-31.672 10.06-4.185 2.002-14.006 5.682-19.6 7.037-5.615 1.355-11.613 1.581-12.334.998-.715-.576 7.211-.697 11.316-2.005 4.098-1.321 14.539-5.49 13.831-6.029-.708-.563-7.738 1.594-13.831 2.75-6.079 1.169-13.15.216-13.318-.249-.162-.442 8.223-.597 13.069-1.493 4.839-.91 12.529-2.729 16.587-4.031 4.064-1.321 29.238-9.773 29.165-10.562-.068-.771-19.856 4.287-19.856 4.287s-21.454 5.035-29.414 6.538c-7.974 1.483-12.3-.229-12.314-1.018-.021-.792 5.554.789 11.802-.499 6.254-1.288 15.94-3.616 15.59-4.536-.344-.9-14.579 1.345-17.854 1.517-3.249.175-11.653.465-11.809-.263-.135-.701 6.538-.549 10.568-1.254 4.004-.701 16.668-1.854 20.362-2.511 3.68-.65 34.907-7.882 34.67-8.54-.215-.664-22.154 1.513-29.15 3.016-6.996 1.497-22.647 3.835-27.142 4.027-4.502.175-9.578-.192-9.558-.765.034-.563 5.311-.489 10.555-.748 5.264-.263 15.091-3.269 15.091-3.269s-11.182-.327-14.828-.249c-3.673.064-13.345-2.211-13.338-2.771.02-.563 9.523 1.847 25.861 1.008 16.338-.833 33.148-5.352 33.175-6.032.047-.691-12.173-.368-16.298 0-4.111.367-23.812 2.187-28.16 2.261-4.313.081-14.646-1.786-14.316-2.261.324-.465 6.073.681 10.812.499 4.738-.186 16.802-1.311 16.85-2.261.027-.954-10.71-.748-15.59-.748-4.887 0-11.122-1.072-11.829-1.517-.701-.425 20.119-.769 26.906-.509 6.787.283 31.598.542 31.928-.239.31-.789-16.749-2.433-22.383-2.521-5.622-.074-15.476-.121-19.856.509-4.381.63-15.887-.63-16.082-1.264-.208-.62 5.534.202 10.057-.499 4.502-.705 15.091-2.069 14.814-2.514-.249-.441-8.903-.627-13.554-.758-9.619-.725-11.553 1.203-12.321.273-.782-.964 1.416-1.634 5.534-1.776 4.111-.152 8.256-.923 13.574-.499 5.304.415 37.117 2.349 36.942 1.752-.175-.596-10.272-2.598-15.839-3.764-5.561-1.169-16.608-1.395-22.128-1.517-5.479-.111-15.381 1.193-16.075.755-.687-.418 4.685-1.914 10.057-2.511 5.379-.596 17.511.175 17.591-.755.095-.933-11.613-3.771-15.091-4.02-3.464-.256-10.798.249-11.054-.492-.243-.762 7.501-1.594 11.31-1.011 3.814.573 11.121 1.968 17.099 3.778 5.979 1.786 34.125 4.593 34.435 3.771.31-.846-29.104-7.916-35.176-8.802-6.1-.9-24.432-3.592-24.904-4.28-.452-.691 3.02-.593 7.286-.243 4.28.344 19.843 3.481 20.125 2.756.276-.734-7.96-3.539-12.577-4.526s-12.456-1.567-13.068-2.76c-.627-1.193 8.519-.088 13.068.748 4.55.842 42.381 11.95 42.476 11.31.121-.633-6.72-4.684-11.303-6.787-4.583-2.096-18.656-5.358-24.635-7.272-5.972-1.941-16.425-3-17.349-3.279-.93-.283 3.855-.988 8.566-.749 4.691.239 19.243 4.452 19.324 3.765.115-.691-10.541-3.849-14.053-4.779-3.525-.914-9.935-1.584-10.811-2.019-.903-.421 5.311-1.048 11.067-.246 5.742.822 16.263 5.163 21.858 8.054 5.594 2.868 32.582 13.527 33.174 12.813.593-.714-39.625-20.402-46.244-22.623-6.625-2.228-15.34-3.117-15.839-3.764-.499-.671 3.269.01 7.528.485 4.287.479 13.885 3.801 14.336 3.279.479-.516-6.005-2.898-8.027-3.528-2.042-.627-10.993-2.784-11.317-3.508-.33-.738 2.245-.324 4.011.509 1.766.822 4.28.998 4.28.998l-1.759-1.506-1.833-.489s-2.878-.05-2.945-.775c-.061-.714 2.184-.563 4.522-.499 2.333.061 8.547 1.763 8.547 1.763s-3.626-1.189-2.764-1.513c.856-.313 3.411-.313 5.527.758 2.13 1.072 7.906 3.623 12.57 6.029 4.67 2.413 27.115 6.764 33.188 9.308 6.073 2.534 12.058 5.77 15.084 7.798 3.041 2.012 3.802 2.453 6.282 3.266 2.474.792 5.189.25 7.285.998 2.09.738 8.567 3.097 10.306 2.773 1.732-.34 61.826-27.836 69.881-33.444 8.068-5.618 52.289-28.655 85.976-35.691 33.687-7.037 70.623 1.84 87.21 6.281 16.606 4.438 40.79 14.548 61.348 28.901 9.679 5.847 18.266 14.44 25.889 23.894 7.63 9.453 18.663 27.227 21.359 32.672 1.455 2.952 11.046 11.236 15.03 19.108 3.37 6.666 1.389 13.237.809 13.811-1.228 1.277-3.013 3.02-5.271 4.037s-4.152 3.886-5.284 4.516c-1.119.65-1.409 2.143-2.508 2.76-1.085.63-.849-.401-2.016 0-1.172.432-27.646 10.565-27.646 10.565s-16.811 13.555-18.609 14.582c-1.773 1.018-3.256 1.254-3.256 1.254s-1.981 2.632-3.033 3.272c-1.018.641-1.746 0-1.746 0s-1.334 2.534-2.695 3.235c-1.354.694-6.936.694-8.796.869-1.867.158-4.064 1.338-5.588 2.53-1.53 1.18-9.139 5.079-10.15 5.76-.99.60-1.16 1.64-1.16 1.64z" fill="url(#ian_symbols_dded9101d5cd17c4917359c26a0f3a1c)"/>
 <linearGradient id="ian_symbols_bdb8a8e9317d7144fdd62a50c31c1d2f" y2="212.43" gradientUnits="userSpaceOnUse" x2="416.86" y1="212.43" x1="392.18">
  <stop stop-color="#7F6248" offset="0"/>
  <stop stop-color="#58453D" offset="1"/>
 </linearGradient>
 <path stroke="#433F37" stroke-width=".1108" d="m403.43 210.23c-1.53 1.18-9.139 5.079-10.15 5.76-.688.441-.97 1.049-1.099 1.396.283.239.627.391 1.019.367 1.442-.074 2.426.023 3.68-.323 2.103-.627 3.768-2.662 6.032-3.033 2.258-.357 4.118.058 6.288-.994 2.157-1.072 7.542-5.284 7.542-5.284l.122-1.004c-2.11.421-6.275.431-7.846.586-1.86.12-4.06 1.3-5.58 2.5z" fill="url(#ian_symbols_bdb8a8e9317d7144fdd62a50c31c1d2f)"/>
 <linearGradient id="ian_symbols_65c57b22a7b6c874ddb7944719bd55ef" y2="53.453" gradientUnits="userSpaceOnUse" x2="431.24" y1="53.453" x1="122.98">
  <stop stop-color="#D1B48E" offset="0"/>
  <stop stop-color="#C19E7B" offset=".0565"/>
  <stop stop-color="#AF8467" offset=".143"/>
  <stop stop-color="#A4755C" offset=".2188"/>
  <stop stop-color="#A17158" offset=".2753"/>
  <stop stop-color="#93654A" offset=".7697"/>
  <stop stop-color="#6D5143" offset="1"/>
 </linearGradient>
 <path stroke="#433F37" stroke-width=".1108" d="m278.23 37.938c33.687-7.037 70.623 1.84 87.21 6.281 16.606 4.438 40.79 14.548 61.348 28.901 1.517.923 2.999 1.904 4.448 2.945-.304-.92-.667-1.806-1.254-2.113-1.26-.647-10.811-7.444-12.179-8.118-1.368-.671-9.585-7.435-12.442-8.628-2.838-1.179-10.838-6.615-15.718-8.377-4.906-1.752-21.48-10.316-23.341-10.154-1.888.172-7.104-4.051-7.104-4.051s-14.35-9.588-15.745-10.154c-1.389-.539-2.757-1.267-3.303-1.267-.52-.01-.984-1.308-2.278-1.763-1.294-.475-5.506-2.807-7.104-2.558-1.604.263-4.684-2.669-6.349-2.531-1.65.138-3.296-1.449-4.556-1.267-1.261.195-4.731-2.426-5.844-2.285-1.112.151-4.159-2.881-4.57-2.79-.397.084.411 1.439 1.786 2.79 1.362 1.365 7.246 9.594 6.599 9.645-.66.044-8.385-9.469-10.42-10.908-2.035-1.429-6.989-4.549-7.347-4.071-.357.509 2.177 2.454 3.552 3.822 1.362 1.354 3.195 4.927 2.528 4.819-.647-.111-6.855-6.346-6.855-6.346s-4.529-4.296-5.317-4.061c-.775.239.788 1.288 1.523 2.274.762 1.005 3.101 5.086 2.521 5.076-.566 0-4.489-3.626-5.823-5.076-1.335-1.429-4.354-4.344-4.833-3.797-.458.539 2.116 2.898 3.061 4.067.95 1.149 10.413 14.96 9.888 14.96-.506-.01-11.647-13.888-14.721-15.987-3.047-2.09-5.446-3.68-6.086-3.788-.641-.143 2.156 3.147 1.779 3.289-.378.128-3.977-2.066-5.332-2.791-1.354-.738-3.006-2.514-3.552-2.797-.546-.269.769 2.036.769 2.036s9.712 16.695 9.133 16.749c-.586.041-9.463-15.155-10.656-16.485-1.213-1.355-3.457-2.633-4.058-2.559-.606.087.998 2.275.499 2.025-.492-.215-5.277-3.313-5.823-2.78-.553.529 2.372 1.685 5.574 6.329 3.208 4.667 12.92 19.499 12.429 19.553-.479.054-5.393-6.841-6.855-9.137-1.455-2.295-8.479-11.606-10.406-12.934-1.914-1.344-4.65-3.845-5.075-3.306-.384.533 5.479 6.865 8.398 11.674 2.885 4.802 9.361 17.309 8.869 17.254-.484-.054-6.106-7.46-8.121-10.154-2.022-2.686-8.938-10.589-10.15-12.429-1.221-1.84-2.945-4.34-3.553-4.31-.633.024 3.195 8.25 2.838 8.284-.357.044-3.855-6.289-4.954-5.988-.424.121 1.005 2.231 1.604 3.532.613 1.311 2.035 5.615 1.726 5.813-.304.182-5.567-7.354-6.491-8.726-.91-1.395-5.884-4.873-6.154-4.442-.25.432 1.793 1.786 3.929 4.125.91.997 13.628 23.027 12.982 23.027-.661-.009-15.617-23.135-16.385-24.105-.775-.988-3.397-2.06-3.808-2.036-.425.027 1.84 2.619 1.523 2.801-.33.175-2.716-1.719-3.06-1.513-.316.158.533 1.024 1.018 2.012.492.997.835 3.656.519 3.562-.324-.122-1.712-3.131-2.541-3.812-.836-.681-2.413-.64-2.791-.509-.384.128 2.406 3.508 3.794 5.833 1.416 2.318 10.373 27.099 9.652 26.903-.714-.186-3.559-7.87-3.559-7.87s-9.921-19.519-11.155-20.546c-1.233-1.028-2.622-2.218-3.046-2.036-.432.175 1.645 2.457 2.534 4.058.896 1.618 5.088 13.208 6.086 15.991.998 2.784 3.478 10.696 3.053 10.653-.431-.034-4.145-8.681-5.068-11.162-.937-2.48-8-15.266-8.634-15.991-.634-.714-2.009-.994-2.548-.755-.533.239 2.366 3.704 3.296 5.833.95 2.124 10.932 28.494 10.407 28.167-.519-.333-12.031-25.828-13.184-27.409-1.16-1.581-4.341-5.011-4.826-4.566-.499.452 2.811 3.808 3.808 6.093.984 2.282 5.817 16.089 5.325 15.991-.479-.102-4.287-8.641-5.075-10.417-.789-1.772-3.464-7.545-4.313-8.108-.863-.573-1.887-1.678-2.285-1.513-.391.131 1.921 2.477 2.784 4.047.896 1.567 8.257 24.389 7.623 24.106-.64-.29-9.099-20.396-9.645-21.824-.525-1.43-.768-1.527-1.51-2.282-.762-.768-2.089-1.665-2.548-1.527-.445.138 1.672 2.5 2.548 4.829.863 2.316 6.417 19.476 6.08 19.28-.344-.195-3.518-9.244-4.058-10.913-.539-1.668-5.446-10.103-6.093-10.915-.64-.809-1.072-1.514-1.517-1.274-.452.249.236 2.086.505 2.801.256.708 1.254 3.555 2.534 5.837 1.274 2.284 6.834 21.544 6.343 21.828-.485.266-6.619-17.322-7.118-18.785-.479-1.462-3.748-6.238-4.044-6.845-.303-.613-1.031-1.526-1.267-1.015-.263.499 1.146 2.835 1.779 4.57.6 1.719 7.906 24.126 7.36 24.096-.546-.02-5.648-12.041-6.093-13.706-.452-1.658-4.125-9.993-4.57-10.913-.458-.906-.768-1.614-1.267-1.513-.505.094.404 3.04.762 4.058.357 1.018 7.744 25.959 7.34 25.892-.384-.084-2.339-3.472-3.296-5.595-.943-2.1-6.848-17.568-7.36-19.03-.492-1.462-1.409-3.694-1.766-3.539-.357.138-.344 1.362-.25 2.012.095.661 1.099 3.299 1.779 5.085.654 1.776 5.217 19.108 4.557 19.28-.647.185-4.105-7.27-4.557-8.887-.458-1.591-4.826-10.952-5.082-12.166-.256-1.213-.754-1.938-1.267-1.786-.505.152.513 3.299.513 3.299s8.721 26.678 8.122 26.653c-.613-.03-9.847-23.317-10.157-24.618-.317-1.308-1.105-3.356-1.53-3.313-.404.067-.087 2.383.263 3.835.35 1.405 8.075 27.139 7.609 27.388-.458.236-1.874-4.395-3.303-6.602-1.429-2.201-6.679-15.741-7.097-17.257-.418-1.494-1.712-3.138-2.029-3.044-.323.122.62 2.329.762 3.812.135 1.482 7.677 25.484 7.097 25.376-.546-.121-9.382-18.35-10.137-20.301-.782-1.967-1.961-3.831-2.547-3.808-.573 0 .479 2.921 1.004 4.071.566 1.125 9.598 22.798 8.903 22.818-.735.054-7.4-10.78-8.641-12.937-1.227-2.164-4.954-10.814-5.318-10.899-.384-.087-.64 1.792 0 3.548.627 1.732 10.198 22.694 9.888 22.583-.317-.107-1.409-1.2-2.285-2.295-.883-1.071-3.484-4.688-5.075-7.599-1.59-2.912-6.214-12.209-6.599-12.176-.377.017-.33 1.895 0 3.03.337 1.149 10.218 20.167 9.901 20.308-.324.141-4.549-4.199-5.587-6.083-1.045-1.884-8.499-14.347-8.883-14.225-.385.152.276 2.12.512 3.809.229 1.691 9.821 18.09 9.133 18.265-.674.216-5.702-6.477-6.855-8.371-1.146-1.88-6.457-10.478-6.848-10.403-.391.078-.115 2.568.249 3.812.377 1.247 10.576 16.304 10.157 16.5-.424.192-2.318-1.712-3.559-2.793-1.24-1.072-4.226-3.802-5.83-6.093-1.605-2.295-4.287-8.665-4.563-8.617-.31.03-.33 1.472 0 2.78.311 1.301 6.262 10.761 7.859 12.425 1.597 1.678 3.687 5.241 3.31 5.332-.391.118-2.871-1.618-4.071-3.033-1.207-1.418-6.922-8.728-7.873-10.157-.937-1.439-3.201-4.654-3.539-4.566-.356.078-.161 1.439.755 2.545.923 1.092 10.737 16.128 10.406 16.226-.336.098-1.179-.704-2.284-1.513-1.099-.812-5.912-6.898-7.623-9.635-1.706-2.76-2.932-4.667-3.29-4.569-.344.074-.364 1.223 0 2.285.357 1.038 10.649 15.219 10.649 15.219s-.984.25-1.773-.259c-.788-.499-4.482-5.271-6.841-7.6-2.379-2.338-4.226-7.111-4.826-6.861-.613.25 1.611 5.143 3.29 7.111 1.691 1.968 8.067 11.215 7.636 11.172-.445-.054-2.918-2.1-4.327-3.303-1.416-1.233-3.762-4.57-5.332-6.605-1.557-2.035-3.295-5.169-3.814-5.075-.499.098.62 3.66 2.028 5.325 1.442 1.668 7.003 9.895 6.599 10.144-.385.273-6.194-6.025-7.596-8.118-1.429-2.066-4.071-5.207-4.826-5.325-.762-.098.849 2.144 1.786 3.812.896 1.665 7.994 11.509 7.609 11.667-.405.165-8.337-8.573-9.153-9.645-.809-1.058-3.235-3.083-3.802-2.784-.559.297 3 4.27 4.314 5.587 1.321 1.325 7.198 9.322 6.854 9.399-.344.04-1.975-1.702-3.295-2.808-1.321-1.102-5.999-5.682-7.111-7.097-1.119-1.419-2.332-3.869-2.791-3.812-.472.051 1.28 3.714 2.292 4.816 1.011 1.125 7.091 8.823 6.848 8.9-.256.04-4.313-3.118-6.349-5.079-2.036-1.982-4.253-6.767-4.819-6.862-.56-.098.464 3.451 1.529 4.816 1.045 1.385 5.736 6.757 5.325 6.852-.411.121-5.271-5.369-6.342-6.592-1.072-1.21-2.171-3.953-2.535-3.802-.371.142-.041 2.373.499 3.289.553.924 7.361 9.942 7.104 10.158-.249.219-2.386-1.429-3.046-2.036-.654-.586-3.08-3.754-4.058-4.816s-3.896-3.107-4.57-3.053c-.667.064 1.786 2.282 2.791 3.053 1.011.765 3.768 5.51 3.303 5.833-.465.313-5.015-5.085-6.094-6.083-1.071-1.007-2.055-1.439-2.527-1.277-.479.148 1.888 2.173 2.777 3.04.896.87 5.102 7.134 4.826 7.36-.256.222-6.221-6.504-6.855-7.36-.62-.856-1.705-2.177-2.285-2.285-.573-.084 1.193 2.642 1.537 3.296.331.667 6.653 8.573 6.336 9.146-.31.573-6.275-7.06-7.111-8.122-.822-1.048-2.109-2.595-2.535-2.544-.417.067 5.602 10.794 5.083 10.916-.526.118-4.051-7.212-4.833-8.122-.769-.896-1.752-1.321-2.022-1.008-.276.307 5.554 9.82 5.082 10.154-.479.317-5.21-8.755-5.837-8.634-.634.118 4.172 8.823 2.777 9.396-.667.27-2.771-7.07-3.794-7.104-1.045-.041 2.453 7.937 2.028 8.617-.432.684-2.918-6.147-3.559-6.083-.627.054 2.359 6.625 1.772 7.104-.573.475-.937-3.33-1.772-3.812-.829-.475-.075 4.752 0 6.861.047 1.048-.216 2.12-.472 2.942 6.511-2.575 61.591-27.863 69.281-33.222 8.08-5.616 52.3-28.653 85.99-35.69z" fill="url(#ian_symbols_65c57b22a7b6c874ddb7944719bd55ef)"/>
 <linearGradient id="ian_symbols_8e2dc9b387f861845de04ae2114ce1ea" y2="207.74" gradientUnits="userSpaceOnUse" x2="389.82" y1="207.74" x1="120.37">
  <stop stop-color="#D1B48E" offset="0"/>
  <stop stop-color="#C1A383" offset=".1878"/>
  <stop stop-color="#BA9C7E" offset=".3483"/>
  <stop stop-color="#A17158" offset=".6292"/>
  <stop stop-color="#93654A" offset=".8483"/>
  <stop stop-color="#6D5143" offset="1"/>
 </linearGradient>
 <path stroke="#433F37" stroke-width=".1108" d="m325.73 233.52c-14.154 1.32-35.438-2.774-35.438-2.774l-2.508-1.264c-.397.418-1.732 1.103-2.265 1.024-.641-.084-.95-.646-1.543-.964-1.537-.731-2.737.297-4.044-.485-.641-.377-1.268-1.277-1.948-1.591-.89-.4-.883.152-1.57.509-.532.294-1.813.51-2.467.271-.499-.183-.641-.704-1.207-.813-.142-.896-1.523-1.361-2.305-1.169-1.268.327-1.503.778-2.508-.236-.397-.381-.902-1.169-1.503-1.28-.62-.099-.923.337-1.449.532-.957.347-1.759.226-2.642-.26-.931-.512-1.57-1.601-2.71-1.83-1.125-.229-1.51.563-2.567-.172-.836-.576-1.342-2.144-2.184-2.534-.931-.445-2.022.216-2.973-.37-1.233-.715-1.193-1.904-2.831-1.935-.998-.023-2.136.205-3.02-.317-.856-.499-1.099-1.752-1.995-2.261-.957-.539-2.292 0-3.275-.432-.923-.4-1.759-1.938-2.777-2.045-.58-.078-.815.31-1.51.094-.371-.108-.896-.452-1.254-.637-.626-.327-1.105-.886-1.746-1.2-.661-.293-.755-.098-1.328-.043-1.099.094-1.887.216-2.649-.694-.681-.822-1.099-1.86-2.002-2.329-.829-.441-1.955.161-2.642-.128-.829-.347-1.004-1.756-1.503-2.514-.714-1.079-1.207-.715-2.399-.863-.115-.606.189-1.486-.351-1.917-.525-.411-1.651.142-2.15.26-1.705.431-1.308-1.17-1.625-2.535-1.301-.151-2.332.392-3.693.172-.155-1.004.721-2.541.236-3.481-.492-1.011-3.08-.142-4.031-.282-.013-.401 0-.803-.013-1.214 0 0-11.047-6.028-15.569-8.553-4.523-2.511-67.124-36.208-71.148-37.717-.89-.324-1.604-.465-2.224-.506-.021 1.2-.081 2.423.061 3.596.04.397.034 1.429.175 1.786.135.347.694.364.754.731.088.448-.391.556-.417.846-.142 1.179-.142 2.352-.324 3.488-.101.799.081 3.667.526 3.451.431-.226.627-.876.963-1.156.337.907-.903 3.279-.417 3.255.499-.017 1.685-2.74 2.184-3.788.6-1.277 1.813-4.071 2.096-3.953.283.121-.681 3.498-1.28 5.224-.29.862-2.245 4.098-1.079 4.542 1.024-.822 1.732-2.837 2.285-4.027.62-1.321 1.631-4.179 2.109-3.97.445.216-.445 1.645-.728 2.443-.311.91-.499 1.874-.823 2.804-.269.769-.485 1.54-.768 2.271-.256.698-.809 1.726-.714 2.507.89.094 1.307-1.105 1.685-1.735.438-.758 1.099-1.396 1.53-2.093.849-1.372 2.743-4.186 3.12-3.916s-1.496 3.292-2.001 4.536c-.479 1.179-2.164 4.027-1.779 5.25 1.416-1.072 2.245-3.411 3.295-4.799 1.079-1.395 2.697-3.333 4.294-3.956-1.038 1.826-2.001 3.69-3.074 5.409-.485.812-.93 1.746-1.456 2.598-.235.377-.573.876-.775 1.281-.202.418-.634 1.015-.27 1.223.364.206 1.233-1.398 1.678-1.995.66-.853 1.354-1.645 2.036-2.541.688-.88 1.341-1.507 2.089-2.275.728-.748 1.772-2.261 2.764-2.511.107 1.082-.931 2.133-1.497 3.016-.641 1.011-1.287 2.133-2.076 3.057-.99 1.102-3.761 4.762-3.471 5.291.269.509 1.699-.863 2.245-1.288.768-.647 1.604-1.385 2.305-2.025 1.192-1.122 3.997-4.219 4.266-4.003.277.239-1.219 1.968-1.752 2.77-.519.826-.937 1.732-1.449 2.544-.803 1.288-3.134 3.68-2.817 4.277.303.593 1.449-1.328 1.981-2.002.661-.802 1.624-1.503 2.292-2.325.782-.944 3.383-3.963 3.781-3.737.398.259-1.213 2.133-1.685 2.773-.694.906-1.382 1.88-2.029 2.777-1.025 1.442-2.811 3.545-2.831 4.28-.02.745 2.001-1.688 2.986-1.688.31 1.352-.923 1.645-.998 2.74-.061 1.024.822 1.189 1.557.789.647-.381.896-1.18 1.301-1.719.855-1.237 2.021-2.46 3.013-3.63.505-.583.902-1.223 1.503-1.786.411-.367 1.287-1.776 1.739-1.493.458.29-.789 2.056-1.22 2.78-.654 1.038-1.449 1.87-2.231 2.784-.708.778-3.269 3.764-3.073 4.806.984-.108 1.2-.812 1.786-1.493.58-.681 1.672-1.82 2.001-1.702.337.118-.694.9-.431 1.149.243.25.93-.337 1.389-.175.688 1.982-2.527 3.789-2.204 5.524 1.004-.273 1.557-1.735 2.19-2.524.755-.94 1.706-1.655 2.595-2.534 1.611-1.631 4.705-4.685 5.028-4.546.311.142-2.905 5.133-3.707 6.063-.856.998-4.166 3.842-3.822 5.294 1.193.465 2.5-1.826 3.263-2.49 1.273-1.146 2.479-2.217 3.794-3.31 1.071-.879 1.921-1.819 3.053-2.591.802-.539 1.874-1.695 2.763-1.894.156.923-1.691 2.45-2.25 3.067-1.038 1.203-2.157 2.302-3.302 3.464-1.045 1.027-2.049 2.065-3.107 3.017-.681.619-1.779 1.712-1.686 2.763.951.216 2.582-1.658 3.263-2.23 1.389-1.18 2.554-2.457 4.125-3.356 1.813-1.059 4.34-3.616 5.015-4.004.681-.391 1.16-.236.417.465-.72.694-1.502 1.752-2.486 2.632-1.011.886-6.713 6.049-7.441 6.885-.297.344-.58.69-.836 1.058-.243.323-.479.671-.6 1.062-.068.195-.095.465.175.499.154.023.31-.034.451-.098.276-.095.532-.25.775-.411 1.186-.748 2.19-1.742 3.188-2.696 1.18-1.149 2.373-2.251 3.62-3.356 1.167-1.038 2.346-2.1 3.633-2.986.236-.175.492-.337.749-.489.175-.098.356-.216.539-.259.438-.088-.02.499-.095.606-.479.626-1.031 1.167-1.57 1.732-.62.627-1.253 1.244-1.887 1.874-.998.974-1.928 2.022-2.878 3.05-.931 1.008-1.908 1.985-2.797 3.023-.283.333-.546.681-.782 1.048-.256.367-.499.771-.646 1.203-.068.175-.182.542.094.583.142.057.297-.021.431-.074.263-.118.533-.293.782-.455 1.449-.984 2.703-2.329 3.929-3.593 1.247-1.301 2.42-2.676 3.714-3.929.573-.557 1.179-1.096 1.827-1.561.256-.176.519-.357.802-.499.107-.067.357-.192.478-.107.115.098-.027.367-.067.454-.169.378-.404.701-.64 1.038-.702 1.019-1.503 1.981-2.278 2.945-.708.877-1.429 1.732-2.17 2.589-.594.681-1.187 1.364-1.759 2.069-.499.613-.991 1.273-1.328 2.012-.256.519-.344 1.048-.384 1.621.128.067.331-.021.452-.095.323-.186 1.577-1.473 1.927-1.8.263-.249 1.49-1.146 1.523-1.341l6.976-5.574s5.952-3.919 6.471-3.93c.519-.014-11.033 11.118-12.308 12.308-1.274 1.193-2.736 3.852-2.164 4.317.594.434 4.415-4.459 6.74-6.104 2.318-1.635 8.667-7.428 9.125-7.35.472.077-6.996 7.838-9.125 9.894-2.144 2.066-3.95 5.379-3.559 5.584.377.195 1.2-.147 1.9-1.526.708-1.371 7.084-6.372 8.5-7.229 1.409-.866 5.405-4.179 5.715-3.942.31.272-8.075 7.858-9.888 9.776-1.847 1.928-3.492 5.099-3.181 5.078.296-.034 1.631-1.324 3.04-2.676 1.416-1.331 5.878-5.294 7.36-6.083 1.496-.769 6.794-4.525 7.111-4.438.316.098-8.513 8.314-10.4 9.776-1.907 1.459-4.287 4.675-4.071 5.079.222.388 1.793-.88 2.797-2.157 1.011-1.3 6.639-5.833 8.499-6.982 1.854-1.159 8.209-5.563 8.371-5.089.175.513-8.432 7.209-11.04 9.658-2.602 2.438-6.443 6.929-6.086 7.351.357.435 1.516.333 1.907-.499.392-.853 7.394-6.787 9.382-8.121 1.988-1.338 8.641-6.744 8.89-6.34.236.388-11.822 10.812-13.952 12.804-2.143 2.005-3.687 4.744-3.451 5.078.256.337 1.591-.9 2.042-1.904.445-.997 10.326-8.011 11.552-8.759 1.22-.738 5.345-3.313 5.587-2.922.223.411-10.945 9.743-13.082 11.681-2.123 1.935-4.038 4.327-3.673 4.685.357.371 1.624-.465 2.406-1.514.782-1.062 9.483-7.403 11.29-8.627 1.806-1.223 7.899-5.261 8.135-4.961.223.313-8.688 8.034-10.925 9.518-2.218 1.496-7.839 7.154-7.481 7.37.357.229 1.759.293 2.925-.624 1.146-.923 14.005-11.572 14.336-11.303.317.26-5.938 7.522-8.385 9.386-2.44 1.874-6.275 6.029-6.214 6.474.061.455 1.321 1.038 2.036 0 .708-1.028 9.301-8.236 11.162-9.386 1.874-1.159 9.456-6.875 9.894-6.474.445.411-9.503 9.655-12.179 12.308-2.669 2.662-6.713 6.747-6.854 7.232-.128.488 1.112 1.062 1.53.249.425-.802 10.568-10.016 12.18-10.912 1.611-.89 4.253-2.575 4.569-2.025.317.539-1.51 2.882-2.662 3.929-1.159 1.083-9.618 9.669-11.047 11.172-1.429 1.486-2.218 3.175-1.901 3.283.324.142 1.469.182 2.164-.368.681-.532 9.43-8.887 11.667-10.655 2.231-1.763 11.458-8.638 11.674-8.237.216.392-14.242 13.888-16.372 15.978-2.116 2.079-4.502 6.063-4.947 6.595-.445.53-.957 2.145-.64 2.154.337.023 9.106-8.691 11.552-10.652 2.454-1.958 10.697-8.173 11.162-7.741.479.435-7.111 8.92-9.759 11.292-2.663 2.359-7.738 8.163-7.879 8.756-.121.587-.829 1.584-.633 1.908.202.313 2.278-1.16 4.064-2.798 1.786-1.645 10.69-10.626 13.069-12.813 2.386-2.19 9.787-7.98 10.029-7.613.229.371-20.598 23.068-21.319 23.972-.734.906-1.759 3.548-1.395 3.559.371.013 6.322-5.325 8.25-7.488 1.914-2.146 13.702-13.75 14.201-13.45.492.317-1.011 3.737-1.908 4.688-.863.978-14.242 16.739-14.834 17.386-.593.675-1.187 2.145-.89 2.676.296.522 1.469-.997 2.662-2.153 1.2-1.169 10.11-9.731 12.563-12.815 2.453-3.077 11.134-9.615 11.552-9.399.405.229-8.061 10.835-10.656 13.702-2.602 2.862-10.016 11.348-10.548 11.93-.519.598-1.233 1.787-.883 2.157.364.368 2.15-.432 3.559-1.517 1.422-1.092 12.092-13.368 14.835-15.987 2.763-2.632 8.169-7.316 8.52-6.982.337.348-10.878 14.484-12.691 16.628-1.833 2.13-7.077 8.583-7.873 9.008-.789.407-.978 2.025-.505 2.399.465.391 1.402-.279 2.783-1.135 1.396-.857 13.318-15.166 15.226-17.006 1.9-1.82 8.749-9.298 9.274-9.126.505.162-10.501 14.714-11.674 16.867-1.18 2.163-7.495 9.015-8.115 9.904-.64.886-2.918 2.457-2.683 2.773.256.324 2.285.182 3.047-.121.761-.294 5.978-5.046 6.355-4.806.364.216-5.291 4.806-4.698 4.806s3.768-.934 4.192-.745c.411.158-2.757 1.382-1.907 1.503.842.151 2.628.617 4.199 0 1.543-.606 6.889-4.809 9.12-6.724 2.237-1.897 8.283-9.331 8.742-9.257.452.063-9.463 11.931-11.411 13.574-1.941 1.648-5.837 3.869-5.446 4.311.391.465 2.447-.142 4.32-.876 1.86-.735 7.529-5.901 10.265-8.001 2.723-2.1 14.005-16.011 14.848-16.118.822-.098-10.285 14.908-15.347 20.176-5.089 5.284-9.443 6.356-9.274 6.855.188.508 2.406.939 4.186.131 1.786-.813 7.003-5.416 10.399-8.749 3.425-3.346 15.887-16.877 16.628-16.506.762.367-10.555 14.896-13.068 17.504-2.521 2.628-6.605 6.504-7.603 7.238-.998.738-3.983 2.005-3.687 2.406.303.411 5.453-.813 7.118-1.894 1.644-1.085 8.452-8.001 10.784-9.895 2.313-1.908 14.902-18.069 15.219-17.646.311.451-13.115 18.967-14.713 21.063-1.618 2.094-4.482 4.833-5.716 5.848-1.24 1.007-5.708 2.177-5.331 2.783.37.596 5.688-.606 7.488-1.264 1.799-.664 7.421-7.853 9.51-9.908 2.09-2.045 12.86-15.893 13.197-15.721.33.165-12.469 19.176-14.464 21.188-1.976 1.991-3.161 3.973-4.071 4.688-.883.724-4.59 2.241-3.923 2.673.667.435 4.401-.095 6.093-1.015 1.692-.935 11.903-13.079 13.19-15.104 1.268-2.013 6.093-7.977 6.74-8.108.641-.148-13.244 18.933-14.478 20.18-1.24 1.203-4.313 3.704-3.687 4.168.64.486 3.599-1.408 4.063-1.525.466-.099-.862 1.927-.142 1.654.762-.271 5.217-2.534 5.217-2.534s-.101.934.762.997c.863.074 4.408-1.654 5.453-2.271 1.064-.62 4.186-3.977 4.697-3.93.52.051-3.963 4.415-2.918 4.321 1.059-.122 3.835-1.844 4.826-2.168.997-.323 4.569-2.925 4.569-2.925s-1.745 2.784-2.285 3.434c-.539.647-1.691.735-1.273 1.146.432.391 3.673-.89 4.954-1.655 1.267-.781 11.646-13.132 12.179-13.187.52-.063-9.847 11.822-9.268 12.058.587.209 4.422-.235 5.837-1.287 1.429-1.024 4.995-5.985 5.588-5.951.593.02-4.381 5.584-3.693 5.702.741.121 2.716-1.473 6.106-2.534 3.383-1.059 6.483-2.541 9.382-5.076 2.918-2.521 15.569-9.854 20.301-12.057 4.745-2.201 15.98-7.408 17.633-7.101 1.671.289 20.854-7.223 22.841-7.104 1.996.118 5.406-2.531 6.592-2.912.675-.219 1.214-1.136 1.584-1.904-2.911.931-11.471 3.604-18.831 5.966-9.03 2.88-31.1 6.69-45.26 8.04z" fill="url(#ian_symbols_8e2dc9b387f861845de04ae2114ce1ea)"/>
 <linearGradient id="ian_symbols_0f0960e9d42e4c142de3ce048b46e1f5" y2="153.06" gradientUnits="userSpaceOnUse" x2="485.95" y1="153.06" x1="428.36">
  <stop stop-color="#5D4B3F" offset="0"/>
  <stop stop-color="#58453D" offset="1"/>
 </linearGradient>
 <path stroke="#433F37" stroke-width=".1108" d="m482.22 161.63c-2.082 2.241-3.633 5.119-6.093 6.979-2.568 1.941-5.83 2.143-8.903 1.759-2.804-.371-5.473-1.052-8.331-.749-3.262.344-6.457 1.254-9.766 1.156-2.764-.064-4.907-1.136-7.341-2.285-2.885-1.361-6.146-1.978-8.903-3.646-3.222-1.972-3.396-5.025-2.163-8.334 1.159-3.073 2.911-5.891 2.966-9.277.047-3.084-.108-5.739 1.246-8.617.601-1.288 1.396-2.467 2.11-3.704.275-.509.741-1.021.04-.974-.862.044-2.225 1.557-2.838 2.089-1.098 1.004-2.184 2.174-2.864 3.528-1.24 2.534-.161 5.261-.276 7.926-.148 4.169-2.17 7.923-2.669 12.014-.52 4.311 1.941 6.895 5.716 8.513 6.618 2.811 13.904 4.502 21.076 4.004 3.336-.229 6.604-.381 9.948-.067 2.857.259 5.675.532 8.391-.586 2.852-1.18 4.981-3.471 6.922-5.766 1.753-2.059 3.519-4.047 5.46-5.925l-.276-1.405c-1.21 1.09-2.39 2.17-3.47 3.37z" fill="url(#ian_symbols_0f0960e9d42e4c142de3ce048b46e1f5)"/>
 <linearGradient id="ian_symbols_ed3da4bf7c4eed7481e2423eb982b017" y2="157.11" gradientUnits="userSpaceOnUse" x2="409.81" y1="157.11" x1="348.94">
  <stop stop-color="#674D41" offset=".264"/>
  <stop stop-color="#52433B" offset=".9663"/>
 </linearGradient>
 <path stroke="#433F37" stroke-width=".1108" d="m406.02 147.99c-5.116-3.225-9.531-2.228-17.652-1.708-8.122.519-29.946 3.552-29.946 3.552-.02-.108-.054-.206-.081-.307-.903.239-1.24.866-1.921 1.345-.485.327-.978.327-1.415.606-.418.27-1.159.809-1.335 1.274-.142.489.27.846.195 1.388-.107.823-1.146 1.169-1.57 1.776-.363.529-.384 1.062-.714 1.547-.283.465-.931.586-1.287.977-.553.539-.863 1.361-1.362 1.968 2.737.64 4.84-.421 7.421 1.2.088.856-1.004 1.203-1.442 1.735-.243.29-.775 1.264-.876 1.621.397.064.769.131 1.173.165-.202.613-.89 1.196-.775 1.894 2.238.074 4.132.583 6.274 1.156 2.872.782 5.695-.01 8.433-.964 6.255-2.164 12.448-4.34 18.765-6.417 2.77-.91 5.547-1.833 8.451-2.265 2.662-.344 5.372-.344 8.001-.95 2.075-.465 5.021-1.429 5.405-3.879.40-2.39-1.88-4.54-3.72-5.7z" fill="url(#ian_symbols_ed3da4bf7c4eed7481e2423eb982b017)"/>
 <linearGradient id="ian_symbols_684e4c431d5b189451eeb3b4f95fc8d7" y2="150.7" gradientUnits="userSpaceOnUse" x2="499.94" y1="150.7" x1="481.94">
  <stop stop-color="#5D4B3F" offset="0"/>
  <stop stop-color="#58453D" offset="1"/>
 </linearGradient>
 <path stroke="#433F37" stroke-width=".1108" d="m484.98 161.5c.843.573 1.409 1.493 2.474 1.678 1.112.195 2.13-.259 3.054-.833.984-.617 2.123-1.287 2.904-2.177.829-.92 1.092-2.066 1.672-3.097.646-1.146 2.123-.809 3.073-1.547.715-.539 1.349-1.645 1.563-2.5.263-1.008.432-2.598-.33-3.431-.809-.92-2.467-.63-3.552-.664.674-1.429 1.227-2.857.93-4.479-.303-1.594-1.071-1.83-2.48-2.218-1.476-.391-2.54-1.473-3.828-2.244-1.018-.604-2.184-1.18-3.309-1.554-1.342-.448-2.758-.479-3.29 1.058-.472 1.321-.094 2.349-1.118 3.471-1.099 1.271-1.119 1.917.215 2.959 1.174.92 1.423 1.924 1.72 3.346.593.031 1.031.28 1.61.398.579.108 1.152.034 1.409.674.377 1.015-.338 2.218-1.038 2.881-.438.408-.606.549-.694 1.132-.081.681-.114 1.237-.357 1.908-.223.64-.31 1.247-.546 1.86-.242.627-.479.998-.432 1.688l.37 1.68z" fill="url(#ian_symbols_684e4c431d5b189451eeb3b4f95fc8d7)"/>
 <linearGradient id="ian_symbols_06d2c985e0a7fe341155cdff6f54fda9" y2="134.67" gradientUnits="userSpaceOnUse" x2="482.6" y1="134.67" x1="463.14">
  <stop stop-color="#5B3D34" offset="0"/>
  <stop stop-color="#594039" offset=".4101"/>
  <stop stop-color="#57423D" offset="1"/>
 </linearGradient>
 <path stroke="#433F37" stroke-width=".1108" d="m473.79 128.68c-.924-1.082-3.66-2.379-7.521-.917-4.172 1.557-3.646 6.15-1.523 9.133 2.258 3.131 5.688 4.56 9.402 5.082 1.854.276 3.876.441 5.695-.057 1.517-.421 2.157-1.264 2.636-2.898.653-2.275-1.537-2.892-2.966-3.239-2.508-.65-3.512-1.887-4.024-4.388 0 .01-.75-1.6-1.7-2.7z" fill="url(#ian_symbols_06d2c985e0a7fe341155cdff6f54fda9)"/>
 <linearGradient id="ian_symbols_b975ab6b2d7d1874a598e0901718a639" y2="593.37" gradientUnits="userSpaceOnUse" x2="435.77" gradientTransform="matrix(.8926 -.3671 .3804 .9248 -130.73 -239.71)" y1="593.37" x1="416.17">
  <stop stop-color="#5B3D34" offset="0"/>
  <stop stop-color="#594039" offset=".4101"/>
  <stop stop-color="#57423D" offset="1"/>
 </linearGradient>
 <path stroke="#433F37" stroke-width=".1108" d="m475.22 146.3c-1.732.087-5.717-.411-8.621 2.352-3.113 2.976-.917 7.023 2.123 9.005 3.215 2.079 6.794 2.113 10.319 1.247 1.772-.415 3.633-1.011 5.068-2.157 1.186-.93 1.429-1.948 1.247-3.626-.271-2.349-1.22-2.75-2.434-3.181-2.358-.846-2.689-2.339-3.983-2.848-1.31-.54-1.99-.88-3.73-.79z" fill="url(#ian_symbols_b975ab6b2d7d1874a598e0901718a639)"/>
 <linearGradient id="ian_symbols_9f4fba5e472f08d4194b4b5b0eba9de0" y2="148.48" gradientUnits="userSpaceOnUse" x2="480.52" y1="158.39" x1="470.61">
  <stop stop-color="#52433B" offset=".0056"/>
  <stop stop-color="#58453D" offset="1"/>
 </linearGradient>
 <path stroke="#433F37" stroke-width=".1108" d="m482.63 150.62c-.816-.789-1.76-.822-2.737-1.321-1.024-.54-1.53-2.016-2.716-2.265h-1.247c-.519.297-1.227.297-1.786.448-.762.172-1.26.216-1.988.563-1.193.583-2.123 1.048-3.013 2.045-.762.853-1.321 2.16-1.354 3.299-.021.563.026.978.242 1.497.195.445.667.994.566 1.493.741.131 1.287.691 2.002.812.721.118 1.193.044 1.833.485.479.347.862.694 1.408.789.613.115 1.268-.148 1.813-.441.613-.323 1.052-.738 1.807-.833.546-.098 1.186 0 1.759 0 .594 0 1.408.152 1.954-.064.412-.131 1.402-.65 1.402-1.163.384.024.89-.691 1.052-.991.148-.25.114-.532.235-.771.122-.226.337-.334.418-.573.44-1.14-.95-2.39-1.63-3.03z" fill="url(#ian_symbols_9f4fba5e472f08d4194b4b5b0eba9de0)"/>
 <linearGradient id="ian_symbols_c4bc52a635600e14d918671f314f6c5c" y2="152.75" gradientUnits="userSpaceOnUse" x2="481.51" y1="152.75" x1="471.29">
  <stop stop-color="#494843" offset="0"/>
  <stop stop-color="#45423B" offset="1"/>
 </linearGradient>
 <path stroke="#433F37" stroke-width=".1108" d="m480.99 152.63c-.411-.246-.822-.266-1.118-.69-.317-.465-.438-1.038-.836-1.483-.829-.964-1.908-.89-3.08-.843-.014.084-.027.148-.027.216l-1.786.499c-.876.152-2.487.324-2.804 1.348-.195.573.188.829.553 1.163.451.421.633.691.762 1.297.235 1.096 1.139 1.335 2.143 1.679 1.16.387 1.848-.543 2.926-.661.998-.108 1.759.01 2.669-.519.80-.47 1.72-1.33.61-2.02z" fill="url(#ian_symbols_c4bc52a635600e14d918671f314f6c5c)"/>
 <linearGradient id="ian_symbols_cad9f650e269dc149113c45a8a1e0551" y2="153.29" gradientUnits="userSpaceOnUse" x2="406.24" y1="153.29" x1="484.65">
  <stop stop-color="#5D4B3F" offset="0"/>
  <stop stop-color="#58453D" offset="1"/>
 </linearGradient>
 <path stroke="#433F37" stroke-width=".1108" d="m435.75 181.84c-3.37-.812-6.315-2.511-9.375-4.061-3.626-1.816-7.872-3.646-9.874-7.411-2.036-3.812-.762-8.156-1.268-12.227-.498-4.071-3.234-6.471-5.54-9.611-2.313-3.127-1.221-5.857.971-8.735 2.897-3.768 6.005-7.458 9.119-11.04 2.695-3.097 5.81-5.665 10.13-5.523 3.896.131 7.637 1.82 11.357 2.868 3.687 1.028 7.495 1.702 11.013 3.249 3.7 1.634 6.842 4.125 10.077 6.504 1.354.988 4.745 4.375 11.194 6.562 3.283 1.116 7.758 2.881 10.549-.044 1.193-1.243.142-3.818-.432-4.533-.586-.724-1.436-1.506-1.948-.724-.498.775-.814 1.395-1.671 1.894-1.099.657-2.224 1.082-3.491.775-2.285-.56-4.429-1.18-6.538-2.238-1.112-.553-2.069-1.321-3.141-1.894-.546-.283-1.146-.404-1.712-.714-.573-.307-1.119-.87-1.807-.903 0-.573-.715-1.156-1.059-1.547-.35-.387-.896-.681-1.287-.994-.964-.701-1.705-1.796-2.608-2.608-.478-.424-1.213-.617-1.766-.95-.62-.381-.856-.597-1.617-.597-1.294-.01-2.313-.424-3.506-.748-.033-.175-.066-.367-.114-.542-1.261-.778-1.955-2.123-3.457-2.5-1.47-.357-2.689-.256-4.146.034-1.187.226-2.897.054-3.896-.67-1.416-1.021-1.914-2.275-3.883-2.37-1.51-.081-2.399.54-3.619 1.308-1.152.735-2.676 1.136-3.922.411-1.322-.768-2.11-1.56-3.775-1.213-1.14.236-2.156 1.072-3.094 1.712-2.277 1.557-4.569 3.583-5.547 6.248.229.017.425-.091.553-.331l-2.372 2.716c-3 2.592-5.945 5.426-7.354 9.237-1.665 4.479.033 8.26 2.534 11.974 1.213 1.81 2.405 3.636 3.013 5.739.647 2.208.62 4.492.56 6.753-.041 2.251-.129 4.587.641 6.744.788 2.123 2.392 3.68 4.319 4.795 4.092 2.383 8.917 3.239 13.164 5.348 3.78 1.904 7.245 3.792 11.572 4.014.809.043 1.686.067 2.562.017 1.166-.937 1.888-1.53 1.888-1.53s.37-.131.997-.37c-1.691-.735-3.788-.833-5.588-1.099-2.27-.34-4.54-.65-6.79-1.2z" fill="url(#ian_symbols_cad9f650e269dc149113c45a8a1e0551)"/>
 <linearGradient id="ian_symbols_7b5b1eacda07854449ac019df13d8aa3" y2="29.121" gradientUnits="userSpaceOnUse" x2="368.36" y1="215.15" x1="182.33">
  <stop stop-color="#9B653B" offset="0"/>
  <stop stop-color="#97653D" offset=".3205"/>
  <stop stop-color="#8E6442" offset=".6694"/>
  <stop stop-color="#7F6248" offset="1"/>
 </linearGradient>
 <path opacity=".63" d="m268.03 48.483c1.213.714 1.496 2.036 1.308 3.421-.209 1.482-1.389 3.097-2.973 2.858-1.523-.25-2.555-2.218-2.857-3.637-.452-2.056 1.301-3.734 3.194-3.485.014.054.021.128.034.186l1.3.657zm64.57 138.5c-.499.822-1.187 1.57-1.61 2.426-.506 1.049-.371 2.394-.863 3.344-.97 1.873-3.141 2.922-4.597 1.752-.802-.634-.31-2.218-1.975-1.429-1.354.641-.957 2.362-.943 3.521.061 1.935.613 5.119-.391 6.764-.877 1.429-4.132 2.47-4.503 4.287-.519 2.599 2.648 2.24 3.983 1.062.957-.866 3.08-5.533 4.496-2.306.431 1.052-.546 2.134.262 3.094.526.631 2.198.577 2.912.664.877 3.289-1.018 4.337-2.521 6.636-2.534 3.896 1.517 3.202 3.95 3.15 2.925-.057 3.02-1.691 3.013-4.451-.021-2.824-.236-4.321 1.313-6.602 1.362-2.039.654-4.062 1.564-6.171.694-1.601 3.875-2.329 3.201-4.385-.384-1.18-2.144-1.287-2.643-2.437-.505-1.192.283-2.123.553-3.225.829-3.27-2.203-2.178-2.291-5.119 0 .02-3.09-.36-2.91-.56zm22.64 18.56c2.764-.468 2.966-4.462 5.365-2.827 2.406 1.614 2.938-.205 4.448-.832.653-.26 2.19-1.81 2.581-2.467 2.912-4.731-3.963-2.902-5.438-4.027-1.51-1.126-.323-2.882-1.18-4.264-1.327-2.177-3.599-.62-4.65.854-2.339 3.292-4.213 9.102-4.597 11.451-.38 2.36 3.48 2.12 3.48 2.12zm-131.29-26.68c-.654 2.524-.95 5.642-2.5 7.865-1.24 1.793-2.258 3.191-3.289 5.184-.809 1.61-2.353 2.716-1.658 4.664 1.227 3.478 2.548.195 3.774-1.018 1.55-1.517 3.957-.876 3.99 1.678.034 1.841-2.177 3.084-.647 4.884.943 1.092 4.037 1.405 5.035.303 1.442-1.614-.121-4.678 1.079-6.399.91-1.298 3.316-1.537 4.57-.637 1.26.906 1.22 2.881 2.359 3.97 1.462 1.398 3.714 1.507 3.936-.971.236-2.696-2.386-3.39-3.404-5.284-2.312-4.276 3.377-5.813 2.016-9.723-.708-2.032-1.901-4.067-4.112-3.828-2.366.25-4.502 2.184-5.985-.998-.01.02-4.48-2.19-5.17.33zm173.43-73.24c.917-1.83 1.659-4.179 3.114-5.641 1.166-1.169 2.096-2.069 3.147-3.431.85-1.096 2.069-1.678 1.954-3.306-.188-2.885-1.671-.6-2.716.115-1.308.896-2.817-.014-2.379-1.975.303-1.416 2.021-2.012 1.321-3.646-.432-1.018-2.468-1.796-3.33-1.125-1.287.998-.769 3.64-1.9 4.762-.829.833-2.487.607-3.168-.3-.694-.923-.304-2.44-.862-3.488-.741-1.321-2.259-1.786-2.838.074-.641 2.035.983 3.033 1.327 4.667.77 3.7-3.322 3.916-3.106 7.165.114 1.692.532 3.454 2.056 3.67 1.658.209 3.431-.907 3.855 1.796.02 0 2.64 2.47 3.54.66zm-129.66 46.86c-1.813.681-2.904 3.454-3.842 5.024-.97 1.577-2.116 1.894-1.927 3.721.424 4.071 3.929 6.234 6.976 3.303 1.726-1.699.593-2.73 1.523-4.624.532-1.092 2.056-2.281 3.275-2.035 2.184.499 1.159 2.21 1.651 3.734.479 1.476 2.103 1.843 3.275 2.44 1.335-1.021 1.092-2.373 1.072-3.93-.007-2.608-.62-1.354-1.941-2.881-.869-1.021-.323-2.221-1.214-3.215-1.011-1.105-3.215-.705-4.563-.63l-4.28-.89zm32.63-28.56c-1.126.155-2.225.357-3.04 1.247-.714.778-.93 1.816-1.496 2.672-.971 1.473-3.168.691-4.435 1.938-1.233 1.227-1.018 3.356.627 4.017 1.759.691 3.026-.835 4.597-1.193 1.24-.276 1.84 1.193 3.026.998 1.037-.162 2.075-1.308 2.756-2.11.884-1.007 1.746-2.271 1.82-3.68.074-1.301-.485-2.568-1.698-2.976l-2.17-.92zm-112.91 43.92c.014.856.121 1.587.829 2.13.694.553 1.698.705 2.285 1.396 1.2 1.429-1.618 3.164-.876 4.819.681 1.584 2.595.954 3.828 1.334 1.281.398 1.854 1.621 3.384 1.23 1.665-.442 1.887-1.837 2.17-3.363.283-1.571 1.233-2.841 1.638-4.378.417-1.655-.998-3.249-2.373-3.849-.782-.351-1.497-.283-2.211.192-.465.29-.957.822-1.537.738-1.469-.273-.465-3.067-1.038-4.037-.6-.998-1.914-1.271-2.918-1.021-1.193.293-1.907 1.287-2.527 2.308l-.65 2.5zm108.15 18.08c.027.475.29.812.176 1.297-.128.533-.6.826-.641 1.379-.957-.023-3.896.657-2.312 2.1.593.542 1.476.768 1.854 1.58.458.987-.115 2.274-.311 3.259-.188.943-.27 2.025.33 2.824.506.66 1.328.93 2.097.694.795-.26 1.408-1.008 1.975-1.611.654-.737 1.314-1.422 2.177-1.917 1.442-.822 2.703-1.331 2.952-3.249.264-1.979-.93-3.488-1.745-5.119-.425-.836-.755-1.702-1.187-2.534-.532-1.027-1.267-1.894-1.947-2.814-.634-.89-1.126-1.83-1.551-2.848-.391-1.008-.809-2.137-1.617-2.868-.748-.684-1.645-.782-2.387-.067-.6.573-1.22 1.786-.902 2.666.323.883 1.57.95 2.305 1.264 1.004.425 1.402.987 1.598 2.342.23 1.36-.88 2.83-.85 3.63zm-108.63-77.01c.33.307.755.324 1.018.772.27.452.148.991.499 1.416-.661.704-2.211 3.41-.135 3.181.789-.061 1.55-.573 2.373-.31.991.344 1.482 1.655 2.049 2.487.532.789 1.207 1.601 2.177 1.691.795.074 1.564-.357 1.921-1.105.377-.802.27-1.776.243-2.608-.054-1.021-.081-1.995.168-2.989.432-1.668.944-2.965-.215-4.485-1.187-1.554-3.053-1.695-4.738-2.184-.87-.26-1.699-.617-2.575-.833-1.079-.307-2.184-.347-3.283-.465-1.051-.142-2.035-.415-3.033-.792-.991-.377-2.036-.846-3.107-.745-.977.098-1.691.715-1.691 1.776-.007.856.404 2.153 1.207 2.51.855.375 1.739-.532 2.48-.879.991-.465 1.645-.377 2.723.404 1.09.77 1.33 2.62 1.92 3.16zm160.67 104.61c-1.429.408-2.306-1.82-3.761-1.82-1.085.021-2.474.866-3.161 1.699-.931 1.085-1.759 2.231-1.759 3.733-.007 1.463.438 2.676 1.496 3.66 1.233 1.126 2.757 1.105 4.26.637 1.496-.499 1.698-1.438 1.793-2.897.094-1.247 1.132-1.571 2.063-2.104 1.165-.656 1.165-1.742.579-2.908h-1.51zm-19.38-92.69c-1.429.425-2.284-1.81-3.747-1.786-1.085 0-2.474.856-3.161 1.665-.924 1.095-1.745 2.241-1.759 3.747 0 1.453.444 2.673 1.496 3.636 1.233 1.149 2.736 1.129 4.26.641 1.503-.475 1.705-1.419 1.807-2.881.081-1.254 1.104-1.581 2.028-2.096 1.193-.688 1.173-1.746.6-2.925h-1.53zm-127.71 35.34c.863-1.257 2.865-.058 4.004-1.032.842-.714 1.422-2.285 1.476-3.387.067-1.439.04-2.878-.863-4.071-.843-1.125-1.928-1.807-3.323-1.871-1.631-.091-2.797.896-3.701 2.261-.89 1.362-.485 2.241.29 3.444.694 1.048.067 1.968-.344 2.976-.533 1.311.121 2.144 1.267 2.666l1.18-.99zm137.8.11c-1.023.074-2.062.206-2.897.886-.917.738-1.389 1.887-1.854 2.936-.345.768-.701 1.526-1.342 2.076-.593.499-1.334.795-1.859 1.429-1.45 1.725.229 4.128 1.389 5.449 1.381 1.577 3.02 2.791 4.946 1.547.627-.401 1.2-.944 1.914-1.082.748-.131 1.382.192 2.035.509 1.483.681 2.575.344 4.072-.219.693-.27 3.713-1.082 2.763-2.325-.418-.573-1.119-.88-1.604-1.365-.559-.596-.795-1.267-.937-2.066-.161-.832-.363-1.52-1.045-2.059-.714-.542-1.59-.768-2.23-1.388-1.031-1.014-.789-2.703-1.625-3.872l-1.72-.47zm-20.29 20.59c-.573.475-1.287.907-1.705 1.57-.418.667-.283 1.331-.142 2.056.107.563.034 1.277.377 1.752.405.542 1.207.607 1.767.371 1.152-.455 2.021-2.221 2.277-3.39.236-1.071.068-2.48-1.28-2.133l-1.3-.23zm10.36-4.52c-.021-.064-.021-.131-.041-.172-1.881-.283-3.653 1.352-3.235 3.42.297 1.439 1.28 3.421 2.804 3.68 1.584.273 2.783-1.331 3.013-2.814.216-1.389-.04-2.696-1.253-3.434l-1.29-.69zm-43.39-11.77h.142c-1.018-.705-3.06 1.655-3.585 2.325-.452.56-.803 1.166-.789 1.948 0 .606.074 1.095-.095 1.692-.316 1.112-.424 1.523.594 2.144.815.485 1.449 1.179 2.433.798.856-.313 1.928-1.189 2.831-.529.364.29.573.778.903 1.102.546.532 1.199.616 1.894.455 1.295-.27 2.036-1.146 2.784-2.173.593-.806 1.449-1.541 2.474-1.486.755.047 1.429.023 2.19-.01 1.071-.023 2.063.192 3.161.01.883-.152 1.995-.084 2.695-.735 1.335-1.213 1.517-3.636.856-5.264-.802-1.921-1.638-3.731-3.693-4.405-1.361-.441-3.95-.367-4.146 1.628-.047.525.034.974-.242 1.449-.371.614-1.085 1.004-1.705 1.288-.81.357-1.719.586-2.582.661-.95.084-1.543-.108-2.346-.607-.646-.411-1.436-.728-2.056-.064l-1.71-.22zm6.48-13.34c-2.09.215-2.379 2.682-1.698 4.418.62 1.537 1.624 2.292 3.222 2.217 1.664-.087 2.595-2.372 2.932-3.835.351-1.372-.384-3.383-1.867-3.484l-2.58.68zm-15.33 48.18c-.363-1.247-1.543-3.605-3.141-2.416-1.672 1.257.566 3.846.323 5.446-.296 1.972-2.871 3.572-1.833 5.726.499 1.071 1.537 1.786 2.325 2.632.715.758 1.247 1.621 1.827 2.49 2.284 3.377 7.528 1.439 9.052-1.819.869-1.841.397-3.899.519-5.867.135-2.1 1.031-5.349-.788-6.929-1.976-1.732-3.646 1.301-4.429 2.793-.303.563-.714 1.614-1.496 1.405-.734-.195-1.314-1.287-1.719-1.873l-.63-1.59zm51.25-143.58c.923-.442 2.614-1.604 1.489-2.436-1.192-.897-2.918.974-4.192 1.081-1.57.108-3.134-1.297-4.691-.269-.761.475-1.206 1.277-1.752 1.928-.499.583-1.119 1.071-1.712 1.601-2.346 2.025-.202 5.132 2.521 5.597 1.543.26 3.094-.367 4.638-.606 1.638-.249 4.286-.185 5.291-1.621 1.092-1.571-1.457-2.178-2.717-2.45-.485-.095-1.354-.206-1.287-.735.067-.509.843-1.062 1.26-1.418l1.15-.672zm-8.72 103.99c-1.355-.155-2.784.799-2.838 2.312-.047.728.344 1.321.458 2.002.122.704-.154 1.271-.572 1.81-.863 1.072-1.888 1.735-2.387 3.117-.33.89-.539 3.087.951 1.951 1.118-.833 1.604-2.699 3.026-3.097 1.099-.316 2.244.489 3.241.863 1.261.465 2.353.479 3.546-.202 1.078-.64 2.621-1.85 1.867-3.289-.378 0-.499-.317-.823-.448-.397-.148-.707-.017-1.092-.256-.553-.327-1.192-.684-1.442-1.378-.195-.526-.026-1.24-.054-1.807-.021-.489-.722-1.341-1.294-1.125l-2.61-.43zm-29.79 54.98c-2.636-.039-3.741 3.401-3.114 5.686.357 1.254 1.348 1.406 2.42 1.578 1.125.208 1.719 1.118 2.716 1.56.883.392 1.793-.29 2.285-1.062.479-.765.195-1.558-.283-2.251-.519-.799-1.408-1.352-1.712-2.302-.263-.826.014-1.614-.579-2.319l-1.74-.90zm87.18-153.6c-2.629-.03-3.734 3.381-3.094 5.686.351 1.257 1.32 1.395 2.399 1.58 1.126.192 1.726 1.116 2.723 1.561.883.387 1.799-.297 2.278-1.062.492-.782.195-1.56-.263-2.274-.526-.782-1.423-1.322-1.726-2.275-.256-.833.013-1.614-.587-2.329l-1.73-.887zm-111.57 149.41c-1.422.444-2.642 1.581-2.945 3.269-.209 1.224.451 2.319.188 3.563-.216 1.031-.978 2.262-.216 3.215.748.975 1.665.273 2.528-.04 1.099-.435 2.662-.058 3.619-.88.855-.748.903-2.456 1.119-3.549.208-1.037.532-2.298-.088-3.248-.513-.823-1.442-1.254-2.271-1.601l-1.94-.72zm49.48-121.26c-1.422.441-2.642 1.587-2.945 3.275-.209 1.227.451 2.309.182 3.562-.215 1.031-.97 2.251-.215 3.215.768.964 1.678.259 2.54-.051 1.105-.424 2.656-.047 3.593-.869.87-.735.924-2.467 1.14-3.559.215-1.051.546-2.298-.074-3.229-.546-.842-1.456-1.274-2.285-1.621l-1.94-.723zm3.39 127.26c-1.786.542-2.771 1.482-2.838 3.542-.067 2.065.62 4.101.162 6.167-.229 1.018-1.928 3.596-.803 4.452 1.396 1.111 3.525-.89 3.903-2.211.188-.647.054-1.375.282-1.992.209-.576.715-.832 1.214-1.081.572-.334 1.152-.651 1.55-1.234.378-.597.52-1.334.734-1.981.432-1.311 1.955-3.269 1.409-4.697-.472-1.321-2.163-1.214-3.229-.964h-2.37zm41.89-40.73c-1.192 1.052-2.264 2.534-2.676 4.111-.161.607-.168 1.247-.431 1.833-.236.56-.803 1.125-.87 1.739-.101 1.203 1.827 1.345 2.588.998 1.1-.499 1.571-1.86 2.812-2.197 1.058-.313 1.88-.27 2.79-1.038.876-.769 1.47-1.84 1.112-3.063-.148-.533-.472-.998-.546-1.561-.067-.509.161-1.125-.067-1.59-.546-1.193-2.318-.25-2.993.316l-1.71.45zm17.65-44.77c.667-.853 1.126-1.658 1.052-2.804-.061-1.264-.195-2.346.66-3.407.829-1.031 2.501-2.036 3.809-1.473 1.84.765 2.736 7.792 5.662 4.688 1.071-1.149 1.172-2.773 1.058-4.27-.074-1.2.183-1.955.729-3.01.512-.994.943-2.16-.108-2.942-1.071-.755-2.676-.789-3.916-.954-1.052-.118-1.833-.132-2.75.455-1.321.835-2.486 2.012-3.977 2.568-1.24.475-1.726-.239-1.361-1.493.31-1.115 1.375-2.352 1.287-3.555-.081-1.19-1.631-1.513-2.487-1.786-1.104-.344-2.379-.634-2.797-1.928-.438-1.439-.128-3.299.088-4.738.209-1.419.674-2.555 1.375-3.778.641-1.105 1.361-2.652.761-3.929-.795-1.678-2.473-.317-3.106.724-1.045 1.685-1.166 3.67-1.463 5.598-.208 1.345-.849 2.012-1.759 2.909-1.018.998-1.753 2.167-1.766 3.663-.027 1.719.674 3.505 1.455 4.991.688 1.321 1.571 2.393 2.838 3.124 1.065.641 1.841 1.237 2.211 2.494.357 1.203.458 2.814-.121 3.959-.466.9-1.423 1.375-1.941 2.285-.755 1.321-.836 2.868-1.321 4.287-.425 1.2-1.213 1.125-2.284 1.189-.722.044-2.347.26-2.11 1.405.249 1.105 2.022 1.402 2.858 1.736 1.092.424 1.563 1.004 1.59 2.217.021 1.031-.026 1.961.613 2.807.634.843 1.436 1.503 2.022 2.427.485.775 1.052 2.042 2.076 2.109 2.413.142 2.804-4.168 4.429-5.325 1.232-.913 2.81-1.186 4.057-2.093.869-.617 2.163-2.059 1.071-3.097-.977-.951-2.763-.549-3.976-.681-1.53-.151-2.461-1.105-3.37-2.338l-1.08-2.05zm-38.16 15.65c-.667.704-1.826 1.762-1.523 2.891.338 1.254 1.908 1.277 2.878.964 1.261-.391 2.218-1.398 3.27-2.21 1.207-.93 2.548-1.459 3.854-2.184 1.382-.758 2.575-1.796 3.263-3.282.553-1.18.931-2.898.195-4.088-1.213-1.995-4.502-.34-6.105.094-.944.229-1.808.313-2.717-.077-1.133-.509-2.137-1.277-3.282-1.763-.943-.397-2.109-.553-2.966-1.136-.863-.606-1.005-1.735-1.273-2.709-.216-.67-.574-2.1-1.449-2.143-.931-.051-1.247 1.496-1.362 2.187-.168 1.028-.168 2.1-.135 3.141.027.856.088 1.84.708 2.48.829.822 2.178.725 3.235.758 1.199 0 2.399.017 3.431.778.775.56 1.557 1.557 1.665 2.575.10 1.02-1.69 3.73-1.69 3.73zm-66.18-58.282c.654-.701 1.82-1.763 1.483-2.912-.351-1.22-1.928-1.244-2.878-.92-1.247.421-2.218 1.439-3.249 2.251-1.187.94-2.534 1.496-3.828 2.241-1.361.768-2.555 1.83-3.235 3.333-.525 1.183-.883 2.901-.148 4.081 1.24 1.985 4.503.273 6.12-.159.937-.259 1.807-.357 2.716.03 1.14.476 2.15 1.257 3.303 1.722.957.391 2.11.529 2.979 1.105.869.583 1.024 1.708 1.321 2.672.202.684.593 2.103 1.449 2.144.943.034 1.233-1.527 1.354-2.218.148-1.028.121-2.093.081-3.121-.034-.876-.102-1.86-.729-2.487-.836-.813-2.19-.705-3.235-.705-1.213.01-2.426-.01-3.45-.748-.789-.563-1.577-1.526-1.692-2.558-.11-1.015 1.65-3.755 1.65-3.755zm128.02 79.692c-1.374.769-3.094 1.537-3.977 2.922-.937 1.439.129 2.103 1.173 2.868.566.405 1.018.846 1.227 1.517.148.542.162 1.082.398 1.604.296.607.653 1.146.963 1.763.229.465.426 1.082.998 1.095.586.021 1.199-.654 1.415-1.159.304-.758-.04-1.547-.235-2.295-.202-.748-.364-1.621.054-2.329.356-.586 1.011-.789 1.517-1.18 1.422-1.051 1.61-2.706.855-4.243-.532-1.072-.909-2.686-2.218-2.824l-2.15 2.27zm-74.41-19.2c-1.396.755-3.107 1.513-3.997 2.922-.924 1.439.147 2.086 1.186 2.844.553.404 1.005.856 1.214 1.537.155.556.175 1.085.411 1.594.283.606.667 1.156.95 1.763.236.455.425 1.085.997 1.095.58.034 1.214-.65 1.416-1.146.323-.782-.034-1.56-.236-2.295-.195-.762-.377-1.625.067-2.332.351-.593 1.005-.799 1.517-1.18 1.429-1.048 1.598-2.716.843-4.253-.526-1.058-.91-2.676-2.218-2.824l-2.15 2.28zm-70.76 8.82c-.546-.566-1.038-1.287-1.873-1.368-.735-.061-1.099.273-1.618.795-1.166 1.18-1.166 3.191.856 3.31.62.023 1.253-.401 1.86-.27.282.043.525.27.802.391.357.118.748.118 1.125.084.62-.034.998-.368.803-1.095-.183-.593-.829-.896-1.308-1.166l-.65-.67zm1.3-12.45c-.047.047-.101.098-.168.142-.91-.65-1.813-.118-2.453.694-.62.798-.762 1.87-.601 2.868.195 1.224 1.072 1.237 2.002 1.712 1.072.563 1.766 1.719 3.006 1.827 2.326.206 4.099-2.12 3.472-4.445-.188-.738-.492-2.059-1.227-2.382-.742-.34-1.962.206-2.743.266l-1.29-.68zm-44.68 33.49c-1.092.391-1.543 1.321-1.517 2.511.007.964.499 1.668.809 2.544.303.876.283 1.86.667 2.706.243.509 1.099 1.786 1.739 1.213.573-.508.148-1.904.432-2.598.31-.782 1.004-1.321 1.308-2.13.593-1.618-.283-3.653-1.928-4.021l-1.51-.22zm73.82 5.43c-.499.529-.789-.044-.943-.556-.196-.681-.344-1.361-.775-1.955-.87-1.193-2.204-.728-2.689.539-.397.974-.182 2.379.485 3.141.667.745 1.631.681 2.063 1.739.411.998.316 2.241 1.273 2.966.944.684 1.948.579 2.38-.593.444-1.126.802-2.423.519-3.637-.142-.674-1.004-2.709-1.88-1.884l-.43.23zm-1.3-43.89c-.836-.118-2.13-1.038-2.555.192-.364 1.096.492 2.059.641 3.063.235 1.57-.466 3.107-.122 4.644.155.708.459 1.53 1.119 1.854.6.283 1.268.108 1.604-.509.734-1.301.235-2.824.29-4.192.061-1.547 1.583-.907 2.439-1.469 1.092-.769.62-1.972.142-2.925-.58-1.146-.971-1.611-2.258-1.099l-1.29.46zm18.35 2.71c-.007-.064-.02-.131-.026-.192-1.281-.357-2.993.606-3.633 1.739-.694 1.203-.513 3.249 1.018 3.66.667.186 1.334.044 2.016.283.512.168 1.058.418 1.482.789.769.674 1.523 1.496 2.548.617.937-.856.479-2.393.451-3.464-.047-1.105.796-1.776 1.099-2.727.263-.846.6-2.763 1.827-1.516.748.768.438 2.514 1.597 2.881.392 1.146.122 1.992-.047 3.114-.169 1.173.492 1.638 1.463.974.916-.593 1.631-1.762 1.422-2.918-.216-1.105-.984-1.992-1.206-3.107-.438-2.309 1.186-5.358-.87-7.202-.762-.681-2.224-1.136-3.087-.397-.694.563-.525 1.587-.646 2.403-.385 2.292-2.002 3.68-3.89 4.61l-1.51.47zm-104.74-44.003c1.375-1.418 1.227-4.405 1.462-6.255.236-1.854 1.153-2.642.25-4.212-2.036-3.521-6.086-3.929-7.643.084-.89 2.285.546 2.706.451 4.859-.027 1.237-.93 3-2.143 3.296-2.164.499-1.935-1.486-3-2.656-1.024-1.125-2.642-.758-3.95-.758-.815 1.52-.02 2.619.607 4.038 1.058 2.362 1.119.954 2.925 1.746 1.2.529 1.193 1.884 2.406 2.369 1.348.573 3.202-.765 4.388-1.416l4.23-1.095zm43.75-20.729c-.034.021-.067.044-.115.061 1.193.189 2.103-2.844 2.312-3.7.188-.704.256-1.418-.067-2.109-.236-.563-.505-.954-.6-1.591-.148-1.125-.215-1.547-1.402-1.658-.937-.098-1.772-.431-2.521.337-.641.681-1.267 1.948-2.346 1.732-.472-.078-.849-.445-1.281-.586-.694-.25-1.334-.044-1.9.415-1.052.809-1.382 1.944-1.645 3.202-.196.994-.674 2.045-1.645 2.437-.694.293-1.308.617-1.975.974-.978.509-1.955.749-2.871 1.396-.749.522-1.779.954-2.157 1.854-.721 1.688.101 3.973 1.348 5.153 1.49 1.395 2.986 2.662 5.123 2.359 1.389-.195 3.721-1.405 3.101-3.299-.162-.509-.432-.856-.357-1.422.074-.738.566-1.395 1.031-1.917.586-.701 1.301-1.297 2.063-1.762.836-.489 1.442-.573 2.379-.475.741.077 1.597.02 1.88-.846l1.67-.555zm16.33 40.022c1.8-1.112 1.085-3.475-.223-4.751-1.173-1.123-2.399-1.345-3.814-.583-1.489.822-1.396 3.289-1.133 4.762.257 1.405 1.732 2.881 3.114 2.342l2.05-1.77zm-129.34 1.68c.714.283 1.469.714 2.244.415.701-.26.896-.748 1.146-1.429.586-1.57-.229-3.424-2.103-2.618-.573.236-.957.896-1.577 1.058-.283.074-.586-.034-.876 0-.364.054-.721.216-1.059.411-.546.317-.761.782-.276 1.354.397.452 1.092.442 1.645.476l.87.33zm30.57 5.04c.027-.054.061-.118.095-.185 1.099.165 1.698-.705 1.947-1.729.229-1.011-.061-2.025-.613-2.871-.674-1.025-1.476-.641-2.5-.661-1.193-.02-2.298-.778-3.464-.324-2.19.843-2.844 3.714-1.354 5.578.465.573 1.274 1.645 2.083 1.611.795-.023 1.671-1.048 2.359-1.453l1.43.02zm115.1 23.57c.815-.26 2.359-.01 2.244-1.311-.107-1.123-1.253-1.655-1.813-2.511-.829-1.297-.815-3-1.746-4.253-.425-.563-1.024-1.169-1.766-1.169-.653 0-1.18.465-1.254 1.146-.142 1.517.931 2.689 1.436 3.953.566 1.419-1.078 1.513-1.61 2.417-.688 1.166.216 2.045 1.038 2.703.99.789 1.517 1.038 2.493.014l.98-.99zm-22.55-43.92c.04.051.074.108.121.148 1.287-.216 2.453-1.86 2.595-3.161.135-1.405-.855-3.191-2.406-2.902-.667.152-1.22.573-1.927.664-.573.061-1.139.074-1.692-.081-.957-.259-1.975-.681-2.541.586-.512 1.166.512 2.373.971 3.326.492.994-.007 1.968.101 2.976.101.863.566 2.747-1.031 2.164-1.004-.357-1.409-2.076-2.615-1.908-.815-.842-.91-1.739-1.213-2.844-.316-1.125-1.099-1.267-1.719-.25-.593.951-.748 2.353-.114 3.292.633.907 1.712 1.372 2.352 2.292 1.334 1.897 1.085 5.382 3.694 6.14.964.29 2.453.05 2.952-.988.404-.832-.169-1.688-.377-2.477-.58-2.251.33-4.212 1.665-5.897l1.19-1.07zm-36.58-15.871c-.553-1.031-1.139-2.046-2.238-2.511-.937-.415-1.948-.226-2.925-.475-1.651-.405-1.786-2.828-3.35-3.586-1.537-.748-3.356.229-3.323 2.089.027 1.948 1.854 2.629 2.764 4.027.694 1.092-.398 2.241.215 3.336.519.94 1.948 1.537 2.885 1.904 1.227.465 2.663.853 3.95.398 1.166-.398 2.096-1.405 2.022-2.76v-2.422zm142.71 15.251c-.896-1.247.781-2.901.229-4.331-.419-1.062-1.679-2.069-2.677-2.457-1.294-.485-2.628-.876-3.956-.317-1.287.522-2.211 1.409-2.683 2.784-.56 1.625.021 3.097.998 4.384.99 1.288 1.9 1.139 3.234.705 1.14-.388 1.813.499 2.615 1.2 1.038.913 1.981.512 2.797-.499l-.56-1.47zm-83.06 8.64c.02.043.026.098.047.141.249-1.253-2.595-2.369-3.377-2.642-.688-.226-1.354-.347-2.009-.05-.546.226-.95.485-1.55.539-1.092.108-1.496.142-1.665 1.365-.142.974-.519 1.85.169 2.673.606.714 1.766 1.429 1.503 2.544-.108.476-.465.846-.641 1.311-.256.714-.081 1.375.311 2.012.714 1.139 1.759 1.547 2.959 1.894.937.273 1.9.833 2.21 1.864.257.755.52 1.395.81 2.133.431 1.038.613 2.076 1.186 3.083.438.802.796 1.917 1.645 2.359 1.57.846 3.781.131 4.981-1.115 1.401-1.493 2.689-2.966 2.527-5.217-.102-1.493-1.126-3.98-2.959-3.455-.499.142-.836.405-1.361.297-.708-.122-1.308-.674-1.779-1.187-.62-.633-1.173-1.429-1.558-2.268-.424-.89-.472-1.54-.323-2.494.121-.789.121-1.675-.688-2.012l-.44-1.75zm48.51-5.04c-.378-1.378-1.732-2.403-3.121-1.894-.64.226-1.024.798-1.59 1.179-.594.388-1.187.324-1.813.108-1.287-.435-2.237-1.203-3.646-1.169-.923.007-2.945.604-1.382 1.645 1.152.779 2.986.563 3.862 1.786.694.978.384 2.373.425 3.505.047 1.402.431 2.46 1.489 3.356.964.822 2.602 1.894 3.605.62-.142-.371.102-.606.102-.964-.014-.465-.243-.694-.175-1.169.08-.664.161-1.418.694-1.917.377-.377 1.078-.475 1.569-.701.419-.199.931-1.213.526-1.678l-.54-2.72zm12.38 3.3c-1.186-1.058-2.5-2.447-4.07-2.804-1.618-.377-1.8.91-2.089 2.211-.148.681-.385 1.287-.911 1.739-.431.347-.909.566-1.267.987-.425.489-.782 1.082-1.214 1.57-.31.408-.802.822-.605 1.396.202.563 1.031.93 1.563.94.788.014 1.354-.617 1.935-1.082.593-.465 1.307-.964 2.096-.789.641.118 1.064.681 1.591 1.038 1.47.997 2.999.556 4.091-.738.748-.917 2.042-1.87 1.686-3.215l-2.82-1.27zm-46.17-1.56c.061-.024.108-.064.155-.088-.135-1.398-1.638-2.696-2.871-2.912-1.335-.229-3.08.701-2.885 2.346.094.714.458 1.311.519 2.059.021.596 0 1.189-.182 1.752-.297.998-.748 2.025.418 2.686 1.078.62 2.291-.377 3.235-.832.963-.442 1.859.151 2.823.074.829-.04 2.643-.421 2.016 1.203-.404 1.038-2.056 1.375-1.975 2.652-.856.782-1.712.846-2.804 1.105-1.079.239-1.227 1.062-.297 1.776.862.657 2.163.93 3.12.29.884-.597 1.402-1.675 2.299-2.315 1.894-1.28 5.203-.822 6.073-3.521.323-.974.175-2.562-.775-3.147-.762-.465-1.611.098-2.38.249-2.17.489-3.996-.583-5.526-2.056l-.97-1.33zm-98.62 33.3c-.856.159-1.705.347-2.332 1.244-.539.782-.714 1.806-1.132 2.676-.748 1.469-2.413.691-3.384 1.928-.937 1.22-.775 3.35.479 4.014 1.334.691 2.298-.812 3.498-1.203.95-.27 1.409 1.203 2.312 1.018.809-.162 1.598-1.328 2.11-2.089.667-1.024 1.341-2.305 1.388-3.7.054-1.301-.364-2.554-1.294-2.989l-1.66-.90zm-19.43 11.16c-2.069.216-2.359 2.676-1.685 4.418.606 1.537 1.618 2.285 3.229 2.211 1.651-.078 2.581-2.352 2.932-3.825.337-1.375-.404-3.364-1.874-3.485l-2.6.67zm190.88-12.9c.755-.384 2.339-.441 1.988-1.695-.29-1.105-1.53-1.398-2.211-2.136-1.031-1.112-1.313-2.801-2.453-3.862-.505-.465-1.199-.94-1.934-.812-.641.108-1.086.694-1.032 1.361.121 1.503 1.376 2.474 2.09 3.62.775 1.274-.815 1.688-1.18 2.669-.479 1.281.573 1.985 1.482 2.474 1.099.593 1.679.741 2.454-.455l.79-1.17zm-12.95-20.09c-.02-.074-.047-.132-.066-.189-1.314-.094-2.811 1.227-3.222 2.474-.438 1.321.128 3.299 1.705 3.363.674.044 1.321-.239 2.021-.148.566.061 1.119.192 1.631.465.87.485 1.773 1.132 2.582.05.775-1.028.04-2.457-.202-3.495-.276-1.058.432-1.894.539-2.901.095-.88.047-2.808 1.489-1.871.903.583.903 2.369 2.13 2.487.594 1.028.513 1.917.546 3.073.068 1.169.802 1.476 1.638.64.763-.792 1.247-2.089.81-3.174-.405-1.024-1.349-1.739-1.767-2.791-.883-2.164.114-5.486-2.265-6.875-.869-.496-2.379-.627-3.08.259-.58.714-.215 1.688-.182 2.511.088 2.318-1.247 4.021-2.926 5.332l-1.39.78zm-35.34 69.88c-.317-.832-2.225-4.755-3.283-2.611-.431.879.007 1.938-.31 2.827-.297.855-1.294.93-1.422 1.907-.115.799.007 1.938.977 1.881.884-.044 1.396-1.024 2.259-.984 1.55.054 3.464 2.652 5.001 1.375.62-.532 1.436-2.163.553-2.838-.344-.256-.91-.161-1.314-.239-.479-.074-.85-.266-1.166-.646l-1.3-.67zm-56.5-123.93c-.573.485-1.287.917-1.692 1.57-.444.681-.282 1.321-.141 2.066.101.553.026 1.291.377 1.756.384.549 1.193.606 1.766.367 1.146-.445 2.029-2.231 2.265-3.414.236-1.048.067-2.453-1.267-2.12l-1.31-.225zm-13.77 20.101c0-.064-.041-.138-.041-.195-1.887-.273-3.667 1.378-3.235 3.441.296 1.442 1.281 3.424 2.804 3.67 1.571.283 2.777-1.318 3.013-2.791.202-1.395-.041-2.716-1.247-3.454l-1.29-.671zm10.1-10.143c-.31-.853-2.217-4.762-3.269-2.612-.445.88 0 1.928-.317 2.831-.296.853-1.314.93-1.436 1.894-.101.789.02 1.938.977 1.88.896-.044 1.389-1.015 2.278-.984 1.51.054 3.458 2.652 4.98 1.375.627-.532 1.436-2.153.566-2.817-.351-.266-.917-.158-1.328-.236-.472-.087-.835-.28-1.166-.647l-1.28-.684zm87.14 102.44c-1.038.223-2.555.357-3.195 1.412-.721 1.18.547 1.816 1.213 2.531.89.951.196 1.722-.101 2.76-.33 1.139-.027 2.794 1.187 3.225 1.47.499 2.359-.95 2.628-2.227.271-1.297.782-2.093 1.618-3.057.714-.822 1.294-1.847 1.152-2.993-.182-1.462-1.368-1.769-2.555-1.422l-1.95-.23zm-178.08-46.64c-.573.475-1.274.917-1.691 1.564-.418.674-.29 1.334-.148 2.069.107.563.047 1.288.391 1.752.377.546 1.18.597 1.759.371 1.152-.455 2.022-2.231 2.278-3.397.222-1.051.047-2.473-1.287-2.133l-1.3-.22zm10.36-4.53c-.007-.057-.021-.118-.021-.186-1.907-.263-3.673 1.382-3.242 3.441.297 1.429 1.281 3.414 2.811 3.68 1.584.259 2.771-1.331 3.013-2.814.202-1.382-.061-2.703-1.261-3.441l-1.3-.68zm80.78 58.47c-.565.499-1.28.93-1.678 1.591-.418.681-.25 1.334-.108 2.056.108.565.041 1.29.398 1.756.404.528 1.199.583 1.772.347 1.139-.479 1.995-2.251 2.23-3.444.209-1.048.027-2.47-1.314-2.113l-1.3-.21zm-78.63-70.06c-1.051.162-2.555.28-3.195 1.085-.734.896.546 1.382 1.206 1.921.89.731.203 1.311-.094 2.103-.331.87-.027 2.123 1.186 2.457 1.47.391 2.359-.725 2.622-1.695.27-.998.796-1.584 1.631-2.332.682-.627 1.288-1.416 1.14-2.285-.189-1.105-1.362-1.341-2.548-1.092l-1.95-.16zm-68.21 22.95c-.465.337-1.024.627-1.362 1.092-.343.465-.222.92-.114 1.419.094.391.027.9.311 1.223.31.381.937.415 1.402.263.91-.317 1.618-1.55 1.813-2.359.175-.738.04-1.712-1.025-1.486l-1.03-.14zm-6.57-23.69c0-.057-.021-.098-.027-.131-1.496-.182-2.904.94-2.567 2.359.236 1.021 1.017 2.369 2.224 2.558 1.247.192 2.205-.923 2.393-1.951.168-.954-.04-1.86-.998-2.383l-1.02-.46zm16.5 12.53c-.842.131-2.042.205-2.555.761-.573.624.431.971.977 1.338.694.499.148.9-.087 1.453-.27.593-.033 1.473.944 1.699 1.166.263 1.867-.509 2.083-1.166.222-.698.633-1.096 1.301-1.618.546-.432 1.024-.974.904-1.587-.142-.758-1.086-.934-2.022-.748l-1.53-.12zm36.1-16.41c.654-.573 1.605-1.317 1.747-2.065.148-.856-.863-.56-1.503-.56-.856-.023-.62-.688-.708-1.271-.094-.657-.748-1.244-1.678-.873-1.119.452-1.301 1.503-1.119 2.184.175.691.034 1.274-.243 2.089-.235.681-.357 1.395.061 1.84.54.56 1.402.152 2.103-.539l1.34-.80zm224.68 63.08c-.862.368-2.433 1.021-2.5 2.211-.054 1.223 1.658 1.57 2.258 2.349.762.997-.31 1.927-.56 2.901-.249.954.452 1.904 1.449 1.621 1.105-.3 1.57-1.699 2.589-2.184.937-.468 1.907.098 2.864-.02 2.144-.296 3.08-2.989 1.314-4.377-.978-.779-2.13-.981-3.323-.93-1.334.043-2.069-.388-3.02-1.338l-1.07-.23zm13.77 14.71c-1.584.152-2.845 1.008-3.538 2.585-.594 1.398.432 2.979 1.867 2.841.93-.057 1.476-.781 2.21-1.179.586-.341 1.321-.22 1.841-.654.451-.4.781-1.233.465-1.796-.216-.408-.647-.704-.896-1.115l-1.95-.68zm-90.75-122.44c-1.368.758-3.094 1.513-3.99 2.925-.916 1.416.142 2.076 1.193 2.844.553.401 1.011.846 1.213 1.527.148.539.169 1.095.411 1.591.283.606.668 1.169.95 1.776.236.455.432 1.072.998 1.092.579.023 1.213-.647 1.415-1.156.304-.769-.047-1.55-.249-2.285-.188-.768-.371-1.634.074-2.349.344-.573 1.004-.779 1.523-1.18 1.429-1.051 1.584-2.686.836-4.236-.52-1.072-.903-2.683-2.218-2.835l-2.14 2.286zm-157.96 74.099c-.573-1.53-1.079-3.404-2.305-4.496-1.253-1.136-1.988-.108-2.871.9-.432.529-.904.94-1.57 1.072-.526.118-1.045.05-1.551.239-.613.226-1.186.549-1.779.789-.471.192-1.092.31-1.173.917-.087.597.485 1.334.944 1.604.681.411 1.469.132 2.197.024.748-.108 1.57-.186 2.198.333.505.431.626 1.136.93 1.712.85 1.625 2.386 1.992 3.943 1.385 1.058-.415 2.642-.641 2.932-1.979l-1.9-2.48zm143.05-59.171c-.862.368-2.412 1.015-2.473 2.208-.062 1.213 1.657 1.557 2.237 2.339.762.994-.29 1.948-.553 2.912-.256.951.458 1.914 1.456 1.625 1.092-.303 1.577-1.699 2.588-2.187.95-.465 1.907.107 2.885-.024 2.137-.28 3.066-2.999 1.287-4.371-.971-.782-2.116-.974-3.315-.93-1.335.05-2.069-.391-3.02-1.345l-1.11-.227zm15.55 5.878c-1.591.128-2.857.994-3.552 2.578-.58 1.382.451 2.986 1.9 2.858.91-.074 1.449-.789 2.204-1.227.586-.324 1.301-.182 1.826-.634.459-.391.782-1.213.472-1.8-.215-.401-.653-.694-.909-1.105l-1.94-.670zm-50.6 36.473c-.532.368-1.146.755-1.456 1.372-.29.549-.196 1.139-.236 1.742-.054 1.398-1.058 1.688-1.934 2.47-.903.789-1.052 2.133-.789 3.289.344 1.439 1.597 1.439 2.79 1.57.647.074 1.281.172 1.88.455.546.25 1.031.64 1.611.789 1.463.377 2.056-1.318 2.244-2.531.188-1.271.021-2.241 1.268-2.817.95-.432 1.779-1.102 1.301-2.315-.209-.532-.62-.917-.964-1.354-.459-.54-.775-1.156-1.133-1.763-.337-.596-.762-1.453-1.422-1.722-.62-.239-1.166.196-1.645.586l-1.52.22zm-33.66-11.09c-.027.054-.047.128-.047.172-1.139.532-2.709 1.179-2.811 2.686-.094 1.233.836 2.241 1.476 3.171.856 1.287 1.497 2.881 1.294 4.492-.195 1.648-1.307 2.318-2.575 3.033-.97.559-1.503 1.405-.755 2.477.775 1.082 1.881.964 2.737.098.869-.856 1.543-2.231 2.871-2.359 1.051-.087 2.534.691 2.837 1.83.337 1.244-1.125 2.349-1.476 3.454-.741 2.326 1.503 4.415 3.195 5.477 1.564.998 4.583 2.045 4.381-.974-.148-2.622-1.887-5.156-1.672-7.808.29-3.495 6.06 1.291 6.127-2.41.034-1.442-.93-2.676-.903-4.128.041-1.678 1.402-3.131 1.807-4.742.566-2.261-.506-3.832-2.44-4.705-.782-.35-1.571-.62-2.231-1.203-.715-.596-1.2-1.412-1.793-2.126-1.301-1.631-2.824-2.184-4.489-.721-1.126.984-1.908 2.305-3.384 2.706l-2.16 1.57zm18.33 43.21c-1.011 1.149-1.779 2.608-1.968 4.179-.142 1.038-.33 2.834.101 3.808.425.987 1.847 1.395 2.642.694.917-.846.944-2.457 1.523-3.539.586-1.052 1.213-1.894 2.305-2.349 1.26-.509 1.57-1.365 1.456-2.773-.094-1.082-.431-1.87-1.53-2.022-.998-.131-1.908.465-2.784.876l-1.74 1.12zm173.84-81.78c-.566-.559-1.072-1.287-1.888-1.354-.748-.061-1.104.273-1.624.782-1.173 1.169-1.173 3.205.869 3.313.613.034 1.24-.401 1.86-.283.283.067.506.293.782.391.363.131.748.131 1.132.107.627-.04.998-.381.796-1.095-.183-.603-.83-.896-1.294-1.166l-.64-.695zm4.43 25.444c-.067.051-.114.094-.169.152-.916-.698-1.826-.135-2.467.765-.619.887-.748 2.036-.593 3.131.188 1.345 1.085 1.352 2.002 1.86 1.058.617 1.759 1.884 3.02 2.025 2.305.216 4.071-2.339 3.458-4.883-.188-.778-.506-2.251-1.227-2.608-.735-.357-1.962.239-2.736.29l-1.28-.735zm-23.87-26.566c-1.011 1.136-1.786 2.599-1.981 4.166-.128 1.051-.316 2.827.114 3.818.425.967 1.841 1.402 2.629.674.923-.833.957-2.447 1.537-3.532.572-1.038 1.206-1.894 2.291-2.359 1.268-.506 1.571-1.362 1.449-2.76-.088-1.079-.397-1.87-1.523-2.025-.998-.138-1.907.479-2.783.879l-1.74 1.139zm-15.63 8.29c-1.834.681-2.892 3.454-3.855 5.024-.964 1.581-2.11 1.894-1.928 3.724.438 4.067 3.929 6.231 6.962 3.299 1.746-1.688.607-2.703 1.551-4.621.525-1.095 2.049-2.295 3.263-2.035 2.177.488 1.172 2.207 1.664 3.73.479 1.462 2.082 1.854 3.275 2.44 1.335-1.018 1.085-2.373 1.072-3.93-.007-2.632-.627-1.354-1.948-2.881-.876-1.004-.323-2.217-1.22-3.215-.998-1.105-3.222-.714-4.55-.63l-4.27-.905zm-13.19 6.258c-.553-.576-1.052-1.311-1.874-1.375-.748-.054-1.111.293-1.624.799-1.166 1.173-1.166 3.198.856 3.306.626.027 1.26-.404 1.859-.283.297.074.52.3.795.391.365.128.756.128 1.133.094.634-.021.997-.357.789-1.092-.169-.586-.815-.886-1.288-1.169l-.66-.671zm1.28-12.449c-.054.044-.101.108-.148.142-.93-.64-1.846-.122-2.479.701-.607.802-.748 1.874-.587 2.858.195 1.224 1.072 1.233 1.995 1.708 1.071.556 1.766 1.736 3.02 1.83 2.318.209 4.078-2.096 3.464-4.448-.188-.725-.499-2.046-1.233-2.39-.741-.34-1.954.226-2.729.267l-1.29-.668zm-31.59 6.754c1.786-1.125 1.071-3.488-.25-4.751-1.159-1.136-2.379-1.355-3.801-.597-1.477.822-1.389 3.282-1.14 4.762.256 1.419 1.732 2.905 3.121 2.339l2.07-1.753zm26.21-27.563c-.546.35-1.165.771-1.476 1.364-.27.563-.195 1.146-.229 1.743-.041 1.409-1.038 1.702-1.935 2.47-.904.788-1.052 2.143-.782 3.279.337 1.452 1.604 1.452 2.797 1.59.647.078 1.268.196 1.881.445.532.249 1.031.65 1.591.779 1.469.391 2.068-1.298 2.264-2.521.183-1.267 0-2.231 1.255-2.804.963-.435 1.779-1.115 1.307-2.314-.215-.543-.627-.934-.971-1.365-.444-.542-.774-1.149-1.125-1.776-.344-.573-.762-1.429-1.422-1.702-.627-.249-1.18.209-1.651.596l-1.5.216zm-15.33 32.119c-1.004 1.146-1.786 2.598-1.981 4.168-.135 1.062-.323 2.834.121 3.812.411.984 1.84 1.416 2.629.691.923-.846.943-2.443 1.536-3.515.56-1.072 1.2-1.917 2.285-2.359 1.268-.522 1.57-1.378 1.456-2.797-.095-1.072-.405-1.854-1.523-2.002-1.004-.142-1.907.465-2.804.879l-1.74 1.123z" fill="url(#ian_symbols_7b5b1eacda07854449ac019df13d8aa3)"/>
 <path stroke="#433F37" stroke-width=".1108" d="m473.65 151.34c-.229.195-.492 1.149-.081 1.463.155.118.694-.216.856-.239.135.098.276.118.397.118.135-.044.243-.118.33-.216.978-.094 2.218.529 2.952-.303-.256-.381-1.044-.182-1.354-.098-.169-.313-.546-1.048-.876-1.189-.411-.172-.809.175-1.173.344l-1.06.13z" fill="#201D17"/>
 <linearGradient id="ian_symbols_7fba21c6aa85b25419169ec2b649635e" y2="131.23" gradientUnits="userSpaceOnUse" x2="478.7" y1="138.55" x1="471.38">
  <stop stop-color="#52433B" offset=".0056"/>
  <stop stop-color="#58453D" offset="1"/>
 </linearGradient>
 <path stroke="#433F37" stroke-width=".1108" d="m472.04 129.82c-1.187.03-2.359.206-3.223 1.095-.902.907-1.206 2.285-.781 3.495.755 2.163 3.431 4.188 5.493 4.987 2.292.88 5.844.856 7.858-.701 2.508-1.924.533-4.678-1.442-6.029-1.023-.704-2.001-1.462-3.025-2.143-1.19-.83-4.88-.72-4.88-.72z" fill="url(#ian_symbols_7fba21c6aa85b25419169ec2b649635e)"/>
 <linearGradient id="ian_symbols_3b67226643955254e1a1f7d9ab18245f" y2="132.25" gradientUnits="userSpaceOnUse" x2="479.7" y1="132.25" x1="469.78">
  <stop stop-color="#494843" offset="0"/>
  <stop stop-color="#45423B" offset="1"/>
 </linearGradient>
 <path stroke="#433F37" stroke-width=".1108" d="m472.3 130.05c-.021.074-.027.148-.054.216-1.429.539-3.876 2.251-1.423 3.367.782.357 1.544.802 2.42.896.917.121 1.907.155 2.838.098.863-.051 2.15.327 2.932-.098.903-.475.883-1.739.148-2.325-.344-.27-.796-.391-1.152-.641-.432-.293-.735-.714-1.14-1.048-.902-.758-1.914-.813-3.053-.705l-1.53.23z" fill="url(#ian_symbols_3b67226643955254e1a1f7d9ab18245f)"/>
 <path stroke="#433F37" stroke-width=".1108" d="m473.05 131.34c-.411.084-1.274.833-.943 1.311.121.141.971.074 1.192.118.121.152.263.239.445.283.183.007.344 0 .519-.057 1.254.316 2.447 1.409 3.842.977-.094-.455-1.186-.62-1.61-.654-.034-.377-.102-1.189-.405-1.456-.41-.341-1.111-.175-1.671-.189l-1.36-.33z" fill="#201D17"/>
</svg>
