<?xml version="1.0" encoding="UTF-8" standalone="no"?>
<!-- Created with Inkscape (http://www.inkscape.org/) -->

<svg
   width="210mm"
   height="297mm"
   viewBox="0 0 210 297"
   version="1.1"
   id="svg1"
   xml:space="preserve"
   inkscape:version="1.4.2 (ebf0e94, 2025-05-08)"
   sodipodi:docname="liocarcinus_pusillus.svg"
   xmlns:inkscape="http://www.inkscape.org/namespaces/inkscape"
   xmlns:sodipodi="http://sodipodi.sourceforge.net/DTD/sodipodi-0.dtd"
   xmlns="http://www.w3.org/2000/svg"
   xmlns:svg="http://www.w3.org/2000/svg"><sodipodi:namedview
     id="namedview1"
     pagecolor="#ffffff"
     bordercolor="#000000"
     borderopacity="0.25"
     inkscape:showpageshadow="2"
     inkscape:pageopacity="0.0"
     inkscape:pagecheckerboard="0"
     inkscape:deskcolor="#d1d1d1"
     inkscape:document-units="mm"
     inkscape:zoom="0.70822811"
     inkscape:cx="396.76482"
     inkscape:cy="559.84787"
     inkscape:window-width="1920"
     inkscape:window-height="991"
     inkscape:window-x="-9"
     inkscape:window-y="-9"
     inkscape:window-maximized="1"
     inkscape:current-layer="layer1" /><defs
     id="defs1" /><g
     inkscape:label="Layer 1"
     inkscape:groupmode="layer"
     id="layer1"><path
       style="fill:#000000"
       d="m 44.985102,201.52875 c 0,-0.44734 -0.413359,-0.61802 -0.81516,-0.33658 -0.311863,0.21843 -0.416994,0.22486 -0.640723,0.0392 -0.147204,-0.12217 -0.453809,-0.19773 -0.681344,-0.16792 -0.2674,0.035 -0.570523,-0.096 -0.857156,-0.37064 -0.436581,-0.41827 -0.742925,-0.47606 -1.155947,-0.21803 -0.115287,0.072 -0.209612,0.0555 -0.209612,-0.0367 0,-0.0922 0.07546,-0.21433 0.16769,-0.27133 0.264232,-0.16331 0.195462,-0.41936 -0.08385,-0.31218 -0.138344,0.0531 -0.251438,0.0319 -0.251318,-0.0472 1.19e-4,-0.079 -0.313648,-0.14371 -0.697261,-0.14371 -0.625917,0 -0.714682,-0.0516 -0.865167,-0.50307 -0.09223,-0.27669 -0.306687,-0.60168 -0.47657,-0.7222 -0.185281,-0.13143 -0.30888,-0.42493 -0.30888,-0.73344 v -0.51433 l -0.922875,0.0765 c -0.92024,0.0763 -0.922035,0.0755 -0.628838,-0.27269 0.161721,-0.19207 0.364645,-0.40007 0.450944,-0.46221 0.09177,-0.0661 0.05697,-0.23403 -0.08384,-0.40457 -0.185482,-0.22465 -0.192631,-0.30779 -0.03114,-0.36214 0.115287,-0.0388 0.209612,-0.1484 0.209612,-0.24355 0,-0.0951 -0.185996,-0.0511 -0.413325,0.0978 -0.382086,0.25035 -1.263575,0.38036 -1.263575,0.18637 0,-0.0464 0.150921,-0.36604 0.33538,-0.7102 0.184459,-0.34416 0.33538,-0.71744 0.33538,-0.82951 0,-0.11207 0.132056,-0.28068 0.293458,-0.37469 0.22979,-0.13384 0.122794,-0.17203 -0.493174,-0.17602 -0.439779,-0.003 -0.841923,0.0844 -0.912027,0.19779 -0.189968,0.30738 -0.411791,-0.70125 -0.229241,-1.04235 0.08405,-0.15704 0.401291,-0.408 0.704979,-0.55767 l 0.55216,-0.27214 -0.484584,-0.004 c -0.266521,-0.002 -0.57578,0.1209 -0.687243,0.27333 -0.219255,0.29985 -0.588919,0.1805 -0.588919,-0.19014 0,-0.12571 0.320707,-0.50355 0.712683,-0.83965 0.650894,-0.5581 0.669544,-0.59473 0.215108,-0.42259 -0.273666,0.10367 -0.587655,0.26325 -0.697754,0.35462 -0.411803,0.34177 -0.362402,-0.15491 0.115129,-1.15751 0.616586,-1.29454 0.645698,-1.63519 0.115982,-1.3571 -0.207517,0.10893 -0.437648,0.30024 -0.511403,0.42512 -0.07376,0.12488 -0.205811,0.22706 -0.293457,0.22706 -0.347991,0 -0.122965,-0.44466 0.592762,-1.17131 l 0.752121,-0.7636 -0.914979,-0.95986 c -0.506279,-0.53111 -0.876437,-1.0603 -0.828692,-1.18472 0.04746,-0.12367 0.36026,-0.29397 0.695116,-0.37843 0.623913,-0.15737 0.965282,-0.57279 0.470687,-0.57279 -0.151473,0 -0.228769,-0.0755 -0.171768,-0.16769 0.057,-0.0922 0.259346,-0.16769 0.449655,-0.16769 0.288494,0 0.311326,-0.0418 0.137346,-0.25143 -0.179726,-0.21656 -0.139251,-0.23755 0.291787,-0.15134 0.419662,0.0839 0.556702,0.0211 0.848848,-0.38918 0.549062,-0.77109 0.510554,-0.87741 -0.46996,-1.29759 -1.134641,-0.48622 -1.386659,-0.98385 -0.3594,-0.70966 0.621415,0.16587 0.761942,0.12714 2.230126,-0.6146 2.743824,-1.3862 5.465271,-2.86833 5.78498,-3.15055 0.170265,-0.15031 0.790165,-0.51375 1.377557,-0.80765 0.799325,-0.39995 1.242253,-0.52069 1.760745,-0.47998 l 0.692761,0.0544 -0.05452,-0.76697 c -0.0476,-0.66954 0.02128,-0.86125 0.542253,-1.50921 0.730099,-0.90806 1.425851,-1.92009 1.769757,-2.57427 0.141826,-0.26978 0.371056,-0.54745 0.509401,-0.61704 0.138344,-0.0696 0.835293,-0.47856 1.548775,-0.90882 1.171312,-0.70635 1.461566,-0.80376 2.990019,-1.00351 0.931027,-0.12167 1.705559,-0.24658 1.72118,-0.27757 0.294381,-0.58405 0.516019,-0.79032 1.209346,-1.12551 0.453244,-0.21911 1.110529,-0.43681 1.460635,-0.48377 0.350105,-0.047 0.6753,-0.14807 0.722654,-0.22469 0.09517,-0.15399 -0.455739,-1.31309 -0.972917,-2.04698 -0.182477,-0.25895 -0.275483,-0.52306 -0.20668,-0.58692 0.0688,-0.0639 0.153919,-0.0406 0.189146,0.0516 0.03523,0.0922 0.43861,0.752 0.896406,1.46617 l 0.832357,1.29848 1.679832,-0.0402 c 0.923908,-0.0221 1.679832,-0.0936 1.679832,-0.15877 0,-0.0652 0.245247,0.004 0.544993,0.1543 1.443722,0.72282 1.354229,0.70245 1.878772,0.42761 0.347641,-0.18214 0.514281,-0.20259 0.558955,-0.0686 0.07494,0.22481 0.479529,0.25478 0.609106,0.0451 0.110118,-0.17817 -0.532755,-2.13943 -0.874601,-2.66821 -0.136017,-0.21039 -0.207959,-0.42188 -0.159872,-0.46997 0.144545,-0.14454 0.723858,0.94766 1.134164,2.13828 l 0.385307,1.11809 2.028072,0.6879 c 1.11544,0.37834 2.363229,0.76228 2.772864,0.8532 0.409635,0.0909 0.900129,0.30772 1.089985,0.48177 0.261534,0.23977 0.44004,0.28024 0.736541,0.16697 0.21524,-0.0822 0.361023,-0.24392 0.323962,-0.35932 -0.110248,-0.34329 -1.678558,-1.12397 -2.266442,-1.1282 -0.299746,-0.002 -0.544992,-0.0873 -0.544992,-0.18927 0,-0.12831 0.615145,-0.16701 1.998807,-0.12577 2.225088,0.0663 2.435691,0.16361 3.305597,1.52688 0.698344,1.0944 1.824588,0.76775 1.785574,-0.51787 -0.0108,-0.35575 0.09692,-0.74277 0.25609,-0.92007 0.260906,-0.29064 0.249651,-0.3005 -0.223794,-0.19605 -0.296126,0.0653 -0.416144,0.0511 -0.295622,-0.0351 0.127752,-0.0913 -0.08357,-0.15755 -0.57059,-0.17874 -0.902773,-0.0393 -1.56074,-0.41071 -1.56074,-0.88101 0,-0.28135 -0.114741,-0.33152 -0.758288,-0.33152 -1.071749,0 -2.831078,-0.83415 -3.678902,-1.74427 -0.473762,-0.50858 -1.030179,-0.86755 -1.851188,-1.1943 -0.645607,-0.25694 -1.901868,-0.90824 -2.791691,-1.44734 -0.889823,-0.53909 -1.694735,-0.98017 -1.788694,-0.98017 -0.09396,0 -0.195987,-0.0566 -0.22673,-0.12577 -0.106681,-0.24003 -2.745224,-2.16677 -3.914382,-2.8584 -1.362909,-0.80624 -2.872776,-1.36461 -3.918353,-1.44906 -0.40362,-0.0326 -0.780923,-0.13227 -0.83845,-0.22149 -0.05753,-0.0892 -0.595089,-0.4038 -1.194581,-0.69909 -1.314788,-0.64762 -1.329579,-0.66104 -1.37838,-1.25069 -0.02541,-0.307 -0.185039,-0.54568 -0.462126,-0.69097 -0.539107,-0.28269 -1.191997,-0.99015 -2.509858,-2.71963 -1.011245,-1.3271 -1.057421,-1.43062 -1.225551,-2.74762 -0.167458,-1.31173 -0.159583,-1.37998 0.189645,-1.6434 0.207431,-0.15647 0.408026,-0.54393 0.465749,-0.89964 0.0966,-0.59526 0.300724,-0.81712 0.420837,-0.45739 0.0487,0.14585 1.145883,0.55915 1.145883,0.43164 0,-0.0266 -0.457375,-0.33062 -1.016388,-0.67566 -0.559013,-0.34504 -1.674196,-1.28016 -2.478185,-2.07804 -1.601471,-1.5893 -2.434349,-3.00394 -2.976768,-5.05602 -0.158462,-0.59949 -0.423475,-1.50995 -0.588919,-2.02324 -0.667274,-2.07023 -0.896246,-5.95872 -0.418243,-7.10274 0.377477,-0.90343 1.394552,-1.91753 2.045657,-2.03968 0.315446,-0.0592 0.614888,-0.1745 0.665427,-0.25628 0.197774,-0.32 1.185228,-0.15106 1.581307,0.27055 0.216613,0.23057 0.453606,0.41922 0.52665,0.41922 0.07305,0 2.078461,0.87075 4.456479,1.935 4.178689,1.87012 4.331188,1.92384 4.547859,1.60191 0.123304,-0.1832 0.36855,-0.49954 0.544993,-0.70298 0.176442,-0.20344 0.320804,-0.41876 0.320804,-0.47848 0,-0.25433 2.39671,-2.05225 3.036788,-2.27808 0.822264,-0.29012 2.672442,-0.3376 3.492018,-0.0896 0.316695,0.0958 0.590297,0.15664 0.608006,0.13516 0.163927,-0.19884 0.218376,-0.78819 0.08068,-0.87329 -0.09598,-0.0593 -0.174512,-0.32713 -0.174512,-0.59513 0,-0.32392 -0.118464,-0.55067 -0.353383,-0.67639 -0.258429,-0.13831 -0.303487,-0.23903 -0.16769,-0.37482 0.273181,-0.27318 0.226024,-0.75015 -0.09175,-0.92798 -0.166961,-0.0934 -0.235833,-0.26369 -0.172953,-0.42756 0.133931,-0.34901 -0.02837,-0.77536 -0.29517,-0.77536 -0.320159,0 -0.203407,-2.07016 0.146905,-2.60481 0.234012,-0.35714 0.250662,-0.53065 0.09592,-0.99954 -0.221566,-0.67135 0.06091,-1.37585 0.72654,-1.81198 0.396253,-0.25964 1.117724,-1.51487 1.117724,-1.94464 0,-0.38164 1.188626,-2.01321 1.845918,-2.5338 1.2293,-0.97362 2.057739,-1.22078 4.376693,-1.30577 1.706834,-0.0626 2.288432,-0.0213 3.018422,0.21434 0.497319,0.16051 0.981097,0.38709 1.075063,0.5035 0.09397,0.11642 0.65992,0.26765 1.257676,0.33606 1.33202,0.15244 1.936563,0.44406 2.076515,1.00168 0.06846,0.27278 0.223589,0.42507 0.432973,0.42507 0.179457,0 0.407056,0.15093 0.505776,0.33538 0.102478,0.19149 0.351113,0.33539 0.579491,0.33539 0.308099,0 0.425388,0.11558 0.510494,0.50307 0.07922,0.36069 0.213503,0.50869 0.474472,0.52293 0.669381,0.0365 0.862791,-0.0443 1.621654,-0.67754 1.065561,-0.88921 1.430505,-1.0494 2.272834,-0.9976 0.613743,0.0377 0.823023,-0.0331 1.219033,-0.41247 0.306394,-0.29354 0.578225,-0.41961 0.756926,-0.35103 0.366069,0.14047 0.357276,0.67952 -0.01462,0.89613 -0.161401,0.094 -0.217997,0.17207 -0.125767,0.17346 0.302393,0.005 0.533525,-0.2367 0.638451,-0.66643 0.14456,-0.59206 0.728828,-1.1705 1.182293,-1.1705 0.240878,0 0.905355,-0.4729 1.796136,-1.27829 2.353818,-2.12819 4.096441,-3.13581 5.192671,-3.00252 2.853942,0.34701 2.768602,0.35463 3.810182,-0.33994 1.68877,-1.12614 3.23177,-0.99805 5.48222,0.45511 0.64184,0.41446 1.2099,0.65063 1.59305,0.66233 0.32752,0.01 1.05518,0.0289 1.617,0.0419 1.14406,0.0266 1.32517,0.14383 3.71702,2.40606 1.00056,0.94633 1.26901,1.12067 1.50921,0.98012 0.34448,-0.20156 2.02949,-0.38579 4.81981,-0.52698 1.10676,-0.056 2.13938,-0.1698 2.29472,-0.25288 0.3884,-0.20775 0.39902,-0.20383 0.70236,0.25911 0.18386,0.28061 0.22497,0.52856 0.13015,0.78489 -0.12987,0.35106 -0.14535,0.34104 -0.24529,-0.15864 -0.0587,-0.29335 -0.19209,-0.53336 -0.29649,-0.53336 -0.1044,0 -0.14974,0.10446 -0.10075,0.23214 0.0631,0.16452 -0.10329,0.26289 -0.57144,0.33775 -0.94648,0.15135 -2.87944,0.96576 -3.14593,1.32548 -0.1246,0.16817 -0.40757,0.3746 -0.62884,0.45873 -0.52566,0.19985 -0.50923,0.33037 0.15049,1.19532 0.47162,0.61834 0.66787,0.74123 1.33641,0.83686 0.92884,0.13286 2.55219,0.84492 3.1415,1.37797 0.23057,0.20856 0.60787,0.49149 0.83845,0.62874 0.45066,0.26825 0.63141,0.20084 2.18993,-0.81667 0.31733,-0.20717 0.72788,-0.37769 0.91233,-0.37894 0.38317,-0.003 1.90834,-0.68346 2.57217,-1.14828 0.50658,-0.35471 2.30693,-0.95549 3.27075,-1.09145 0.99496,-0.14036 3.43269,0.2189 4.40594,0.64931 1.26772,0.56065 3.08247,2.47616 3.49461,3.68863 0.32362,0.9521 0.41475,1.02898 0.90725,0.7654 0.2696,-0.14429 0.29184,0.013 0.30029,2.12335 0.006,1.57223 -0.0593,2.41103 -0.21142,2.70427 -0.12491,0.24076 -0.15908,0.50163 -0.0788,0.60161 0.22391,0.27888 -0.18803,1.91782 -0.78196,3.1111 -0.83277,1.67311 -1.7213,3.87612 -1.7213,4.26776 0,0.3051 0.0947,0.34931 0.71269,0.33283 0.39197,-0.0105 1.76913,-0.17707 3.06034,-0.37026 1.29121,-0.19319 2.83816,-0.39313 3.43765,-0.4443 0.59949,-0.0512 1.69367,-0.17518 2.4315,-0.27559 0.73784,-0.10041 1.60564,-0.20541 1.92844,-0.23333 0.3228,-0.0279 0.78564,-0.10352 1.02854,-0.168 0.96287,-0.25562 3.05621,0.84387 3.27384,1.71952 0.062,0.24949 0.26783,0.66436 0.45738,0.92194 0.66481,0.90343 0.53529,3.86338 -0.22792,5.20861 -0.30728,0.54161 -0.79119,1.93769 -1.28725,3.71371 -0.37794,1.35314 -0.64254,1.85269 -1.53758,2.90284 -0.69412,0.81442 -2.54579,2.49462 -3.31803,3.01078 -0.27101,0.18114 -0.20709,0.19704 0.43719,0.10874 0.41503,-0.0569 1.28283,-0.24092 1.92843,-0.40897 1.3169,-0.34278 4.96505,-0.52541 6.29523,-0.31514 0.47837,0.0756 1.20554,0.0586 1.71198,-0.0401 1.39947,-0.27265 1.96636,-0.30839 6.62332,-0.4176 4.54145,-0.10649 4.90537,-0.0651 4.90537,0.558 0,0.13364 0.11272,0.3557 0.25049,0.49347 0.35339,0.35339 0.30324,1.97539 -0.0716,2.31458 -0.24643,0.22301 -0.71314,0.32883 -3.15409,0.71512 -0.299,0.0473 -0.50661,0.14596 -0.46134,0.2192 0.0951,0.15387 0.1371,0.13763 -4.61263,1.78348 -4.82314,1.67129 -5.58414,1.89033 -6.95913,2.00302 l -1.17383,0.0962 0.67076,-0.39681 c 0.36891,-0.21825 1.08579,-0.57059 1.59305,-0.78298 1.77343,-0.74251 3.18611,-1.41372 3.18617,-1.51384 6e-5,-0.10439 -0.27595,-0.0921 -3.10232,0.13863 -1.55326,0.12677 -2.30762,0.28793 -4.52764,0.96725 -0.46114,0.14111 -1.96251,0.31888 -3.33637,0.39505 -2.69868,0.14961 -3.31504,0.30507 -3.58842,0.90507 -0.12695,0.27863 -0.41712,0.44578 -1.02841,0.59243 -0.46836,0.11236 -0.89351,0.27217 -0.94478,0.35513 -0.0513,0.083 -0.23149,0.15084 -0.40049,0.15084 -0.27784,0 -2.68962,1.09222 -3.94904,1.7884 -0.27669,0.15295 -1.29702,0.70922 -2.2674,1.23616 -0.97038,0.52694 -2.0613,1.1596 -2.42426,1.40591 -0.72628,0.49287 -3.68873,1.94175 -3.97018,1.94175 -0.0974,0 -0.54548,0.18506 -0.9958,0.41125 -0.98604,0.49526 -2.46323,0.794 -2.86441,0.5793 -0.36039,-0.19288 -0.51978,-0.19425 -0.40187,-0.003 0.0505,0.0817 -0.0553,0.18712 -0.23528,0.23417 -0.17992,0.047 -0.53751,0.44554 -0.79464,0.88554 -0.25713,0.43999 -0.60071,0.93945 -0.76352,1.1099 -0.19172,0.20073 -0.2613,0.44821 -0.19748,0.70248 0.0581,0.23132 0.003,0.48856 -0.13367,0.62628 -0.16703,0.16812 -0.22317,0.63377 -0.20002,1.65909 0.0177,0.78395 0.0413,1.47587 0.0524,1.53761 0.0328,0.18227 1.22331,-0.20138 1.95882,-0.63124 0.37452,-0.21889 0.86501,-0.59709 1.08998,-0.84044 0.6323,-0.68395 1.95324,-1.61107 3.42746,-2.40559 0.73783,-0.39765 1.79428,-1.14163 2.34766,-1.65329 0.91091,-0.84224 1.59815,-1.23105 4.19225,-2.37183 1.40042,-0.61585 2.65019,-0.67861 3.2014,-0.16077 0.32021,0.30082 0.42729,0.32079 0.76542,0.14278 0.41678,-0.21943 1.08919,-0.73345 1.87952,-1.4368 0.38953,-0.34665 0.58709,-0.40736 1.04571,-0.32132 0.3178,0.0596 0.72207,0.0223 0.92305,-0.0853 0.29895,-0.16 0.3432,-0.29867 0.26984,-0.84561 -0.10476,-0.78105 0.12128,-0.84761 0.51697,-0.15222 0.15712,0.27611 0.38161,0.50249 0.49887,0.50307 0.11726,5.8e-4 0.29916,0.18971 0.40422,0.42029 0.10506,0.23057 0.27998,0.41922 0.38871,0.41922 0.22963,0 0.58692,-0.71103 0.58692,-1.16801 0,-0.48347 0.18072,-0.84427 0.42288,-0.84427 0.2989,0 1.37394,1.49385 1.44674,2.01034 0.0494,0.35061 0.15477,0.42093 0.65935,0.44011 0.84181,0.032 1.31658,0.33222 1.60073,1.0123 0.2343,0.56076 0.64946,0.70096 0.64946,0.21933 0,-0.12688 0.2321,-0.27815 0.51577,-0.33617 0.28367,-0.058 0.81189,-0.25833 1.17383,-0.44513 0.7829,-0.40408 1.569,-0.65246 2.55764,-0.80812 0.39916,-0.0628 1.29798,-0.37866 1.99737,-0.7018 0.92912,-0.42928 1.4171,-0.56392 1.81174,-0.49988 0.29707,0.0482 0.60562,0.0275 0.68568,-0.046 0.08,-0.0735 0.42249,-0.22211 0.76097,-0.3302 0.33849,-0.10809 0.70871,-0.30892 0.82272,-0.44629 0.17542,-0.21138 0.28059,-0.11573 0.68417,0.62228 0.26229,0.47963 0.47688,1.01507 0.47688,1.18987 0,0.22174 0.26614,0.43652 0.88038,0.71048 0.62467,0.27861 1.06662,0.63908 1.52164,1.24109 0.35269,0.46664 0.79031,0.89574 0.97249,0.95356 0.45806,0.14538 1.18143,1.8134 1.24555,2.87211 0.0289,0.47652 0.16658,1.20247 0.30603,1.61321 0.13945,0.41075 0.28566,1.25236 0.3249,1.87023 0.0392,0.61788 0.15665,1.20872 0.26091,1.31298 0.10426,0.10426 0.18957,0.43319 0.18957,0.73096 0,0.29777 0.11858,0.65998 0.26351,0.80491 0.23956,0.23956 0.21198,0.26352 -0.30333,0.26352 -0.31176,0 -0.71332,0.10711 -0.89235,0.23802 -0.31905,0.2333 -0.31754,0.2465 0.076,0.66543 0.32668,0.34774 0.41584,0.65502 0.47833,1.64849 0.0612,0.97293 0.14659,1.27621 0.4202,1.49235 0.32568,0.25727 0.29884,0.26698 -0.52026,0.18828 -0.69558,-0.0668 -0.86364,-0.0336 -0.86364,0.17059 0,0.13948 0.19105,0.37877 0.42456,0.53178 0.5305,0.34759 0.39512,0.59883 -0.32267,0.59883 -0.69832,0 -0.80989,0.11825 -0.53234,0.56421 0.12257,0.19695 0.2749,0.58447 0.33852,0.86116 0.0933,0.40576 0.0744,0.46252 -0.0974,0.29345 -0.24371,-0.23973 -0.92053,-0.28103 -1.05446,-0.0643 -0.0494,0.0799 0.0594,0.28025 0.24164,0.44522 0.33542,0.30355 0.45707,0.91871 0.18168,0.91871 -0.0824,0 -0.20741,-0.13205 -0.27788,-0.29346 -0.10428,-0.23884 -0.14771,-0.19983 -0.23332,0.20962 -0.0705,0.3373 -0.19999,0.49539 -0.39288,0.47978 -0.19801,-0.016 -0.28769,0.10158 -0.28769,0.3773 0,0.22033 -0.0843,0.40059 -0.18724,0.40059 -0.10897,0 -0.15396,0.17409 -0.10763,0.41645 0.0696,0.3639 0.0313,0.40434 -0.30288,0.32045 -0.31907,-0.0801 -0.54353,0.10112 -1.35365,1.09277 -0.53414,0.65381 -1.01419,1.18875 -1.06678,1.18875 -0.0526,0 -0.23175,-0.23044 -0.39813,-0.5121 -0.36994,-0.62625 -0.70039,-0.55572 -0.66846,0.14267 0.0214,0.4672 -0.007,0.49801 -0.29346,0.3191 -0.1744,-0.10892 -0.3171,-0.24938 -0.3171,-0.31214 0,-0.0628 -0.32755,-0.44167 -0.72789,-0.84201 -0.68135,-0.68135 -0.74196,-0.81837 -0.94804,-2.14309 -0.18919,-1.21617 -0.2438,-1.35739 -0.38829,-1.00417 -0.0925,0.22607 -0.15326,0.47688 -0.13509,0.55737 0.0182,0.0805 -0.0894,0.0994 -0.23905,0.0419 -0.14966,-0.0574 -0.36418,-0.10442 -0.47671,-0.10442 -0.25902,0 -1.19886,-1.87123 -1.40347,-2.79434 -0.0923,-0.41627 -0.0938,-0.82255 -0.004,-1.00614 0.0831,-0.16936 -0.0419,-0.0815 -0.27786,0.19515 l -0.42895,0.50307 -0.0225,-1.59306 c -0.0428,-3.03743 0.14624,-4.13194 0.77457,-4.48357 0.30473,-0.17053 -2.22104,-1.05531 -3.01757,-1.05706 -0.78441,-0.002 -2.26798,-0.68921 -3.79878,-1.76038 -0.76979,-0.53865 -1.49933,-1.07826 -1.62121,-1.19912 -0.12187,-0.12087 -0.29541,-0.21976 -0.38563,-0.21976 -0.37791,0 -1.16666,0.54267 -1.58398,1.08981 -0.52489,0.68817 -0.74337,0.74237 -0.74337,0.18443 0,-0.28243 0.17524,-0.50605 0.58691,-0.74895 0.70754,-0.41745 0.73274,-0.66293 0.12577,-1.22478 -0.61214,-0.56664 -1.25162,-0.90018 -2.51006,-1.30922 -1.5633,-0.50814 -1.737,-0.47014 -2.55885,0.5598 -0.39444,0.49431 -0.9528,1.0343 -1.24081,1.19998 -0.28801,0.16567 -0.86322,0.65821 -1.27826,1.09452 -1.23791,1.30139 -4.9685,3.96525 -7.01587,5.00974 -1.25811,0.64184 -3.62488,1.37071 -4.4709,1.37686 -0.67361,0.005 -0.93132,0.0941 -1.31086,0.45344 -0.46919,0.44428 -0.48987,0.44734 -3.01843,0.44734 -2.35327,0 -2.59043,-0.0285 -3.13291,-0.37676 -1.43284,-0.91979 -1.81467,-1.01639 -4.06649,-1.02886 -1.33772,-0.007 -2.13805,0.0517 -2.13805,0.1578 0,0.0933 0.11868,0.35076 0.26372,0.57213 0.14505,0.22136 0.23937,0.61199 0.20962,0.86805 -0.0682,0.58711 -0.53791,0.73457 -3.84438,1.20698 -2.14885,0.30701 -2.9581,0.33516 -7.36112,0.256 -3.88212,-0.0698 -5.343882,-0.16001 -6.791452,-0.41915 -1.01452,-0.18162 -2.599194,-0.44319 -3.52149,-0.58127 -2.359977,-0.35333 -4.016411,-0.6975 -5.282237,-1.09755 -4.146635,-1.31047 -5.221469,-2.00764 -4.023076,-2.60946 0.340385,-0.17094 0.426915,-0.16845 0.467287,0.0135 0.07465,0.33633 1.252839,0.83727 2.381959,1.01276 0.322803,0.0502 -0.01677,-0.1149 -0.754605,-0.36682 -1.273505,-0.43481 -1.341831,-0.48354 -1.347641,-0.96111 -0.0099,-0.81298 -0.169339,-0.92229 -1.345297,-0.92229 -0.608266,0 -1.080089,-0.0733 -1.080089,-0.16769 0,-0.0922 -0.260272,-0.16769 -0.578381,-0.16769 -0.47306,0 -0.66391,0.11451 -1.048063,0.62883 -0.258325,0.34587 -0.582873,0.72449 -0.721217,0.84139 -0.40795,0.34471 -2.50702,1.2984 -3.773027,1.71424 -0.645606,0.21205 -1.304862,0.4501 -1.465012,0.52898 -0.160151,0.0789 -0.616687,0.14343 -1.014525,0.14343 -0.397839,0 -0.823328,0.0943 -0.945532,0.20961 -0.177752,0.16769 -0.237561,0.16769 -0.299047,0 -0.09761,-0.2662 -0.554166,-0.26109 -0.910666,0.0102 -0.285338,0.21714 -2.468417,0.25359 -2.803009,0.0468 -0.09871,-0.061 -0.53627,-0.11808 -0.972352,-0.12683 -0.436082,-0.009 -1.051416,-0.12394 -1.367411,-0.25597 -0.315994,-0.13203 -0.690648,-0.1955 -0.832563,-0.14104 -0.145181,0.0557 -0.425916,-0.0587 -0.641902,-0.26162 -0.284216,-0.26701 -0.499281,-0.33166 -0.828422,-0.24905 -0.244502,0.0614 -0.533537,0.0377 -0.642301,-0.0525 -0.108763,-0.0903 -0.399039,-0.19108 -0.645058,-0.22402 -0.246018,-0.0329 -0.58371,-0.17852 -0.750426,-0.32349 -0.166716,-0.14497 -0.604714,-0.3098 -0.97333,-0.36628 -0.368615,-0.0565 -0.745918,-0.19875 -0.83845,-0.31615 -0.3853,-0.48882 -1.116275,-0.68735 -2.555842,-0.69419 -1.144134,-0.005 -1.570534,0.06 -1.926876,0.29578 -0.626667,0.4146 -1.574307,1.77091 -1.721959,2.46456 -0.06687,0.31413 -0.217443,0.68434 -0.334614,0.82268 -0.309946,0.36595 -0.477928,1.00614 -0.264007,1.00614 0.09844,0 0.17899,0.0755 0.17899,0.16769 0,0.0922 -0.149483,0.16769 -0.332185,0.16769 -0.225712,0 -0.365079,0.14781 -0.434811,0.46115 -0.205514,0.92347 -0.289435,1.14101 -0.630735,1.63498 -0.50036,0.72417 -1.10771,1.41029 -1.849694,2.08958 -0.356526,0.3264 -0.995881,0.93303 -1.42079,1.34806 -0.424909,0.41504 -0.824928,0.75461 -0.88893,0.75461 -0.064,0 -0.179253,0.0687 -0.25611,0.15265 -0.08265,0.0903 -0.03698,0.0985 0.111793,0.02 0.138344,-0.073 -0.125768,0.20889 -0.586915,0.62631 l -0.838451,0.75894 0.712683,0.2873 c 1.017632,0.41025 0.883297,0.62385 -0.167671,0.26661 -0.866034,-0.29437 -0.889186,-0.29353 -1.42329,0.0521 -0.60582,0.39208 -0.693953,0.60213 -0.25363,0.60449 0.58765,0.003 2.072424,1.00679 2.252148,1.52234 0.09777,0.28047 0.494059,0.71762 0.909927,1.00374 0.741234,0.50998 0.98879,0.94281 0.443262,0.77499 -0.161402,-0.0497 -0.897142,-0.32406 -1.634978,-0.60981 -1.435967,-0.55611 -2.122858,-0.56746 -1.983035,-0.0328 0.04513,0.17259 0.593152,0.83615 1.217822,1.47459 0.988262,1.01004 1.151542,1.26601 1.257254,1.97095 0.07481,0.49889 0.05501,0.87664 -0.05155,0.9832 -0.118933,0.11894 -0.07737,0.29468 0.132928,0.56203 0.203025,0.2581 0.282031,0.57392 0.234816,0.93863 -0.03914,0.30231 -0.09249,0.71956 -0.118557,0.92723 -0.06688,0.53277 -0.22065,0.63042 -0.35016,0.22237 -0.116719,-0.36775 -0.359096,-0.45206 -1.636432,-0.56919 l -0.793848,-0.0728 0.409873,0.48711 c 0.22543,0.26791 0.457194,0.76786 0.515032,1.111 0.05784,0.34315 0.137623,0.74411 0.1773,0.89102 0.09964,0.36892 -0.55591,1.16637 -0.862199,1.04884 -0.175604,-0.0674 -0.245366,0.0267 -0.245366,0.33103 0,0.23385 -0.118581,0.54377 -0.263513,0.6887 -0.323718,0.32372 -0.407247,0.33039 -0.407247,0.0325 z m -7.162085,-5.80584 c -0.08951,-0.3423 -0.242179,-0.42127 -0.437259,-0.22619 -0.08164,0.0816 0.309357,0.51772 0.498739,0.55624 0.01442,0.003 -0.01324,-0.14559 -0.06148,-0.33005 z M 48.003523,194.394 c 0,-0.21515 -1.382647,-1.5178 -1.613364,-1.52001 -0.103399,-0.001 0.160712,0.36484 0.586915,0.81297 0.782151,0.82239 1.026449,0.99067 1.026449,0.70704 z m -12.995981,-8.90019 c -0.214207,-0.23669 -0.238302,-0.33538 -0.08189,-0.33538 0.121895,0 0.177008,-0.0446 0.122472,-0.0992 -0.129096,-0.1291 -0.795191,0.0824 -0.795191,0.25252 0,0.13322 0.630856,0.48544 0.906363,0.50604 0.08347,0.006 0.01518,-0.13957 -0.151758,-0.32403 z M 162.20046,184.6889 c 0,-0.16601 0.0833,-0.38512 0.18507,-0.48691 0.1295,-0.1295 0.13304,-0.27802 0.0118,-0.49468 -0.15838,-0.28301 -0.1887,-0.26905 -0.35275,0.16244 -0.2255,0.59308 -0.23105,1.12099 -0.0118,1.12099 0.0922,0 0.16769,-0.13583 0.16769,-0.30184 z m -1.39815,-2.25543 c -0.0465,-0.11529 -0.0846,-0.021 -0.0846,0.20961 0,0.23058 0.0381,0.3249 0.0846,0.20962 0.0465,-0.11529 0.0465,-0.30394 0,-0.41923 z m -0.79044,-1.21575 c 0.074,-0.18446 0.22572,-0.56031 0.33716,-0.83522 0.20133,-0.49672 0.20046,-0.4979 -0.1405,-0.18934 -0.41221,0.37305 -0.76476,1.35664 -0.58848,1.64186 0.0948,0.1534 0.14284,0.14372 0.19187,-0.0387 0.036,-0.1338 0.12595,-0.39419 0.19995,-0.57865 z m -116.703669,-2.5992 c 0,-0.0922 -0.03328,-0.16769 -0.07395,-0.16769 -0.04067,0 -0.120585,0.0755 -0.177586,0.16769 -0.057,0.0922 -0.02372,0.16769 0.07395,0.16769 0.09767,0 0.177587,-0.0755 0.177587,-0.16769 z m 70.849059,-1.20685 c 0.11783,-0.12579 -5.8e-4,-0.1475 -0.39827,-0.073 -0.31127,0.0583 -1.10361,0.10718 -1.76074,0.10859 -0.72473,0.002 -1.106,0.0588 -0.96911,0.14559 0.30612,0.19401 2.91841,0.0427 3.12812,-0.18118 z m 44.6894,-1.0257 c 0,-0.0859 -0.11319,-0.0622 -0.25153,0.0526 -0.13835,0.11481 -0.24914,0.33157 -0.24621,0.48168 0.004,0.22929 0.0447,0.22088 0.25154,-0.0526 0.13541,-0.17903 0.2462,-0.39579 0.2462,-0.48168 z m -54.45735,0.43434 c -0.29974,-0.0372 -0.79024,-0.0372 -1.08998,0 -0.29975,0.0372 -0.0545,0.0676 0.54499,0.0676 0.59949,0 0.84474,-0.0304 0.54499,-0.0676 z m -8.136464,-0.65076 c -0.0557,-0.0557 -0.20035,-0.0617 -0.32141,-0.0132 -0.133767,0.0535 -0.09403,0.0933 0.10132,0.10131 0.17677,0.007 0.27581,-0.0324 0.22009,-0.0881 z m 15.427494,-1.17383 c -0.0557,-0.0557 -0.20036,-0.0617 -0.32141,-0.0132 -0.13377,0.0535 -0.094,0.0933 0.10131,0.10131 0.17678,0.007 0.27582,-0.0323 0.2201,-0.0881 z m -1.93612,-0.43809 c -0.12033,-0.12033 -0.19844,-0.13023 -0.19844,-0.0252 0,0.22383 0.19831,0.42214 0.31023,0.31023 0.0477,-0.0477 -0.003,-0.17594 -0.11179,-0.28507 z m -0.23593,-0.58864 c -0.34342,-0.036 -0.94711,-0.0365 -1.34152,-0.001 -0.39441,0.0354 -0.11343,0.0649 0.62441,0.0655 0.73783,6.1e-4 1.06053,-0.0284 0.71711,-0.0644 z m -3.19054,-0.1659 c -0.25363,-0.0384 -0.66867,-0.0384 -0.9223,0 -0.25363,0.0384 -0.0461,0.0699 0.46115,0.0699 0.50726,0 0.71478,-0.0314 0.46115,-0.0699 z m 52.81888,-0.31659 c -0.0557,-0.0557 -0.20036,-0.0617 -0.32141,-0.0132 -0.13377,0.0535 -0.094,0.0933 0.10131,0.10131 0.17678,0.007 0.27582,-0.0323 0.2201,-0.0881 z m -46.11477,-0.16769 c -0.0557,-0.0557 -0.20036,-0.0617 -0.32141,-0.0132 -0.13377,0.0535 -0.094,0.0933 0.10131,0.10131 0.17678,0.007 0.27582,-0.0324 0.2201,-0.0881 z m 1.32818,-0.6841 c -0.10428,-0.10428 -1.11508,0.31608 -1.11508,0.46373 0,0.0817 0.26317,0.0231 0.58481,-0.13031 0.32165,-0.15338 0.56027,-0.30342 0.53027,-0.33342 z m 45.24238,0.26802 c -0.054,-0.0874 -0.16965,-0.11466 -0.25701,-0.0607 -0.0874,0.054 -0.11466,0.16965 -0.0607,0.25701 0.054,0.0874 0.16964,0.11466 0.257,0.0607 0.0874,-0.054 0.11467,-0.16964 0.0607,-0.25701 z m -63.922995,-0.0967 c -0.115287,-0.0465 -0.303938,-0.0465 -0.419225,0 -0.115287,0.0465 -0.02096,0.0846 0.209612,0.0846 0.230574,0 0.3249,-0.0381 0.209613,-0.0846 z m -1.173831,-0.16769 c -0.115287,-0.0465 -0.303938,-0.0465 -0.419225,0 -0.115287,0.0465 -0.02096,0.0846 0.209613,0.0846 0.230574,0 0.324899,-0.0381 0.209612,-0.0846 z m 28.245896,-0.6674 c -0.12165,-0.12166 -1.4574,0.14275 -1.4574,0.28849 0,0.0759 0.1297,0.21051 0.28824,0.29923 0.21037,0.11773 0.41683,0.0697 0.76426,-0.17765 0.26181,-0.18643 0.44402,-0.37096 0.4049,-0.41007 z m -29.964719,0.44308 c 0,-0.0922 -0.169786,-0.16654 -0.377303,-0.16513 -0.305101,0.002 -0.329168,0.0337 -0.125767,0.16513 0.325111,0.2101 0.50307,0.2101 0.50307,0 z m 0.712683,0.0566 c -0.115287,-0.0465 -0.303938,-0.0465 -0.419225,0 -0.115287,0.0465 -0.02096,0.0846 0.209612,0.0846 0.230574,0 0.3249,-0.0381 0.209613,-0.0846 z m -1.886513,-0.20714 c -0.308279,-0.17196 -2.259515,-0.37621 -2.103492,-0.22019 0.09464,0.0946 1.212902,0.27645 2.103492,0.34199 0.223586,0.0165 0.223586,0.003 0,-0.1218 z m 29.652429,-1.17468 c -0.12081,-0.19344 -0.2787,-0.35171 -0.35087,-0.35171 -0.0722,0 -0.006,0.191 0.1469,0.42445 0.33066,0.50466 0.52195,0.43643 0.20397,-0.0727 z m -33.341611,0.23861 c 0,-0.0442 -0.282977,-0.23308 -0.628838,-0.41965 -0.34586,-0.18657 -0.792987,-0.45768 -0.993615,-0.60246 -0.344127,-0.24835 -0.359661,-0.24368 -0.274393,0.0824 0.04971,0.1901 0.157266,0.3043 0.23901,0.25378 0.08174,-0.0505 0.148625,-0.02 0.148625,0.0678 0,0.0878 0.282977,0.27703 0.628838,0.42049 0.672963,0.27913 0.880373,0.3257 0.880373,0.19767 z m 70.429831,-0.1711 c 0,-0.13834 -0.071,-0.25153 -0.15779,-0.25153 -0.21146,0 -0.3629,0.26186 -0.22893,0.39583 0.18885,0.18885 0.38672,0.11502 0.38672,-0.1443 z m -35.88567,-2.09613 c 0.13834,-0.0894 0.17607,-0.16255 0.0838,-0.16255 -0.0922,0 -0.28088,0.0731 -0.41922,0.16255 -0.13835,0.0894 -0.17608,0.16256 -0.0838,0.16256 0.0922,0 0.28088,-0.0731 0.41923,-0.16256 z m 0.67076,-0.17758 c 0,-0.0868 -0.0629,-0.1578 -0.13974,-0.1578 -0.0769,0 -0.13975,0.10988 -0.13975,0.24416 0,0.13429 0.0629,0.2053 0.13975,0.1578 0.0768,-0.0475 0.13974,-0.15738 0.13974,-0.24416 z m -43.515579,-1.8347 c 0.057,-0.0922 0.02372,-0.16769 -0.07395,-0.16769 -0.09767,0 -0.177586,0.0755 -0.177586,0.16769 0,0.0922 0.03328,0.16769 0.07395,0.16769 0.04067,0 0.120586,-0.0755 0.177586,-0.16769 z m -0.317439,-1.1037 c -0.05598,-0.14588 -0.101786,-0.34378 -0.101786,-0.43975 0,-0.0987 -0.121872,-0.0746 -0.280616,0.0556 -0.249968,0.20501 -0.269996,0.18894 -0.183389,-0.14715 0.06512,-0.2527 0.02261,-0.37731 -0.128713,-0.37731 -0.358343,0 -0.445195,0.29491 -0.15754,0.53494 0.144787,0.12082 0.353962,0.31112 0.464831,0.4229 0.287929,0.29029 0.506824,0.26245 0.387213,-0.0493 z m 46.107678,-0.86978 c -0.0621,-0.0621 -0.18313,-0.002 -0.26893,0.13375 -0.25054,0.39616 -0.1847,0.54572 0.11036,0.25067 0.14932,-0.14932 0.22068,-0.32231 0.15857,-0.38442 z m -47.14262,-0.39175 c -0.146329,-0.23676 -0.408365,-0.17507 -0.408365,0.0961 0,0.1496 0.09837,0.20853 0.250572,0.15012 0.137815,-0.0529 0.208822,-0.1637 0.157793,-0.24627 z m 47.29946,-0.65319 c 0.057,-0.0922 0.0237,-0.16769 -0.0739,-0.16769 -0.0977,0 -0.17758,0.0755 -0.17758,0.16769 0,0.0922 0.0333,0.16769 0.0739,0.16769 0.0407,0 0.12058,-0.0755 0.17758,-0.16769 z m 3.711,-0.43406 c 0.1389,0.0533 0.20227,0.0222 0.14469,-0.0709 -0.0563,-0.0912 -0.24447,-0.16577 -0.41804,-0.16577 -0.17357,0 -0.3654,-0.0806 -0.42629,-0.17912 -0.0609,-0.0985 -0.22052,-0.13698 -0.35473,-0.0855 -0.14089,0.0541 -0.41497,-0.10056 -0.6485,-0.36587 -0.22246,-0.25273 -0.40686,-0.36203 -0.40977,-0.24289 -0.007,0.30442 0.51757,0.82381 0.91699,0.90715 0.18446,0.0385 0.31544,0.16305 0.29107,0.27681 -0.034,0.1586 0.0375,0.16304 0.30656,0.019 0.19298,-0.10328 0.46209,-0.14511 0.59802,-0.093 z m -2.7887,-0.48823 c 0.12032,-0.14499 0.13662,-0.25154 0.0385,-0.25154 -0.0936,0 -0.21371,0.11319 -0.2668,0.25154 -0.0531,0.13834 -0.0704,0.25153 -0.0385,0.25153 0.0319,0 0.15199,-0.11319 0.26681,-0.25153 z m 3.26996,-0.0839 c 0.057,-0.0922 0.0282,-0.16769 -0.0641,-0.16769 -0.0922,0 -0.21432,0.0755 -0.27132,0.16769 -0.057,0.0922 -0.0282,0.16769 0.0641,0.16769 0.0922,0 0.21432,-0.0755 0.27133,-0.16769 z m 0.0838,-1.3492 c 0,-0.0784 -0.22638,-0.0636 -0.50307,0.0328 -0.27669,0.0965 -0.50307,0.23952 -0.50307,0.31793 0,0.0784 0.22638,0.0636 0.50307,-0.0328 0.27669,-0.0965 0.50307,-0.23952 0.50307,-0.31793 z m -0.83845,-0.13206 c 0,-0.24043 -0.1905,-0.34405 -0.44968,-0.24459 -0.20312,0.0779 -0.20784,0.12184 -0.0255,0.23741 0.28674,0.18176 0.47521,0.18461 0.47521,0.007 z m -52.677792,-1.21112 c -0.192065,-0.59435 -0.378401,-1.18055 -0.414079,-1.30265 -0.09182,-0.31422 -0.657247,-0.15797 -0.631509,0.17451 0.01734,0.22396 -0.05477,0.24612 -0.388219,0.11934 -0.225231,-0.0856 -0.559659,-0.15569 -0.743174,-0.15569 -0.383791,0 -1.758024,-0.59527 -1.89833,-0.82229 -0.05181,-0.0838 -0.584185,-0.3817 -1.183062,-0.66195 -0.598878,-0.28025 -1.334537,-0.6936 -1.634798,-0.91855 -0.300262,-0.22496 -0.708746,-0.45838 -0.907742,-0.51871 -0.198996,-0.0603 -0.404144,-0.22001 -0.455885,-0.35484 -0.05174,-0.13483 -0.280639,-0.24515 -0.508665,-0.24515 -0.436969,0 -0.735204,-0.26306 -0.41808,-0.36877 0.102347,-0.0341 -0.346169,-0.41595 -0.9967,-0.84852 l -1.182785,-0.7865 -0.377129,0.52963 c -0.228129,0.32038 -0.30456,0.55382 -0.193452,0.59085 0.101022,0.0337 1.335636,0.84677 2.743587,1.80688 1.40795,0.96011 2.618162,1.70965 2.689359,1.66565 0.162863,-0.10066 1.40262,0.53739 1.669868,0.8594 0.109805,0.13231 0.281811,0.24056 0.382235,0.24056 0.100425,0 0.789195,0.29887 1.530601,0.66416 0.741405,0.36529 1.659927,0.74314 2.041159,0.83966 0.381231,0.0965 0.788152,0.28996 0.904268,0.42987 0.346855,0.41794 0.340521,0.20188 -0.02747,-0.93689 z m 53.209712,-2.04486 c 0.17768,-0.98664 -0.26192,-1.23776 -0.67659,-0.3865 -0.19289,0.39598 -0.19289,0.49168 0,0.61389 0.38339,0.2429 0.60533,0.16831 0.67659,-0.22739 z m -65.334132,-4.33724 c 0.148562,-0.28729 0.207095,-0.5766 0.130074,-0.64292 -0.138505,-0.11926 -1.01512,-0.66189 -5.422275,-3.35642 -1.245099,-0.76125 -2.425641,-1.53245 -2.623428,-1.71378 -0.459603,-0.42135 -0.58236,-0.22874 -0.61013,0.95732 -0.0251,1.07184 0.174001,1.37713 0.710761,1.08987 0.315157,-0.16867 0.458053,-0.11778 1.066066,0.37961 0.386169,0.31592 1.01115,0.73172 1.388845,0.92401 0.377695,0.19229 1.658241,0.92 2.845657,1.61713 1.187416,0.69714 2.178149,1.26752 2.201629,1.26752 0.02348,0 0.16424,-0.23506 0.312801,-0.52234 z m 103.035592,-1.56512 c 0.6694,-0.21092 0.6978,-0.23843 0.25153,-0.24365 -0.27669,-0.003 -0.64955,0.1049 -0.82858,0.24031 -0.39806,0.30108 -0.36841,0.30125 0.57705,0.003 z m -29.01039,-2.97018 c 1.93596,-0.91975 4.66941,-2.66801 5.43938,-3.47892 0.55242,-0.58179 0.85461,-0.64149 1.2833,-0.25353 0.26804,0.24257 0.31686,0.239 0.57264,-0.0419 0.48752,-0.53544 2.43071,-3.59707 2.43071,-3.82975 0,-0.12276 0.1312,-0.45181 0.29156,-0.73122 0.24139,-0.42059 0.25832,-0.59607 0.0984,-1.01973 -0.17936,-0.47519 -0.0374,-0.72319 0.19694,-0.34402 0.21477,0.3475 0.41923,0.14707 0.41923,-0.41097 0,-0.71291 0.29587,-2.23447 0.52584,-2.70417 0.0938,-0.19154 0.14588,-0.60658 0.11579,-0.9223 l -0.0547,-0.57404 -0.96421,0.006 c -0.53032,0.003 -2.39701,0.0222 -4.1482,0.0419 l -3.18397,0.0359 0.0972,1.21575 c 0.0904,1.13034 0.0661,1.25699 -0.34531,1.80267 l -0.44248,0.58691 0.46893,0.37647 c 0.41417,0.33251 0.42977,0.37669 0.13356,0.37834 -0.26483,0.001 -0.22956,0.0569 0.16769,0.26331 0.27669,0.1438 0.75474,0.52763 1.06234,0.85295 0.64223,0.67923 0.62923,0.95543 -0.10005,2.12564 -1.38451,2.22162 -1.80413,2.71712 -4.94493,5.83927 -0.89924,0.8939 -1.63498,1.67383 -1.63498,1.73318 0,0.18102 0.67375,-0.0728 2.51535,-0.94777 z m -60.78765,0.36231 c 0.057,-0.0922 -0.01401,-0.16769 -0.157794,-0.16769 -0.143787,0 -0.261431,0.0755 -0.261431,0.16769 0,0.0922 0.07101,0.16769 0.157793,0.16769 0.08679,0 0.204431,-0.0755 0.261432,-0.16769 z m -1.509211,-1.00614 c 0.057,-0.0922 0.02372,-0.16769 -0.07395,-0.16769 -0.09767,0 -0.177587,0.0755 -0.177587,0.16769 0,0.0922 0.03328,0.16769 0.07395,0.16769 0.04067,0 0.120585,-0.0755 0.177587,-0.16769 z m -22.554314,-3.02831 c 0,-0.0868 -0.132056,-0.15184 -0.293458,-0.14456 -0.177038,0.008 -0.209886,0.0469 -0.0828,0.0982 0.115862,0.0467 0.160798,0.1656 0.09986,0.2642 -0.06549,0.10597 -0.03163,0.13035 0.0828,0.0596 0.10648,-0.0658 0.1936,-0.19066 0.1936,-0.27744 z m 13.202087,-3.99423 c -0.66148,-0.73218 -2.113115,-2.82169 -2.925993,-4.21172 l -0.539916,-0.92327 -0.0051,0.79653 c -0.0028,0.43809 -0.08054,0.79653 -0.172767,0.79653 -0.627013,0 1.001416,1.88188 2.73949,3.16587 0.508915,0.37596 0.972972,0.76069 1.031238,0.85497 0.05827,0.0943 0.185724,0.17141 0.283243,0.17141 0.09752,0 -0.08708,-0.29264 -0.410218,-0.65032 z M 56.34461,141.973 c 0.29956,-0.20982 0.427631,-0.21864 0.700446,-0.0483 0.448171,0.27989 0.689391,0.008 0.266926,-0.3014 -0.183256,-0.134 -0.34143,-0.33534 -0.351498,-0.44743 -0.05431,-0.6047 -0.105359,-0.74178 -0.419349,-1.1261 l -0.342505,-0.41923 0.104817,1.10177 c 0.09852,1.03559 0.08155,1.11297 -0.282604,1.28825 -0.213082,0.10256 -0.309887,0.19159 -0.215122,0.19783 0.09477,0.006 0.337266,-0.1042 0.538889,-0.24542 z m 5.107808,-0.99695 c 0.150295,0.0577 0.300344,-0.0101 0.358633,-0.16201 0.05512,-0.14364 0.02217,-0.26117 -0.07323,-0.26117 -0.312338,0 -0.822219,0.34272 -0.819595,0.55089 0.0019,0.15065 0.03815,0.14763 0.139174,-0.0116 0.07513,-0.11841 0.252892,-0.17067 0.395018,-0.11613 z m -8.329738,-2.82967 c 0.181924,-0.12458 0.532471,-0.27548 0.778993,-0.33533 0.995711,-0.24173 2.154568,-1.80172 2.417565,-3.2544 0.06249,-0.34515 0.222281,-0.84207 0.3551,-1.10427 0.132818,-0.2622 0.217059,-0.49937 0.187201,-0.52704 -0.02986,-0.0277 -0.834126,-0.28997 -1.787262,-0.5829 -0.953135,-0.29292 -2.344052,-0.79031 -3.090927,-1.1053 -0.746874,-0.315 -1.372437,-0.55504 -1.390139,-0.53343 -0.0177,0.0216 0.03114,0.45432 0.108542,0.96158 0.0774,0.50727 0.191661,1.2996 0.253915,1.76075 0.06225,0.46115 0.215823,1.04222 0.341267,1.29127 0.125444,0.24905 0.228079,0.61058 0.228079,0.80339 0,0.31095 0.603496,2.40106 0.787225,2.72643 0.108489,0.19212 0.443609,0.15046 0.810441,-0.10075 z m 11.949004,-3.16921 c 0.09489,-0.11528 0.226139,-0.58691 0.291663,-1.04806 0.0962,-0.67702 0.07792,-0.7994 -0.09491,-0.63562 -0.117724,0.11156 -0.223274,0.46863 -0.234555,0.79349 -0.02445,0.70407 -0.179396,0.8827 -0.848267,0.97793 -0.468664,0.0667 -0.461466,0.0733 0.105235,0.0968 0.334568,0.0138 0.685943,-0.0692 0.780835,-0.18449 z m 1.922739,-7.27981 c -0.115287,-0.0465 -0.303938,-0.0465 -0.419225,0 -0.115287,0.0465 -0.02096,0.0846 0.209612,0.0846 0.230574,0 0.3249,-0.0381 0.209613,-0.0846 z m 1.467288,-5.85183 c 0,-0.27215 -0.0682,-0.38698 -0.186438,-0.3139 -0.102541,0.0634 -0.252307,0.0112 -0.332813,-0.11587 -0.117124,-0.18492 -0.146887,-0.17485 -0.148941,0.0504 -0.0023,0.25049 0.409292,0.80851 0.596325,0.80851 0.03953,0 0.07187,-0.19311 0.07187,-0.42912 z m 54.331589,-2.25392 c 0,-0.0922 -0.0333,-0.16769 -0.074,-0.16769 -0.0407,0 -0.12059,0.0755 -0.17759,0.16769 -0.057,0.0922 -0.0237,0.16769 0.0739,0.16769 0.0977,0 0.17759,-0.0755 0.17759,-0.16769 z m -1.42138,-0.2715 c -0.14932,-0.14932 -0.32231,-0.22068 -0.38442,-0.15857 -0.0621,0.0621 -0.002,0.18313 0.13375,0.26893 0.39616,0.25054 0.54573,0.18469 0.25067,-0.11036 z m 0.53751,-0.33289 c -0.0557,-0.0557 -0.20035,-0.0617 -0.32141,-0.0132 -0.13377,0.0535 -0.094,0.0933 0.10132,0.10132 0.17677,0.007 0.27581,-0.0324 0.22009,-0.0881 z m -2.42499,-1.24811 c -0.73453,-0.68648 -0.88791,-0.62312 -0.19848,0.082 0.31038,0.31744 0.60122,0.54027 0.64632,0.49517 0.0451,-0.0451 -0.15643,-0.30482 -0.44784,-0.57716 z m -49.361683,0.0324 c -0.24783,-0.0852 -0.373723,0.0876 -0.231511,0.31768 0.09016,0.14588 0.158145,0.13792 0.262953,-0.0308 0.08303,-0.13364 0.07005,-0.25203 -0.03144,-0.28691 z m 1.357375,-0.29554 c 0,-0.0354 -0.193104,-0.0643 -0.429121,-0.0643 -0.236017,0 -0.386863,0.0684 -0.335213,0.15194 0.08591,0.13901 0.764334,0.0612 0.764334,-0.0877 z m 14.846541,-0.63322 c 0.199604,-0.1996 0.191051,-0.24466 -0.05885,-0.31001 -0.357858,-0.0936 -0.805389,0.30521 -0.487198,0.43414 0.112585,0.0456 0.228955,0.0889 0.258601,0.0962 0.02965,0.007 0.158997,-0.0919 0.287449,-0.22031 z m 32.274377,-1.17128 c 0,-0.0348 -0.13206,-0.16688 -0.29346,-0.29346 -0.26597,-0.20859 -0.2719,-0.20266 -0.0633,0.0633 0.21906,0.27933 0.35677,0.36816 0.35677,0.23014 z m -29.650293,-0.68329 c 0.141254,-0.19665 0.01367,-0.42723 -0.236392,-0.42723 -0.102158,0 -0.135915,0.0498 -0.07502,0.11072 0.0609,0.0609 -0.04098,0.21699 -0.226392,0.34686 -0.185415,0.12987 -0.291408,0.31008 -0.235539,0.40048 0.09865,0.15962 0.51638,-0.0731 0.773339,-0.43083 z m 1.097215,-0.59492 c 0.234502,-0.18446 0.359595,-0.33371 0.277985,-0.33166 -0.195559,0.005 -1.028723,0.65847 -0.845592,0.66331 0.07768,0.002 0.333106,-0.1472 0.567607,-0.33165 z m -2.888818,-0.1677 c 0.057,-0.0922 0.02372,-0.16769 -0.07395,-0.16769 -0.09767,0 -0.177586,0.0755 -0.177586,0.16769 0,0.0922 0.03328,0.1677 0.07395,0.1677 0.04067,0 0.120586,-0.0755 0.177586,-0.1677 z m 27.362406,-0.68148 c -0.0276,-0.18106 -0.14424,-0.42251 -0.25913,-0.53654 -0.16628,-0.16505 -0.1861,-0.14749 -0.0972,0.0861 0.0723,0.1898 0.0313,0.29436 -0.11583,0.29602 -0.17558,0.002 -0.17011,0.0397 0.024,0.16512 0.13835,0.0894 0.19049,0.16371 0.11587,0.16513 -0.0746,0.001 -0.0883,0.0793 -0.0303,0.17299 0.16339,0.26438 0.41871,0.0188 0.36261,-0.34884 z m -23.860777,0.0859 c 0.05727,-0.14923 0.02915,-0.21654 -0.0659,-0.15779 -0.09117,0.0564 -0.165769,0.17345 -0.165769,0.26024 0,0.24121 0.120195,0.18806 0.231673,-0.10245 z m 14.639607,-2.78962 c -0.0535,-0.13377 -0.0933,-0.094 -0.10131,0.10131 -0.007,0.17678 0.0324,0.27582 0.0881,0.2201 0.0557,-0.0557 0.0617,-0.20036 0.0132,-0.32141 z m 6.27906,-0.0943 c 0.2073,-0.26432 0.20174,-0.27121 -0.056,-0.0694 -0.15737,0.12323 -0.37654,0.16816 -0.48706,0.0999 -0.12712,-0.0786 -0.15699,-0.0531 -0.0813,0.0694 0.16784,0.27156 0.35673,0.24135 0.62432,-0.0999 z m -3.59951,-0.58691 c -0.0465,-0.11529 -0.0846,-0.021 -0.0846,0.20961 0,0.23057 0.0381,0.3249 0.0846,0.20961 0.0465,-0.11529 0.0465,-0.30394 0,-0.41922 z m 2.73967,0.47104 c 0,-0.0407 -0.0755,-0.12059 -0.16769,-0.17759 -0.0922,-0.057 -0.16769,-0.0237 -0.16769,0.0739 0,0.0977 0.0755,0.17759 0.16769,0.17759 0.0922,0 0.16769,-0.0333 0.16769,-0.0739 z m -10.785305,-0.46056 c -0.0535,-0.13378 -0.0933,-0.094 -0.10131,0.10131 -0.007,0.17677 0.0323,0.27581 0.0881,0.22009 0.0557,-0.0557 0.0617,-0.20035 0.0132,-0.3214 z m 11.288375,0.13322 c 0,-0.0362 -0.11711,-0.11084 -0.26024,-0.16576 -0.14923,-0.0573 -0.21654,-0.0291 -0.1578,0.0659 0.0985,0.15934 0.41804,0.23568 0.41804,0.0999 z m -8.04912,-1.52715 c 0.12033,-0.14498 0.13662,-0.25153 0.0385,-0.25153 -0.0936,0 -0.21371,0.11319 -0.2668,0.25153 -0.0531,0.13835 -0.0704,0.25154 -0.0385,0.25154 0.0319,0 0.15199,-0.11319 0.26681,-0.25154 z m -4.224644,-0.33981 c -0.0516,-0.0516 -0.14539,0.0414 -0.20837,0.20681 -0.091,0.23899 -0.0717,0.25826 0.0939,0.0939 0.1146,-0.11375 0.16612,-0.24906 0.11449,-0.30069 z"
       id="path1" /></g></svg>
