<?xml version="1.0" encoding="UTF-8" standalone="no"?>
<!-- Created with Inkscape (http://www.inkscape.org/) -->

<svg
   width="210mm"
   height="297mm"
   viewBox="0 0 210 297"
   version="1.1"
   id="svg1"
   xml:space="preserve"
   inkscape:version="1.4.2 (ebf0e94, 2025-05-08)"
   sodipodi:docname="merlangius_merlangus.svg"
   xmlns:inkscape="http://www.inkscape.org/namespaces/inkscape"
   xmlns:sodipodi="http://sodipodi.sourceforge.net/DTD/sodipodi-0.dtd"
   xmlns="http://www.w3.org/2000/svg"
   xmlns:svg="http://www.w3.org/2000/svg"><sodipodi:namedview
     id="namedview1"
     pagecolor="#ffffff"
     bordercolor="#000000"
     borderopacity="0.25"
     inkscape:showpageshadow="2"
     inkscape:pageopacity="0.0"
     inkscape:pagecheckerboard="0"
     inkscape:deskcolor="#d1d1d1"
     inkscape:document-units="mm"
     inkscape:zoom="0.74898461"
     inkscape:cx="593.47014"
     inkscape:cy="518.70225"
     inkscape:window-width="2560"
     inkscape:window-height="1369"
     inkscape:window-x="1912"
     inkscape:window-y="-8"
     inkscape:window-maximized="1"
     inkscape:current-layer="layer1" /><defs
     id="defs1" /><g
     inkscape:label="Layer 1"
     inkscape:groupmode="layer"
     id="layer1"><path
       style="fill:#1a1a1a"
       d="m 69.013286,176.05599 c -1.011757,-0.6643 -1.899089,-1.28784 -1.971849,-1.38565 -0.07276,-0.0978 -0.489479,-0.39889 -0.926042,-0.66908 -0.436562,-0.27019 -0.644922,-0.33293 -0.463021,-0.13941 0.438095,0.46607 0.420928,0.79318 -0.0325,0.61919 -0.64784,-0.2486 -7.051077,-8.10499 -8.632039,-10.591 -0.217968,-0.34274 -0.515625,-0.60426 -0.661458,-0.58114 -0.652812,0.10349 -3.820566,-0.41761 -8.334945,-1.37109 -2.692135,-0.56861 -6.204479,-1.22856 -7.805208,-1.46654 -4.005697,-0.59555 -15.850315,-4.51726 -16.418117,-5.43598 -0.375151,-0.60701 0.158664,-1.53517 1.073099,-1.86583 0.988254,-0.35736 1.154638,-0.61278 0.550247,-0.84471 -0.207528,-0.0796 -0.451778,0.0554 -0.54696,0.30242 -0.159242,0.41326 -0.191467,0.41161 -0.435033,-0.0223 -0.144678,-0.25772 -0.366569,-0.40461 -0.493091,-0.32641 -0.126522,0.0782 -0.312681,0.008 -0.413687,-0.15498 -0.13176,-0.21319 -0.242698,-0.2016 -0.392654,0.041 -0.141707,0.22929 -0.412221,-0.0811 -0.840115,-0.96394 -0.347109,-0.71617 -0.821929,-1.59978 -1.055156,-1.96358 -0.885796,-1.38172 0.509045,-2.56745 4.476394,-3.80531 1.195523,-0.37301 2.862398,-0.96613 3.704167,-1.31803 2.115649,-0.88446 3.388891,-1.30534 9.467989,-3.12973 8.789736,-2.63787 12.30579,-3.43059 23.785596,-5.36264 l 6.852262,-1.15324 4.127946,-4.09408 c 2.270371,-2.25175 4.832055,-4.53567 5.692632,-5.07538 0.860577,-0.53971 1.712875,-1.12948 1.893996,-1.3106 0.357036,-0.35703 1.829972,-1.29117 4.759308,-3.01835 2.163975,-1.27591 3.496579,-1.46829 3.505527,-0.50608 0.01226,1.31814 0.355968,3.74931 0.592564,4.1914 0.138396,0.25859 0.251629,0.8206 0.251629,1.24891 0,0.42832 0.163324,0.9143 0.362942,1.07997 0.199619,0.16567 0.423629,0.83962 0.497801,1.49767 0.143543,1.27351 1.589456,4.5387 2.241291,5.06132 0.481756,0.38626 0.26268,0.76951 -0.815799,1.42713 l -0.831027,0.50673 0.740744,9.9e-4 c 0.407408,5.4e-4 1.121783,-0.19482 1.5875,-0.43413 1.090418,-0.56032 3.708596,-2.33223 4.25817,-2.8818 0.233774,-0.23378 0.425045,-0.35095 0.425045,-0.26039 0,0.0906 0.386953,-0.12818 0.859893,-0.48608 0.472953,-0.35791 2.288573,-1.38368 4.034723,-2.2795 3.36388,-1.72575 4.11985,-1.85011 5.55009,-0.91298 0.31776,0.2082 0.64057,0.31573 0.71736,0.23894 0.0768,-0.0768 0.29022,0.0419 0.4743,0.26366 0.18407,0.22179 0.4987,0.40327 0.69916,0.40327 0.20046,0 0.36448,0.11349 0.36448,0.2522 0,0.21629 1.9891,1.27757 2.77812,1.48227 0.4022,0.10434 2.76446,1.13947 4.08263,1.78898 0.64471,0.31767 1.24003,0.58835 1.32292,0.6015 0.0829,0.0132 0.59336,0.22152 1.13439,0.46303 0.54103,0.2415 1.27525,0.4391 1.6316,0.4391 0.35635,0 0.69262,0.13413 0.74726,0.29807 0.0546,0.16394 0.33246,0.31536 0.61737,0.33649 0.2849,0.0211 0.99425,0.25411 1.57633,0.51775 2.23064,1.01029 2.94509,1.29959 3.99786,1.61884 0.59809,0.18137 1.33928,0.58161 1.64709,0.88942 l 0.55965,0.55965 -0.68274,0.73416 -0.68274,0.73416 1.21303,0.0804 c 1.20983,0.0802 1.59643,-0.0337 7.04473,-2.0749 5.98495,-2.24231 6.78587,-2.30913 9.90757,-0.82655 2.43587,1.15687 3.1645,1.47376 3.45389,1.50213 0.14552,0.0143 0.97895,0.35993 1.85208,0.76812 0.87313,0.4082 2.12328,0.97689 2.77813,1.26376 1.93541,0.84786 3.04674,1.5096 2.98307,1.77628 -0.0328,0.13737 0.68158,-0.0855 1.5875,-0.49521 0.90593,-0.40974 2.5401,-1.0042 3.63151,-1.32101 1.0914,-0.31682 4.48469,-1.39653 7.54062,-2.39936 3.05594,-1.00283 6.15157,-2.00163 6.87917,-2.21955 0.7276,-0.21793 2.32923,-0.75871 3.55916,-1.20174 2.43945,-0.87871 4.2543,-1.0363 4.77056,-0.41425 0.25661,0.3092 0.25614,0.68377 -0.002,1.78593 -0.17983,0.76708 -0.41973,1.51374 -0.53312,1.65926 -0.166,0.21307 -0.56763,3.38728 -0.5691,4.49792 -0.002,1.16916 0.35004,4.39838 0.55454,5.09323 0.18455,0.62705 0.16852,0.86099 -0.0592,0.86395 -0.23678,0.003 -0.23588,0.0526 0.004,0.20494 0.32162,0.20448 0.93834,2.43684 0.67321,2.43684 -0.0798,0 0.07,0.23777 0.33299,0.52837 0.26708,0.29512 0.4676,0.90027 0.45422,1.37083 -0.0132,0.46335 0.0878,1.05123 0.22433,1.30639 0.35876,0.67035 -0.12163,1.72414 -0.87182,1.91242 -0.3462,0.0869 -1.21808,0.0532 -1.93752,-0.0748 -0.71944,-0.12802 -2.3201,-0.41251 -3.55703,-0.6322 -2.51854,-0.44731 -4.25511,-0.86352 -11.50938,-2.75849 -2.76489,-0.72225 -5.85524,-1.51785 -6.86744,-1.768 l -1.84036,-0.45482 -0.53358,0.74816 c -0.95063,1.33292 -1.90011,2.07184 -3.98851,3.10399 -1.90229,0.94016 -2.55098,1.35543 -3.44948,2.20823 -0.19165,0.1819 -0.45729,0.33073 -0.59032,0.33073 -0.13303,0 -0.76661,0.29567 -1.40796,0.65703 -0.64135,0.36137 -1.45948,0.78484 -1.81807,0.94104 -0.76121,0.33159 -3.48164,0.12639 -5.43344,-0.40983 -0.72761,-0.1999 -2.51355,-0.65727 -3.96875,-1.01638 -3.2682,-0.80652 -5.74438,-1.71955 -5.54378,-2.04413 0.19488,-0.31531 -0.0794,-0.30787 -1.78539,0.0484 -1.53625,0.32086 -2.19365,0.69794 -1.22349,0.7018 0.33834,0.001 1.10856,0.13648 1.71162,0.30031 0.84801,0.23037 1.13626,0.45645 1.27211,0.99772 0.0966,0.38492 0.0708,0.77067 -0.0574,0.85724 -0.12819,0.0866 -0.30995,0.36575 -0.40391,0.62041 -0.094,0.25466 -0.35316,0.46302 -0.57601,0.46302 -0.22285,0 -0.40518,0.12201 -0.40518,0.27113 0,0.14912 -0.26789,0.37533 -0.59531,0.50268 -0.32743,0.12736 -1.04709,0.54113 -1.59925,0.9195 -0.55217,0.37836 -1.11933,0.68794 -1.26037,0.68794 -0.14103,0 -0.46316,0.10517 -0.71585,0.23371 -1.22044,0.62084 -1.86768,0.86617 -2.45962,0.93227 -0.69734,0.0779 -2.41678,0.60268 -3.3261,1.01518 -0.31008,0.14067 -0.80199,0.18016 -1.09314,0.0877 -0.34787,-0.11041 -0.58262,-0.0292 -0.68468,0.23675 -0.0854,0.22261 -0.44969,0.40476 -0.80947,0.40476 -0.35978,0 -0.73275,0.12718 -0.82882,0.28262 -0.0961,0.15544 -0.36147,0.21094 -0.58977,0.12333 -0.22831,-0.0876 -0.49783,-0.0255 -0.59893,0.13813 -0.1011,0.16358 -0.52733,0.33095 -0.94719,0.37192 -1.04705,0.10217 -3.55863,0.65473 -4.20296,0.92467 -0.29104,0.12194 -1.24354,0.37424 -2.11667,0.56067 -0.87312,0.18643 -1.76609,0.37754 -1.98437,0.42468 -0.21828,0.0471 -1.44104,0.14852 -2.71723,0.2253 -1.87709,0.11293 -2.34853,0.0662 -2.46785,-0.24478 -0.0811,-0.21141 -0.33998,-0.45824 -0.57523,-0.54851 -0.35052,-0.13451 -0.33916,-0.0663 0.0629,0.37803 0.26986,0.2982 0.44178,0.59069 0.38204,0.64998 -0.19034,0.18892 -4.28067,0.71099 -5.985269,0.76395 -1.30104,0.0404 -1.712737,-0.0454 -1.976639,-0.41197 -0.18333,-0.25467 -0.574933,-0.45497 -0.87023,-0.44512 -0.507038,0.0169 -0.503789,0.0339 0.05841,0.30502 0.97534,0.47039 0.693735,0.68275 -1.170041,0.88234 -2.398721,0.25688 -5.497978,-0.0253 -7.098188,-0.64637 -1.298498,-0.50394 -5.492284,-2.73268 -6.160774,-3.27408 -0.236821,-0.1918 -0.780005,-0.17683 -1.790639,0.0493 -1.509822,0.33788 -6.504906,0.2163 -9.907963,-0.24117 -0.945885,-0.12716 -2.672292,-0.30001 -3.836458,-0.38412 l -2.116667,-0.15293 1.852083,0.90617 c 1.018646,0.49839 1.733021,0.91991 1.5875,0.9367 -0.14552,0.0168 -0.0443,0.19741 0.224933,0.40138 0.269233,0.20397 0.414727,0.49187 0.323318,0.63977 -0.09141,0.1479 0.0845,0.40308 0.390901,0.56706 0.311459,0.16669 0.495028,0.45991 0.416325,0.665 -0.07743,0.20177 0.155454,0.59986 0.517511,0.88466 0.403551,0.31743 0.548827,0.58545 0.375423,0.69262 -0.301787,0.18652 0.816555,1.1366 2.627443,2.23214 0.586371,0.35474 1.013684,0.69743 0.949585,0.76153 -0.15121,0.15121 -2.270448,-0.84707 -3.671621,-1.72955 -0.642276,-0.40451 -0.945257,-0.50777 -0.732358,-0.2496 0.722787,0.8765 -0.40181,0.47678 -1.826083,-0.64904 -0.914489,-0.72286 -1.271099,-1.15557 -1.059909,-1.2861 0.230182,-0.14226 0.198483,-0.24267 -0.114525,-0.36278 -0.287541,-0.11034 -0.369221,-0.0632 -0.243364,0.14043 0.13048,0.21112 0.03644,0.24781 -0.302153,0.11788 -0.470856,-0.18069 -0.47034,-0.16516 0.01222,0.36806 0.399345,0.44127 0.431545,0.60137 0.15529,0.77211 -0.237425,0.14673 -0.280616,0.41569 -0.135496,0.84374 0.117164,0.34559 0.186486,0.72649 0.154049,0.84645 -0.03244,0.11995 0.04955,0.15103 0.182184,0.0691 0.132638,-0.082 0.395823,0.0373 0.584855,0.26508 0.268776,0.32385 0.273108,0.45775 0.01987,0.61426 -0.230321,0.14234 -0.0672,0.4803 0.564967,1.17046 0.488832,0.53368 0.982871,0.97033 1.097864,0.97033 0.114993,0 0.820914,0.49844 1.568713,1.10765 1.905444,1.55231 1.867237,1.51565 1.726346,1.65654 -0.06995,0.07 -0.95498,-0.41634 -1.966736,-1.08065 z"
       id="path1"
       sodipodi:nodetypes="csssssssssssssscssssssscssssssssssscssssssssssssscssssssscccscssssssssssscscsccssscssssscsssssssssscsssssssssssscssssssssssssssssssssscsscssssssssssssssssssssscsssssscc" /></g></svg>
