<?xml version="1.0" encoding="UTF-8" standalone="no"?>
<!-- Created with Inkscape (http://www.inkscape.org/) -->

<svg
   width="210mm"
   height="297mm"
   viewBox="0 0 210 297"
   version="1.1"
   id="svg1"
   xml:space="preserve"
   inkscape:version="1.4.2 (ebf0e94, 2025-05-08)"
   sodipodi:docname="microstomus_kitt.svg"
   xmlns:inkscape="http://www.inkscape.org/namespaces/inkscape"
   xmlns:sodipodi="http://sodipodi.sourceforge.net/DTD/sodipodi-0.dtd"
   xmlns="http://www.w3.org/2000/svg"
   xmlns:svg="http://www.w3.org/2000/svg"><sodipodi:namedview
     id="namedview1"
     pagecolor="#ffffff"
     bordercolor="#000000"
     borderopacity="0.25"
     inkscape:showpageshadow="2"
     inkscape:pageopacity="0.0"
     inkscape:pagecheckerboard="0"
     inkscape:deskcolor="#d1d1d1"
     inkscape:document-units="mm"
     inkscape:zoom="0.25039645"
     inkscape:cx="95.848004"
     inkscape:cy="-173.72451"
     inkscape:window-width="1920"
     inkscape:window-height="991"
     inkscape:window-x="-9"
     inkscape:window-y="-9"
     inkscape:window-maximized="1"
     inkscape:current-layer="layer1" /><defs
     id="defs1" /><g
     inkscape:label="Layer 1"
     inkscape:groupmode="layer"
     id="layer1"><path
       style="fill:#000000"
       d="m 115.85058,148.67084 c -0.0166,-0.0166 -0.91109,-0.0521 -1.98774,-0.0789 -1.09874,-0.0273 -2.06438,-0.10586 -2.20108,-0.17902 -0.18508,-0.0991 -0.32566,-0.0894 -0.58552,0.0402 -0.34113,0.17018 -0.86743,0.12687 -0.86743,-0.0714 0,-0.0575 -0.0564,-0.10457 -0.12537,-0.10457 -0.069,0 -0.0924,0.0533 -0.0522,0.11838 0.0402,0.0651 0.003,0.12248 -0.0818,0.12749 -0.0852,0.005 -0.34141,0.0225 -0.56929,0.0389 -0.22788,0.0164 -0.71478,-0.0146 -1.082,-0.0688 -0.36723,-0.0542 -0.89994,-0.12389 -1.1838,-0.15484 -0.28386,-0.0309 -0.70256,-0.10092 -0.93044,-0.1555 -0.22788,-0.0546 -0.90708,-0.0956 -1.50934,-0.0912 -0.60225,0.004 -1.09501,-0.0277 -1.09501,-0.0714 2e-5,-0.19762 -1.22569,-0.29044 -4.232048,-0.32047 -1.30844,-0.0131 -1.47464,-0.039 -1.70088,-0.26521 -0.19398,-0.19399 -0.27225,-0.21591 -0.34583,-0.0969 -0.0769,0.12436 -0.18817,0.12599 -0.58036,0.008 -0.26689,-0.08 -0.53976,-0.1117 -0.60638,-0.0705 -0.0666,0.0412 -0.18539,0.0234 -0.26392,-0.0394 -0.0785,-0.0629 -0.43578,-0.14733 -0.79388,-0.18771 -1.49356,-0.16837 -1.74302,-0.2536 -2.40981,-0.82325 -0.76175,-0.65079 -0.95486,-0.7274 -0.34807,-0.1381 0.34637,0.33639 0.38424,0.4142 0.20129,0.41367 -0.4312,-0.001 -1.1267,-0.25201 -1.19537,-0.43097 -0.0515,-0.13419 -0.0919,-0.14332 -0.15831,-0.0358 -0.0682,0.11038 -0.1789,0.11304 -0.47064,0.0113 -0.2098,-0.0731 -0.4286,-0.10383 -0.48623,-0.0682 -0.0576,0.0356 -0.1056,-0.0316 -0.1066,-0.1494 -10e-4,-0.16024 -0.0267,-0.17493 -0.10062,-0.0583 -0.0811,0.12786 -0.22598,0.12286 -0.80765,-0.0279 -0.38986,-0.10103 -0.9165,-0.21027 -1.17031,-0.24276 -0.48727,-0.0624 -1.60748,-0.42319 -1.70774,-0.55003 -0.0326,-0.0412 -0.22864,-0.11164 -0.43574,-0.15656 -0.207108,-0.0449 -0.440028,-0.15815 -0.517608,-0.25163 -0.17286,-0.20828 -0.43046,-0.221 -0.49596,-0.0245 -0.0558,0.1675 -0.68152,-0.18592 -0.68152,-0.38496 0,-0.0636 -0.0818,-0.11565 -0.18173,-0.11565 -0.14462,0 -0.15604,0.048 -0.0559,0.23507 0.11652,0.21772 0.10251,0.22621 -0.18987,0.11505 -0.17362,-0.066 -0.47216,-0.25169 -0.66343,-0.41264 -0.19126,-0.16094 -0.48513,-0.29261 -0.65304,-0.29261 -0.16791,0 -0.47989,-0.13318 -0.6933,-0.29595 -0.2134,-0.16277 -0.53805,-0.29618 -0.72144,-0.29646 -0.20538,-3.1e-4 -0.57307,-0.18218 -0.95734,-0.47352 -0.343139,-0.26015 -0.676081,-0.473 -0.739869,-0.473 -0.06379,0 -0.115978,-0.046 -0.115978,-0.10228 0,-0.0563 -0.2264,-0.25587 -0.503112,-0.44359 -0.276711,-0.18772 -0.537109,-0.38824 -0.578661,-0.4456 -0.04155,-0.0574 -0.143006,-0.0626 -0.225454,-0.0116 -0.09048,0.0559 -0.120354,0.0448 -0.07536,-0.028 0.08039,-0.13007 -1.092389,-1.18031 -1.257849,-1.12642 -0.05494,0.0179 -0.07055,-0.0149 -0.03469,-0.073 0.03586,-0.058 -0.04009,-0.20077 -0.168769,-0.31723 -0.218989,-0.19818 -0.233967,-0.19863 -0.233967,-0.007 0,0.11255 0.128295,0.58692 0.285101,1.05416 0.156806,0.46724 0.324159,1.05789 0.371895,1.31255 0.07426,0.39615 0.05942,0.45251 -0.102737,0.39029 -0.157027,-0.0603 -0.147011,0.009 0.0584,0.40293 0.165153,0.31686 0.20844,0.51516 0.129649,0.59395 -0.163859,0.16386 -0.49935,-0.19147 -0.584968,-0.61956 -0.03728,-0.18642 -0.108992,-0.31348 -0.159351,-0.28236 -0.05036,0.0311 -0.123779,-0.0274 -0.163156,-0.12998 -0.102643,-0.26748 -0.08958,-0.31067 0.06508,-0.21509 0.08536,0.0528 0.104508,0.0324 0.05101,-0.0541 -0.04711,-0.0762 -0.131415,-0.11033 -0.187337,-0.0758 -0.05592,0.0346 -0.139812,-0.0578 -0.186422,-0.20523 -0.04661,-0.14744 -0.210258,-0.43291 -0.363661,-0.63438 -0.153403,-0.20147 -0.278915,-0.42135 -0.278915,-0.48862 0,-0.0673 -0.07991,-0.18862 -0.177569,-0.26967 -0.234501,-0.19462 -0.223976,-0.0832 0.04239,0.44863 0.120978,0.24157 0.256929,0.59902 0.302113,0.79435 l 0.08215,0.35514 -0.272518,-0.38269 c -0.260451,-0.36574 -0.686845,-0.52712 -0.686845,-0.25994 0,0.19306 -0.311757,-0.1588 -0.407233,-0.45962 -0.04583,-0.14441 -0.124294,-0.23724 -0.174361,-0.20629 -0.181941,0.11244 -1.237949,-1.64892 -1.540396,-2.56929 -0.151417,-0.46078 -0.506165,-0.7522 -0.73985,-0.60777 -0.08843,0.0547 -0.101166,0.0295 -0.03732,-0.0738 0.07022,-0.11362 0.04305,-0.13612 -0.09867,-0.0817 -0.107562,0.0413 -0.18289,0.0299 -0.167393,-0.0254 0.03403,-0.12129 -1.182188,-1.31162 -1.340149,-1.31162 -0.06128,0 -0.111417,-0.061 -0.111417,-0.13556 0,-0.0746 -0.146051,-0.36642 -0.324557,-0.64857 -0.327815,-0.51817 -0.721294,-0.76742 -1.155184,-0.73177 -0.333211,0.0274 -1.470711,-0.36501 -1.894068,-0.65338 -0.195326,-0.13305 -0.557061,-0.42035 -0.803855,-0.63845 -0.246794,-0.21811 -0.499219,-0.36534 -0.560945,-0.32719 -0.06173,0.0382 -0.08423,-0.004 -0.05,-0.0928 0.09067,-0.23628 -0.378938,-0.7768 -0.843556,-0.97093 -0.717354,-0.29973 -2.315032,-1.56506 -2.844769,-2.25301 -0.10027,-0.13022 -0.143493,-0.16194 -0.09605,-0.0705 0.05532,0.10664 0.0391,0.13712 -0.04524,0.085 -0.07232,-0.0447 -0.108769,-0.14615 -0.08099,-0.22545 0.09556,-0.27277 -0.359743,-0.61916 -1.658972,-1.26213 -0.716194,-0.35443 -1.580254,-0.82467 -1.920133,-1.04498 -0.339878,-0.22031 -0.67414,-0.36585 -0.742803,-0.32341 -0.06866,0.0424 -0.111015,0.0332 -0.09412,-0.0204 0.04292,-0.13629 -0.514623,-0.7526 -0.621229,-0.68671 -0.04795,0.0296 -0.08174,-0.0121 -0.0751,-0.0928 0.02588,-0.31431 -0.309099,-1.22546 -0.543546,-1.47847 -0.135745,-0.1465 -0.192803,-0.26635 -0.126796,-0.26635 0.114581,0 0.394775,-0.49662 0.394775,-0.69971 0,-0.0532 -0.144073,-0.24074 -0.320162,-0.41683 -0.176089,-0.17609 -0.268235,-0.30321 -0.204768,-0.28249 0.06347,0.0207 0.194222,-0.0283 0.290567,-0.10883 0.09634,-0.0806 0.414891,-0.323 0.70788,-0.53873 0.292988,-0.21573 0.532706,-0.45611 0.532706,-0.53419 0,-0.0781 0.037,-0.12863 0.08221,-0.11235 0.118947,0.0428 0.863494,-0.70102 1.411636,-1.41029 0.466897,-0.60415 1.110019,-0.98689 1.658266,-0.98689 0.174619,0 0.226363,-0.0539 0.176529,-0.18372 -0.03877,-0.10105 -0.02051,-0.15282 0.04058,-0.11506 0.09217,0.057 0.39249,-0.32392 0.417793,-0.52988 0.0069,-0.0564 0.08209,-0.18103 0.735803,-1.21982 0.603538,-0.95905 0.870756,-1.51366 0.791269,-1.64228 -0.04761,-0.077 -0.03021,-0.10147 0.04093,-0.0575 0.146704,0.0907 0.43433,-0.32034 0.548486,-0.78378 0.04606,-0.18699 0.209577,-0.38807 0.377973,-0.46479 0.163235,-0.0744 0.479761,-0.43214 0.703389,-0.79504 0.498367,-0.80872 1.287574,-1.66603 1.533692,-1.66603 0.100275,0 0.182319,-0.0451 0.182319,-0.10032 0,-0.18263 2.092371,-2.26726 2.275675,-2.26726 0.09887,0 0.306496,-0.18781 0.461383,-0.41735 0.154887,-0.22953 0.414473,-0.45165 0.576858,-0.4936 0.162384,-0.0419 0.55338,-0.2803 0.86888,-0.52969 0.315499,-0.24939 0.630058,-0.45343 0.69902,-0.45343 0.06896,0 0.307043,-0.18705 0.52907,-0.41566 0.222027,-0.22862 0.600303,-0.49767 0.840613,-0.5979 0.240311,-0.10023 0.596741,-0.33367 0.792067,-0.51875 0.195326,-0.18509 0.71338,-0.57437 1.151232,-0.86508 0.437852,-0.29071 0.757476,-0.57128 0.710276,-0.6235 -0.0472,-0.0522 -0.02502,-0.0602 0.04929,-0.0177 0.223706,0.12783 1.136916,-0.34969 1.622885,-0.84861 0.250702,-0.25738 0.597484,-0.4963 0.770627,-0.53093 0.173143,-0.0346 0.719634,-0.32724 1.214425,-0.65024 0.494791,-0.323 1.026975,-0.62734 1.182631,-0.6763 0.155656,-0.049 0.46867,-0.18811 0.695589,-0.30921 0.22691,-0.12111 0.46452,-0.22019 0.52802,-0.22019 0.10615,0 1.02749,-0.42233 2.10153,-0.9633 0.24078,-0.121272 0.60582,-0.220502 0.8112,-0.220502 0.20539,0 0.64764,-0.14031 0.98278,-0.31181 0.33513,-0.1715 0.80634,-0.41122 1.04712,-0.53271 0.24078,-0.12149 0.573716,-0.22089 0.739866,-0.22089 0.16615,0 0.30209,-0.0509 0.30209,-0.11301 0,-0.10575 0.35594,-0.19669 1.07584,-0.27488 0.16851,-0.0183 0.44595,-0.12473 0.61654,-0.2365 0.17058,-0.11178 0.40561,-0.1904 0.52227,-0.17471 0.11667,0.0157 0.75987,-0.1494 1.42933,-0.36685 0.66946,-0.21746 1.29972,-0.36372 1.40058,-0.32501 0.20894,0.0802 0.6802,-0.20271 0.55171,-0.3312 -0.0464,-0.0464 0.0111,-0.0478 0.12794,-0.003 0.11679,0.0448 0.40816,0.0265 0.64748,-0.0406 1.64536,-0.46179 2.80031,-0.72546 3.48017,-0.7945 0.3075,-0.0312 0.89196,-0.19689 1.2988,-0.36813 0.56175,-0.23643 0.87444,-0.2984 1.29964,-0.25754 0.30796,0.0296 0.61258,10e-4 0.67693,-0.0632 0.0643,-0.0644 0.39149,-0.1604 0.726978,-0.21343 0.33548,-0.053 0.68833,-0.16146 0.7841,-0.24094 0.0958,-0.0795 0.43251,-0.15758 0.7483,-0.17355 0.31579,-0.016 0.70899,-0.11738 0.87379,-0.22536 0.233,-0.15267 0.44268,-0.17845 0.94294,-0.11595 0.4128,0.0516 0.67129,0.0351 0.7214,-0.046 0.043,-0.0696 0.22916,-0.0961 0.41417,-0.0591 0.18485,0.037 0.44098,0.0111 0.56917,-0.0575 0.15253,-0.0816 0.27326,-0.0846 0.34933,-0.008 0.15128,0.15128 0.79258,0.23865 2.11005,0.28748 1.02218,0.0379 2.12919,0.12305 3.24632,0.24976 0.28798,0.0327 0.82068,0.14534 1.18379,0.25038 0.36311,0.10504 0.88384,0.19519 1.15719,0.20032 0.27335,0.005 0.56367,0.0759 0.64516,0.15732 0.0815,0.0814 0.23341,0.14797 0.33758,0.14797 0.10418,0 0.24391,0.0545 0.31053,0.12112 0.0666,0.0666 0.32798,0.1476 0.58083,0.17997 0.58179,0.0745 1.00271,0.34679 1.00271,0.64867 0,0.13305 0.0796,0.23403 0.18456,0.23403 0.1015,0 0.15983,-0.04 0.12962,-0.0888 -0.0302,-0.0488 0.16641,-0.0829 0.43694,-0.0757 0.56997,0.0152 1.73485,0.37684 1.73485,0.53857 0,0.0617 0.1818,0.076 0.41333,0.0326 0.36008,-0.0676 0.42776,-0.0416 0.52521,0.20179 0.0615,0.15364 0.11524,0.21276 0.11937,0.13137 0.01,-0.19233 0.35272,-0.19233 0.42795,0 0.0353,0.0903 0.3161,0.15561 0.72021,0.16754 0.36429,0.0108 0.72012,0.0774 0.79074,0.14798 0.0706,0.0706 0.27452,0.12841 0.4531,0.12841 0.17859,0 0.52521,0.1183 0.77027,0.26289 0.24506,0.14459 0.60769,0.2751 0.80583,0.29002 0.19814,0.0149 0.62661,0.0867 0.95215,0.15942 0.32554,0.0728 0.72794,0.14434 0.89421,0.15908 0.28736,0.0255 1.26235,0.70259 2.02648,1.407392 0.19412,0.17904 0.41483,0.32554 0.49045,0.32554 0.2161,0 1.15784,1.10177 1.09088,1.27625 -0.0331,0.0861 -0.0189,0.13115 0.0314,0.10005 0.0503,-0.0311 0.19621,0.0761 0.32419,0.23813 0.12798,0.16207 0.32065,0.39258 0.42816,0.51223 0.10752,0.11965 0.23097,0.32935 0.27434,0.466 0.0434,0.13664 0.12497,0.24844 0.18133,0.24844 0.089,0 0.51901,0.72538 1.15796,1.95326 0.10164,0.19533 0.21561,0.38177 0.25326,0.41433 0.0377,0.0326 0.0843,0.13328 0.10362,0.22383 0.0193,0.0906 0.27236,0.68216 0.5623,1.31467 0.28993,0.63251 0.52884,1.19767 0.53091,1.2559 0.002,0.0582 0.18851,0.28977 0.41432,0.51452 0.22582,0.22474 0.41057,0.45684 0.41057,0.51578 0,0.0589 0.0874,0.0736 0.19431,0.0326 0.15428,-0.0592 0.16646,-0.041 0.0591,0.0883 -0.1052,0.12676 -0.0695,0.2338 0.16082,0.48233 0.16282,0.17568 0.29603,0.35846 0.29603,0.40617 0,0.0477 0.15981,0.18116 0.35514,0.29655 0.19532,0.11538 0.35513,0.26498 0.35513,0.33244 0,0.0675 0.29884,0.45067 0.66409,0.85156 0.36525,0.40089 0.74802,0.90202 0.85058,1.11363 0.11091,0.22879 0.27551,0.38473 0.40612,0.38473 0.31242,0 0.92032,0.47924 0.92032,0.72555 0,0.24839 0.19021,0.39257 0.29475,0.22341 0.15845,-0.25638 0.40741,-0.10636 0.48184,0.29037 0.0424,0.22587 0.21186,0.54549 0.37664,0.71027 0.25275,0.25276 0.40867,0.29961 0.99712,0.29961 0.82419,0 3.2945,-0.47906 4.71564,-0.91449 0.55343,-0.16956 1.16036,-0.32655 1.34876,-0.34885 0.39746,-0.0471 1.87311,-0.40489 3.14965,-0.76375 0.48832,-0.13727 1.04766,-0.27673 1.24299,-0.30991 0.19532,-0.0332 0.4084,-0.10098 0.47351,-0.15066 0.0651,-0.0497 0.4298,-0.15915 0.81042,-0.24327 0.54889,-0.1213 0.7402,-0.12286 0.92485,-0.008 0.12804,0.08 0.3297,0.11463 0.44813,0.077 0.13494,-0.0428 0.24236,0.002 0.28771,0.12026 0.0398,0.10373 0.1269,0.1549 0.19354,0.11371 0.0667,-0.0412 0.2521,-0.0986 0.41213,-0.12765 0.23079,-0.0418 0.27567,-0.0129 0.21703,0.13989 -0.0625,0.16275 -0.0148,0.17965 0.30714,0.10894 0.32823,-0.0721 0.39046,-0.0478 0.44878,0.17525 0.0534,0.2043 0.13655,0.24884 0.3939,0.21107 0.23347,-0.0343 0.30925,-0.004 0.2666,0.10739 -0.0433,0.11292 0.0761,0.15527 0.43769,0.15527 0.39771,0 0.50966,0.0474 0.55918,0.23675 0.0341,0.13022 0.12229,0.23692 0.19608,0.2371 0.0738,1.9e-4 0.24071,0.16259 0.37092,0.36089 0.13022,0.1983 0.40461,0.44143 0.60976,0.54029 0.20515,0.0988 0.40339,0.2694 0.44053,0.37898 0.0371,0.10958 0.25891,0.46303 0.49281,0.78544 0.2428,0.33467 0.40188,0.67566 0.37075,0.79471 -0.03,0.11468 0.0199,0.27026 0.11082,0.34574 0.0909,0.0755 0.16535,0.22461 0.16535,0.33142 0,0.1068 0.11728,0.24677 0.26063,0.31104 0.32824,0.14718 0.49305,0.75742 0.4152,1.53741 -0.042,0.42064 -0.0105,0.63676 0.10866,0.74697 0.0923,0.0853 0.14153,0.19749 0.10949,0.24933 -0.032,0.0519 -0.0865,0.3188 -0.12096,0.59323 -0.0345,0.27443 -0.14851,0.58479 -0.25341,0.68969 -0.17537,0.17536 -0.17537,0.20195 -3e-5,0.33016 0.24412,0.17851 0.2419,0.39326 -0.007,0.66821 -0.18497,0.20438 -0.18377,0.22849 0.0187,0.37656 0.20911,0.1529 0.20879,0.16854 -0.01,0.46791 -0.12423,0.17035 -0.26583,0.3114 -0.31467,0.31344 -0.0488,0.002 -0.0888,0.0868 -0.0888,0.18828 0,0.1015 0.0496,0.15391 0.1102,0.11645 0.0606,-0.0375 0.14875,-0.006 0.19586,0.0705 0.0502,0.0812 0.0346,0.10704 -0.0376,0.0625 -0.10487,-0.0648 -0.25487,0.20088 -0.31178,0.55222 -0.009,0.0541 -0.11233,0.16883 -0.23017,0.25499 -0.14329,0.10478 -0.17062,0.18363 -0.0825,0.23807 0.17366,0.10733 0.0858,0.35479 -0.12741,0.35882 -0.10215,0.002 -0.15668,0.10604 -0.13951,0.26635 0.0307,0.2864 -0.28905,0.36931 -0.52281,0.13555 -0.0702,-0.0702 -0.28061,-0.10435 -0.46759,-0.0759 -0.31956,0.0486 -0.32421,0.0571 -0.0775,0.14042 0.3247,0.10971 0.4586,0.48728 0.25838,0.72853 -0.2344,0.28243 -1.00856,0.63675 -1.39127,0.63675 -0.19096,0 -0.37605,0.0752 -0.41132,0.16713 -0.0427,0.11136 -0.33333,0.18909 -0.87092,0.23296 -0.44373,0.0362 -0.96659,0.0921 -1.16192,0.12416 -0.19532,0.0321 -0.92402,0.0898 -1.61931,0.12825 -1.41633,0.0784 -2.62135,-0.10302 -5.60182,-0.84312 -1.89792,-0.47129 -4.25112,-0.9595 -5.03112,-1.04379 -1.28046,-0.13836 -2.4967,-0.19348 -2.61781,-0.11863 -0.0722,0.0446 -0.34327,0.0969 -0.60241,0.11626 -0.54353,0.0405 -0.63015,0.0954 -0.49195,0.31147 0.15098,0.23604 0.39375,0.95929 0.39577,1.179 9.8e-4,0.10697 -0.0781,0.22516 -0.17579,0.26264 -0.0977,0.0375 -0.17757,0.14971 -0.17757,0.24942 0,0.0997 -0.056,0.18128 -0.12454,0.18128 -0.0685,0 -0.1797,0.15826 -0.24713,0.35168 -0.0674,0.19343 -0.17727,0.33992 -0.24409,0.32555 -0.0668,-0.0144 -0.22254,0.26476 -0.34603,0.6203 -0.3099,0.89219 -0.41653,0.96329 -0.64055,0.42714 -0.10297,-0.24645 -0.21731,-0.41799 -0.2541,-0.3812 -0.0368,0.0368 -0.0253,0.1624 0.0256,0.27914 0.0509,0.11675 0.0817,0.27886 0.0686,0.36025 -0.0131,0.0814 0.0418,0.14797 0.12203,0.14797 0.0802,0 0.0315,0.10654 -0.10824,0.23676 -0.13977,0.13022 -0.31532,0.23676 -0.39012,0.23676 -0.0748,0 -0.10558,0.0793 -0.0684,0.17615 0.0372,0.0969 0.0296,0.17048 -0.0169,0.16355 -0.26285,-0.0392 -0.39885,0.0484 -0.50374,0.32425 -0.0936,0.24625 -0.15077,0.28113 -0.28206,0.17217 -0.13305,-0.11042 -0.1916,-0.055 -0.30513,0.28904 -0.0773,0.23413 -0.24202,0.48909 -0.3661,0.56658 -0.12409,0.0775 -0.22561,0.20799 -0.22561,0.28999 0,0.082 -0.0959,0.1491 -0.21309,0.1491 -0.28604,0 -0.49719,0.22821 -0.49719,0.53738 0,0.15527 -0.1145,0.30544 -0.29595,0.38811 -0.16277,0.0742 -0.29595,0.2143 -0.29595,0.31141 0,0.0971 -0.15981,0.29471 -0.35513,0.43912 -0.19533,0.14441 -0.35514,0.33246 -0.35514,0.41788 0,0.0854 -0.0932,0.24926 -0.20716,0.36409 -0.11394,0.11483 -0.27261,0.35455 -0.3526,0.53271 -0.08,0.17815 -0.19985,0.32392 -0.26636,0.32392 -0.0665,0 -0.12091,0.10486 -0.12091,0.23304 0,0.14212 -0.0598,0.21009 -0.15331,0.17421 -0.0843,-0.0323 -0.27041,0.0759 -0.41354,0.24048 -0.14314,0.16461 -0.22744,0.2993 -0.18734,0.2993 0.0401,0 0.009,0.0767 -0.0686,0.17053 -0.0778,0.0938 -0.21273,0.14321 -0.29975,0.10982 -0.0911,-0.0349 -0.19218,0.0463 -0.23823,0.19139 -0.044,0.13865 -0.20863,0.301 -0.36583,0.36077 -0.1572,0.0598 -0.28582,0.18368 -0.28582,0.27536 0,0.0917 -0.1105,0.19558 -0.24555,0.2309 -0.13505,0.0353 -0.27428,0.17411 -0.3094,0.30842 -0.0351,0.13432 -0.11108,0.21504 -0.16879,0.17937 -0.0577,-0.0357 -0.10661,0.0315 -0.10868,0.14931 -0.004,0.25244 -0.28465,0.65574 -0.38551,0.55487 -0.0724,-0.0724 -0.51994,0.36488 -1.88953,1.84587 -0.43948,0.47523 -0.79965,0.79027 -0.80037,0.70009 -7.2e-4,-0.0902 -0.13776,0.009 -0.30453,0.22077 -0.16677,0.21161 -0.37026,0.38473 -0.4522,0.38473 -0.0819,0 -0.22083,0.13426 -0.30865,0.29835 -0.10855,0.20283 -0.19833,0.25967 -0.28044,0.17756 -0.18993,-0.18993 -0.31018,-0.14225 -0.31018,0.12298 0,0.13406 -0.0425,0.21748 -0.0944,0.18538 -0.13357,-0.0825 -0.29075,0.0455 -0.601,0.4897 -0.14834,0.21237 -0.31464,0.35836 -0.36955,0.32442 -0.0549,-0.0339 -0.20408,0.0708 -0.33146,0.23273 -0.12739,0.16195 -0.37137,0.34759 -0.54219,0.41253 -0.17081,0.0649 -0.31057,0.16646 -0.31057,0.22558 0,0.0591 -0.1119,0.13677 -0.24867,0.17253 -0.13677,0.0358 -0.21957,0.11211 -0.18401,0.16966 0.0678,0.10967 -0.62506,0.578 -0.78332,0.52948 -0.0503,-0.0154 -0.14228,0.10584 -0.20448,0.26944 -0.0622,0.16359 -0.30074,0.38693 -0.5301,0.49631 -0.22936,0.10937 -0.41702,0.24796 -0.41702,0.30798 0,0.06 -0.0863,0.076 -0.19183,0.0355 -0.14608,-0.056 -0.17744,-0.0185 -0.13147,0.15726 0.0607,0.23229 -0.20551,0.444 -0.32179,0.25587 -0.0334,-0.0541 -0.29234,-0.0551 -0.57536,-0.002 -0.45607,0.0852 -2.29314,0.10922 -2.37136,0.031 z m -6.31337,-1.72821 c -0.61859,-0.49757 -0.81232,-0.59053 -0.33462,-0.16056 0.26043,0.23441 0.51755,0.42699 0.57138,0.42796 0.0538,9.7e-4 -0.0527,-0.11936 -0.23676,-0.2674 z m -14.895268,-0.79625 c -0.0402,-0.0651 -0.13661,-0.11756 -0.21415,-0.11657 -0.0847,0.001 -0.0701,0.0476 0.0366,0.11657 0.22742,0.14697 0.2684,0.14697 0.17757,0 z m 42.932428,-17.42916 c -0.0879,-0.0879 -0.10325,-0.0416 -0.0518,0.15528 0.0419,0.16007 0.0955,0.21373 0.12507,0.12507 0.0285,-0.0854 -0.005,-0.21156 -0.0733,-0.28035 z M 126.54516,99.807878 c 0,-0.12495 -0.22719,-0.17744 -0.29476,-0.0681 -0.0409,0.0662 0.009,0.12031 0.1102,0.12031 0.10151,0 0.18456,-0.0235 0.18456,-0.0522 z m -6.68147,-1.55245 c 0.21667,-0.17359 0.21289,-0.17605 -0.0662,-0.0432 -0.36236,0.17257 -0.42952,0.22725 -0.27912,0.22725 0.0635,0 0.21889,-0.0828 0.34528,-0.1841 z m -4.74298,-1.94537 c 0.0415,-0.0671 -0.006,-0.087 -0.11139,-0.0465 -0.20508,0.0787 -0.24261,0.16354 -0.0723,0.16354 0.0613,0 0.14394,-0.0527 0.18372,-0.11702 z m -3.20536,-1.02432 c 0.0624,-0.16247 0.045,-0.1698 -0.10571,-0.0447 -0.20542,0.17048 -0.2268,0.23901 -0.0746,0.23901 0.0582,0 0.13927,-0.0874 0.18028,-0.19431 z m -35.143622,7.186872 c -0.03746,-0.0606 -0.02285,-0.13817 0.03247,-0.17236 0.05532,-0.0342 0.100581,0.0154 0.100581,0.1102 0,0.1996 -0.03733,0.21704 -0.133054,0.0622 z"
       id="path1"
       sodipodi:nodetypes="ccccssscsscscscsscsccsscsscsccssssscssssssssssssccsscssssccsssccscsssssscssscscsscssssssccssssssscccsssssccsscsssccsccscssssscssssssscscscsssssssssssssssccssccscscscscscscssssssscscscsccssscssscssscssssscssccssssssssssssscssssccsscsssscscssccsssssscccssssccsscccsccssscssssccssscssssssssssssssssssscsssscssssssscssccsssssscssscsssscssscscsssssccccccssssscsssccsccsssssccsccccscccsscccsscc" /></g></svg>
