
        <svg xmlns:rdf="http://www.w3.org/1999/02/22-rdf-syntax-ns#" xmlns="http://www.w3.org/2000/svg" xmlns:cc="http://creativecommons.org/ns#" xmlns:xlink="http://www.w3.org/1999/xlink" xmlns:dc="http://purl.org/dc/elements/1.1/" x="0px" y="0px" width="132" height="500" viewBox="0 0 132 500" xml:space="preserve">
            <title>Nematode</title>
            <desc xmlns:ian_image_library="https://ian.umces.edu/media-library/">
                <ian_image_library:title>Nematode</ian_image_library:title>
                <ian_image_library:descr><p>Illustration of a nematode (round worm)</p></ian_image_library:descr>
                <ian_image_library:scene>
                    <ian_image_library:contains>Animalia, Eumetazoa, Bilateria, Nematoda, round worm, nematode</ian_image_library:contains>
                    <ian_image_library:when>2011-01-18</ian_image_library:when>
                </ian_image_library:scene>
            </desc>
            <metadata id="metadata-iil-0416d99c1f23282409a193dcacc9de40">
                <rdf:RDF>
                <cc:Work
                rdf:about="">
                <dc:format>image/svg+xml</dc:format>
                <dc:type
                rdf:resource="http://purl.org/dc/dcmitype/StillImage" />
                <cc:license
                rdf:resource="http://creativecommons.org/licenses/by-sa/3.0/" />
                <dc:title>Nematode</dc:title>
                <dc:date>2011-01-18</dc:date>
                <dc:creator>
                    <cc:Agent>
                        <dc:title>Dieter Tracey</dc:title>
                    </cc:Agent>
                </dc:creator>
                <dc:rights>
                <cc:Agent>
                    <dc:title>Dieter Tracey</dc:title>
                </cc:Agent>
                </dc:rights>
                <dc:publisher>
                <cc:Agent>
                    <dc:title>Integration and Application Network</dc:title>
                </cc:Agent>
                </dc:publisher>
                <dc:identifier>https://ian.umces.edu/media-library/nematode/</dc:identifier>
                <dc:source>https://ian.umces.edu/media-library/nematode/</dc:source>
                <dc:language>en-US</dc:language>
                <dc:subject>
                <rdf:Bag>
                    <rdf:li>Animalia, Eumetazoa, Bilateria, Nematoda, round worm, nematode</rdf:li>
                </rdf:Bag>
                </dc:subject>
                <dc:coverage></dc:coverage>
                <dc:description><p>Illustration of a nematode (round worm)</p></dc:description>
                <dc:contributor>
                <cc:Agent>
                    <dc:title></dc:title>
                </cc:Agent>
                </dc:contributor>
            </cc:Work>
            <cc:License
                rdf:about="http://creativecommons.org/licenses/by-sa/3.0/">
                <cc:permits
                rdf:resource="http://creativecommons.org/ns#Reproduction" />
                <cc:permits
                rdf:resource="http://creativecommons.org/ns#Distribution" />
                <cc:requires
                rdf:resource="http://creativecommons.org/ns#Notice" />
                <cc:requires
                rdf:resource="http://creativecommons.org/ns#Attribution" />
                <cc:permits
                rdf:resource="http://creativecommons.org/ns#DerivativeWorks" />
                <cc:requires
                rdf:resource="http://creativecommons.org/ns#ShareAlike" />
            </cc:License>
            </rdf:RDF>
            </metadata>
            
<g id="ian_symbols_0310f6b2345830f469014d92c975b30f">
		<linearGradient id="ian_symbols_cabe4e5204d3b9a4cdf2ecca6b8ec6d2" gradientUnits="userSpaceOnUse" x1="7735.9995" y1="-12593.7686" x2="7735.9995" y2="-26739.293" gradientTransform="matrix(3.440000e-02 6.300000e-03 -6.300000e-03 3.440000e-02 -309.1711 874.138)">
		<stop  offset="6.740000e-02" style="stop-color:#DBD0AD"/>
		<stop  offset="0.4831" style="stop-color:#E5DAB7"/>
		<stop  offset="1" style="stop-color:#C2B587"/>
	</linearGradient>
	<path fill="url(#ian_symbols_cabe4e5204d3b9a4cdf2ecca6b8ec6d2)" d="M110.1,0.4c3.7,2-3,16-8.2,31.5c-5.2,15.6-10.2,30-6.6,48.4c3.7,18.4,3.5,32.5-0.8,49.4
		s-9.1,30.2-20.6,41.1c-11.4,10.9-18.2,15.5-21.6,33.8c-3.4,18.3-0.6,22.3,11.4,34s33.3,17.9,48.1,33.6
		c14.8,15.7,23.2,27.9,19.8,46.1c-3.4,18.3-19.1,50.2-46,62.4c-24.2,10.9-51.8,20-54.3,33.7s7.4,23.8,27,39.2
		c19.8,15.4,42.9,37.4,42.1,41.9c-0.9,4.6-5.6,4.9-9.1,4.2c-3.4-0.6-46.3-18-64-30.7s-31-30.5-26.3-55.6
		c4.6-25.1,12.1-27.3,31.5-36.7c19.4-9.4,43.7-19.1,51-27.2c7.4-8.1,15.6-20.7,13.6-35.3c-2-14.5-0.1-18.9-20.1-32
		c-20-13.1-48.1-33.6-50.3-41.1s-7.8-34.5,0.8-49.4c8.6-14.9,24.3-31.9,32.3-47.2c7.3-14,12.1-40.3,10.7-58.2
		c-1.4-18,0.9-43.5,9.2-56.1C88.1,17.6,103.7-3.1,110.1,0.4z"/>
	<path fill="#BEB495" d="M77,70.4c0.3,2.4,1.4,3,4.2,3.6c2.7,0.5,3.6,0,4.5-2.6c1.5-3.9,0-8-0.2-11.8c-0.1-1.4,0.5-4.3-1-5.3
		C79.9,51.3,76.6,68,77,70.4z"/>
	<path fill="#A69A72" d="M85.5,59.9c-1.8-0.7-1.2-5.9,0.2-6.8C87.7,52,88.5,61.1,85.5,59.9z"/>
	<path fill="#A69A72" d="M79.6,58.7c-1.5-1.3,0.9-6,2.5-6.3C84.4,52,82,60.8,79.6,58.7z"/>
	<path opacity="0.5" fill="#B78465" enable-background="new    " d="M109.1,1c3.7,0.7-4,19.3-7.3,27.4c-4.1,10-3,6.6-9.3,15.5
		c-3.3,4.7-8.4,12.6-9.1,11.4c-2.6-4.4-1-22,0.5-26.2C86.2,22.4,101.4,0.5,109.1,1z"/>
	<path fill="#B78465" d="M90,362.6c0.7-1.4,8.8-11,9.3-10.8c-0.3-0.2,9.1-12.8,10.1-13.9c1.5-2.5,2.2-6.2,4.4-9.9
		c2-3.5,2.7-9.5,2.2-14.2c1.4,0.9-1.1-4.5-1-5.5c0-0.2-2-9-3-8.5c0.4,0.2,0.9,0.3,1.3,0.1c-2.1-3.2-12.9-16.9-12.3-18.4
		c-6.2-1.5-10.2-13.2-18.5-15.2c0.5,0.1,1.5-1.9,1.4-1.5c-2.1-1.3-4.1-0.9-6.2-2c0.3-0.2,0.6-0.5,0.7-0.9c-3.3,0.6-4.4-1-5.4-2.6
		c-0.2-0.1-3.8-1.7-3.4-0.8c0.2-0.1,0.4-0.1,0.6,0c-0.3,0.1-6.1-2.2-6.3-2.3c0.3,0,0.6,0,1-0.1c-1.2-1.2-6.9-4.2-6.9-4.2
		c-1.3-0.3-8.8-4-8.1-5.4c0.4,0,1.5,1.3,2.1,1.5c-0.1-1.4-6.2-4.6-6.7-5.9c-2.7-2.1-6.2-3.1-7.8-7.8c0.9,0.8-2.8-6.7-2.3-7.7
		c1.2,1.9-0.4-2-0.7-2.2c1.2-1.7-1.6-11.2,0.7-11.7c-0.1,0.3-0.2,0.6-0.1,1c0-0.6-0.2-7.4,2-7c0.1-2.1,0.8-2.1,0.6-3.6
		c0.1,0.8,0.2,0.5,0.4-0.9c-1.1,0-1.2-0.7-0.1-3.2c0.5-0.1,0.5,0.2,0,0.8c1.2-1.2-0.4-1.3,0.3-2.3c0.2,1.8,1.5-3.3,1.7-4
		c1.7-1.8,4.7-19.6,8.4-17.6c0,0,1-2.7-0.9-0.8c0.6-1.6,5.4-9.8,6.7-10.1c0.8-0.2,9-13,8.9-11.5c1.4-1.1,0.3-2,0.2-2.1
		c-0.3-1.1,1.9-1.8,1.7-1.8c0.1,0,2,2.9,2,2.8c0-0.3-1-3.9-0.4-4.8c0,0.4,0,0.8,0,1.2c2.1-0.7,0.2-2.1,0.5-2.8
		c0.5-0.3,1.4-1.4,1-2.7c0.3,0.7,0.8,1,1.6,0.9c-0.1-0.7-0.4-1.3-1-1.7c-0.2,0.2,4.8-5.2,3.8-5c-0.1,0.6-0.5,0.9-1,1.1
		c-0.1,0,2.5-3.9,2.5-4c0,0.3,0,0.6,0,0.9c1.1-0.7,1-1.5-0.3-2.2c0.3-0.2,0.4-0.5,0.3-0.8c2.3,0.8,0.3-0.5,0.6-1
		c0.3-1,0.6-1.9,2.1-3c0.7,0.5,1.4,0.3,2,0.8c0.5-0.7-1.6-3.1-2.4-3c0-1.7,2.7-0.5,1.4-2.6c-0.5-0.3-0.8-0.2-0.9,0.4
		c-0.3-0.6-0.3-1.3-0.2-2c0.1,0.4,1.1,0.6,1.3,1.5c2.1-1.5,0.7-1.4,0.2-1.8c0.5-0.8,0.4-1.5-0.1-2.1c-0.1,0.7-0.4,1-1.1,0.9
		c-0.1-1.3,0-2,0.7-3.4c-0.1,0.8,0.1,1.4,0.6,2c-0.1-0.7-0.1-1.5,0-2.2c0.2,0,0.7-0.7,1.6-0.3c0.3-0.9,0.8-1.3,1.8-1.2
		c0,0.1-2.5-9.5-1.6-10.3c-0.1,0.9-0.6,1.2-1.4,1.1c0-0.2,1.7-1.1,0.7-1.9c0.3,1.9,2.1,0.1,2,0.1c0.1,0-0.5-8.4-0.5-9.6
		c0.2-0.3,2.9-3.8,0.2-4.5c0.9-0.2,2.1-7.2,0.4-8.5c0.6,0.7,1.1,1.5,1.7,2.2c0.2-0.6-3.3,1-0.8,1.8c0-1.1,0.9-0.8,0.9-0.8
		c0.6,0.8,1.5,6.2,1.3,7.8c-3.3-2.5,0.3,2.8,0.1,7.2c-0.4,7.3,0.2,16.1-1.4,24c-0.2-0.3-0.4-0.5-0.6-0.8c3.4,6.9-6.9,22.5-11.1,28.8
		c-6.3,9.4-11.6,17.3-16.9,25.1c0.2,0.8-8.1,12.7-6.8,14.2c1.1,1.2-6.1,22-6.3,25c-1.1,12.6,1.1,17.6,12.3,25.3
		c6.8,7.7,18.2,10.9,29.1,17.7c17.6,11,37.7,32,38.7,53.4c2.9,17.8-18.5,40.7-32.9,54.5C88.2,365.5,88.8,364,90,362.6
		C91.9,358.6,87.9,365,90,362.6z"/>
	<path fill="#B78465" d="M82.7,80.6c-0.3,0.3-0.4,1.2-1,0.6C82,81.1,82.4,80.5,82.7,80.6z"/>
	<path fill="#B78465" d="M80,104.1C80,104.1,79.2,103.4,80,104.1C80.1,104.2,79.8,104,80,104.1z"/>
	<path fill="#B78465" d="M74.7,132.2C74.3,132.5,74.2,132.5,74.7,132.2L74.7,132.2z"/>
	<path fill="#B78465" d="M34.7,225.7C34.5,224.6,34.6,225,34.7,225.7L34.7,225.7z"/>
	<path fill="#B78465" d="M66.7,258.2c0.6,0.1,0.2,0.5,0.3,0.6C66.4,258.5,67.3,258.5,66.7,258.2z"/>
	<path fill="#B78465" d="M87.5,270.2C87.4,270.3,88.2,268.6,87.5,270.2L87.5,270.2z"/>
	<path opacity="0.5" fill="#B78465" enable-background="new    " d="M75.2,374.7c-3-3.7-2.9-9.9,0.1-12.2c3-2.4,7.8-1.3,10.9,2.4
		c3,3.8,3.1,8.7,0.1,11.1C83.3,378.4,78.2,378.4,75.2,374.7z"/>
	<path opacity="0.5" fill="#B78465" enable-background="new    " d="M55.3,370.9c10.2-1.3,10.6,4.6,4.1,11.2
		c-4.1,4.2-9.5,5.9-14,11.4c-2.4,2.9,0,4.6-4,6.8c-3,1.7-7.5-0.7-11.8,2.2c-8.8,5.9-12.8,26.1-4.8,32c2.9,2.2,6,2.3,8.5,4.4
		c3,2.6,4.6,6.9,7,9.4c2,2.1,13.8,16.3,15.5,17c14,5.3,16.5,5.7,21.6,19.9c5.6,1.2,18.7,1.9,14.6,10.2c-5.3-1.1-12.5-4.2-17.3-6.8
		c-5.9-3.2-9.3-8-15.8-10.4c-16.1-5.8-25.8-16.1-40.2-24.4c-1.6-11.5-3.9-12.2-10.3-22.3c-7.7-12,1.4-16.1,3.6-28.5
		c0.9-4.9-0.5-9,3-12.6c4.1-4.1,8.9-2,13.8-3.3C39.8,384.5,44.9,372.2,55.3,370.9z"/>
</g>
</svg>
