<?xml version="1.0" encoding="UTF-8" standalone="no"?>
<!-- Created with Inkscape (http://www.inkscape.org/) -->

<svg
   width="210mm"
   height="297mm"
   viewBox="0 0 210 297"
   version="1.1"
   id="svg1"
   inkscape:version="1.4.2 (ebf0e94, 2025-05-08)"
   sodipodi:docname="colus_gracilis.svg"
   inkscape:export-filename="colus_gracilis.png"
   inkscape:export-xdpi="96"
   inkscape:export-ydpi="96"
   xmlns:inkscape="http://www.inkscape.org/namespaces/inkscape"
   xmlns:sodipodi="http://sodipodi.sourceforge.net/DTD/sodipodi-0.dtd"
   xmlns="http://www.w3.org/2000/svg"
   xmlns:svg="http://www.w3.org/2000/svg">
  <sodipodi:namedview
     id="namedview1"
     pagecolor="#ffffff"
     bordercolor="#000000"
     borderopacity="0.25"
     inkscape:showpageshadow="2"
     inkscape:pageopacity="0.0"
     inkscape:pagecheckerboard="0"
     inkscape:deskcolor="#d1d1d1"
     inkscape:document-units="mm"
     inkscape:zoom="0.70822811"
     inkscape:cx="396.76482"
     inkscape:cy="561.25984"
     inkscape:window-width="1920"
     inkscape:window-height="991"
     inkscape:window-x="-9"
     inkscape:window-y="-9"
     inkscape:window-maximized="1"
     inkscape:current-layer="layer1"
     inkscape:export-bgcolor="#ffffffff" />
  <defs
     id="defs1" />
  <g
     inkscape:label="Layer 1"
     inkscape:groupmode="layer"
     id="layer1">
    <path
       style="fill:#000000"
       d="m 97.516395,183.53289 c -3.77129,-0.0812 -3.78021,-0.0828 -4.03489,-0.7527 -0.14039,-0.36925 -0.25525,-1.12732 -0.25525,-1.6846 0,-0.55728 -0.24122,-1.79421 -0.53604,-2.74873 -0.46149,-1.49413 -0.49372,-1.91198 -0.23174,-3.00444 0.16737,-0.69791 0.58301,-1.75927 0.92365,-2.35858 0.34064,-0.5993 0.55359,-1.15541 0.4732,-1.23579 -0.30236,-0.30237 -0.46889,-2.51519 -0.35263,-4.68602 0.0662,-1.23693 0.11043,-3.97537 0.0982,-6.08542 -0.019,-3.28102 -0.12919,-4.25783 -0.76107,-6.74687 -0.40636,-1.60073 -0.96796,-3.50573 -1.248,-4.23334 -0.70362,-1.82814 -2.61181,-4.56832 -3.30545,-4.74666 -0.35967,-0.0925 -0.63647,-0.43096 -0.74077,-0.90587 -0.0916,-0.41704 -0.37324,-0.9827 -0.62587,-1.25702 -1.84108,-1.99922 -5.98234,-9.47143 -7.24173,-13.06649 -2.82758,-8.07165 -2.90196,-17.4068 -0.18633,-23.38666 0.27157,-0.59801 0.49639,-1.46865 0.49958,-1.93474 0.006,-0.9428 0.49406,-2.22435 0.95896,-2.52041 0.16655,-0.10607 0.79783,-0.99904 1.40283,-1.98437 0.605,-0.985345 1.69282,-2.597345 2.41737,-3.582225 1.24961,-1.69858 1.33017,-1.90953 1.5662,-4.10104 0.13685,-1.27069 0.42521,-2.96519 0.6408,-3.76556 0.45157,-1.67649 1.93903,-5.02651 2.92612,-6.59018 0.37228,-0.58972 0.67687,-1.24668 0.67687,-1.45991 0,-0.21324 0.32648,-0.54418 0.72552,-0.73543 0.59104,-0.28328 0.76434,-0.5925 0.93489,-1.66809 0.53436,-3.37013 0.77401,-4.30663 1.41924,-5.54612 0.38093,-0.73176 0.76658,-1.39001 0.85699,-1.46277 0.66961,-0.53884 1.34469,-2.04515 1.70214,-3.79798 0.23199,-1.13759 0.76699,-2.68318 1.18891,-3.43466 0.42191,-0.75147 0.91274,-2.02116 1.09073,-2.82152 0.38986,-1.75306 0.83183,-2.98557 1.1486,-3.20302 0.12843,-0.0882 0.30042,-0.68348 0.382205,-1.32291 0.0818,-0.63944 0.29431,-1.46027 0.4723,-1.82407 0.178,-0.3638 0.40468,-1.1897 0.50375,-1.83533 0.0991,-0.64563 0.36731,-1.56837 0.59611,-2.05052 0.35071,-0.73908 0.5572,-0.87665 1.31578,-0.87665 1.1597,0 1.75082,0.92226 2.35835,3.67953 0.24347,1.10496 0.65041,2.48526 0.90433,3.06734 0.25391,0.58209 0.61989,1.65365 0.81329,2.38125 0.1934,0.72761 0.58204,1.63883 0.86364,2.02495 0.54757,0.75079 0.9492,2.39688 0.96795,3.96717 0.006,0.53077 0.38214,1.71201 0.83511,2.62497 1.1883,2.39503 1.82225,4.39192 1.82225,5.7399 0,0.9259 0.13491,1.28339 0.63183,1.67427 0.34751,0.27335 1.00507,1.2709 1.46126,2.21678 1.41655,2.9371 1.89656,4.80508 2.06171,8.02305 0.12702,2.4751 0.23568,3.04544 0.63328,3.32392 0.26397,0.18489 0.71495,0.88443 1.00219,1.55454 0.28724,0.6701 0.88788,1.48868 1.33474,1.81906 0.46983,0.34736 0.81249,0.84121 0.81249,1.17098 0,0.31365 0.23487,1.25294 0.52193,2.0873 1.37434,3.99458 1.82863,7.117515 1.56187,10.736655 -0.16224,2.20106 -0.12357,2.61222 0.31105,3.30729 0.27298,0.43657 0.89959,1.56766 1.39248,2.51355 0.49288,0.94588 1.14597,2.13651 1.45131,2.64583 3.22835,5.38502 3.98934,7.06121 5.505,12.1256 1.39113,4.64825 1.86334,10.91009 1.06171,14.07871 -0.20102,0.79455 -0.4416,1.9209 -0.53462,2.50298 -0.15949,0.99799 -1.03129,3.25655 -1.94045,5.02708 -1.37607,2.67983 -1.82926,3.40544 -2.74931,4.40204 -0.5636,0.61048 -1.02472,1.31507 -1.02472,1.56575 0,0.25068 -1.20719,1.62985 -2.68264,3.06483 -1.47545,1.43498 -2.93396,2.89115 -3.24114,3.23595 -0.30718,0.34479 -1.39195,1.24673 -2.4106,2.0043 -2.17145,1.61492 -6.48229,5.71684 -6.48229,6.16812 0,0.18423 -0.18978,0.2441 -0.46302,0.14605 -0.25466,-0.0914 -0.38473,-0.0788 -0.28904,0.0279 0.16083,0.17943 -0.43816,1.45095 -1.85287,3.93317 -0.31354,0.55013 -0.57007,1.13607 -0.57007,1.30209 0,0.16601 -0.15917,0.48981 -0.35371,0.71955 -0.4799,0.56673 -1.45279,3.58318 -1.67237,5.1852 -0.1977,1.44236 -0.94857,2.91188 -1.69086,3.30914 -0.26488,0.14176 -0.81685,0.23152 -1.2266,0.19947 -0.40975,-0.0321 -2.445845,-0.0949 -4.524645,-0.13961 z"
       id="path1"
       inkscape:export-filename="colus_gracilis.png"
       inkscape:export-xdpi="96"
       inkscape:export-ydpi="96" />
  </g>
</svg>
