<?xml version="1.0" encoding="UTF-8" standalone="no"?>
<!-- Created with Inkscape (http://www.inkscape.org/) -->

<svg
   width="210mm"
   height="297mm"
   viewBox="0 0 210 297"
   version="1.1"
   id="svg1"
   xml:space="preserve"
   inkscape:version="1.4.2 (ebf0e94, 2025-05-08)"
   sodipodi:docname="pandalus_montagui.svg"
   xmlns:inkscape="http://www.inkscape.org/namespaces/inkscape"
   xmlns:sodipodi="http://sodipodi.sourceforge.net/DTD/sodipodi-0.dtd"
   xmlns="http://www.w3.org/2000/svg"
   xmlns:svg="http://www.w3.org/2000/svg"><sodipodi:namedview
     id="namedview1"
     pagecolor="#ffffff"
     bordercolor="#000000"
     borderopacity="0.25"
     inkscape:showpageshadow="2"
     inkscape:pageopacity="0.0"
     inkscape:pagecheckerboard="0"
     inkscape:deskcolor="#d1d1d1"
     inkscape:document-units="mm"
     inkscape:zoom="0.5007929"
     inkscape:cx="662.9487"
     inkscape:cy="484.2321"
     inkscape:window-width="1920"
     inkscape:window-height="991"
     inkscape:window-x="-9"
     inkscape:window-y="-9"
     inkscape:window-maximized="1"
     inkscape:current-layer="layer1" /><defs
     id="defs1"><inkscape:path-effect
       effect="spiro"
       id="path-effect2"
       is_visible="true"
       lpeversion="1" /></defs><g
     inkscape:label="Layer 1"
     inkscape:groupmode="layer"
     id="layer1"><path
       style="fill:#1a1a1a;stroke:#000000;stroke-width:0.0326922;-inkscape-stroke:none"
       d="m 165.79362,201.91001 c -0.3269,-0.063 -0.59619,-0.2548 -0.59841,-0.42631 -0.002,-0.18435 -0.11039,-0.14984 -0.26417,0.0844 -0.23122,0.35222 -0.28902,0.35222 -0.52024,0 -0.17394,-0.26497 -0.26146,-0.28685 -0.26416,-0.066 -0.002,0.18161 -0.18236,0.33021 -0.40029,0.33021 -0.25299,0 -0.39625,-0.25425 -0.39625,-0.70325 0,-0.38678 -0.29041,-1.19879 -0.64535,-1.80445 -0.35495,-0.60567 -0.78586,-1.68598 -0.95759,-2.40069 -0.17173,-0.71471 -0.48039,-1.56992 -0.6859,-1.90046 -0.30514,-0.49079 -0.31948,-0.90253 -0.0782,-2.2454 0.55086,-3.06652 4.81319,-15.31263 6.07255,-17.4471 l 0.58551,-0.99235 -0.59201,-1.77281 c -0.32561,-0.97505 -1.03903,-2.7238 -1.58537,-3.88613 -0.54635,-1.16232 -1.07318,-2.3747 -1.17074,-2.69417 -0.0976,-0.31947 -0.40918,-0.65443 -0.69248,-0.74434 -0.2833,-0.0899 -0.63803,-0.39319 -0.78827,-0.67393 -0.38236,-0.71444 -0.7036,-0.6376 -1.17917,0.28206 -0.24164,0.46728 -0.62006,0.79249 -0.92217,0.79249 -0.28179,0 -0.91236,0.35122 -1.40127,0.78048 -1.08557,0.95315 -4.18593,2.732 -6.02502,3.4569 -1.26049,0.49684 -1.3424,0.50137 -1.15565,0.0639 0.34457,-0.80722 0.46202,-1.92377 0.20235,-1.92377 -0.13643,0 -1.08131,0.63128 -2.09975,1.40285 -1.01843,0.77156 -2.91143,1.85662 -4.20668,2.41123 -3.43463,1.47068 -6.25276,2.92273 -7.16947,3.69408 l -0.80323,0.67588 0.0591,-0.75155 c 0.0817,-1.0383 1.97795,-3.62206 3.72842,-5.08017 0.80152,-0.66764 2.4841,-1.77651 3.73909,-2.46414 4.4725,-2.45059 10.05101,-6.2204 10.09582,-6.8225 0.008,-0.10896 -0.14971,-0.19812 -0.35069,-0.19812 -0.201,0 -0.42761,-0.23775 -0.5036,-0.52833 -0.10077,-0.38533 -0.36033,-0.52833 -0.95897,-0.52833 -0.45145,0 -1.03123,-0.13141 -1.28841,-0.29202 -0.34791,-0.21727 -1.13601,-0.18536 -3.07903,0.12467 -2.56021,0.4085 -2.63517,0.40558 -3.82149,-0.14887 -1.03532,-0.48387 -1.91574,-0.59368 -6.0971,-0.76046 -3.43474,-0.137 -5.67207,-0.36727 -7.52868,-0.77487 -2.9656,-0.65106 -5.98574,-0.6062 -9.80815,0.14571 -2.75471,0.54188 -3.21924,0.7613 -4.31026,2.03591 -1.5623,1.82519 -4.72044,3.97243 -7.24282,4.92444 -1.34615,0.50807 -2.26598,0.99863 -2.20611,1.17654 0.0628,0.18673 0.76132,0.30963 1.79988,0.31671 1.73884,0.0118 2.35137,0.19563 2.35137,0.7055 0,0.2041 -1.1508,0.24321 -3.89641,0.13241 l -3.89643,-0.15724 -3.16997,1.32985 c -1.743494,0.73142 -3.845384,1.52845 -4.670884,1.77118 -1.88038,0.5529 -2.06888,0.74055 -1.11133,1.10632 2.23066,0.85211 3.30343,0.83412 7.000044,-0.11739 1.94542,-0.50074 4.72587,-1.40641 6.17877,-2.0126 2.8874,-1.20468 4.09454,-1.52939 4.09454,-1.10138 0,0.4319 -0.82077,1.14429 -1.78029,1.5452 -0.94665,0.39554 -9.35868,2.76436 -12.027814,3.38703 -1.54815,0.36116 -1.78554,0.34588 -4.54529,-0.29241 -3.12218,-0.72212 -4.55683,-0.70599 -6.50409,0.0731 -1.08006,0.43215 -1.30037,0.79641 -0.6359,1.05139 0.2171,0.0833 0.33347,0.25059 0.2586,0.37172 0.13227,1.73741 7.19149,2.30837 11.23452,3.25567 2.877204,0.55566 2.998884,0.55148 2.829264,-0.0971 -0.11188,-0.42784 -0.008,-0.52832 0.54567,-0.52832 0.95224,0 5.12109,0.48279 7.24056,0.83853 1.38324,0.23217 1.94329,0.22297 2.58408,-0.0424 0.44993,-0.18638 0.87167,-0.28526 0.93718,-0.21975 0.0655,0.0655 -0.37217,0.63038 -0.97261,1.25527 l -1.09172,1.13616 -2.40395,-0.17695 c -1.32217,-0.0973 -4.95974,-0.45841 -8.08349,-0.80243 -3.123744,-0.34402 -6.571084,-0.70381 -7.660764,-0.79954 -2.22969,-0.19587 -5.09716,-0.9396 -8.36891,-2.17062 -0.192,-0.0722 -0.34433,0.22087 -0.39626,0.76243 l -0.0844,0.87976 -0.60036,-0.60036 c -1.026675,-1.02668 -0.962095,-0.089 0.20529,2.98093 0.8023,2.10982 1.00136,2.90499 0.76393,3.05173 -0.25073,0.15495 -0.24643,0.37868 0.0196,1.021 0.49015,1.1833 0.89326,1.33046 0.68454,0.2499 -0.15808,-0.81836 3.43447,6.2256 5.06914,9.93916 0.38374,0.87174 0.97645,1.92682 1.31714,2.34461 0.3407,0.41779 0.56664,0.81242 0.5021,0.87696 -0.0645,0.0645 -0.60291,-0.13038 -1.19638,-0.43315 -1.20848,-0.61651 -2.19132,-2.10873 -3.38939,-5.14596 -0.51962,-1.31731 -0.63087,-1.85943 -0.39755,-1.9372 0.49569,-0.16523 0.38516,-0.80894 -0.15524,-0.90414 -0.57706,-0.10164 -4.574255,-4.79913 -5.772805,-6.78416 -0.47039,-0.77906 -0.99427,-2.08668 -1.16417,-2.90581 -0.38115,-1.83757 -1.78136,-5.89667 -2.87335,-8.3296 -0.91701,-2.04307 -0.89368,-2.74889 0.0281,-0.85151 0.45761,0.9419 0.70234,1.1871 1.06874,1.0708 0.35293,-0.11201 0.47524,-0.0103 0.47524,0.3953 0,0.30037 0.11887,0.54613 0.26416,0.54613 0.14529,0 0.26416,-0.11887 0.26416,-0.26416 0,-0.14529 0.11888,-0.26417 0.26417,-0.26417 0.14529,0 0.26416,0.40904 0.26416,0.90899 0,0.84426 0.37787,1.44285 0.70458,1.11614 0.15678,-0.15679 -0.57395,-5.04402 -0.9804,-6.55696 -0.29343,-1.09225 -1.16641,-2.30126 -1.45447,-2.01431 -0.10492,0.10453 -0.0493,0.90903 0.12356,1.78777 0.27058,1.37533 0.25726,1.65478 -0.0957,2.00771 -0.37056,0.37055 -0.43825,0.33834 -0.70362,-0.33486 -0.16149,-0.40968 -0.50636,-1.59925 -0.76639,-2.64351 -0.54987,-2.20828 -0.74689,-2.52819 -2.47687,-4.02169 -0.95248,-0.82227 -1.36768,-1.03645 -1.58498,-0.81757 -0.21674,0.2183 -0.0986,0.64851 0.44774,1.63035 0.4082,0.73358 0.69545,1.38051 0.63833,1.43763 -0.0571,0.0571 -0.56941,-0.57971 -1.13842,-1.41517 -0.56902,-0.83545 -1.12373,-1.55864 -1.2327,-1.60707 -0.10897,-0.0484 -0.19812,-0.23172 -0.19812,-0.40732 0,-0.17559 -1.82148,-2.12711 -4.04772,-4.3367 -3.12276,-3.09939 -4.20369,-4.01743 -4.73023,-4.01743 -0.51999,0 -0.65372,-0.1101 -0.56161,-0.46235 0.0836,-0.31985 -0.4532,-0.97636 -1.74179,-2.13007 -1.14819,-1.028 -1.86271,-1.87344 -1.86271,-2.20403 0,-0.31414 -0.21886,-0.59354 -0.52833,-0.67446 -0.69131,-0.18078 -0.66886,-0.45636 0.066,-0.81079 0.58952,-0.28431 0.58976,-0.2868 0.0299,-0.30453 -0.31048,-0.01 -2.15303,0.38479 -4.09455,0.87695 -3.53697,0.89658 -10.51402,2.03471 -12.16191,1.98391 -0.69781,-0.0215 -0.55268,-0.10049 0.70694,-0.38472 0.87174,-0.19671 1.90604,-0.36284 2.29843,-0.36918 1.47465,-0.0238 3.44489,-0.59462 3.55856,-1.03095 0.0914,-0.35101 0.39193,-0.41597 1.57955,-0.34143 0.83908,0.0527 1.59078,-0.0321 1.75679,-0.19813 0.21078,-0.21078 0.077,-0.29246 -0.48912,-0.29857 -0.70439,-0.008 -0.73485,-0.0421 -0.31699,-0.35933 0.8489,-0.64441 0.52807,-0.95309 -0.99062,-0.95309 -2.37215,0 -1.8338,-0.66968 1.16251,-1.44611 0.92316,-0.23921 1.93081,-0.59955 2.23922,-0.80075 0.30841,-0.20121 1.39285,-0.4945 2.40989,-0.65176 4.09628,-0.63343 6.47203,-1.13098 6.47203,-1.35545 0,-0.1302 -0.26747,-0.23854 -0.59437,-0.24077 -0.46951,-0.003 -0.51274,-0.0557 -0.20578,-0.2498 0.21373,-0.13516 0.31875,-0.3156 0.23339,-0.40097 -0.0854,-0.0854 -1.95583,-0.15453 -4.15658,-0.1537 -3.35169,0.001 -3.94717,-0.0565 -3.66755,-0.35584 0.23349,-0.24995 0.51876,-0.28704 0.94914,-0.12341 0.36272,0.13791 0.79263,0.13471 1.04725,-0.008 0.35866,-0.20071 0.27668,-0.30934 -0.48321,-0.64028 l -0.91515,-0.39855 1.32083,-0.0567 c 12.541277,-1.39467 1.91525,2.6291 -0.13208,-0.90008 0,-0.23064 -0.22875,-0.40675 -0.52833,-0.40675 -0.29058,0 -0.52833,0.10501 -0.52833,0.23336 0,0.12834 -0.23775,0.29552 -0.52833,0.37151 -0.55548,0.14523 -0.75454,-0.22133 -0.21771,-0.40027 0.59627,-0.19876 -0.11467,-0.78472 -2.14105,-1.76466 -1.11818,-0.54073 -1.98971,-1.11322 -1.93672,-1.27217 0.10101,-0.30305 -0.95861,-0.57343 -7.15631,-1.82606 -2.01224,-0.4067 -3.51304,-0.78798 -3.33511,-0.84729 0.51482,-0.17161 4.82725,0.46806 8.78607,1.30325 2.00283,0.42253 4.22397,0.76824 4.93589,0.76824 1.50321,0 2.73699,-0.39826 2.59096,-0.83635 -0.16729,-0.50187 -1.896141,-7.10452 -5.2246,-7.83372 -0.36323,-0.0466 -0.8051,-0.27201 -0.98193,-0.5009 -0.32724,-0.42357 -2.31166,-1.56377 -4.10323,-2.35762 -0.59486,-0.26359 -0.99062,-0.62187 -0.99062,-0.89682 0,-0.26923 -0.96233,-1.17166 -2.33583,-2.19044 -1.2847,-0.95291 -3.51359,-2.78012 -4.95308,-4.06045 -1.43949,-1.28033 -3.06717,-2.71351 -3.61706,-3.18485 l -0.99981,-0.85699 0.73564,0.003 c 0.52408,0.002 1.57135,0.66551 3.64145,2.30717 3.08553,2.44692 5.28001,4.02949 9.44388,6.81054 1.41658,0.94614 2.5756,1.83687 2.5756,1.97942 0,0.14254 0.22039,0.25917 0.48976,0.25917 0.26936,0 0.81251,0.29912 1.207,0.66472 0.39448,0.36559 0.81351,0.60522 0.93118,0.53249 0.11767,-0.0727 0.98182,0.27527 1.92034,0.77332 1.78089,0.94507 6.41526,2.84764 7.66933,3.14853 0.39955,0.0959 0.72645,0.34808 0.72645,0.56048 0,0.2124 0.26747,0.44144 0.59437,0.50897 1.53432,0.31698 2.5652,0.47016 4.00705,0.59539 0.85994,0.0747 1.7217,0.29398 1.91503,0.48731 0.43795,0.43795 2.98581,0.77629 3.82344,0.50773 0.86652,-0.27782 2.86833,-0.32431 2.86833,-0.0666 0,0.52195 6.344361,-0.46975 8.58742,-1.78427 0.908965,-0.53269 1.351405,-0.6383 2.092015,-0.49937 0.51657,0.0969 0.87382,0.28204 0.79387,0.4114 -0.24335,0.39375 0.15951,0.82032 0.50439,0.53409 0.19735,-0.16378 0.77994,-0.16414 1.62751,-0.001 0.72609,0.13975 4.82693,0.23251 9.113,0.20611 6.958874,-0.0429 14.731114,0.25893 18.313664,0.71106 0.70128,0.0885 2.0089,0.4549 2.90581,0.81421 3.53367,1.41561 4.00215,1.4911 5.39796,0.86986 0.78435,-0.3491 2.7318,-0.74873 5.21437,-1.07003 2.17936,-0.28206 4.43949,-0.68919 5.02252,-0.90473 1.60869,-0.59471 7.62493,-1.00148 12.80144,-0.86553 4.38227,0.1151 4.76958,0.16861 7.23831,1.00016 3.36919,1.13485 5.888,2.89638 7.48099,5.23185 0.79339,1.16317 1.13771,1.94112 1.13771,2.57054 0,0.59821 0.57346,1.99551 1.70058,4.14365 0.93532,1.78259 1.86388,3.95432 2.06347,4.82606 0.22737,0.99305 0.70215,2.02925 1.27127,2.77455 1.38291,1.81099 2.77158,4.6562 3.39607,6.95811 0.30915,1.13953 0.7515,2.43817 0.98301,2.88586 0.70005,1.35375 1.86738,4.9364 2.73869,8.40528 0.45302,1.80363 0.99464,3.7887 1.20357,4.41126 0.21514,0.64106 0.37951,2.1303 0.37903,3.43414 -0.001,3.6807 -2.51195,19.94996 -3.62919,23.51821 -0.3505,1.11941 -0.53565,1.37853 -0.91429,1.27951 -0.26366,-0.069 -0.47479,0.0179 -0.47479,0.19531 0,0.17571 -0.3669,0.81839 -0.81534,1.42818 l -0.81535,1.1087 -1.76026,-0.036 c -0.96814,-0.0198 -2.02772,-0.0875 -2.35462,-0.15046 z M 85.619396,171.57896 c 0.44402,-0.22151 0.86898,-0.56343 0.94434,-0.75984 0.0861,-0.22441 0.39016,-0.30872 0.81827,-0.22688 0.50497,0.0965 0.68123,0.0197 0.68123,-0.29681 0,-0.23488 -0.18533,-0.42705 -0.41184,-0.42705 -0.22651,0 -0.33817,-0.11919 -0.24813,-0.26487 0.10886,-0.17615 0.33532,-0.17304 0.676,0.009 0.38911,0.20824 0.51231,0.1886 0.51231,-0.0817 0,-0.21965 0.93523,-0.63761 2.44352,-1.09201 5.08315,-1.53139 5.79625,-1.99521 3.92811,-2.55492 -0.92368,-0.27674 -1.33554,-0.23712 -3.23203,0.31088 -1.62676,0.47005 -2.20084,0.5459 -2.2823,0.30151 -0.12528,-0.37584 -0.8573,-0.44787 -0.8573,-0.0844 0,0.13319 0.14859,0.30211 0.33021,0.3754 0.18161,0.0733 0.0725,0.14262 -0.24256,0.15409 -0.31503,0.0115 -0.79053,0.10255 -1.05667,0.2024 -0.42464,0.15931 -0.43984,0.12738 -0.12413,-0.2608 0.37938,-0.46647 0.24242,-1.24157 -0.21939,-1.24157 -0.14985,0 -0.27246,0.17459 -0.27246,0.38796 0,0.25534 -0.15802,0.33235 -0.46229,0.22529 -0.36586,-0.12875 -0.39696,-0.092 -0.14906,0.17622 0.41354,0.44743 -0.22257,1.12858 -0.83461,0.89371 -0.24003,-0.0921 -0.56825,0.0113 -0.74608,0.23515 -0.17465,0.21979 -0.95009,0.60369 -1.723225,0.85312 -1.53287,0.49453 -1.82859,0.85878 -1.37907,1.69871 0.19712,0.36833 0.55424,0.54897 1.08529,0.54897 0.47284,0 0.855045,0.16564 0.949365,0.41143 0.0868,0.22628 0.32085,0.34889 0.52003,0.27245 0.20546,-0.0788 0.36216,0.0289 0.36216,0.24898 0,0.47856 0.001,0.47854 0.99031,-0.0148 z m -1.7828,-5.91784 c 0,-0.13464 -0.20803,-0.29634 -0.462285,-0.35935 -0.343,-0.085 -0.24076,-0.19891 0.396245,-0.44146 1.04973,-0.39969 1.09968,-0.73192 0.13208,-0.8785 -0.399545,-0.0605 -0.13208,-0.11847 0.59437,-0.12877 0.72646,-0.0103 1.17224,0.0412 0.99063,0.11451 -0.58677,0.23677 -0.35058,0.61755 0.38304,0.61755 0.55474,0 0.6428,0.0704 0.39624,0.31699 -0.43143,0.43144 -0.39841,0.73966 0.0793,0.73966 0.21794,0 0.39625,-0.18532 0.39625,-0.41183 0,-0.22651 0.11887,-0.33837 0.26416,-0.24858 0.14529,0.0898 0.26417,0.0374 0.26417,-0.11649 0,-0.15386 0.11887,-0.27975 0.26416,-0.27975 0.14529,0 0.26417,0.17831 0.26417,0.39624 0,0.51573 0.2556,0.49268 1.01512,-0.0915 l 0.61886,-0.47602 -0.6849,-0.44877 c -0.48323,-0.31662 -0.68492,-0.68034 -0.68492,-1.23517 0,-0.43252 -0.0892,-0.7864 -0.19814,-0.7864 -0.10897,0 -2.15955,-0.29635 -4.556835,-0.65856 l -4.3587,-0.65856 -0.46229,0.55574 c -0.56824,0.68311 -0.61451,1.21657 -0.066,0.76138 0.2896,-0.24035 0.39625,-0.24601 0.39625,-0.021 0,0.52863 2.42336,2.92683 2.95754,2.92683 0.30529,0 0.43539,0.11712 0.32626,0.2937 -0.0998,0.16154 -0.0177,0.39747 0.18253,0.52429 0.48421,0.30669 1.552785,0.30248 1.552785,-0.006 z m -8.76732,-5.72857 c 0,-0.0778 0.135605,-5.15248 0.196095,-6.1782 0.0893,-1.51408 0.3407,-1.86322 2.33913,-3.24834 0.37662,-0.26104 0.68477,-0.57345 0.68477,-0.69425 0,-0.35564 -2.91282,-1.28838 -4.53748,-1.45299 -1.83373,-0.18579 -5.18781,0.25385 -6.80944,0.89256 -0.66049,0.26015 -1.43864,0.5655 -1.72922,0.67855 -0.3725,0.14494 -0.25652,-0.0823 0.39319,-0.77023 0.7645,-0.80952 0.85453,-1.01816 0.52833,-1.22439 -0.61635,-0.38969 -4.48843,-0.32621 -4.48445,0.0735 0.006,0.60317 2.05323,2.58082 2.49579,2.41099 0.3034,-0.11642 0.36809,-0.0421 0.24422,0.28072 -0.10425,0.27167 0.0633,0.6858 0.4393,1.08607 0.74634,0.79444 0.46841,0.83738 -0.58143,0.0898 -1.91509,-1.36366 -0.76297,0.085 3.37017,4.2376 4.05534,4.07445 7.451025,3.81861 7.451025,3.81861 z m 9.42773,-2.07598 c 0.58117,-0.20937 1.76991,-0.38771 2.64165,-0.39631 1.12403,-0.0111 1.46976,-0.0901 1.18875,-0.27172 -0.30142,-0.19479 -0.19407,-0.25704 0.44855,-0.26012 0.82601,-0.004 0.83857,-0.0219 0.56487,-0.80704 -0.2023,-0.58032 -0.65632,-0.9914 -1.6373,-1.48245 -0.74655,-0.3737 -1.73577,-0.96335 -2.19827,-1.31032 -0.4625,-0.34698 -0.96244,-0.63086 -1.11097,-0.63086 -0.14854,0 -0.70799,-0.29719 -1.243225,-0.66041 -1.27826,-0.86745 -1.95115,-0.83428 -4.45692,0.21969 -2.20133,0.92592 -2.70853,1.42801 -1.70708,1.6899 l 0.60272,0.15761 -0.58103,0.21494 c -0.45327,0.16768 -0.5273,0.31795 -0.33667,0.68346 0.1344,0.2577 0.34519,0.94403 0.46843,1.52519 l 0.22406,1.05666 2.18789,0.16262 c 1.20333,0.0894 2.26329,0.23804 2.35546,0.33021 0.28185,0.28185 1.47622,0.17988 2.589085,-0.22105 z m -21.529395,-7.13391 c 0,-0.55595 -2.72346,-2.6665 -2.87074,-2.22468 -0.11379,0.34137 2.1747,2.61478 2.63213,2.61478 0.13124,0 0.23861,-0.17555 0.23861,-0.3901 z"
       id="path12"
       sodipodi:nodetypes="scsscssssscscsssssssssssssscssscsssssssssssscsscsssssssssssssssscssccsssccssscssssssssssssssssssssssssssssssssssssssscssssscsccssscscsscsscscsssscsssssssssssssssccssssscscscssssssssscsssssssssssssssscsssscssscssssscsssssssssssssssssssscscccsssscssssssssscsssscsssssscccsssssscssssscscssscssssssscsssccssssss" /><path
       style="fill:#1a1a1a;stroke:#000000;stroke-width:0.0154452;-inkscape-stroke:none"
       d=""
       id="path7"
       transform="scale(0.26458333)" /></g></svg>
